%
M48
M72
T01C0.0079
T02C0.0157
T03C0.0400
T04C0.0866
%
T01
X14569Y7892
X15002Y7892
X19135Y9861
X19135Y10294
X19569Y10570
X19569Y9861
X20513Y10963
X20828Y10963
X20750Y11514
X20120Y11829
X19923Y11514
X21931Y11121
X22403Y11042
X22876Y11672
X22876Y11987
X23899Y11436
X24450Y10570
X25946Y11554
X24923Y12144
X24135Y12617
X23820Y12617
X23506Y12617
X23820Y12932
X23506Y13247
X23506Y13562
X23820Y13562
X23820Y13877
X24135Y13877
X24135Y14192
X24135Y14507
X23506Y14507
X23506Y14192
X23191Y14507
X22561Y14822
X22246Y14822
X21931Y14822
X21616Y14822
X21261Y14822
X20868Y14231
X20553Y14231
X20198Y13562
X19332Y13877
X19372Y13010
X17009Y12617
X16773Y12066
X16340Y12597
X16104Y12853
X13820Y13247
X13506Y13719
X12551Y14449
X12078Y14449
X11881Y14213
X11842Y13938
X12039Y13544
X10937Y13662
X10435Y13719
X10897Y14016
X10267Y14449
X10789Y14940
X11488Y15198
X11734Y15924
X12551Y15158
X13682Y15099
X14962Y16199
X12757Y16396
X12433Y12520
X12315Y12205
X12482Y11711
X12757Y11554
X13033Y11711
X13348Y11554
X12206Y11554
X11931Y11711
X11655Y11554
X11380Y11711
X11252Y12560
X10858Y12599
X19529Y15530
X20513Y15688
X22561Y15136
X22876Y15136
X23072Y15924
X23663Y16081
X24135Y15136
X24450Y15136
X25317Y14546
X24883Y14270
X25041Y13798
X25238Y13325
X25986Y12853
X26970Y12971
X26970Y12577
X27324Y12302
X28112Y11436
X27482Y10885
X28033Y10451
X27757Y10255
X27482Y10058
X31576Y10530
X32167Y10333
X31813Y11003
X31970Y12223
X33968Y12558
X34441Y12577
X34874Y12479
X34883Y11514
X35198Y11436
X35592Y11436
X35986Y11436
X36419Y11711
X36616Y11987
X36104Y12223
X36094Y12538
X37324Y13129
X37128Y13719
X36133Y14408
X35700Y14448
X35700Y14152
X35307Y14211
X35336Y13660
X34608Y13601
X34332Y13719
X33683Y14172
X34007Y14605
X35110Y15156
X35356Y15885
X34529Y16199
X34529Y16672
X36173Y15156
X37315Y15077
X30907Y15373
X30592Y15373
X28191Y14270
X27167Y13483
X26734Y14034
X26261Y13719
X24135Y13247
X23191Y13247
X22876Y13247
X22876Y13562
X22876Y12932
X22876Y12617
X22561Y12932
X22246Y12617
X21931Y12617
X21931Y12932
X21931Y13877
X21931Y14192
X22246Y14192
X22561Y14192
X21616Y13877
X26025Y15294
X27994Y15924
X27994Y16514
X25710Y16908
X23387Y18325
X22403Y17420
X20002Y17617
X19529Y17617
X29175Y12381
X22994Y8995
X23466Y8955
X23466Y8640
X21458Y8955
X36773Y11436
X37167Y11436
X37561Y11436
T02
X38387Y11908
X40277Y11751
X40671Y11357
X37521Y8719
X36734Y8719
X35946Y8719
X32600Y8010
X31065Y8877
X31065Y9270
X28112Y9270
X27718Y9270
X26498Y9388
X26498Y10570
X24135Y9979
X23309Y7814
X18545Y10255
X20080Y12262
X15317Y10373
X14057Y11042
X13702Y12144
X14883Y13325
X16458Y15570
X15868Y16554
X14411Y17814
X14017Y17814
X12679Y17814
X12285Y17814
X12128Y18444
X12128Y19034
X12128Y19625
X10198Y17814
X9805Y17814
X8191Y18444
X8191Y19034
X8191Y19625
X10710Y16396
X11104Y16396
X10277Y16042
X7206Y16081
X6813Y15688
X7206Y11751
X6813Y11357
X9450Y10255
X9450Y9782
X9962Y8404
X10750Y8404
X11537Y8404
X10159Y11160
X21183Y18444
X22403Y19940
X23584Y20018
X24529Y19782
X27600Y19940
X31813Y19625
X31813Y19034
X31813Y18444
X33033Y17814
X33427Y17814
X35750Y18444
X35750Y19034
X35750Y19625
X36340Y17814
X36734Y17814
X35946Y16948
X37275Y16219
X38112Y17853
X40277Y16475
X40671Y16081
X33860Y16396
X33259Y14566
X33259Y14133
X31104Y12774
X29765Y12696
X33939Y11357
X30198Y16790
X30198Y17184
X30198Y17577
X26065Y16869
X16419Y18916
T03
X17009Y17278
X17009Y16278
X16986Y8404
X17986Y8404
X18986Y8404
X19986Y8404
X20986Y8404
X15986Y8404
T04
X6222Y8010
X8191Y13916
X16065Y13916
X18033Y19822
X29844Y19822
X31813Y13916
X39687Y13916
X41655Y8010
X41655Y19822
X6222Y19822
M30
