G75*
%MOIN*%
%OFA0B0*%
%FSLAX25Y25*%
%IPPOS*%
%LPD*%
%AMOC8*
5,1,8,0,0,1.08239X$1,22.5*
%
%ADD10C,0.00787*%
%ADD11C,0.00600*%
%ADD12C,0.00300*%
%ADD13C,0.00394*%
%ADD14R,0.03150X0.05906*%
%ADD15R,0.03150X0.06299*%
%ADD16C,0.00200*%
%ADD17C,0.00500*%
%ADD18C,0.00400*%
%ADD19R,0.00886X0.00984*%
%ADD20C,0.00800*%
%ADD21C,0.01000*%
%ADD22C,0.01200*%
%ADD23R,0.03400X0.03000*%
%ADD24C,0.01433*%
D10*
X0087811Y0105696D02*
X0154740Y0105696D01*
X0154740Y0172625D01*
X0087811Y0172625D01*
X0087811Y0105696D01*
X0324031Y0105696D02*
X0390961Y0105696D01*
X0390961Y0172625D01*
X0324031Y0172625D01*
X0324031Y0105696D01*
D11*
X0335242Y0082873D02*
X0334174Y0081806D01*
X0334174Y0077536D01*
X0335242Y0076468D01*
X0337377Y0076468D01*
X0338444Y0077536D01*
X0338444Y0081806D01*
X0337377Y0082873D01*
X0335242Y0082873D01*
X0340620Y0082873D02*
X0340620Y0078603D01*
X0342755Y0076468D01*
X0344890Y0078603D01*
X0344890Y0082873D01*
X0347065Y0082873D02*
X0350268Y0082873D01*
X0351335Y0081806D01*
X0351335Y0079671D01*
X0350268Y0078603D01*
X0347065Y0078603D01*
X0347065Y0076468D02*
X0347065Y0082873D01*
X0353511Y0082873D02*
X0356713Y0082873D01*
X0357781Y0081806D01*
X0357781Y0079671D01*
X0356713Y0078603D01*
X0353511Y0078603D01*
X0355646Y0078603D02*
X0357781Y0076468D01*
X0359956Y0077536D02*
X0361024Y0076468D01*
X0363159Y0076468D01*
X0364226Y0077536D01*
X0364226Y0081806D01*
X0363159Y0082873D01*
X0361024Y0082873D01*
X0359956Y0081806D01*
X0359956Y0077536D01*
X0353511Y0076468D02*
X0353511Y0082873D01*
X0372847Y0080738D02*
X0374982Y0076468D01*
X0377117Y0080738D01*
X0379292Y0080738D02*
X0381428Y0082873D01*
X0381428Y0076468D01*
X0383563Y0076468D02*
X0379292Y0076468D01*
X0385738Y0076468D02*
X0386806Y0076468D01*
X0386806Y0077536D01*
X0385738Y0077536D01*
X0385738Y0076468D01*
X0388961Y0076468D02*
X0393231Y0076468D01*
X0391096Y0076468D02*
X0391096Y0082873D01*
X0388961Y0080738D01*
X0283128Y0157182D02*
X0276746Y0157182D01*
X0276746Y0157555D01*
X0276746Y0160725D02*
X0276746Y0161099D01*
X0276746Y0164466D02*
X0276746Y0164839D01*
X0276746Y0168009D02*
X0276746Y0168382D01*
X0283128Y0168382D01*
X0283128Y0168009D01*
X0283128Y0164839D02*
X0283128Y0160725D01*
X0283128Y0157555D02*
X0283128Y0157182D01*
D12*
X0296294Y0154253D02*
X0296294Y0153285D01*
X0296778Y0152802D01*
X0298713Y0152802D01*
X0296778Y0154737D01*
X0298713Y0154737D01*
X0299196Y0154253D01*
X0299196Y0153285D01*
X0298713Y0152802D01*
X0297745Y0151790D02*
X0297745Y0149855D01*
X0296294Y0151306D01*
X0299196Y0151306D01*
X0298713Y0148844D02*
X0299196Y0148360D01*
X0299196Y0147392D01*
X0298713Y0146909D01*
X0296778Y0146909D01*
X0296294Y0147392D01*
X0296294Y0148360D01*
X0296778Y0148844D01*
X0296294Y0154253D02*
X0296778Y0154737D01*
X0300360Y0156449D02*
X0303263Y0156449D01*
X0303263Y0158384D01*
X0302779Y0159395D02*
X0303263Y0159879D01*
X0303263Y0160846D01*
X0302779Y0161330D01*
X0302295Y0161330D01*
X0301811Y0160846D01*
X0301811Y0159395D01*
X0302779Y0159395D01*
X0301811Y0159395D02*
X0300844Y0160363D01*
X0300360Y0161330D01*
X0286917Y0169735D02*
X0286917Y0170219D01*
X0286434Y0170702D01*
X0284982Y0170702D01*
X0284982Y0169735D01*
X0285466Y0169251D01*
X0286434Y0169251D01*
X0286917Y0169735D01*
X0285950Y0171670D02*
X0284982Y0170702D01*
X0285950Y0171670D02*
X0286917Y0172154D01*
X0283971Y0172154D02*
X0283971Y0169735D01*
X0283487Y0169251D01*
X0282520Y0169251D01*
X0282036Y0169735D01*
X0282036Y0172154D01*
X0283058Y0178433D02*
X0283058Y0181335D01*
X0284510Y0181335D01*
X0284993Y0180852D01*
X0284993Y0179884D01*
X0284510Y0179400D01*
X0283058Y0179400D01*
X0284026Y0179400D02*
X0284993Y0178433D01*
X0286005Y0178917D02*
X0286489Y0178433D01*
X0287456Y0178433D01*
X0287940Y0178917D01*
X0287940Y0179400D01*
X0287456Y0179884D01*
X0286972Y0179884D01*
X0287456Y0179884D02*
X0287940Y0180368D01*
X0287940Y0180852D01*
X0287456Y0181335D01*
X0286489Y0181335D01*
X0286005Y0180852D01*
X0288952Y0180852D02*
X0288952Y0180368D01*
X0289435Y0179884D01*
X0290886Y0179884D01*
X0290886Y0178917D02*
X0290886Y0180852D01*
X0290403Y0181335D01*
X0289435Y0181335D01*
X0288952Y0180852D01*
X0288952Y0178917D02*
X0289435Y0178433D01*
X0290403Y0178433D01*
X0290886Y0178917D01*
X0282937Y0188523D02*
X0280034Y0188523D01*
X0280034Y0189974D01*
X0280518Y0190458D01*
X0281485Y0190458D01*
X0281969Y0189974D01*
X0281969Y0188523D01*
X0282937Y0191469D02*
X0281969Y0192437D01*
X0282937Y0193404D01*
X0280034Y0193404D01*
X0280034Y0194416D02*
X0280034Y0195867D01*
X0280518Y0196351D01*
X0281485Y0196351D01*
X0281969Y0195867D01*
X0281969Y0194416D01*
X0281969Y0195383D02*
X0282937Y0196351D01*
X0282937Y0194416D02*
X0280034Y0194416D01*
X0280034Y0191469D02*
X0282937Y0191469D01*
X0271976Y0187398D02*
X0271493Y0187882D01*
X0270525Y0187882D01*
X0270041Y0187398D01*
X0271976Y0187398D02*
X0271976Y0186914D01*
X0270041Y0184979D01*
X0271976Y0184979D01*
X0269030Y0184979D02*
X0267095Y0184979D01*
X0267095Y0187882D01*
X0243173Y0181319D02*
X0243173Y0180351D01*
X0242689Y0179868D01*
X0242689Y0178856D02*
X0240270Y0178856D01*
X0240754Y0179868D02*
X0240270Y0180351D01*
X0240270Y0181319D01*
X0240754Y0181802D01*
X0241238Y0181802D01*
X0241722Y0181319D01*
X0242205Y0181802D01*
X0242689Y0181802D01*
X0243173Y0181319D01*
X0241722Y0181319D02*
X0241722Y0180835D01*
X0242689Y0178856D02*
X0243173Y0178372D01*
X0243173Y0177405D01*
X0242689Y0176921D01*
X0240270Y0176921D01*
X0236162Y0177932D02*
X0235678Y0177449D01*
X0234711Y0177449D01*
X0234227Y0177932D01*
X0233216Y0177449D02*
X0231281Y0177449D01*
X0231281Y0180351D01*
X0234227Y0179867D02*
X0234711Y0180351D01*
X0235678Y0180351D01*
X0236162Y0179867D01*
X0236162Y0179384D01*
X0235678Y0178900D01*
X0236162Y0178416D01*
X0236162Y0177932D01*
X0235678Y0178900D02*
X0235195Y0178900D01*
X0246126Y0168798D02*
X0246126Y0166863D01*
X0246126Y0167830D02*
X0243223Y0167830D01*
X0244191Y0166863D01*
X0243707Y0165851D02*
X0244674Y0165851D01*
X0245158Y0165368D01*
X0245158Y0163916D01*
X0246126Y0163916D02*
X0243223Y0163916D01*
X0243223Y0165368D01*
X0243707Y0165851D01*
X0245158Y0164884D02*
X0246126Y0165851D01*
X0236734Y0160233D02*
X0236734Y0159749D01*
X0236250Y0159265D01*
X0235283Y0159265D01*
X0234799Y0159749D01*
X0234799Y0160233D01*
X0235283Y0160717D01*
X0236250Y0160717D01*
X0236734Y0160233D01*
X0236250Y0159265D02*
X0236734Y0158782D01*
X0236734Y0158298D01*
X0236250Y0157814D01*
X0235283Y0157814D01*
X0234799Y0158298D01*
X0234799Y0158782D01*
X0235283Y0159265D01*
X0233787Y0159749D02*
X0233787Y0160233D01*
X0233304Y0160717D01*
X0232336Y0160717D01*
X0231852Y0160233D01*
X0230841Y0160233D02*
X0230357Y0160717D01*
X0229390Y0160717D01*
X0228906Y0160233D01*
X0228906Y0158298D01*
X0229390Y0157814D01*
X0230357Y0157814D01*
X0230841Y0158298D01*
X0231852Y0157814D02*
X0233787Y0159749D01*
X0233787Y0157814D02*
X0231852Y0157814D01*
X0227285Y0158298D02*
X0227285Y0160233D01*
X0226801Y0160717D01*
X0225834Y0160717D01*
X0225350Y0160233D01*
X0225350Y0159749D01*
X0225834Y0159265D01*
X0227285Y0159265D01*
X0227285Y0158298D02*
X0226801Y0157814D01*
X0225834Y0157814D01*
X0225350Y0158298D01*
X0224339Y0157814D02*
X0222404Y0157814D01*
X0224339Y0159749D01*
X0224339Y0160233D01*
X0223855Y0160717D01*
X0222887Y0160717D01*
X0222404Y0160233D01*
X0221392Y0160233D02*
X0220908Y0160717D01*
X0219941Y0160717D01*
X0219457Y0160233D01*
X0219457Y0158298D01*
X0219941Y0157814D01*
X0220908Y0157814D01*
X0221392Y0158298D01*
X0217295Y0169428D02*
X0217779Y0169912D01*
X0217779Y0170879D01*
X0217295Y0171363D01*
X0217295Y0172375D02*
X0217779Y0172858D01*
X0217779Y0173826D01*
X0217295Y0174310D01*
X0216812Y0174310D01*
X0216328Y0173826D01*
X0216328Y0173342D01*
X0216328Y0173826D02*
X0215844Y0174310D01*
X0215360Y0174310D01*
X0214877Y0173826D01*
X0214877Y0172858D01*
X0215360Y0172375D01*
X0215360Y0171363D02*
X0214877Y0170879D01*
X0214877Y0169912D01*
X0215360Y0169428D01*
X0217295Y0169428D01*
X0217295Y0175321D02*
X0217779Y0175805D01*
X0217779Y0176772D01*
X0217295Y0177256D01*
X0216812Y0177256D01*
X0216328Y0176772D01*
X0216328Y0176289D01*
X0216328Y0176772D02*
X0215844Y0177256D01*
X0215360Y0177256D01*
X0214877Y0176772D01*
X0214877Y0175805D01*
X0215360Y0175321D01*
X0214936Y0177842D02*
X0216871Y0179777D01*
X0216871Y0180261D01*
X0216387Y0180745D01*
X0215420Y0180745D01*
X0214936Y0180261D01*
X0213924Y0180261D02*
X0213924Y0179777D01*
X0213440Y0179294D01*
X0213924Y0178810D01*
X0213924Y0178326D01*
X0213440Y0177842D01*
X0212473Y0177842D01*
X0211989Y0178326D01*
X0210978Y0178326D02*
X0210494Y0177842D01*
X0209526Y0177842D01*
X0209043Y0178326D01*
X0209043Y0180261D01*
X0209526Y0180745D01*
X0210494Y0180745D01*
X0210978Y0180261D01*
X0211989Y0180261D02*
X0212473Y0180745D01*
X0213440Y0180745D01*
X0213924Y0180261D01*
X0213440Y0179294D02*
X0212957Y0179294D01*
X0214936Y0177842D02*
X0216871Y0177842D01*
X0204654Y0184873D02*
X0204170Y0184389D01*
X0203202Y0184389D01*
X0202719Y0184873D01*
X0202719Y0185840D02*
X0203686Y0186324D01*
X0204170Y0186324D01*
X0204654Y0185840D01*
X0204654Y0184873D01*
X0202719Y0185840D02*
X0202719Y0187291D01*
X0204654Y0187291D01*
X0201707Y0184389D02*
X0199772Y0184389D01*
X0199772Y0187291D01*
X0195839Y0173122D02*
X0195355Y0173122D01*
X0194871Y0172639D01*
X0194871Y0171187D01*
X0195839Y0171187D01*
X0196322Y0171671D01*
X0196322Y0172639D01*
X0195839Y0173122D01*
X0193904Y0172155D02*
X0194871Y0171187D01*
X0194387Y0170176D02*
X0194871Y0169692D01*
X0195355Y0170176D01*
X0195839Y0170176D01*
X0196322Y0169692D01*
X0196322Y0168725D01*
X0195839Y0168241D01*
X0196322Y0167229D02*
X0195355Y0166262D01*
X0195355Y0166746D02*
X0195355Y0165294D01*
X0196322Y0165294D02*
X0193420Y0165294D01*
X0193420Y0166746D01*
X0193904Y0167229D01*
X0194871Y0167229D01*
X0195355Y0166746D01*
X0193904Y0168241D02*
X0193420Y0168725D01*
X0193420Y0169692D01*
X0193904Y0170176D01*
X0194387Y0170176D01*
X0194871Y0169692D02*
X0194871Y0169208D01*
X0193904Y0172155D02*
X0193420Y0173122D01*
X0178606Y0171355D02*
X0175703Y0171355D01*
X0175703Y0170388D02*
X0175703Y0172322D01*
X0175703Y0169376D02*
X0175703Y0167441D01*
X0178606Y0167441D01*
X0178606Y0169376D01*
X0177155Y0168408D02*
X0177155Y0167441D01*
X0177638Y0166429D02*
X0178122Y0166429D01*
X0178606Y0165946D01*
X0178606Y0164978D01*
X0178122Y0164494D01*
X0177155Y0164978D02*
X0177155Y0165946D01*
X0177638Y0166429D01*
X0176187Y0166429D02*
X0175703Y0165946D01*
X0175703Y0164978D01*
X0176187Y0164494D01*
X0176671Y0164494D01*
X0177155Y0164978D01*
X0178606Y0163483D02*
X0178606Y0161548D01*
X0175703Y0161548D01*
X0175703Y0163483D01*
X0177155Y0162515D02*
X0177155Y0161548D01*
X0177155Y0160536D02*
X0177638Y0160053D01*
X0177638Y0158601D01*
X0178606Y0158601D02*
X0175703Y0158601D01*
X0175703Y0160053D01*
X0176187Y0160536D01*
X0177155Y0160536D01*
X0177638Y0159569D02*
X0178606Y0160536D01*
X0164433Y0161942D02*
X0161530Y0161942D01*
X0162498Y0162909D01*
X0161530Y0163877D01*
X0164433Y0163877D01*
X0163949Y0164888D02*
X0164433Y0165372D01*
X0164433Y0166339D01*
X0163949Y0166823D01*
X0162014Y0166823D01*
X0161530Y0166339D01*
X0161530Y0165372D01*
X0162014Y0164888D01*
X0163949Y0164888D01*
X0164433Y0167835D02*
X0164433Y0169286D01*
X0163949Y0169770D01*
X0162014Y0169770D01*
X0161530Y0169286D01*
X0161530Y0167835D01*
X0164433Y0167835D01*
X0164433Y0170781D02*
X0164433Y0172716D01*
X0162981Y0171749D02*
X0162981Y0170781D01*
X0161530Y0170781D02*
X0164433Y0170781D01*
X0161530Y0170781D02*
X0161530Y0172716D01*
X0151695Y0169288D02*
X0151695Y0168804D01*
X0151211Y0168320D01*
X0151695Y0167837D01*
X0151695Y0167353D01*
X0151211Y0166869D01*
X0150243Y0166869D01*
X0149760Y0167353D01*
X0148748Y0167353D02*
X0148264Y0166869D01*
X0147297Y0166869D01*
X0146813Y0167353D01*
X0145802Y0166869D02*
X0144834Y0167837D01*
X0145318Y0167837D02*
X0143867Y0167837D01*
X0143867Y0166869D02*
X0143867Y0169772D01*
X0145318Y0169772D01*
X0145802Y0169288D01*
X0145802Y0168320D01*
X0145318Y0167837D01*
X0144746Y0166178D02*
X0145230Y0165694D01*
X0145230Y0164727D01*
X0144746Y0164243D01*
X0143295Y0164243D01*
X0144262Y0164243D02*
X0145230Y0163275D01*
X0146241Y0163759D02*
X0146725Y0163275D01*
X0147692Y0163275D01*
X0148176Y0163759D01*
X0148176Y0165694D01*
X0147692Y0166178D01*
X0146725Y0166178D01*
X0146241Y0165694D01*
X0146241Y0165210D01*
X0146725Y0164727D01*
X0148176Y0164727D01*
X0149188Y0165210D02*
X0149188Y0165694D01*
X0149671Y0166178D01*
X0150639Y0166178D01*
X0151123Y0165694D01*
X0151123Y0165210D01*
X0150639Y0164727D01*
X0149671Y0164727D01*
X0149188Y0165210D01*
X0149671Y0164727D02*
X0149188Y0164243D01*
X0149188Y0163759D01*
X0149671Y0163275D01*
X0150639Y0163275D01*
X0151123Y0163759D01*
X0151123Y0164243D01*
X0150639Y0164727D01*
X0148748Y0167353D02*
X0148748Y0167837D01*
X0148264Y0168320D01*
X0147781Y0168320D01*
X0148264Y0168320D02*
X0148748Y0168804D01*
X0148748Y0169288D01*
X0148264Y0169772D01*
X0147297Y0169772D01*
X0146813Y0169288D01*
X0149760Y0169288D02*
X0150243Y0169772D01*
X0151211Y0169772D01*
X0151695Y0169288D01*
X0151211Y0168320D02*
X0150727Y0168320D01*
X0144746Y0166178D02*
X0143295Y0166178D01*
X0143295Y0163275D01*
X0143741Y0157590D02*
X0143741Y0155655D01*
X0142289Y0157106D01*
X0145192Y0157106D01*
X0144708Y0154643D02*
X0143741Y0154643D01*
X0143257Y0154160D01*
X0143257Y0153676D01*
X0143741Y0152708D01*
X0142289Y0152708D01*
X0142289Y0154643D01*
X0144708Y0154643D02*
X0145192Y0154160D01*
X0145192Y0153192D01*
X0144708Y0152708D01*
X0144708Y0151697D02*
X0145192Y0151213D01*
X0145192Y0150246D01*
X0144708Y0149762D01*
X0142773Y0149762D01*
X0142289Y0150246D01*
X0142289Y0151213D01*
X0142773Y0151697D01*
X0139660Y0148560D02*
X0139660Y0146625D01*
X0139660Y0147593D02*
X0142563Y0147593D01*
X0142563Y0145614D02*
X0139660Y0145614D01*
X0141111Y0145614D02*
X0141111Y0143679D01*
X0141111Y0142667D02*
X0141111Y0141700D01*
X0141111Y0142667D02*
X0142079Y0142667D01*
X0142563Y0142184D01*
X0142563Y0141216D01*
X0142079Y0140732D01*
X0140144Y0140732D01*
X0139660Y0141216D01*
X0139660Y0142184D01*
X0140144Y0142667D01*
X0139660Y0143679D02*
X0142563Y0143679D01*
X0142563Y0139736D02*
X0142563Y0138768D01*
X0142563Y0139252D02*
X0139660Y0139252D01*
X0139660Y0138768D02*
X0139660Y0139736D01*
X0140144Y0137757D02*
X0141111Y0137757D01*
X0141595Y0137273D01*
X0141595Y0135822D01*
X0141595Y0136789D02*
X0142563Y0137757D01*
X0142563Y0135822D02*
X0139660Y0135822D01*
X0139660Y0137273D01*
X0140144Y0137757D01*
X0143046Y0134810D02*
X0143046Y0132875D01*
X0142079Y0131863D02*
X0142563Y0131380D01*
X0142563Y0130412D01*
X0142079Y0129929D01*
X0142079Y0128917D02*
X0142563Y0128433D01*
X0142563Y0127466D01*
X0142079Y0126982D01*
X0141111Y0126982D02*
X0140628Y0127949D01*
X0140628Y0128433D01*
X0141111Y0128917D01*
X0142079Y0128917D01*
X0141111Y0126982D02*
X0139660Y0126982D01*
X0139660Y0128917D01*
X0140144Y0129929D02*
X0139660Y0130412D01*
X0139660Y0131380D01*
X0140144Y0131863D01*
X0140628Y0131863D01*
X0141111Y0131380D01*
X0141595Y0131863D01*
X0142079Y0131863D01*
X0141111Y0131380D02*
X0141111Y0130896D01*
X0141595Y0125970D02*
X0141111Y0125487D01*
X0141111Y0124035D01*
X0142079Y0124035D01*
X0142563Y0124519D01*
X0142563Y0125487D01*
X0142079Y0125970D01*
X0141595Y0125970D01*
X0140144Y0125003D02*
X0141111Y0124035D01*
X0141111Y0123024D02*
X0142079Y0123024D01*
X0142563Y0122540D01*
X0142563Y0121573D01*
X0142079Y0121089D01*
X0141111Y0121089D02*
X0140628Y0122056D01*
X0140628Y0122540D01*
X0141111Y0123024D01*
X0139660Y0123024D02*
X0139660Y0121089D01*
X0141111Y0121089D01*
X0141595Y0120077D02*
X0139660Y0120077D01*
X0139660Y0118142D02*
X0141595Y0118142D01*
X0142563Y0119110D01*
X0141595Y0120077D01*
X0142079Y0117131D02*
X0140144Y0117131D01*
X0139660Y0116647D01*
X0139660Y0115680D01*
X0140144Y0115196D01*
X0142079Y0115196D01*
X0142563Y0115680D01*
X0142563Y0116647D01*
X0142079Y0117131D01*
X0140144Y0125003D02*
X0139660Y0125970D01*
X0162586Y0107910D02*
X0164037Y0107910D01*
X0164521Y0107426D01*
X0164521Y0106459D01*
X0164037Y0105975D01*
X0162586Y0105975D01*
X0162586Y0105008D02*
X0162586Y0107910D01*
X0163554Y0105975D02*
X0164521Y0105008D01*
X0165533Y0105491D02*
X0166016Y0105008D01*
X0166984Y0105008D01*
X0167468Y0105491D01*
X0167468Y0105975D01*
X0166984Y0106459D01*
X0166500Y0106459D01*
X0166984Y0106459D02*
X0167468Y0106943D01*
X0167468Y0107426D01*
X0166984Y0107910D01*
X0166016Y0107910D01*
X0165533Y0107426D01*
X0168479Y0107426D02*
X0168479Y0106943D01*
X0168963Y0106459D01*
X0169930Y0106459D01*
X0170414Y0105975D01*
X0170414Y0105491D01*
X0169930Y0105008D01*
X0168963Y0105008D01*
X0168479Y0105491D01*
X0168479Y0105975D01*
X0168963Y0106459D01*
X0169930Y0106459D02*
X0170414Y0106943D01*
X0170414Y0107426D01*
X0169930Y0107910D01*
X0168963Y0107910D01*
X0168479Y0107426D01*
X0176366Y0107910D02*
X0176366Y0105008D01*
X0176366Y0105975D02*
X0177817Y0105975D01*
X0178301Y0106459D01*
X0178301Y0107426D01*
X0177817Y0107910D01*
X0176366Y0107910D01*
X0177333Y0105975D02*
X0178301Y0105008D01*
X0179312Y0105491D02*
X0179796Y0105008D01*
X0180763Y0105008D01*
X0181247Y0105491D01*
X0181247Y0105975D01*
X0180763Y0106459D01*
X0180280Y0106459D01*
X0180763Y0106459D02*
X0181247Y0106943D01*
X0181247Y0107426D01*
X0180763Y0107910D01*
X0179796Y0107910D01*
X0179312Y0107426D01*
X0182259Y0107910D02*
X0184194Y0107910D01*
X0184194Y0107426D01*
X0182259Y0105491D01*
X0182259Y0105008D01*
X0156813Y0094091D02*
X0156813Y0093607D01*
X0156329Y0093124D01*
X0155361Y0093124D01*
X0154878Y0093607D01*
X0154878Y0094091D01*
X0155361Y0094575D01*
X0156329Y0094575D01*
X0156813Y0094091D01*
X0156329Y0093124D02*
X0156813Y0092640D01*
X0156813Y0092156D01*
X0156329Y0091672D01*
X0155361Y0091672D01*
X0154878Y0092156D01*
X0154878Y0092640D01*
X0155361Y0093124D01*
X0153866Y0093607D02*
X0151931Y0091672D01*
X0153866Y0091672D01*
X0153866Y0093607D02*
X0153866Y0094091D01*
X0153382Y0094575D01*
X0152415Y0094575D01*
X0151931Y0094091D01*
X0150920Y0094091D02*
X0150920Y0093124D01*
X0150436Y0092640D01*
X0148985Y0092640D01*
X0149952Y0092640D02*
X0150920Y0091672D01*
X0148985Y0091672D02*
X0148985Y0094575D01*
X0150436Y0094575D01*
X0150920Y0094091D01*
X0147561Y0094091D02*
X0145626Y0092156D01*
X0145626Y0091672D01*
X0144614Y0091672D02*
X0142679Y0091672D01*
X0144614Y0093607D01*
X0144614Y0094091D01*
X0144130Y0094575D01*
X0143163Y0094575D01*
X0142679Y0094091D01*
X0141668Y0094091D02*
X0141668Y0093124D01*
X0141184Y0092640D01*
X0139733Y0092640D01*
X0140700Y0092640D02*
X0141668Y0091672D01*
X0139733Y0091672D02*
X0139733Y0094575D01*
X0141184Y0094575D01*
X0141668Y0094091D01*
X0145626Y0094575D02*
X0147561Y0094575D01*
X0147561Y0094091D01*
X0180481Y0076768D02*
X0180481Y0074833D01*
X0180964Y0074349D01*
X0181932Y0074349D01*
X0182416Y0074833D01*
X0182416Y0075801D01*
X0181448Y0075801D01*
X0180481Y0076768D02*
X0180964Y0077252D01*
X0181932Y0077252D01*
X0182416Y0076768D01*
X0183427Y0077252D02*
X0184878Y0077252D01*
X0185362Y0076768D01*
X0185362Y0075801D01*
X0184878Y0075317D01*
X0183427Y0075317D01*
X0183427Y0074349D02*
X0183427Y0077252D01*
X0186374Y0077252D02*
X0187341Y0077252D01*
X0186857Y0077252D02*
X0186857Y0074349D01*
X0186374Y0074349D02*
X0187341Y0074349D01*
X0188338Y0074833D02*
X0188822Y0074349D01*
X0189789Y0074349D01*
X0190273Y0074833D01*
X0190273Y0076768D01*
X0189789Y0077252D01*
X0188822Y0077252D01*
X0188338Y0076768D01*
X0188338Y0074833D01*
X0213158Y0091475D02*
X0213158Y0094378D01*
X0214609Y0094378D01*
X0215093Y0093894D01*
X0215093Y0092927D01*
X0214609Y0092443D01*
X0213158Y0092443D01*
X0214125Y0092443D02*
X0215093Y0091475D01*
X0216104Y0091475D02*
X0218039Y0093410D01*
X0218039Y0093894D01*
X0217556Y0094378D01*
X0216588Y0094378D01*
X0216104Y0093894D01*
X0216104Y0091475D02*
X0218039Y0091475D01*
X0219051Y0091959D02*
X0219535Y0091475D01*
X0220502Y0091475D01*
X0220986Y0091959D01*
X0220986Y0093894D01*
X0220502Y0094378D01*
X0219535Y0094378D01*
X0219051Y0093894D01*
X0219051Y0093410D01*
X0219535Y0092927D01*
X0220986Y0092927D01*
X0223394Y0092443D02*
X0224845Y0092443D01*
X0225329Y0092927D01*
X0225329Y0093894D01*
X0224845Y0094378D01*
X0223394Y0094378D01*
X0223394Y0091475D01*
X0224362Y0092443D02*
X0225329Y0091475D01*
X0226341Y0091959D02*
X0226824Y0091475D01*
X0227792Y0091475D01*
X0228276Y0091959D01*
X0228276Y0092443D01*
X0227792Y0092927D01*
X0227308Y0092927D01*
X0227792Y0092927D02*
X0228276Y0093410D01*
X0228276Y0093894D01*
X0227792Y0094378D01*
X0226824Y0094378D01*
X0226341Y0093894D01*
X0229287Y0093894D02*
X0229771Y0094378D01*
X0230738Y0094378D01*
X0231222Y0093894D01*
X0229287Y0091959D01*
X0229771Y0091475D01*
X0230738Y0091475D01*
X0231222Y0091959D01*
X0231222Y0093894D01*
X0229287Y0093894D02*
X0229287Y0091959D01*
X0248591Y0104361D02*
X0249075Y0103877D01*
X0250042Y0103877D01*
X0250526Y0104361D01*
X0251537Y0104361D02*
X0252021Y0103877D01*
X0252989Y0103877D01*
X0253472Y0104361D01*
X0253472Y0104845D01*
X0252989Y0105328D01*
X0251537Y0105328D01*
X0251537Y0104361D01*
X0251537Y0105328D02*
X0252505Y0106296D01*
X0253472Y0106780D01*
X0254484Y0105328D02*
X0256419Y0105328D01*
X0255935Y0103877D02*
X0255935Y0106780D01*
X0254484Y0105328D01*
X0250526Y0106296D02*
X0250042Y0106780D01*
X0249075Y0106780D01*
X0248591Y0106296D01*
X0248591Y0104361D01*
X0259179Y0096437D02*
X0259179Y0095469D01*
X0259663Y0094986D01*
X0260147Y0094986D01*
X0260630Y0095469D01*
X0260630Y0096921D01*
X0259663Y0096921D02*
X0259179Y0096437D01*
X0259663Y0096921D02*
X0261598Y0096921D01*
X0262081Y0096437D01*
X0262081Y0095469D01*
X0261598Y0094986D01*
X0261598Y0093974D02*
X0259179Y0093974D01*
X0259179Y0092039D02*
X0261598Y0092039D01*
X0262081Y0092523D01*
X0262081Y0093490D01*
X0261598Y0093974D01*
X0272985Y0116543D02*
X0273952Y0116543D01*
X0274436Y0117027D01*
X0275448Y0116543D02*
X0277383Y0118478D01*
X0277383Y0118962D01*
X0276899Y0119446D01*
X0275931Y0119446D01*
X0275448Y0118962D01*
X0274436Y0118962D02*
X0273952Y0119446D01*
X0272985Y0119446D01*
X0272501Y0118962D01*
X0272501Y0117027D01*
X0272985Y0116543D01*
X0275448Y0116543D02*
X0277383Y0116543D01*
X0292114Y0130295D02*
X0292597Y0129811D01*
X0293565Y0129811D01*
X0294049Y0130295D01*
X0295060Y0130295D02*
X0295544Y0129811D01*
X0296511Y0129811D01*
X0296995Y0130295D01*
X0296995Y0130778D01*
X0296511Y0131262D01*
X0296028Y0131262D01*
X0296511Y0131262D02*
X0296995Y0131746D01*
X0296995Y0132230D01*
X0296511Y0132713D01*
X0295544Y0132713D01*
X0295060Y0132230D01*
X0294049Y0132230D02*
X0293565Y0132713D01*
X0292597Y0132713D01*
X0292114Y0132230D01*
X0292114Y0130295D01*
X0298007Y0130295D02*
X0298007Y0130778D01*
X0298490Y0131262D01*
X0299458Y0131262D01*
X0299942Y0130778D01*
X0299942Y0130295D01*
X0299458Y0129811D01*
X0298490Y0129811D01*
X0298007Y0130295D01*
X0298490Y0131262D02*
X0298007Y0131746D01*
X0298007Y0132230D01*
X0298490Y0132713D01*
X0299458Y0132713D01*
X0299942Y0132230D01*
X0299942Y0131746D01*
X0299458Y0131262D01*
X0310045Y0117590D02*
X0310045Y0115655D01*
X0311496Y0115655D01*
X0311013Y0116622D01*
X0311013Y0117106D01*
X0311496Y0117590D01*
X0312464Y0117590D01*
X0312948Y0117106D01*
X0312948Y0116139D01*
X0312464Y0115655D01*
X0312464Y0114643D02*
X0310045Y0114643D01*
X0310045Y0112708D02*
X0312464Y0112708D01*
X0312948Y0113192D01*
X0312948Y0114160D01*
X0312464Y0114643D01*
X0336897Y0117007D02*
X0337381Y0116523D01*
X0338348Y0116523D01*
X0338832Y0117007D01*
X0339844Y0117975D02*
X0341779Y0117975D01*
X0342790Y0118458D02*
X0343274Y0117975D01*
X0344725Y0117975D01*
X0344725Y0118942D02*
X0344241Y0119426D01*
X0343274Y0119426D01*
X0342790Y0118942D01*
X0342790Y0118458D01*
X0342790Y0117007D02*
X0343274Y0116523D01*
X0344241Y0116523D01*
X0344725Y0117007D01*
X0344725Y0118942D01*
X0341295Y0119426D02*
X0341295Y0116523D01*
X0339844Y0117975D02*
X0341295Y0119426D01*
X0338832Y0118942D02*
X0338348Y0119426D01*
X0337381Y0119426D01*
X0336897Y0118942D01*
X0336897Y0117007D01*
X0336390Y0126909D02*
X0336874Y0127392D01*
X0336874Y0128360D01*
X0336390Y0128844D01*
X0336390Y0129855D02*
X0336874Y0130339D01*
X0336874Y0131306D01*
X0336390Y0131790D01*
X0335422Y0131790D01*
X0334939Y0131306D01*
X0334939Y0130823D01*
X0335422Y0129855D01*
X0333971Y0129855D01*
X0333971Y0131790D01*
X0334455Y0132802D02*
X0333971Y0133285D01*
X0333971Y0134253D01*
X0334455Y0134737D01*
X0336390Y0132802D01*
X0336874Y0133285D01*
X0336874Y0134253D01*
X0336390Y0134737D01*
X0334455Y0134737D01*
X0334455Y0132802D02*
X0336390Y0132802D01*
X0334455Y0128844D02*
X0333971Y0128360D01*
X0333971Y0127392D01*
X0334455Y0126909D01*
X0336390Y0126909D01*
X0376491Y0126685D02*
X0376491Y0124750D01*
X0377942Y0124750D01*
X0377458Y0125718D01*
X0377458Y0126202D01*
X0377942Y0126685D01*
X0378910Y0126685D01*
X0379393Y0126202D01*
X0379393Y0125234D01*
X0378910Y0124750D01*
X0378426Y0123739D02*
X0379393Y0122771D01*
X0378426Y0121804D01*
X0376491Y0121804D01*
X0376975Y0120792D02*
X0376491Y0120309D01*
X0376491Y0119341D01*
X0376975Y0118857D01*
X0378910Y0118857D01*
X0379393Y0119341D01*
X0379393Y0120309D01*
X0378910Y0120792D01*
X0376975Y0120792D01*
X0376491Y0123739D02*
X0378426Y0123739D01*
X0377942Y0127697D02*
X0378910Y0127697D01*
X0379393Y0128181D01*
X0379393Y0129148D01*
X0378910Y0129632D01*
X0378426Y0129632D01*
X0377942Y0129148D01*
X0377942Y0127697D01*
X0376975Y0128664D01*
X0376491Y0129632D01*
X0376491Y0130643D02*
X0377942Y0130643D01*
X0377458Y0131611D01*
X0377458Y0132095D01*
X0377942Y0132578D01*
X0378910Y0132578D01*
X0379393Y0132095D01*
X0379393Y0131127D01*
X0378910Y0130643D01*
X0376491Y0130643D02*
X0376491Y0132578D01*
X0376975Y0133590D02*
X0376491Y0134074D01*
X0376491Y0135041D01*
X0376975Y0135525D01*
X0377458Y0135525D01*
X0377942Y0135041D01*
X0378426Y0135525D01*
X0378910Y0135525D01*
X0379393Y0135041D01*
X0379393Y0134074D01*
X0378910Y0133590D01*
X0377942Y0134557D02*
X0377942Y0135041D01*
X0379877Y0136536D02*
X0379877Y0138471D01*
X0379393Y0139483D02*
X0379393Y0141418D01*
X0379393Y0142429D02*
X0379393Y0144364D01*
X0379393Y0145376D02*
X0376491Y0145376D01*
X0376491Y0147311D01*
X0376491Y0148323D02*
X0376491Y0150258D01*
X0376491Y0149290D02*
X0379393Y0149290D01*
X0377942Y0146343D02*
X0377942Y0145376D01*
X0376491Y0144364D02*
X0376491Y0142429D01*
X0379393Y0142429D01*
X0377942Y0142429D02*
X0377942Y0143397D01*
X0376491Y0139483D02*
X0379393Y0139483D01*
X0380075Y0158601D02*
X0380075Y0159085D01*
X0382010Y0161020D01*
X0382010Y0161504D01*
X0380075Y0161504D01*
X0378579Y0161504D02*
X0378579Y0158601D01*
X0379063Y0160053D02*
X0377128Y0160053D01*
X0378579Y0161504D01*
X0376116Y0161020D02*
X0375633Y0161504D01*
X0374665Y0161504D01*
X0374181Y0161020D01*
X0374181Y0159085D01*
X0374665Y0158601D01*
X0375633Y0158601D01*
X0376116Y0159085D01*
X0371380Y0159085D02*
X0370896Y0158601D01*
X0369928Y0158601D01*
X0369445Y0159085D01*
X0369445Y0159569D01*
X0369928Y0160053D01*
X0370896Y0160053D01*
X0371380Y0159569D01*
X0371380Y0159085D01*
X0370896Y0160053D02*
X0371380Y0160536D01*
X0371380Y0161020D01*
X0370896Y0161504D01*
X0369928Y0161504D01*
X0369445Y0161020D01*
X0369445Y0160536D01*
X0369928Y0160053D01*
X0368433Y0160053D02*
X0366498Y0160053D01*
X0367949Y0161504D01*
X0367949Y0158601D01*
X0365487Y0159085D02*
X0365003Y0158601D01*
X0364035Y0158601D01*
X0363552Y0159085D01*
X0363552Y0161020D01*
X0364035Y0161504D01*
X0365003Y0161504D01*
X0365487Y0161020D01*
X0364293Y0161841D02*
X0363809Y0161357D01*
X0362842Y0161357D01*
X0362358Y0161841D01*
X0362358Y0162809D02*
X0363325Y0163292D01*
X0363809Y0163292D01*
X0364293Y0162809D01*
X0364293Y0161841D01*
X0362358Y0162809D02*
X0362358Y0164260D01*
X0364293Y0164260D01*
X0363809Y0164507D02*
X0363809Y0167409D01*
X0362358Y0165958D01*
X0364293Y0165958D01*
X0361346Y0165474D02*
X0361346Y0164991D01*
X0360863Y0164507D01*
X0359895Y0164507D01*
X0359411Y0164991D01*
X0359895Y0164260D02*
X0360863Y0164260D01*
X0361346Y0163776D01*
X0361346Y0163292D01*
X0360863Y0162809D01*
X0361346Y0162325D01*
X0361346Y0161841D01*
X0360863Y0161357D01*
X0359895Y0161357D01*
X0359411Y0161841D01*
X0358400Y0161357D02*
X0357432Y0162325D01*
X0357916Y0162325D02*
X0356465Y0162325D01*
X0356465Y0161357D02*
X0356465Y0164260D01*
X0357916Y0164260D01*
X0358400Y0163776D01*
X0358400Y0162809D01*
X0357916Y0162325D01*
X0359411Y0163776D02*
X0359895Y0164260D01*
X0358400Y0164507D02*
X0357432Y0165474D01*
X0357916Y0165474D02*
X0356465Y0165474D01*
X0356465Y0164507D02*
X0356465Y0167409D01*
X0357916Y0167409D01*
X0358400Y0166926D01*
X0358400Y0165958D01*
X0357916Y0165474D01*
X0359411Y0166926D02*
X0359895Y0167409D01*
X0360863Y0167409D01*
X0361346Y0166926D01*
X0361346Y0166442D01*
X0360863Y0165958D01*
X0361346Y0165474D01*
X0360863Y0165958D02*
X0360379Y0165958D01*
X0360379Y0162809D02*
X0360863Y0162809D01*
X0369645Y0179142D02*
X0370612Y0179142D01*
X0371096Y0179625D01*
X0372107Y0180593D02*
X0374042Y0180593D01*
X0375054Y0181560D02*
X0375538Y0182044D01*
X0376505Y0182044D01*
X0376989Y0181560D01*
X0376989Y0181077D01*
X0375054Y0179142D01*
X0376989Y0179142D01*
X0373559Y0179142D02*
X0373559Y0182044D01*
X0372107Y0180593D01*
X0371096Y0181560D02*
X0370612Y0182044D01*
X0369645Y0182044D01*
X0369161Y0181560D01*
X0369161Y0179625D01*
X0369645Y0179142D01*
X0378137Y0184232D02*
X0378621Y0183748D01*
X0379588Y0183748D01*
X0380072Y0184232D01*
X0381084Y0185199D02*
X0383019Y0185199D01*
X0384030Y0185199D02*
X0385965Y0185199D01*
X0385481Y0183748D02*
X0385481Y0186650D01*
X0384030Y0185199D01*
X0382535Y0183748D02*
X0382535Y0186650D01*
X0381084Y0185199D01*
X0380072Y0186167D02*
X0379588Y0186650D01*
X0378621Y0186650D01*
X0378137Y0186167D01*
X0378137Y0184232D01*
X0389483Y0198168D02*
X0392385Y0198168D01*
X0392385Y0200103D01*
X0392385Y0201115D02*
X0391902Y0201115D01*
X0389967Y0203050D01*
X0389483Y0203050D01*
X0389483Y0201115D01*
X0364870Y0202772D02*
X0362935Y0200837D01*
X0362935Y0200353D01*
X0361924Y0200837D02*
X0361924Y0203256D01*
X0362935Y0203256D02*
X0364870Y0203256D01*
X0364870Y0202772D01*
X0361924Y0200837D02*
X0361440Y0200353D01*
X0360472Y0200353D01*
X0359989Y0200837D01*
X0359989Y0203256D01*
X0353212Y0202566D02*
X0353212Y0201599D01*
X0352728Y0201115D01*
X0352245Y0201115D01*
X0351761Y0201599D01*
X0351761Y0202566D01*
X0352245Y0203050D01*
X0352728Y0203050D01*
X0353212Y0202566D01*
X0351761Y0202566D02*
X0351277Y0203050D01*
X0350793Y0203050D01*
X0350310Y0202566D01*
X0350310Y0201599D01*
X0350793Y0201115D01*
X0351277Y0201115D01*
X0351761Y0201599D01*
X0353212Y0200103D02*
X0353212Y0198168D01*
X0350310Y0198168D01*
X0345718Y0186650D02*
X0346201Y0186167D01*
X0346201Y0185683D01*
X0345718Y0185199D01*
X0346201Y0184715D01*
X0346201Y0184232D01*
X0345718Y0183748D01*
X0344750Y0183748D01*
X0344266Y0184232D01*
X0345234Y0185199D02*
X0345718Y0185199D01*
X0345718Y0186650D02*
X0344750Y0186650D01*
X0344266Y0186167D01*
X0343255Y0185199D02*
X0341320Y0185199D01*
X0342771Y0186650D01*
X0342771Y0183748D01*
X0340308Y0184232D02*
X0339825Y0183748D01*
X0338857Y0183748D01*
X0338373Y0184232D01*
X0338373Y0186167D01*
X0338857Y0186650D01*
X0339825Y0186650D01*
X0340308Y0186167D01*
X0327383Y0182044D02*
X0325448Y0182044D01*
X0325448Y0180593D01*
X0326415Y0181077D01*
X0326899Y0181077D01*
X0327383Y0180593D01*
X0327383Y0179625D01*
X0326899Y0179142D01*
X0325931Y0179142D01*
X0325448Y0179625D01*
X0324436Y0180593D02*
X0322501Y0180593D01*
X0323952Y0182044D01*
X0323952Y0179142D01*
X0321490Y0179625D02*
X0321006Y0179142D01*
X0320038Y0179142D01*
X0319555Y0179625D01*
X0319555Y0181560D01*
X0320038Y0182044D01*
X0321006Y0182044D01*
X0321490Y0181560D01*
X0317182Y0163102D02*
X0319117Y0161167D01*
X0319601Y0161167D01*
X0319117Y0160155D02*
X0319601Y0159671D01*
X0319601Y0158704D01*
X0319117Y0158220D01*
X0319117Y0157209D02*
X0319601Y0156725D01*
X0319601Y0155757D01*
X0319117Y0155274D01*
X0317182Y0155274D01*
X0316699Y0155757D01*
X0316699Y0156725D01*
X0317182Y0157209D01*
X0317182Y0158220D02*
X0316699Y0158704D01*
X0316699Y0159671D01*
X0317182Y0160155D01*
X0317666Y0160155D01*
X0318150Y0159671D01*
X0318634Y0160155D01*
X0319117Y0160155D01*
X0318150Y0159671D02*
X0318150Y0159188D01*
X0316699Y0161167D02*
X0316699Y0163102D01*
X0317182Y0163102D01*
X0331659Y0159075D02*
X0331659Y0158107D01*
X0332143Y0157623D01*
X0332143Y0156612D02*
X0332627Y0156612D01*
X0333111Y0156128D01*
X0333594Y0156612D01*
X0334078Y0156612D01*
X0334562Y0156128D01*
X0334562Y0155161D01*
X0334078Y0154677D01*
X0334562Y0153665D02*
X0333594Y0152698D01*
X0333594Y0153182D02*
X0333594Y0151730D01*
X0334562Y0151730D02*
X0331659Y0151730D01*
X0331659Y0153182D01*
X0332143Y0153665D01*
X0333111Y0153665D01*
X0333594Y0153182D01*
X0332143Y0154677D02*
X0331659Y0155161D01*
X0331659Y0156128D01*
X0332143Y0156612D01*
X0333111Y0156128D02*
X0333111Y0155644D01*
X0334562Y0157623D02*
X0332627Y0159558D01*
X0332143Y0159558D01*
X0331659Y0159075D01*
X0334562Y0159558D02*
X0334562Y0157623D01*
X0270907Y0168022D02*
X0270907Y0169957D01*
X0270423Y0170441D01*
X0269456Y0170441D01*
X0268972Y0169957D01*
X0268972Y0169473D01*
X0269456Y0168990D01*
X0270907Y0168990D01*
X0270907Y0168022D02*
X0270423Y0167538D01*
X0269456Y0167538D01*
X0268972Y0168022D01*
X0267961Y0168022D02*
X0267477Y0167538D01*
X0266509Y0167538D01*
X0266026Y0168022D01*
X0265014Y0168022D02*
X0264530Y0167538D01*
X0263563Y0167538D01*
X0263079Y0168022D01*
X0263079Y0169957D01*
X0263563Y0170441D01*
X0264530Y0170441D01*
X0265014Y0169957D01*
X0266026Y0169957D02*
X0266509Y0170441D01*
X0267477Y0170441D01*
X0267961Y0169957D01*
X0267961Y0169473D01*
X0267477Y0168990D01*
X0267961Y0168506D01*
X0267961Y0168022D01*
X0267477Y0168990D02*
X0266993Y0168990D01*
X0264877Y0156409D02*
X0264877Y0154474D01*
X0264877Y0155441D02*
X0261974Y0155441D01*
X0262942Y0154474D01*
X0254106Y0143004D02*
X0254590Y0142521D01*
X0254590Y0141553D01*
X0254106Y0141069D01*
X0253139Y0141069D02*
X0252655Y0142037D01*
X0252655Y0142521D01*
X0253139Y0143004D01*
X0254106Y0143004D01*
X0253139Y0141069D02*
X0251688Y0141069D01*
X0251688Y0143004D01*
X0252171Y0140058D02*
X0252655Y0140058D01*
X0253139Y0139574D01*
X0253623Y0140058D01*
X0254106Y0140058D01*
X0254590Y0139574D01*
X0254590Y0138606D01*
X0254106Y0138123D01*
X0254106Y0137111D02*
X0254590Y0136627D01*
X0254590Y0135660D01*
X0254106Y0135176D01*
X0252171Y0135176D01*
X0251688Y0135660D01*
X0251688Y0136627D01*
X0252171Y0137111D01*
X0252171Y0138123D02*
X0251688Y0138606D01*
X0251688Y0139574D01*
X0252171Y0140058D01*
X0253139Y0139574D02*
X0253139Y0139090D01*
X0208578Y0135846D02*
X0208094Y0136330D01*
X0207610Y0136330D01*
X0207126Y0135846D01*
X0207126Y0134395D01*
X0208094Y0134395D01*
X0208578Y0134879D01*
X0208578Y0135846D01*
X0207126Y0134395D02*
X0206159Y0135363D01*
X0205675Y0136330D01*
X0206159Y0133384D02*
X0205675Y0132900D01*
X0205675Y0131932D01*
X0206159Y0131449D01*
X0208094Y0131449D01*
X0208578Y0131932D01*
X0208578Y0132900D01*
X0208094Y0133384D01*
X0199866Y0132684D02*
X0199866Y0131717D01*
X0199382Y0131233D01*
X0199382Y0130221D02*
X0199866Y0129738D01*
X0199866Y0128770D01*
X0199382Y0128286D01*
X0197447Y0128286D01*
X0196963Y0128770D01*
X0196963Y0129738D01*
X0197447Y0130221D01*
X0197447Y0131233D02*
X0196963Y0131717D01*
X0196963Y0132684D01*
X0197447Y0133168D01*
X0197931Y0133168D01*
X0198415Y0132684D01*
X0198898Y0133168D01*
X0199382Y0133168D01*
X0199866Y0132684D01*
X0198415Y0132684D02*
X0198415Y0132200D01*
X0198415Y0134180D02*
X0198415Y0135631D01*
X0198898Y0136114D01*
X0199382Y0136114D01*
X0199866Y0135631D01*
X0199866Y0134663D01*
X0199382Y0134180D01*
X0198415Y0134180D01*
X0197447Y0135147D01*
X0196963Y0136114D01*
X0195585Y0135453D02*
X0192683Y0135453D01*
X0194134Y0134001D01*
X0194134Y0135936D01*
X0195102Y0132990D02*
X0192683Y0132990D01*
X0192683Y0131055D02*
X0195102Y0131055D01*
X0195585Y0131539D01*
X0195585Y0132506D01*
X0195102Y0132990D01*
X0200203Y0142066D02*
X0202138Y0142066D01*
X0202622Y0142550D01*
X0202622Y0143517D01*
X0202138Y0144001D01*
X0202138Y0145013D02*
X0202622Y0145496D01*
X0202622Y0146464D01*
X0202138Y0146948D01*
X0201170Y0146948D01*
X0200687Y0146464D01*
X0200687Y0145980D01*
X0201170Y0145013D01*
X0199719Y0145013D01*
X0199719Y0146948D01*
X0200203Y0144001D02*
X0199719Y0143517D01*
X0199719Y0142550D01*
X0200203Y0142066D01*
X0196767Y0144734D02*
X0196767Y0145701D01*
X0196283Y0146185D01*
X0195315Y0147197D02*
X0195315Y0149132D01*
X0194832Y0150143D02*
X0193864Y0151111D01*
X0196767Y0151111D01*
X0196767Y0152078D02*
X0196767Y0150143D01*
X0196767Y0148648D02*
X0193864Y0148648D01*
X0195315Y0147197D01*
X0194348Y0146185D02*
X0193864Y0145701D01*
X0193864Y0144734D01*
X0194348Y0144250D01*
X0196283Y0144250D01*
X0196767Y0144734D01*
X0164433Y0158995D02*
X0161530Y0158995D01*
X0161530Y0160446D01*
X0162014Y0160930D01*
X0162981Y0160930D01*
X0163465Y0160446D01*
X0163465Y0158995D01*
X0128073Y0159479D02*
X0127589Y0158995D01*
X0126621Y0158995D01*
X0126138Y0159479D01*
X0126138Y0160446D02*
X0127105Y0160930D01*
X0127589Y0160930D01*
X0128073Y0160446D01*
X0128073Y0159479D01*
X0126138Y0160446D02*
X0126138Y0161898D01*
X0128073Y0161898D01*
X0125126Y0161898D02*
X0123191Y0161898D01*
X0123191Y0160446D01*
X0124158Y0160930D01*
X0124642Y0160930D01*
X0125126Y0160446D01*
X0125126Y0159479D01*
X0124642Y0158995D01*
X0123675Y0158995D01*
X0123191Y0159479D01*
X0122179Y0159479D02*
X0121696Y0158995D01*
X0120728Y0158995D01*
X0120244Y0159479D01*
X0120244Y0161414D01*
X0120728Y0161898D01*
X0121696Y0161898D01*
X0122179Y0161414D01*
X0114687Y0161898D02*
X0112752Y0161898D01*
X0112752Y0160446D01*
X0113719Y0160930D01*
X0114203Y0160930D01*
X0114687Y0160446D01*
X0114687Y0159479D01*
X0114203Y0158995D01*
X0113235Y0158995D01*
X0112752Y0159479D01*
X0111740Y0159479D02*
X0111740Y0159963D01*
X0111256Y0160446D01*
X0109805Y0160446D01*
X0109805Y0159479D01*
X0110289Y0158995D01*
X0111256Y0158995D01*
X0111740Y0159479D01*
X0110773Y0161414D02*
X0109805Y0160446D01*
X0110773Y0161414D02*
X0111740Y0161898D01*
X0108794Y0161414D02*
X0108310Y0161898D01*
X0107342Y0161898D01*
X0106859Y0161414D01*
X0106859Y0159479D01*
X0107342Y0158995D01*
X0108310Y0158995D01*
X0108794Y0159479D01*
X0098538Y0158180D02*
X0098538Y0156245D01*
X0098538Y0157213D02*
X0095636Y0157213D01*
X0096603Y0156245D01*
X0096603Y0155234D02*
X0097087Y0154750D01*
X0097571Y0155234D01*
X0098054Y0155234D01*
X0098538Y0154750D01*
X0098538Y0153783D01*
X0098054Y0153299D01*
X0098538Y0152287D02*
X0097571Y0151320D01*
X0097571Y0151804D02*
X0097571Y0150352D01*
X0098538Y0150352D02*
X0095636Y0150352D01*
X0095636Y0151804D01*
X0096119Y0152287D01*
X0097087Y0152287D01*
X0097571Y0151804D01*
X0096119Y0153299D02*
X0095636Y0153783D01*
X0095636Y0154750D01*
X0096119Y0155234D01*
X0096603Y0155234D01*
X0097087Y0154750D02*
X0097087Y0154266D01*
X0098293Y0134736D02*
X0098777Y0134736D01*
X0100712Y0132801D01*
X0101196Y0132801D01*
X0100712Y0131789D02*
X0101196Y0131305D01*
X0101196Y0130338D01*
X0100712Y0129854D01*
X0099744Y0129854D02*
X0099261Y0130822D01*
X0099261Y0131305D01*
X0099744Y0131789D01*
X0100712Y0131789D01*
X0099744Y0129854D02*
X0098293Y0129854D01*
X0098293Y0131789D01*
X0098293Y0132801D02*
X0098293Y0134736D01*
X0098777Y0128843D02*
X0098293Y0128359D01*
X0098293Y0127391D01*
X0098777Y0126908D01*
X0100712Y0126908D01*
X0101196Y0127391D01*
X0101196Y0128359D01*
X0100712Y0128843D01*
X0103424Y0119131D02*
X0102940Y0118647D01*
X0102940Y0116712D01*
X0103424Y0116228D01*
X0104392Y0116228D01*
X0104875Y0116712D01*
X0105887Y0116712D02*
X0106371Y0116228D01*
X0107338Y0116228D01*
X0107822Y0116712D01*
X0107822Y0117679D01*
X0107338Y0118163D01*
X0106854Y0118163D01*
X0105887Y0117679D01*
X0105887Y0119131D01*
X0107822Y0119131D01*
X0108833Y0117679D02*
X0110285Y0117679D01*
X0110768Y0117196D01*
X0110768Y0116712D01*
X0110285Y0116228D01*
X0109317Y0116228D01*
X0108833Y0116712D01*
X0108833Y0117679D01*
X0109801Y0118647D01*
X0110768Y0119131D01*
X0104875Y0118647D02*
X0104392Y0119131D01*
X0103424Y0119131D01*
X0094823Y0179023D02*
X0092889Y0179023D01*
X0094823Y0180958D01*
X0094823Y0181442D01*
X0094340Y0181926D01*
X0093372Y0181926D01*
X0092889Y0181442D01*
X0091877Y0181926D02*
X0090909Y0181442D01*
X0089942Y0180475D01*
X0091393Y0180475D01*
X0091877Y0179991D01*
X0091877Y0179507D01*
X0091393Y0179023D01*
X0090426Y0179023D01*
X0089942Y0179507D01*
X0089942Y0180475D01*
X0088930Y0181442D02*
X0088447Y0181926D01*
X0087479Y0181926D01*
X0086995Y0181442D01*
X0086995Y0179507D01*
X0087479Y0179023D01*
X0088447Y0179023D01*
X0088930Y0179507D01*
X0102744Y0183838D02*
X0103227Y0183354D01*
X0104195Y0183354D01*
X0104678Y0183838D01*
X0105690Y0183838D02*
X0106174Y0183354D01*
X0107141Y0183354D01*
X0107625Y0183838D01*
X0107625Y0184322D01*
X0107141Y0184805D01*
X0105690Y0184805D01*
X0105690Y0183838D01*
X0105690Y0184805D02*
X0106658Y0185773D01*
X0107625Y0186257D01*
X0108637Y0185773D02*
X0109120Y0186257D01*
X0110088Y0186257D01*
X0110572Y0185773D01*
X0110572Y0185289D01*
X0110088Y0184805D01*
X0110572Y0184322D01*
X0110572Y0183838D01*
X0110088Y0183354D01*
X0109120Y0183354D01*
X0108637Y0183838D01*
X0109604Y0184805D02*
X0110088Y0184805D01*
X0104678Y0185773D02*
X0104195Y0186257D01*
X0103227Y0186257D01*
X0102744Y0185773D01*
X0102744Y0183838D01*
X0113892Y0198365D02*
X0116795Y0198365D01*
X0116795Y0200300D01*
X0116795Y0201312D02*
X0116795Y0203247D01*
X0116795Y0202279D02*
X0113892Y0202279D01*
X0114860Y0201312D01*
X0114376Y0204258D02*
X0113892Y0204742D01*
X0113892Y0205709D01*
X0114376Y0206193D01*
X0116311Y0204258D01*
X0116795Y0204742D01*
X0116795Y0205709D01*
X0116311Y0206193D01*
X0114376Y0206193D01*
X0114376Y0204258D02*
X0116311Y0204258D01*
X0121032Y0204024D02*
X0121032Y0201605D01*
X0121516Y0201121D01*
X0122483Y0201121D01*
X0122967Y0201605D01*
X0122967Y0204024D01*
X0123978Y0203056D02*
X0124946Y0204024D01*
X0124946Y0201121D01*
X0125913Y0201121D02*
X0123978Y0201121D01*
X0126925Y0201605D02*
X0128860Y0203540D01*
X0128860Y0201605D01*
X0128376Y0201121D01*
X0127409Y0201121D01*
X0126925Y0201605D01*
X0126925Y0203540D01*
X0127409Y0204024D01*
X0128376Y0204024D01*
X0128860Y0203540D01*
X0153262Y0202369D02*
X0153262Y0201402D01*
X0153746Y0200918D01*
X0154230Y0200918D01*
X0154714Y0201402D01*
X0154714Y0202853D01*
X0155681Y0202853D02*
X0153746Y0202853D01*
X0153262Y0202369D01*
X0155681Y0202853D02*
X0156165Y0202369D01*
X0156165Y0201402D01*
X0155681Y0200918D01*
X0156165Y0199906D02*
X0156165Y0197972D01*
X0153262Y0197972D01*
X0166701Y0188276D02*
X0168152Y0188276D01*
X0168636Y0187792D01*
X0168636Y0186824D01*
X0168152Y0186341D01*
X0166701Y0186341D01*
X0167669Y0186341D02*
X0168636Y0185373D01*
X0169648Y0185373D02*
X0171583Y0187308D01*
X0171583Y0187792D01*
X0171099Y0188276D01*
X0170131Y0188276D01*
X0169648Y0187792D01*
X0169648Y0185373D02*
X0171583Y0185373D01*
X0172594Y0185857D02*
X0173078Y0185373D01*
X0174045Y0185373D01*
X0174529Y0185857D01*
X0174529Y0186341D01*
X0174045Y0186824D01*
X0172594Y0186824D01*
X0172594Y0185857D01*
X0172594Y0186824D02*
X0173562Y0187792D01*
X0174529Y0188276D01*
X0166701Y0188276D02*
X0166701Y0185373D01*
X0149942Y0185773D02*
X0149942Y0183838D01*
X0149458Y0183354D01*
X0148490Y0183354D01*
X0148007Y0183838D01*
X0149942Y0185773D01*
X0149458Y0186257D01*
X0148490Y0186257D01*
X0148007Y0185773D01*
X0148007Y0183838D01*
X0146995Y0183838D02*
X0146995Y0184322D01*
X0146511Y0184805D01*
X0145060Y0184805D01*
X0145060Y0183838D01*
X0145544Y0183354D01*
X0146511Y0183354D01*
X0146995Y0183838D01*
X0146028Y0185773D02*
X0145060Y0184805D01*
X0146028Y0185773D02*
X0146995Y0186257D01*
X0144049Y0185773D02*
X0143565Y0186257D01*
X0142597Y0186257D01*
X0142114Y0185773D01*
X0142114Y0183838D01*
X0142597Y0183354D01*
X0143565Y0183354D01*
X0144049Y0183838D01*
X0135982Y0182320D02*
X0135982Y0179417D01*
X0135015Y0179417D02*
X0136949Y0179417D01*
X0135015Y0181352D02*
X0135982Y0182320D01*
X0134003Y0182320D02*
X0133035Y0181836D01*
X0132068Y0180868D01*
X0133519Y0180868D01*
X0134003Y0180385D01*
X0134003Y0179901D01*
X0133519Y0179417D01*
X0132552Y0179417D01*
X0132068Y0179901D01*
X0132068Y0180868D01*
X0131056Y0179901D02*
X0130573Y0179417D01*
X0129605Y0179417D01*
X0129121Y0179901D01*
X0129121Y0181836D01*
X0129605Y0182320D01*
X0130573Y0182320D01*
X0131056Y0181836D01*
X0090277Y0201515D02*
X0088342Y0201515D01*
X0089310Y0201515D02*
X0089310Y0204417D01*
X0088342Y0203450D01*
X0087331Y0201515D02*
X0085396Y0201515D01*
X0086363Y0201515D02*
X0086363Y0204417D01*
X0085396Y0203450D01*
X0084384Y0204417D02*
X0084384Y0201999D01*
X0083900Y0201515D01*
X0082933Y0201515D01*
X0082449Y0201999D01*
X0082449Y0204417D01*
X0320225Y0203650D02*
X0320225Y0201231D01*
X0320709Y0200747D01*
X0321676Y0200747D01*
X0322160Y0201231D01*
X0322160Y0203650D01*
X0323171Y0203166D02*
X0323171Y0202682D01*
X0323655Y0202198D01*
X0324623Y0202198D01*
X0325106Y0201715D01*
X0325106Y0201231D01*
X0324623Y0200747D01*
X0323655Y0200747D01*
X0323171Y0201231D01*
X0323171Y0201715D01*
X0323655Y0202198D01*
X0324623Y0202198D02*
X0325106Y0202682D01*
X0325106Y0203166D01*
X0324623Y0203650D01*
X0323655Y0203650D01*
X0323171Y0203166D01*
D13*
X0013008Y0042703D02*
X0013008Y0019081D01*
X0004656Y0030892D02*
X0004659Y0031097D01*
X0004666Y0031302D01*
X0004679Y0031506D01*
X0004696Y0031711D01*
X0004719Y0031914D01*
X0004746Y0032117D01*
X0004779Y0032320D01*
X0004816Y0032521D01*
X0004859Y0032722D01*
X0004906Y0032921D01*
X0004959Y0033120D01*
X0005016Y0033316D01*
X0005078Y0033512D01*
X0005144Y0033706D01*
X0005216Y0033898D01*
X0005292Y0034088D01*
X0005373Y0034277D01*
X0005458Y0034463D01*
X0005548Y0034647D01*
X0005642Y0034829D01*
X0005741Y0035009D01*
X0005844Y0035186D01*
X0005952Y0035360D01*
X0006064Y0035532D01*
X0006180Y0035701D01*
X0006300Y0035867D01*
X0006424Y0036030D01*
X0006552Y0036190D01*
X0006684Y0036347D01*
X0006820Y0036501D01*
X0006959Y0036651D01*
X0007102Y0036798D01*
X0007249Y0036941D01*
X0007399Y0037080D01*
X0007553Y0037216D01*
X0007710Y0037348D01*
X0007870Y0037476D01*
X0008033Y0037600D01*
X0008199Y0037720D01*
X0008368Y0037836D01*
X0008540Y0037948D01*
X0008714Y0038056D01*
X0008891Y0038159D01*
X0009071Y0038258D01*
X0009253Y0038352D01*
X0009437Y0038442D01*
X0009623Y0038527D01*
X0009812Y0038608D01*
X0010002Y0038684D01*
X0010194Y0038756D01*
X0010388Y0038822D01*
X0010584Y0038884D01*
X0010780Y0038941D01*
X0010979Y0038994D01*
X0011178Y0039041D01*
X0011379Y0039084D01*
X0011580Y0039121D01*
X0011783Y0039154D01*
X0011986Y0039181D01*
X0012189Y0039204D01*
X0012394Y0039221D01*
X0012598Y0039234D01*
X0012803Y0039241D01*
X0013008Y0039244D01*
X0013213Y0039241D01*
X0013418Y0039234D01*
X0013622Y0039221D01*
X0013827Y0039204D01*
X0014030Y0039181D01*
X0014233Y0039154D01*
X0014436Y0039121D01*
X0014637Y0039084D01*
X0014838Y0039041D01*
X0015037Y0038994D01*
X0015236Y0038941D01*
X0015432Y0038884D01*
X0015628Y0038822D01*
X0015822Y0038756D01*
X0016014Y0038684D01*
X0016204Y0038608D01*
X0016393Y0038527D01*
X0016579Y0038442D01*
X0016763Y0038352D01*
X0016945Y0038258D01*
X0017125Y0038159D01*
X0017302Y0038056D01*
X0017476Y0037948D01*
X0017648Y0037836D01*
X0017817Y0037720D01*
X0017983Y0037600D01*
X0018146Y0037476D01*
X0018306Y0037348D01*
X0018463Y0037216D01*
X0018617Y0037080D01*
X0018767Y0036941D01*
X0018914Y0036798D01*
X0019057Y0036651D01*
X0019196Y0036501D01*
X0019332Y0036347D01*
X0019464Y0036190D01*
X0019592Y0036030D01*
X0019716Y0035867D01*
X0019836Y0035701D01*
X0019952Y0035532D01*
X0020064Y0035360D01*
X0020172Y0035186D01*
X0020275Y0035009D01*
X0020374Y0034829D01*
X0020468Y0034647D01*
X0020558Y0034463D01*
X0020643Y0034277D01*
X0020724Y0034088D01*
X0020800Y0033898D01*
X0020872Y0033706D01*
X0020938Y0033512D01*
X0021000Y0033316D01*
X0021057Y0033120D01*
X0021110Y0032921D01*
X0021157Y0032722D01*
X0021200Y0032521D01*
X0021237Y0032320D01*
X0021270Y0032117D01*
X0021297Y0031914D01*
X0021320Y0031711D01*
X0021337Y0031506D01*
X0021350Y0031302D01*
X0021357Y0031097D01*
X0021360Y0030892D01*
X0021357Y0030687D01*
X0021350Y0030482D01*
X0021337Y0030278D01*
X0021320Y0030073D01*
X0021297Y0029870D01*
X0021270Y0029667D01*
X0021237Y0029464D01*
X0021200Y0029263D01*
X0021157Y0029062D01*
X0021110Y0028863D01*
X0021057Y0028664D01*
X0021000Y0028468D01*
X0020938Y0028272D01*
X0020872Y0028078D01*
X0020800Y0027886D01*
X0020724Y0027696D01*
X0020643Y0027507D01*
X0020558Y0027321D01*
X0020468Y0027137D01*
X0020374Y0026955D01*
X0020275Y0026775D01*
X0020172Y0026598D01*
X0020064Y0026424D01*
X0019952Y0026252D01*
X0019836Y0026083D01*
X0019716Y0025917D01*
X0019592Y0025754D01*
X0019464Y0025594D01*
X0019332Y0025437D01*
X0019196Y0025283D01*
X0019057Y0025133D01*
X0018914Y0024986D01*
X0018767Y0024843D01*
X0018617Y0024704D01*
X0018463Y0024568D01*
X0018306Y0024436D01*
X0018146Y0024308D01*
X0017983Y0024184D01*
X0017817Y0024064D01*
X0017648Y0023948D01*
X0017476Y0023836D01*
X0017302Y0023728D01*
X0017125Y0023625D01*
X0016945Y0023526D01*
X0016763Y0023432D01*
X0016579Y0023342D01*
X0016393Y0023257D01*
X0016204Y0023176D01*
X0016014Y0023100D01*
X0015822Y0023028D01*
X0015628Y0022962D01*
X0015432Y0022900D01*
X0015236Y0022843D01*
X0015037Y0022790D01*
X0014838Y0022743D01*
X0014637Y0022700D01*
X0014436Y0022663D01*
X0014233Y0022630D01*
X0014030Y0022603D01*
X0013827Y0022580D01*
X0013622Y0022563D01*
X0013418Y0022550D01*
X0013213Y0022543D01*
X0013008Y0022540D01*
X0012803Y0022543D01*
X0012598Y0022550D01*
X0012394Y0022563D01*
X0012189Y0022580D01*
X0011986Y0022603D01*
X0011783Y0022630D01*
X0011580Y0022663D01*
X0011379Y0022700D01*
X0011178Y0022743D01*
X0010979Y0022790D01*
X0010780Y0022843D01*
X0010584Y0022900D01*
X0010388Y0022962D01*
X0010194Y0023028D01*
X0010002Y0023100D01*
X0009812Y0023176D01*
X0009623Y0023257D01*
X0009437Y0023342D01*
X0009253Y0023432D01*
X0009071Y0023526D01*
X0008891Y0023625D01*
X0008714Y0023728D01*
X0008540Y0023836D01*
X0008368Y0023948D01*
X0008199Y0024064D01*
X0008033Y0024184D01*
X0007870Y0024308D01*
X0007710Y0024436D01*
X0007553Y0024568D01*
X0007399Y0024704D01*
X0007249Y0024843D01*
X0007102Y0024986D01*
X0006959Y0025133D01*
X0006820Y0025283D01*
X0006684Y0025437D01*
X0006552Y0025594D01*
X0006424Y0025754D01*
X0006300Y0025917D01*
X0006180Y0026083D01*
X0006064Y0026252D01*
X0005952Y0026424D01*
X0005844Y0026598D01*
X0005741Y0026775D01*
X0005642Y0026955D01*
X0005548Y0027137D01*
X0005458Y0027321D01*
X0005373Y0027507D01*
X0005292Y0027696D01*
X0005216Y0027886D01*
X0005144Y0028078D01*
X0005078Y0028272D01*
X0005016Y0028468D01*
X0004959Y0028664D01*
X0004906Y0028863D01*
X0004859Y0029062D01*
X0004816Y0029263D01*
X0004779Y0029464D01*
X0004746Y0029667D01*
X0004719Y0029870D01*
X0004696Y0030073D01*
X0004679Y0030278D01*
X0004666Y0030482D01*
X0004659Y0030687D01*
X0004656Y0030892D01*
X0001197Y0030892D02*
X0024819Y0030892D01*
X0010224Y0030892D02*
X0010226Y0030997D01*
X0010232Y0031103D01*
X0010242Y0031207D01*
X0010256Y0031312D01*
X0010274Y0031416D01*
X0010295Y0031519D01*
X0010321Y0031621D01*
X0010351Y0031722D01*
X0010384Y0031822D01*
X0010421Y0031921D01*
X0010462Y0032018D01*
X0010506Y0032113D01*
X0010554Y0032207D01*
X0010606Y0032299D01*
X0010661Y0032389D01*
X0010719Y0032477D01*
X0010781Y0032562D01*
X0010846Y0032645D01*
X0010913Y0032726D01*
X0010984Y0032804D01*
X0011058Y0032879D01*
X0011135Y0032951D01*
X0011214Y0033021D01*
X0011296Y0033087D01*
X0011380Y0033150D01*
X0011467Y0033210D01*
X0011556Y0033267D01*
X0011647Y0033320D01*
X0011739Y0033370D01*
X0011834Y0033416D01*
X0011930Y0033459D01*
X0012028Y0033498D01*
X0012128Y0033533D01*
X0012228Y0033565D01*
X0012330Y0033592D01*
X0012433Y0033616D01*
X0012536Y0033636D01*
X0012640Y0033652D01*
X0012745Y0033664D01*
X0012850Y0033672D01*
X0012955Y0033676D01*
X0013061Y0033676D01*
X0013166Y0033672D01*
X0013271Y0033664D01*
X0013376Y0033652D01*
X0013480Y0033636D01*
X0013583Y0033616D01*
X0013686Y0033592D01*
X0013788Y0033565D01*
X0013888Y0033533D01*
X0013988Y0033498D01*
X0014086Y0033459D01*
X0014182Y0033416D01*
X0014277Y0033370D01*
X0014369Y0033320D01*
X0014460Y0033267D01*
X0014549Y0033210D01*
X0014636Y0033150D01*
X0014720Y0033087D01*
X0014802Y0033021D01*
X0014881Y0032951D01*
X0014958Y0032879D01*
X0015032Y0032804D01*
X0015103Y0032726D01*
X0015170Y0032645D01*
X0015235Y0032562D01*
X0015297Y0032477D01*
X0015355Y0032389D01*
X0015410Y0032299D01*
X0015462Y0032207D01*
X0015510Y0032113D01*
X0015554Y0032018D01*
X0015595Y0031921D01*
X0015632Y0031822D01*
X0015665Y0031722D01*
X0015695Y0031621D01*
X0015721Y0031519D01*
X0015742Y0031416D01*
X0015760Y0031312D01*
X0015774Y0031207D01*
X0015784Y0031103D01*
X0015790Y0030997D01*
X0015792Y0030892D01*
X0015790Y0030787D01*
X0015784Y0030681D01*
X0015774Y0030577D01*
X0015760Y0030472D01*
X0015742Y0030368D01*
X0015721Y0030265D01*
X0015695Y0030163D01*
X0015665Y0030062D01*
X0015632Y0029962D01*
X0015595Y0029863D01*
X0015554Y0029766D01*
X0015510Y0029671D01*
X0015462Y0029577D01*
X0015410Y0029485D01*
X0015355Y0029395D01*
X0015297Y0029307D01*
X0015235Y0029222D01*
X0015170Y0029139D01*
X0015103Y0029058D01*
X0015032Y0028980D01*
X0014958Y0028905D01*
X0014881Y0028833D01*
X0014802Y0028763D01*
X0014720Y0028697D01*
X0014636Y0028634D01*
X0014549Y0028574D01*
X0014460Y0028517D01*
X0014369Y0028464D01*
X0014277Y0028414D01*
X0014182Y0028368D01*
X0014086Y0028325D01*
X0013988Y0028286D01*
X0013888Y0028251D01*
X0013788Y0028219D01*
X0013686Y0028192D01*
X0013583Y0028168D01*
X0013480Y0028148D01*
X0013376Y0028132D01*
X0013271Y0028120D01*
X0013166Y0028112D01*
X0013061Y0028108D01*
X0012955Y0028108D01*
X0012850Y0028112D01*
X0012745Y0028120D01*
X0012640Y0028132D01*
X0012536Y0028148D01*
X0012433Y0028168D01*
X0012330Y0028192D01*
X0012228Y0028219D01*
X0012128Y0028251D01*
X0012028Y0028286D01*
X0011930Y0028325D01*
X0011834Y0028368D01*
X0011739Y0028414D01*
X0011647Y0028464D01*
X0011556Y0028517D01*
X0011467Y0028574D01*
X0011380Y0028634D01*
X0011296Y0028697D01*
X0011214Y0028763D01*
X0011135Y0028833D01*
X0011058Y0028905D01*
X0010984Y0028980D01*
X0010913Y0029058D01*
X0010846Y0029139D01*
X0010781Y0029222D01*
X0010719Y0029307D01*
X0010661Y0029395D01*
X0010606Y0029485D01*
X0010554Y0029577D01*
X0010506Y0029671D01*
X0010462Y0029766D01*
X0010421Y0029863D01*
X0010384Y0029962D01*
X0010351Y0030062D01*
X0010321Y0030163D01*
X0010295Y0030265D01*
X0010274Y0030368D01*
X0010256Y0030472D01*
X0010242Y0030577D01*
X0010232Y0030681D01*
X0010226Y0030787D01*
X0010224Y0030892D01*
X0007440Y0030892D02*
X0007442Y0031041D01*
X0007448Y0031190D01*
X0007458Y0031338D01*
X0007472Y0031486D01*
X0007490Y0031634D01*
X0007511Y0031781D01*
X0007537Y0031928D01*
X0007567Y0032074D01*
X0007600Y0032219D01*
X0007638Y0032363D01*
X0007679Y0032506D01*
X0007724Y0032648D01*
X0007773Y0032789D01*
X0007826Y0032928D01*
X0007882Y0033066D01*
X0007942Y0033202D01*
X0008005Y0033337D01*
X0008072Y0033469D01*
X0008143Y0033600D01*
X0008217Y0033730D01*
X0008295Y0033857D01*
X0008376Y0033982D01*
X0008460Y0034104D01*
X0008548Y0034225D01*
X0008638Y0034343D01*
X0008732Y0034458D01*
X0008829Y0034571D01*
X0008929Y0034682D01*
X0009032Y0034789D01*
X0009137Y0034894D01*
X0009246Y0034996D01*
X0009357Y0035096D01*
X0009470Y0035192D01*
X0009587Y0035285D01*
X0009705Y0035375D01*
X0009826Y0035461D01*
X0009949Y0035545D01*
X0010075Y0035625D01*
X0010203Y0035702D01*
X0010332Y0035775D01*
X0010464Y0035845D01*
X0010597Y0035911D01*
X0010732Y0035974D01*
X0010869Y0036033D01*
X0011007Y0036088D01*
X0011146Y0036140D01*
X0011287Y0036187D01*
X0011430Y0036232D01*
X0011573Y0036272D01*
X0011717Y0036308D01*
X0011862Y0036341D01*
X0012009Y0036370D01*
X0012155Y0036394D01*
X0012303Y0036415D01*
X0012451Y0036432D01*
X0012599Y0036445D01*
X0012748Y0036454D01*
X0012896Y0036459D01*
X0013045Y0036460D01*
X0013194Y0036457D01*
X0013343Y0036450D01*
X0013491Y0036439D01*
X0013639Y0036424D01*
X0013787Y0036405D01*
X0013934Y0036382D01*
X0014081Y0036356D01*
X0014226Y0036325D01*
X0014371Y0036291D01*
X0014515Y0036252D01*
X0014658Y0036210D01*
X0014799Y0036164D01*
X0014940Y0036114D01*
X0015078Y0036061D01*
X0015216Y0036004D01*
X0015352Y0035943D01*
X0015486Y0035878D01*
X0015618Y0035810D01*
X0015749Y0035739D01*
X0015878Y0035664D01*
X0016004Y0035585D01*
X0016128Y0035503D01*
X0016251Y0035418D01*
X0016370Y0035330D01*
X0016488Y0035239D01*
X0016603Y0035144D01*
X0016715Y0035046D01*
X0016825Y0034946D01*
X0016932Y0034842D01*
X0017036Y0034736D01*
X0017138Y0034627D01*
X0017236Y0034515D01*
X0017331Y0034401D01*
X0017424Y0034284D01*
X0017513Y0034165D01*
X0017598Y0034043D01*
X0017681Y0033919D01*
X0017760Y0033793D01*
X0017836Y0033665D01*
X0017909Y0033535D01*
X0017978Y0033403D01*
X0018043Y0033269D01*
X0018105Y0033134D01*
X0018163Y0032997D01*
X0018217Y0032858D01*
X0018268Y0032718D01*
X0018315Y0032577D01*
X0018358Y0032435D01*
X0018397Y0032291D01*
X0018433Y0032147D01*
X0018464Y0032001D01*
X0018492Y0031855D01*
X0018516Y0031708D01*
X0018536Y0031560D01*
X0018552Y0031412D01*
X0018564Y0031264D01*
X0018572Y0031115D01*
X0018576Y0030966D01*
X0018576Y0030818D01*
X0018572Y0030669D01*
X0018564Y0030520D01*
X0018552Y0030372D01*
X0018536Y0030224D01*
X0018516Y0030076D01*
X0018492Y0029929D01*
X0018464Y0029783D01*
X0018433Y0029637D01*
X0018397Y0029493D01*
X0018358Y0029349D01*
X0018315Y0029207D01*
X0018268Y0029066D01*
X0018217Y0028926D01*
X0018163Y0028787D01*
X0018105Y0028650D01*
X0018043Y0028515D01*
X0017978Y0028381D01*
X0017909Y0028249D01*
X0017836Y0028119D01*
X0017760Y0027991D01*
X0017681Y0027865D01*
X0017598Y0027741D01*
X0017513Y0027619D01*
X0017424Y0027500D01*
X0017331Y0027383D01*
X0017236Y0027269D01*
X0017138Y0027157D01*
X0017036Y0027048D01*
X0016932Y0026942D01*
X0016825Y0026838D01*
X0016715Y0026738D01*
X0016603Y0026640D01*
X0016488Y0026545D01*
X0016370Y0026454D01*
X0016251Y0026366D01*
X0016128Y0026281D01*
X0016004Y0026199D01*
X0015878Y0026120D01*
X0015749Y0026045D01*
X0015618Y0025974D01*
X0015486Y0025906D01*
X0015352Y0025841D01*
X0015216Y0025780D01*
X0015078Y0025723D01*
X0014940Y0025670D01*
X0014799Y0025620D01*
X0014658Y0025574D01*
X0014515Y0025532D01*
X0014371Y0025493D01*
X0014226Y0025459D01*
X0014081Y0025428D01*
X0013934Y0025402D01*
X0013787Y0025379D01*
X0013639Y0025360D01*
X0013491Y0025345D01*
X0013343Y0025334D01*
X0013194Y0025327D01*
X0013045Y0025324D01*
X0012896Y0025325D01*
X0012748Y0025330D01*
X0012599Y0025339D01*
X0012451Y0025352D01*
X0012303Y0025369D01*
X0012155Y0025390D01*
X0012009Y0025414D01*
X0011862Y0025443D01*
X0011717Y0025476D01*
X0011573Y0025512D01*
X0011430Y0025552D01*
X0011287Y0025597D01*
X0011146Y0025644D01*
X0011007Y0025696D01*
X0010869Y0025751D01*
X0010732Y0025810D01*
X0010597Y0025873D01*
X0010464Y0025939D01*
X0010332Y0026009D01*
X0010203Y0026082D01*
X0010075Y0026159D01*
X0009949Y0026239D01*
X0009826Y0026323D01*
X0009705Y0026409D01*
X0009587Y0026499D01*
X0009470Y0026592D01*
X0009357Y0026688D01*
X0009246Y0026788D01*
X0009137Y0026890D01*
X0009032Y0026995D01*
X0008929Y0027102D01*
X0008829Y0027213D01*
X0008732Y0027326D01*
X0008638Y0027441D01*
X0008548Y0027559D01*
X0008460Y0027680D01*
X0008376Y0027802D01*
X0008295Y0027927D01*
X0008217Y0028054D01*
X0008143Y0028184D01*
X0008072Y0028315D01*
X0008005Y0028447D01*
X0007942Y0028582D01*
X0007882Y0028718D01*
X0007826Y0028856D01*
X0007773Y0028995D01*
X0007724Y0029136D01*
X0007679Y0029278D01*
X0007638Y0029421D01*
X0007600Y0029565D01*
X0007567Y0029710D01*
X0007537Y0029856D01*
X0007511Y0030003D01*
X0007490Y0030150D01*
X0007472Y0030298D01*
X0007458Y0030446D01*
X0007448Y0030594D01*
X0007442Y0030743D01*
X0007440Y0030892D01*
X0143717Y0081286D02*
X0147850Y0081286D01*
X0151984Y0081286D01*
X0151984Y0090735D01*
X0147850Y0090735D01*
X0147850Y0081286D01*
X0143717Y0081286D02*
X0143717Y0090735D01*
X0147850Y0090735D01*
X0163008Y0108451D02*
X0175606Y0108451D01*
X0175606Y0113963D01*
X0163008Y0113963D01*
X0163008Y0108451D01*
X0177181Y0108451D02*
X0189780Y0108451D01*
X0189780Y0113963D01*
X0177181Y0113963D01*
X0177181Y0108451D01*
X0194110Y0117900D02*
X0198835Y0117900D01*
X0198835Y0127349D01*
X0194110Y0127349D01*
X0194110Y0117900D01*
X0203165Y0121050D02*
X0207102Y0121050D01*
X0207102Y0130499D01*
X0203165Y0130499D01*
X0203165Y0121050D01*
X0203165Y0145459D02*
X0203165Y0154908D01*
X0207890Y0154908D01*
X0207890Y0145459D01*
X0203165Y0145459D01*
X0202378Y0149790D02*
X0197654Y0149790D01*
X0197654Y0159239D01*
X0202378Y0159239D01*
X0202378Y0149790D01*
X0205528Y0157664D02*
X0205528Y0176562D01*
X0214189Y0176562D01*
X0214189Y0168688D01*
X0218520Y0168688D01*
X0218520Y0157664D01*
X0205528Y0157664D01*
X0202772Y0160026D02*
X0202772Y0172625D01*
X0197260Y0172625D01*
X0197260Y0160026D01*
X0202772Y0160026D01*
X0222850Y0161207D02*
X0222850Y0171444D01*
X0231118Y0171444D01*
X0231118Y0161207D01*
X0222850Y0161207D01*
X0237024Y0163176D02*
X0242535Y0163176D01*
X0242535Y0175774D01*
X0237024Y0175774D01*
X0237024Y0163176D01*
X0251591Y0166719D02*
X0251591Y0158058D01*
X0253165Y0158058D01*
X0253165Y0148609D01*
X0257102Y0148609D01*
X0257102Y0158058D01*
X0270488Y0158058D01*
X0270488Y0166719D01*
X0251591Y0166719D01*
X0253165Y0158058D02*
X0257102Y0158058D01*
X0255134Y0147822D02*
X0255134Y0137979D01*
X0259071Y0137979D01*
X0259071Y0147822D01*
X0255134Y0147822D01*
X0274425Y0138766D02*
X0283087Y0138766D01*
X0283087Y0119869D01*
X0274425Y0119869D01*
X0274425Y0138766D01*
X0287024Y0134436D02*
X0287811Y0133648D01*
X0302378Y0133648D01*
X0303165Y0134436D01*
X0302772Y0144672D02*
X0301984Y0145459D01*
X0287811Y0145459D01*
X0287024Y0144672D01*
X0295685Y0147428D02*
X0277181Y0147428D01*
X0277181Y0156089D01*
X0288992Y0156089D01*
X0295685Y0156089D01*
X0299228Y0156089D01*
X0299228Y0174987D01*
X0288992Y0174987D01*
X0288992Y0156089D01*
X0295685Y0156089D02*
X0295685Y0147428D01*
X0300803Y0147428D02*
X0303165Y0147428D01*
X0301984Y0146640D02*
X0301984Y0148215D01*
X0305528Y0157664D02*
X0304740Y0158451D01*
X0304740Y0172625D01*
X0305528Y0173412D01*
X0314976Y0173412D02*
X0315764Y0172625D01*
X0315764Y0158451D01*
X0314976Y0157664D01*
X0318126Y0169869D02*
X0318126Y0172231D01*
X0317339Y0171050D02*
X0318913Y0171050D01*
X0326787Y0182861D02*
X0336236Y0182861D01*
X0336236Y0187585D01*
X0326787Y0187585D01*
X0326787Y0182861D01*
X0327181Y0190341D02*
X0330724Y0190341D01*
X0327181Y0190341D02*
X0327181Y0193491D01*
X0332693Y0195066D02*
X0332693Y0197428D01*
X0327181Y0199003D02*
X0327181Y0202152D01*
X0330724Y0202152D01*
X0341354Y0196640D02*
X0346079Y0196640D01*
X0346079Y0187192D01*
X0341354Y0187192D01*
X0341354Y0196640D01*
X0366551Y0199003D02*
X0366551Y0202152D01*
X0370094Y0202152D01*
X0372063Y0197428D02*
X0372063Y0195066D01*
X0366551Y0193491D02*
X0366551Y0190341D01*
X0370094Y0190341D01*
X0366551Y0187585D02*
X0366551Y0182861D01*
X0376000Y0182861D01*
X0376000Y0187585D01*
X0366551Y0187585D01*
X0380724Y0187192D02*
X0380724Y0196640D01*
X0385449Y0196640D01*
X0385449Y0187192D01*
X0380724Y0187192D01*
X0356315Y0168688D02*
X0346866Y0168688D01*
X0346866Y0164357D01*
X0346866Y0160026D01*
X0356315Y0160026D01*
X0356315Y0164357D01*
X0356315Y0168688D01*
X0356315Y0164357D02*
X0346866Y0164357D01*
X0341354Y0159633D02*
X0335449Y0159633D01*
X0335449Y0146640D01*
X0341354Y0146640D01*
X0341354Y0159633D01*
X0344504Y0157270D02*
X0353953Y0157270D01*
X0353953Y0152940D01*
X0344504Y0152940D01*
X0344504Y0157270D01*
X0357496Y0157664D02*
X0357496Y0153333D01*
X0367339Y0153333D01*
X0367339Y0157664D01*
X0357496Y0157664D01*
X0368520Y0157664D02*
X0368520Y0153333D01*
X0378362Y0153333D01*
X0378362Y0157664D01*
X0368520Y0157664D01*
X0352752Y0143156D02*
X0351335Y0143156D01*
X0351335Y0141739D01*
X0352752Y0143156D01*
X0342142Y0136798D02*
X0337811Y0136798D01*
X0337811Y0126955D01*
X0342142Y0126955D01*
X0342142Y0136798D01*
X0338205Y0124199D02*
X0348047Y0124199D01*
X0348047Y0119869D01*
X0338205Y0119869D01*
X0338205Y0124199D01*
X0257890Y0102940D02*
X0257890Y0099003D01*
X0248835Y0099003D01*
X0248441Y0100577D02*
X0248441Y0102940D01*
X0257890Y0102940D01*
X0226000Y0090735D02*
X0226000Y0081286D01*
X0221866Y0081286D01*
X0221866Y0090735D01*
X0226000Y0090735D01*
X0221866Y0090735D02*
X0217732Y0090735D01*
X0217732Y0081286D01*
X0221866Y0081286D01*
X0116531Y0143156D02*
X0115114Y0141739D01*
X0115114Y0143156D01*
X0116531Y0143156D01*
X0105528Y0145853D02*
X0099622Y0145853D01*
X0099622Y0158058D01*
X0105528Y0158058D01*
X0105528Y0145853D01*
X0106709Y0153727D02*
X0116551Y0153727D01*
X0116551Y0158058D01*
X0106709Y0158058D01*
X0106709Y0153727D01*
X0120094Y0153727D02*
X0129937Y0153727D01*
X0129937Y0158058D01*
X0120094Y0158058D01*
X0120094Y0153727D01*
X0131512Y0153727D02*
X0131512Y0158058D01*
X0141354Y0158058D01*
X0141354Y0153727D01*
X0131512Y0153727D01*
X0133874Y0160026D02*
X0143323Y0160026D01*
X0143323Y0163963D01*
X0143323Y0167900D01*
X0133874Y0167900D01*
X0133874Y0163963D01*
X0143323Y0163963D01*
X0133874Y0163963D02*
X0133874Y0160026D01*
X0161827Y0178924D02*
X0174425Y0178924D01*
X0174425Y0184436D01*
X0161827Y0184436D01*
X0161827Y0178924D01*
X0149228Y0186798D02*
X0149228Y0196247D01*
X0144504Y0196247D01*
X0144504Y0186798D01*
X0149228Y0186798D01*
X0139780Y0187585D02*
X0139780Y0182861D01*
X0130331Y0182861D01*
X0130331Y0187585D01*
X0139780Y0187585D01*
X0133874Y0190341D02*
X0130331Y0190341D01*
X0130331Y0193491D01*
X0135843Y0195066D02*
X0135843Y0197428D01*
X0130331Y0199003D02*
X0130331Y0202152D01*
X0133874Y0202152D01*
X0109858Y0196247D02*
X0109858Y0186798D01*
X0105134Y0186798D01*
X0105134Y0196247D01*
X0109858Y0196247D01*
X0096472Y0197428D02*
X0096472Y0195066D01*
X0090961Y0193491D02*
X0090961Y0190341D01*
X0094504Y0190341D01*
X0090567Y0187585D02*
X0100016Y0187585D01*
X0100016Y0182861D01*
X0090567Y0182861D01*
X0090567Y0187585D01*
X0090961Y0199003D02*
X0090961Y0202152D01*
X0094504Y0202152D01*
X0013008Y0255302D02*
X0013008Y0278924D01*
X0004656Y0267113D02*
X0004659Y0267318D01*
X0004666Y0267523D01*
X0004679Y0267727D01*
X0004696Y0267932D01*
X0004719Y0268135D01*
X0004746Y0268338D01*
X0004779Y0268541D01*
X0004816Y0268742D01*
X0004859Y0268943D01*
X0004906Y0269142D01*
X0004959Y0269341D01*
X0005016Y0269537D01*
X0005078Y0269733D01*
X0005144Y0269927D01*
X0005216Y0270119D01*
X0005292Y0270309D01*
X0005373Y0270498D01*
X0005458Y0270684D01*
X0005548Y0270868D01*
X0005642Y0271050D01*
X0005741Y0271230D01*
X0005844Y0271407D01*
X0005952Y0271581D01*
X0006064Y0271753D01*
X0006180Y0271922D01*
X0006300Y0272088D01*
X0006424Y0272251D01*
X0006552Y0272411D01*
X0006684Y0272568D01*
X0006820Y0272722D01*
X0006959Y0272872D01*
X0007102Y0273019D01*
X0007249Y0273162D01*
X0007399Y0273301D01*
X0007553Y0273437D01*
X0007710Y0273569D01*
X0007870Y0273697D01*
X0008033Y0273821D01*
X0008199Y0273941D01*
X0008368Y0274057D01*
X0008540Y0274169D01*
X0008714Y0274277D01*
X0008891Y0274380D01*
X0009071Y0274479D01*
X0009253Y0274573D01*
X0009437Y0274663D01*
X0009623Y0274748D01*
X0009812Y0274829D01*
X0010002Y0274905D01*
X0010194Y0274977D01*
X0010388Y0275043D01*
X0010584Y0275105D01*
X0010780Y0275162D01*
X0010979Y0275215D01*
X0011178Y0275262D01*
X0011379Y0275305D01*
X0011580Y0275342D01*
X0011783Y0275375D01*
X0011986Y0275402D01*
X0012189Y0275425D01*
X0012394Y0275442D01*
X0012598Y0275455D01*
X0012803Y0275462D01*
X0013008Y0275465D01*
X0013213Y0275462D01*
X0013418Y0275455D01*
X0013622Y0275442D01*
X0013827Y0275425D01*
X0014030Y0275402D01*
X0014233Y0275375D01*
X0014436Y0275342D01*
X0014637Y0275305D01*
X0014838Y0275262D01*
X0015037Y0275215D01*
X0015236Y0275162D01*
X0015432Y0275105D01*
X0015628Y0275043D01*
X0015822Y0274977D01*
X0016014Y0274905D01*
X0016204Y0274829D01*
X0016393Y0274748D01*
X0016579Y0274663D01*
X0016763Y0274573D01*
X0016945Y0274479D01*
X0017125Y0274380D01*
X0017302Y0274277D01*
X0017476Y0274169D01*
X0017648Y0274057D01*
X0017817Y0273941D01*
X0017983Y0273821D01*
X0018146Y0273697D01*
X0018306Y0273569D01*
X0018463Y0273437D01*
X0018617Y0273301D01*
X0018767Y0273162D01*
X0018914Y0273019D01*
X0019057Y0272872D01*
X0019196Y0272722D01*
X0019332Y0272568D01*
X0019464Y0272411D01*
X0019592Y0272251D01*
X0019716Y0272088D01*
X0019836Y0271922D01*
X0019952Y0271753D01*
X0020064Y0271581D01*
X0020172Y0271407D01*
X0020275Y0271230D01*
X0020374Y0271050D01*
X0020468Y0270868D01*
X0020558Y0270684D01*
X0020643Y0270498D01*
X0020724Y0270309D01*
X0020800Y0270119D01*
X0020872Y0269927D01*
X0020938Y0269733D01*
X0021000Y0269537D01*
X0021057Y0269341D01*
X0021110Y0269142D01*
X0021157Y0268943D01*
X0021200Y0268742D01*
X0021237Y0268541D01*
X0021270Y0268338D01*
X0021297Y0268135D01*
X0021320Y0267932D01*
X0021337Y0267727D01*
X0021350Y0267523D01*
X0021357Y0267318D01*
X0021360Y0267113D01*
X0021357Y0266908D01*
X0021350Y0266703D01*
X0021337Y0266499D01*
X0021320Y0266294D01*
X0021297Y0266091D01*
X0021270Y0265888D01*
X0021237Y0265685D01*
X0021200Y0265484D01*
X0021157Y0265283D01*
X0021110Y0265084D01*
X0021057Y0264885D01*
X0021000Y0264689D01*
X0020938Y0264493D01*
X0020872Y0264299D01*
X0020800Y0264107D01*
X0020724Y0263917D01*
X0020643Y0263728D01*
X0020558Y0263542D01*
X0020468Y0263358D01*
X0020374Y0263176D01*
X0020275Y0262996D01*
X0020172Y0262819D01*
X0020064Y0262645D01*
X0019952Y0262473D01*
X0019836Y0262304D01*
X0019716Y0262138D01*
X0019592Y0261975D01*
X0019464Y0261815D01*
X0019332Y0261658D01*
X0019196Y0261504D01*
X0019057Y0261354D01*
X0018914Y0261207D01*
X0018767Y0261064D01*
X0018617Y0260925D01*
X0018463Y0260789D01*
X0018306Y0260657D01*
X0018146Y0260529D01*
X0017983Y0260405D01*
X0017817Y0260285D01*
X0017648Y0260169D01*
X0017476Y0260057D01*
X0017302Y0259949D01*
X0017125Y0259846D01*
X0016945Y0259747D01*
X0016763Y0259653D01*
X0016579Y0259563D01*
X0016393Y0259478D01*
X0016204Y0259397D01*
X0016014Y0259321D01*
X0015822Y0259249D01*
X0015628Y0259183D01*
X0015432Y0259121D01*
X0015236Y0259064D01*
X0015037Y0259011D01*
X0014838Y0258964D01*
X0014637Y0258921D01*
X0014436Y0258884D01*
X0014233Y0258851D01*
X0014030Y0258824D01*
X0013827Y0258801D01*
X0013622Y0258784D01*
X0013418Y0258771D01*
X0013213Y0258764D01*
X0013008Y0258761D01*
X0012803Y0258764D01*
X0012598Y0258771D01*
X0012394Y0258784D01*
X0012189Y0258801D01*
X0011986Y0258824D01*
X0011783Y0258851D01*
X0011580Y0258884D01*
X0011379Y0258921D01*
X0011178Y0258964D01*
X0010979Y0259011D01*
X0010780Y0259064D01*
X0010584Y0259121D01*
X0010388Y0259183D01*
X0010194Y0259249D01*
X0010002Y0259321D01*
X0009812Y0259397D01*
X0009623Y0259478D01*
X0009437Y0259563D01*
X0009253Y0259653D01*
X0009071Y0259747D01*
X0008891Y0259846D01*
X0008714Y0259949D01*
X0008540Y0260057D01*
X0008368Y0260169D01*
X0008199Y0260285D01*
X0008033Y0260405D01*
X0007870Y0260529D01*
X0007710Y0260657D01*
X0007553Y0260789D01*
X0007399Y0260925D01*
X0007249Y0261064D01*
X0007102Y0261207D01*
X0006959Y0261354D01*
X0006820Y0261504D01*
X0006684Y0261658D01*
X0006552Y0261815D01*
X0006424Y0261975D01*
X0006300Y0262138D01*
X0006180Y0262304D01*
X0006064Y0262473D01*
X0005952Y0262645D01*
X0005844Y0262819D01*
X0005741Y0262996D01*
X0005642Y0263176D01*
X0005548Y0263358D01*
X0005458Y0263542D01*
X0005373Y0263728D01*
X0005292Y0263917D01*
X0005216Y0264107D01*
X0005144Y0264299D01*
X0005078Y0264493D01*
X0005016Y0264689D01*
X0004959Y0264885D01*
X0004906Y0265084D01*
X0004859Y0265283D01*
X0004816Y0265484D01*
X0004779Y0265685D01*
X0004746Y0265888D01*
X0004719Y0266091D01*
X0004696Y0266294D01*
X0004679Y0266499D01*
X0004666Y0266703D01*
X0004659Y0266908D01*
X0004656Y0267113D01*
X0001197Y0267113D02*
X0024819Y0267113D01*
X0010224Y0267113D02*
X0010226Y0267218D01*
X0010232Y0267324D01*
X0010242Y0267428D01*
X0010256Y0267533D01*
X0010274Y0267637D01*
X0010295Y0267740D01*
X0010321Y0267842D01*
X0010351Y0267943D01*
X0010384Y0268043D01*
X0010421Y0268142D01*
X0010462Y0268239D01*
X0010506Y0268334D01*
X0010554Y0268428D01*
X0010606Y0268520D01*
X0010661Y0268610D01*
X0010719Y0268698D01*
X0010781Y0268783D01*
X0010846Y0268866D01*
X0010913Y0268947D01*
X0010984Y0269025D01*
X0011058Y0269100D01*
X0011135Y0269172D01*
X0011214Y0269242D01*
X0011296Y0269308D01*
X0011380Y0269371D01*
X0011467Y0269431D01*
X0011556Y0269488D01*
X0011647Y0269541D01*
X0011739Y0269591D01*
X0011834Y0269637D01*
X0011930Y0269680D01*
X0012028Y0269719D01*
X0012128Y0269754D01*
X0012228Y0269786D01*
X0012330Y0269813D01*
X0012433Y0269837D01*
X0012536Y0269857D01*
X0012640Y0269873D01*
X0012745Y0269885D01*
X0012850Y0269893D01*
X0012955Y0269897D01*
X0013061Y0269897D01*
X0013166Y0269893D01*
X0013271Y0269885D01*
X0013376Y0269873D01*
X0013480Y0269857D01*
X0013583Y0269837D01*
X0013686Y0269813D01*
X0013788Y0269786D01*
X0013888Y0269754D01*
X0013988Y0269719D01*
X0014086Y0269680D01*
X0014182Y0269637D01*
X0014277Y0269591D01*
X0014369Y0269541D01*
X0014460Y0269488D01*
X0014549Y0269431D01*
X0014636Y0269371D01*
X0014720Y0269308D01*
X0014802Y0269242D01*
X0014881Y0269172D01*
X0014958Y0269100D01*
X0015032Y0269025D01*
X0015103Y0268947D01*
X0015170Y0268866D01*
X0015235Y0268783D01*
X0015297Y0268698D01*
X0015355Y0268610D01*
X0015410Y0268520D01*
X0015462Y0268428D01*
X0015510Y0268334D01*
X0015554Y0268239D01*
X0015595Y0268142D01*
X0015632Y0268043D01*
X0015665Y0267943D01*
X0015695Y0267842D01*
X0015721Y0267740D01*
X0015742Y0267637D01*
X0015760Y0267533D01*
X0015774Y0267428D01*
X0015784Y0267324D01*
X0015790Y0267218D01*
X0015792Y0267113D01*
X0015790Y0267008D01*
X0015784Y0266902D01*
X0015774Y0266798D01*
X0015760Y0266693D01*
X0015742Y0266589D01*
X0015721Y0266486D01*
X0015695Y0266384D01*
X0015665Y0266283D01*
X0015632Y0266183D01*
X0015595Y0266084D01*
X0015554Y0265987D01*
X0015510Y0265892D01*
X0015462Y0265798D01*
X0015410Y0265706D01*
X0015355Y0265616D01*
X0015297Y0265528D01*
X0015235Y0265443D01*
X0015170Y0265360D01*
X0015103Y0265279D01*
X0015032Y0265201D01*
X0014958Y0265126D01*
X0014881Y0265054D01*
X0014802Y0264984D01*
X0014720Y0264918D01*
X0014636Y0264855D01*
X0014549Y0264795D01*
X0014460Y0264738D01*
X0014369Y0264685D01*
X0014277Y0264635D01*
X0014182Y0264589D01*
X0014086Y0264546D01*
X0013988Y0264507D01*
X0013888Y0264472D01*
X0013788Y0264440D01*
X0013686Y0264413D01*
X0013583Y0264389D01*
X0013480Y0264369D01*
X0013376Y0264353D01*
X0013271Y0264341D01*
X0013166Y0264333D01*
X0013061Y0264329D01*
X0012955Y0264329D01*
X0012850Y0264333D01*
X0012745Y0264341D01*
X0012640Y0264353D01*
X0012536Y0264369D01*
X0012433Y0264389D01*
X0012330Y0264413D01*
X0012228Y0264440D01*
X0012128Y0264472D01*
X0012028Y0264507D01*
X0011930Y0264546D01*
X0011834Y0264589D01*
X0011739Y0264635D01*
X0011647Y0264685D01*
X0011556Y0264738D01*
X0011467Y0264795D01*
X0011380Y0264855D01*
X0011296Y0264918D01*
X0011214Y0264984D01*
X0011135Y0265054D01*
X0011058Y0265126D01*
X0010984Y0265201D01*
X0010913Y0265279D01*
X0010846Y0265360D01*
X0010781Y0265443D01*
X0010719Y0265528D01*
X0010661Y0265616D01*
X0010606Y0265706D01*
X0010554Y0265798D01*
X0010506Y0265892D01*
X0010462Y0265987D01*
X0010421Y0266084D01*
X0010384Y0266183D01*
X0010351Y0266283D01*
X0010321Y0266384D01*
X0010295Y0266486D01*
X0010274Y0266589D01*
X0010256Y0266693D01*
X0010242Y0266798D01*
X0010232Y0266902D01*
X0010226Y0267008D01*
X0010224Y0267113D01*
X0007440Y0267113D02*
X0007442Y0267262D01*
X0007448Y0267411D01*
X0007458Y0267559D01*
X0007472Y0267707D01*
X0007490Y0267855D01*
X0007511Y0268002D01*
X0007537Y0268149D01*
X0007567Y0268295D01*
X0007600Y0268440D01*
X0007638Y0268584D01*
X0007679Y0268727D01*
X0007724Y0268869D01*
X0007773Y0269010D01*
X0007826Y0269149D01*
X0007882Y0269287D01*
X0007942Y0269423D01*
X0008005Y0269558D01*
X0008072Y0269690D01*
X0008143Y0269821D01*
X0008217Y0269951D01*
X0008295Y0270078D01*
X0008376Y0270203D01*
X0008460Y0270325D01*
X0008548Y0270446D01*
X0008638Y0270564D01*
X0008732Y0270679D01*
X0008829Y0270792D01*
X0008929Y0270903D01*
X0009032Y0271010D01*
X0009137Y0271115D01*
X0009246Y0271217D01*
X0009357Y0271317D01*
X0009470Y0271413D01*
X0009587Y0271506D01*
X0009705Y0271596D01*
X0009826Y0271682D01*
X0009949Y0271766D01*
X0010075Y0271846D01*
X0010203Y0271923D01*
X0010332Y0271996D01*
X0010464Y0272066D01*
X0010597Y0272132D01*
X0010732Y0272195D01*
X0010869Y0272254D01*
X0011007Y0272309D01*
X0011146Y0272361D01*
X0011287Y0272408D01*
X0011430Y0272453D01*
X0011573Y0272493D01*
X0011717Y0272529D01*
X0011862Y0272562D01*
X0012009Y0272591D01*
X0012155Y0272615D01*
X0012303Y0272636D01*
X0012451Y0272653D01*
X0012599Y0272666D01*
X0012748Y0272675D01*
X0012896Y0272680D01*
X0013045Y0272681D01*
X0013194Y0272678D01*
X0013343Y0272671D01*
X0013491Y0272660D01*
X0013639Y0272645D01*
X0013787Y0272626D01*
X0013934Y0272603D01*
X0014081Y0272577D01*
X0014226Y0272546D01*
X0014371Y0272512D01*
X0014515Y0272473D01*
X0014658Y0272431D01*
X0014799Y0272385D01*
X0014940Y0272335D01*
X0015078Y0272282D01*
X0015216Y0272225D01*
X0015352Y0272164D01*
X0015486Y0272099D01*
X0015618Y0272031D01*
X0015749Y0271960D01*
X0015878Y0271885D01*
X0016004Y0271806D01*
X0016128Y0271724D01*
X0016251Y0271639D01*
X0016370Y0271551D01*
X0016488Y0271460D01*
X0016603Y0271365D01*
X0016715Y0271267D01*
X0016825Y0271167D01*
X0016932Y0271063D01*
X0017036Y0270957D01*
X0017138Y0270848D01*
X0017236Y0270736D01*
X0017331Y0270622D01*
X0017424Y0270505D01*
X0017513Y0270386D01*
X0017598Y0270264D01*
X0017681Y0270140D01*
X0017760Y0270014D01*
X0017836Y0269886D01*
X0017909Y0269756D01*
X0017978Y0269624D01*
X0018043Y0269490D01*
X0018105Y0269355D01*
X0018163Y0269218D01*
X0018217Y0269079D01*
X0018268Y0268939D01*
X0018315Y0268798D01*
X0018358Y0268656D01*
X0018397Y0268512D01*
X0018433Y0268368D01*
X0018464Y0268222D01*
X0018492Y0268076D01*
X0018516Y0267929D01*
X0018536Y0267781D01*
X0018552Y0267633D01*
X0018564Y0267485D01*
X0018572Y0267336D01*
X0018576Y0267187D01*
X0018576Y0267039D01*
X0018572Y0266890D01*
X0018564Y0266741D01*
X0018552Y0266593D01*
X0018536Y0266445D01*
X0018516Y0266297D01*
X0018492Y0266150D01*
X0018464Y0266004D01*
X0018433Y0265858D01*
X0018397Y0265714D01*
X0018358Y0265570D01*
X0018315Y0265428D01*
X0018268Y0265287D01*
X0018217Y0265147D01*
X0018163Y0265008D01*
X0018105Y0264871D01*
X0018043Y0264736D01*
X0017978Y0264602D01*
X0017909Y0264470D01*
X0017836Y0264340D01*
X0017760Y0264212D01*
X0017681Y0264086D01*
X0017598Y0263962D01*
X0017513Y0263840D01*
X0017424Y0263721D01*
X0017331Y0263604D01*
X0017236Y0263490D01*
X0017138Y0263378D01*
X0017036Y0263269D01*
X0016932Y0263163D01*
X0016825Y0263059D01*
X0016715Y0262959D01*
X0016603Y0262861D01*
X0016488Y0262766D01*
X0016370Y0262675D01*
X0016251Y0262587D01*
X0016128Y0262502D01*
X0016004Y0262420D01*
X0015878Y0262341D01*
X0015749Y0262266D01*
X0015618Y0262195D01*
X0015486Y0262127D01*
X0015352Y0262062D01*
X0015216Y0262001D01*
X0015078Y0261944D01*
X0014940Y0261891D01*
X0014799Y0261841D01*
X0014658Y0261795D01*
X0014515Y0261753D01*
X0014371Y0261714D01*
X0014226Y0261680D01*
X0014081Y0261649D01*
X0013934Y0261623D01*
X0013787Y0261600D01*
X0013639Y0261581D01*
X0013491Y0261566D01*
X0013343Y0261555D01*
X0013194Y0261548D01*
X0013045Y0261545D01*
X0012896Y0261546D01*
X0012748Y0261551D01*
X0012599Y0261560D01*
X0012451Y0261573D01*
X0012303Y0261590D01*
X0012155Y0261611D01*
X0012009Y0261635D01*
X0011862Y0261664D01*
X0011717Y0261697D01*
X0011573Y0261733D01*
X0011430Y0261773D01*
X0011287Y0261818D01*
X0011146Y0261865D01*
X0011007Y0261917D01*
X0010869Y0261972D01*
X0010732Y0262031D01*
X0010597Y0262094D01*
X0010464Y0262160D01*
X0010332Y0262230D01*
X0010203Y0262303D01*
X0010075Y0262380D01*
X0009949Y0262460D01*
X0009826Y0262544D01*
X0009705Y0262630D01*
X0009587Y0262720D01*
X0009470Y0262813D01*
X0009357Y0262909D01*
X0009246Y0263009D01*
X0009137Y0263111D01*
X0009032Y0263216D01*
X0008929Y0263323D01*
X0008829Y0263434D01*
X0008732Y0263547D01*
X0008638Y0263662D01*
X0008548Y0263780D01*
X0008460Y0263901D01*
X0008376Y0264023D01*
X0008295Y0264148D01*
X0008217Y0264275D01*
X0008143Y0264405D01*
X0008072Y0264536D01*
X0008005Y0264668D01*
X0007942Y0264803D01*
X0007882Y0264939D01*
X0007826Y0265077D01*
X0007773Y0265216D01*
X0007724Y0265357D01*
X0007679Y0265499D01*
X0007638Y0265642D01*
X0007600Y0265786D01*
X0007567Y0265931D01*
X0007537Y0266077D01*
X0007511Y0266224D01*
X0007490Y0266371D01*
X0007472Y0266519D01*
X0007458Y0266667D01*
X0007448Y0266815D01*
X0007442Y0266964D01*
X0007440Y0267113D01*
X0102378Y0134436D02*
X0102378Y0124987D01*
X0106315Y0124987D01*
X0106315Y0134436D01*
X0102378Y0134436D01*
X0101984Y0124199D02*
X0111827Y0124199D01*
X0111827Y0119869D01*
X0101984Y0119869D01*
X0101984Y0124199D01*
X0279543Y0182073D02*
X0291354Y0182073D01*
X0291354Y0187585D01*
X0279543Y0187585D01*
X0279543Y0182073D01*
X0473638Y0267113D02*
X0497260Y0267113D01*
X0477097Y0267113D02*
X0477100Y0267318D01*
X0477107Y0267523D01*
X0477120Y0267727D01*
X0477137Y0267932D01*
X0477160Y0268135D01*
X0477187Y0268338D01*
X0477220Y0268541D01*
X0477257Y0268742D01*
X0477300Y0268943D01*
X0477347Y0269142D01*
X0477400Y0269341D01*
X0477457Y0269537D01*
X0477519Y0269733D01*
X0477585Y0269927D01*
X0477657Y0270119D01*
X0477733Y0270309D01*
X0477814Y0270498D01*
X0477899Y0270684D01*
X0477989Y0270868D01*
X0478083Y0271050D01*
X0478182Y0271230D01*
X0478285Y0271407D01*
X0478393Y0271581D01*
X0478505Y0271753D01*
X0478621Y0271922D01*
X0478741Y0272088D01*
X0478865Y0272251D01*
X0478993Y0272411D01*
X0479125Y0272568D01*
X0479261Y0272722D01*
X0479400Y0272872D01*
X0479543Y0273019D01*
X0479690Y0273162D01*
X0479840Y0273301D01*
X0479994Y0273437D01*
X0480151Y0273569D01*
X0480311Y0273697D01*
X0480474Y0273821D01*
X0480640Y0273941D01*
X0480809Y0274057D01*
X0480981Y0274169D01*
X0481155Y0274277D01*
X0481332Y0274380D01*
X0481512Y0274479D01*
X0481694Y0274573D01*
X0481878Y0274663D01*
X0482064Y0274748D01*
X0482253Y0274829D01*
X0482443Y0274905D01*
X0482635Y0274977D01*
X0482829Y0275043D01*
X0483025Y0275105D01*
X0483221Y0275162D01*
X0483420Y0275215D01*
X0483619Y0275262D01*
X0483820Y0275305D01*
X0484021Y0275342D01*
X0484224Y0275375D01*
X0484427Y0275402D01*
X0484630Y0275425D01*
X0484835Y0275442D01*
X0485039Y0275455D01*
X0485244Y0275462D01*
X0485449Y0275465D01*
X0485654Y0275462D01*
X0485859Y0275455D01*
X0486063Y0275442D01*
X0486268Y0275425D01*
X0486471Y0275402D01*
X0486674Y0275375D01*
X0486877Y0275342D01*
X0487078Y0275305D01*
X0487279Y0275262D01*
X0487478Y0275215D01*
X0487677Y0275162D01*
X0487873Y0275105D01*
X0488069Y0275043D01*
X0488263Y0274977D01*
X0488455Y0274905D01*
X0488645Y0274829D01*
X0488834Y0274748D01*
X0489020Y0274663D01*
X0489204Y0274573D01*
X0489386Y0274479D01*
X0489566Y0274380D01*
X0489743Y0274277D01*
X0489917Y0274169D01*
X0490089Y0274057D01*
X0490258Y0273941D01*
X0490424Y0273821D01*
X0490587Y0273697D01*
X0490747Y0273569D01*
X0490904Y0273437D01*
X0491058Y0273301D01*
X0491208Y0273162D01*
X0491355Y0273019D01*
X0491498Y0272872D01*
X0491637Y0272722D01*
X0491773Y0272568D01*
X0491905Y0272411D01*
X0492033Y0272251D01*
X0492157Y0272088D01*
X0492277Y0271922D01*
X0492393Y0271753D01*
X0492505Y0271581D01*
X0492613Y0271407D01*
X0492716Y0271230D01*
X0492815Y0271050D01*
X0492909Y0270868D01*
X0492999Y0270684D01*
X0493084Y0270498D01*
X0493165Y0270309D01*
X0493241Y0270119D01*
X0493313Y0269927D01*
X0493379Y0269733D01*
X0493441Y0269537D01*
X0493498Y0269341D01*
X0493551Y0269142D01*
X0493598Y0268943D01*
X0493641Y0268742D01*
X0493678Y0268541D01*
X0493711Y0268338D01*
X0493738Y0268135D01*
X0493761Y0267932D01*
X0493778Y0267727D01*
X0493791Y0267523D01*
X0493798Y0267318D01*
X0493801Y0267113D01*
X0493798Y0266908D01*
X0493791Y0266703D01*
X0493778Y0266499D01*
X0493761Y0266294D01*
X0493738Y0266091D01*
X0493711Y0265888D01*
X0493678Y0265685D01*
X0493641Y0265484D01*
X0493598Y0265283D01*
X0493551Y0265084D01*
X0493498Y0264885D01*
X0493441Y0264689D01*
X0493379Y0264493D01*
X0493313Y0264299D01*
X0493241Y0264107D01*
X0493165Y0263917D01*
X0493084Y0263728D01*
X0492999Y0263542D01*
X0492909Y0263358D01*
X0492815Y0263176D01*
X0492716Y0262996D01*
X0492613Y0262819D01*
X0492505Y0262645D01*
X0492393Y0262473D01*
X0492277Y0262304D01*
X0492157Y0262138D01*
X0492033Y0261975D01*
X0491905Y0261815D01*
X0491773Y0261658D01*
X0491637Y0261504D01*
X0491498Y0261354D01*
X0491355Y0261207D01*
X0491208Y0261064D01*
X0491058Y0260925D01*
X0490904Y0260789D01*
X0490747Y0260657D01*
X0490587Y0260529D01*
X0490424Y0260405D01*
X0490258Y0260285D01*
X0490089Y0260169D01*
X0489917Y0260057D01*
X0489743Y0259949D01*
X0489566Y0259846D01*
X0489386Y0259747D01*
X0489204Y0259653D01*
X0489020Y0259563D01*
X0488834Y0259478D01*
X0488645Y0259397D01*
X0488455Y0259321D01*
X0488263Y0259249D01*
X0488069Y0259183D01*
X0487873Y0259121D01*
X0487677Y0259064D01*
X0487478Y0259011D01*
X0487279Y0258964D01*
X0487078Y0258921D01*
X0486877Y0258884D01*
X0486674Y0258851D01*
X0486471Y0258824D01*
X0486268Y0258801D01*
X0486063Y0258784D01*
X0485859Y0258771D01*
X0485654Y0258764D01*
X0485449Y0258761D01*
X0485244Y0258764D01*
X0485039Y0258771D01*
X0484835Y0258784D01*
X0484630Y0258801D01*
X0484427Y0258824D01*
X0484224Y0258851D01*
X0484021Y0258884D01*
X0483820Y0258921D01*
X0483619Y0258964D01*
X0483420Y0259011D01*
X0483221Y0259064D01*
X0483025Y0259121D01*
X0482829Y0259183D01*
X0482635Y0259249D01*
X0482443Y0259321D01*
X0482253Y0259397D01*
X0482064Y0259478D01*
X0481878Y0259563D01*
X0481694Y0259653D01*
X0481512Y0259747D01*
X0481332Y0259846D01*
X0481155Y0259949D01*
X0480981Y0260057D01*
X0480809Y0260169D01*
X0480640Y0260285D01*
X0480474Y0260405D01*
X0480311Y0260529D01*
X0480151Y0260657D01*
X0479994Y0260789D01*
X0479840Y0260925D01*
X0479690Y0261064D01*
X0479543Y0261207D01*
X0479400Y0261354D01*
X0479261Y0261504D01*
X0479125Y0261658D01*
X0478993Y0261815D01*
X0478865Y0261975D01*
X0478741Y0262138D01*
X0478621Y0262304D01*
X0478505Y0262473D01*
X0478393Y0262645D01*
X0478285Y0262819D01*
X0478182Y0262996D01*
X0478083Y0263176D01*
X0477989Y0263358D01*
X0477899Y0263542D01*
X0477814Y0263728D01*
X0477733Y0263917D01*
X0477657Y0264107D01*
X0477585Y0264299D01*
X0477519Y0264493D01*
X0477457Y0264689D01*
X0477400Y0264885D01*
X0477347Y0265084D01*
X0477300Y0265283D01*
X0477257Y0265484D01*
X0477220Y0265685D01*
X0477187Y0265888D01*
X0477160Y0266091D01*
X0477137Y0266294D01*
X0477120Y0266499D01*
X0477107Y0266703D01*
X0477100Y0266908D01*
X0477097Y0267113D01*
X0482665Y0267113D02*
X0482667Y0267218D01*
X0482673Y0267324D01*
X0482683Y0267428D01*
X0482697Y0267533D01*
X0482715Y0267637D01*
X0482736Y0267740D01*
X0482762Y0267842D01*
X0482792Y0267943D01*
X0482825Y0268043D01*
X0482862Y0268142D01*
X0482903Y0268239D01*
X0482947Y0268334D01*
X0482995Y0268428D01*
X0483047Y0268520D01*
X0483102Y0268610D01*
X0483160Y0268698D01*
X0483222Y0268783D01*
X0483287Y0268866D01*
X0483354Y0268947D01*
X0483425Y0269025D01*
X0483499Y0269100D01*
X0483576Y0269172D01*
X0483655Y0269242D01*
X0483737Y0269308D01*
X0483821Y0269371D01*
X0483908Y0269431D01*
X0483997Y0269488D01*
X0484088Y0269541D01*
X0484180Y0269591D01*
X0484275Y0269637D01*
X0484371Y0269680D01*
X0484469Y0269719D01*
X0484569Y0269754D01*
X0484669Y0269786D01*
X0484771Y0269813D01*
X0484874Y0269837D01*
X0484977Y0269857D01*
X0485081Y0269873D01*
X0485186Y0269885D01*
X0485291Y0269893D01*
X0485396Y0269897D01*
X0485502Y0269897D01*
X0485607Y0269893D01*
X0485712Y0269885D01*
X0485817Y0269873D01*
X0485921Y0269857D01*
X0486024Y0269837D01*
X0486127Y0269813D01*
X0486229Y0269786D01*
X0486329Y0269754D01*
X0486429Y0269719D01*
X0486527Y0269680D01*
X0486623Y0269637D01*
X0486718Y0269591D01*
X0486810Y0269541D01*
X0486901Y0269488D01*
X0486990Y0269431D01*
X0487077Y0269371D01*
X0487161Y0269308D01*
X0487243Y0269242D01*
X0487322Y0269172D01*
X0487399Y0269100D01*
X0487473Y0269025D01*
X0487544Y0268947D01*
X0487611Y0268866D01*
X0487676Y0268783D01*
X0487738Y0268698D01*
X0487796Y0268610D01*
X0487851Y0268520D01*
X0487903Y0268428D01*
X0487951Y0268334D01*
X0487995Y0268239D01*
X0488036Y0268142D01*
X0488073Y0268043D01*
X0488106Y0267943D01*
X0488136Y0267842D01*
X0488162Y0267740D01*
X0488183Y0267637D01*
X0488201Y0267533D01*
X0488215Y0267428D01*
X0488225Y0267324D01*
X0488231Y0267218D01*
X0488233Y0267113D01*
X0488231Y0267008D01*
X0488225Y0266902D01*
X0488215Y0266798D01*
X0488201Y0266693D01*
X0488183Y0266589D01*
X0488162Y0266486D01*
X0488136Y0266384D01*
X0488106Y0266283D01*
X0488073Y0266183D01*
X0488036Y0266084D01*
X0487995Y0265987D01*
X0487951Y0265892D01*
X0487903Y0265798D01*
X0487851Y0265706D01*
X0487796Y0265616D01*
X0487738Y0265528D01*
X0487676Y0265443D01*
X0487611Y0265360D01*
X0487544Y0265279D01*
X0487473Y0265201D01*
X0487399Y0265126D01*
X0487322Y0265054D01*
X0487243Y0264984D01*
X0487161Y0264918D01*
X0487077Y0264855D01*
X0486990Y0264795D01*
X0486901Y0264738D01*
X0486810Y0264685D01*
X0486718Y0264635D01*
X0486623Y0264589D01*
X0486527Y0264546D01*
X0486429Y0264507D01*
X0486329Y0264472D01*
X0486229Y0264440D01*
X0486127Y0264413D01*
X0486024Y0264389D01*
X0485921Y0264369D01*
X0485817Y0264353D01*
X0485712Y0264341D01*
X0485607Y0264333D01*
X0485502Y0264329D01*
X0485396Y0264329D01*
X0485291Y0264333D01*
X0485186Y0264341D01*
X0485081Y0264353D01*
X0484977Y0264369D01*
X0484874Y0264389D01*
X0484771Y0264413D01*
X0484669Y0264440D01*
X0484569Y0264472D01*
X0484469Y0264507D01*
X0484371Y0264546D01*
X0484275Y0264589D01*
X0484180Y0264635D01*
X0484088Y0264685D01*
X0483997Y0264738D01*
X0483908Y0264795D01*
X0483821Y0264855D01*
X0483737Y0264918D01*
X0483655Y0264984D01*
X0483576Y0265054D01*
X0483499Y0265126D01*
X0483425Y0265201D01*
X0483354Y0265279D01*
X0483287Y0265360D01*
X0483222Y0265443D01*
X0483160Y0265528D01*
X0483102Y0265616D01*
X0483047Y0265706D01*
X0482995Y0265798D01*
X0482947Y0265892D01*
X0482903Y0265987D01*
X0482862Y0266084D01*
X0482825Y0266183D01*
X0482792Y0266283D01*
X0482762Y0266384D01*
X0482736Y0266486D01*
X0482715Y0266589D01*
X0482697Y0266693D01*
X0482683Y0266798D01*
X0482673Y0266902D01*
X0482667Y0267008D01*
X0482665Y0267113D01*
X0479881Y0267113D02*
X0479883Y0267262D01*
X0479889Y0267411D01*
X0479899Y0267559D01*
X0479913Y0267707D01*
X0479931Y0267855D01*
X0479952Y0268002D01*
X0479978Y0268149D01*
X0480008Y0268295D01*
X0480041Y0268440D01*
X0480079Y0268584D01*
X0480120Y0268727D01*
X0480165Y0268869D01*
X0480214Y0269010D01*
X0480267Y0269149D01*
X0480323Y0269287D01*
X0480383Y0269423D01*
X0480446Y0269558D01*
X0480513Y0269690D01*
X0480584Y0269821D01*
X0480658Y0269951D01*
X0480736Y0270078D01*
X0480817Y0270203D01*
X0480901Y0270325D01*
X0480989Y0270446D01*
X0481079Y0270564D01*
X0481173Y0270679D01*
X0481270Y0270792D01*
X0481370Y0270903D01*
X0481473Y0271010D01*
X0481578Y0271115D01*
X0481687Y0271217D01*
X0481798Y0271317D01*
X0481911Y0271413D01*
X0482028Y0271506D01*
X0482146Y0271596D01*
X0482267Y0271682D01*
X0482390Y0271766D01*
X0482516Y0271846D01*
X0482644Y0271923D01*
X0482773Y0271996D01*
X0482905Y0272066D01*
X0483038Y0272132D01*
X0483173Y0272195D01*
X0483310Y0272254D01*
X0483448Y0272309D01*
X0483587Y0272361D01*
X0483728Y0272408D01*
X0483871Y0272453D01*
X0484014Y0272493D01*
X0484158Y0272529D01*
X0484303Y0272562D01*
X0484450Y0272591D01*
X0484596Y0272615D01*
X0484744Y0272636D01*
X0484892Y0272653D01*
X0485040Y0272666D01*
X0485189Y0272675D01*
X0485337Y0272680D01*
X0485486Y0272681D01*
X0485635Y0272678D01*
X0485784Y0272671D01*
X0485932Y0272660D01*
X0486080Y0272645D01*
X0486228Y0272626D01*
X0486375Y0272603D01*
X0486522Y0272577D01*
X0486667Y0272546D01*
X0486812Y0272512D01*
X0486956Y0272473D01*
X0487099Y0272431D01*
X0487240Y0272385D01*
X0487381Y0272335D01*
X0487519Y0272282D01*
X0487657Y0272225D01*
X0487793Y0272164D01*
X0487927Y0272099D01*
X0488059Y0272031D01*
X0488190Y0271960D01*
X0488319Y0271885D01*
X0488445Y0271806D01*
X0488569Y0271724D01*
X0488692Y0271639D01*
X0488811Y0271551D01*
X0488929Y0271460D01*
X0489044Y0271365D01*
X0489156Y0271267D01*
X0489266Y0271167D01*
X0489373Y0271063D01*
X0489477Y0270957D01*
X0489579Y0270848D01*
X0489677Y0270736D01*
X0489772Y0270622D01*
X0489865Y0270505D01*
X0489954Y0270386D01*
X0490039Y0270264D01*
X0490122Y0270140D01*
X0490201Y0270014D01*
X0490277Y0269886D01*
X0490350Y0269756D01*
X0490419Y0269624D01*
X0490484Y0269490D01*
X0490546Y0269355D01*
X0490604Y0269218D01*
X0490658Y0269079D01*
X0490709Y0268939D01*
X0490756Y0268798D01*
X0490799Y0268656D01*
X0490838Y0268512D01*
X0490874Y0268368D01*
X0490905Y0268222D01*
X0490933Y0268076D01*
X0490957Y0267929D01*
X0490977Y0267781D01*
X0490993Y0267633D01*
X0491005Y0267485D01*
X0491013Y0267336D01*
X0491017Y0267187D01*
X0491017Y0267039D01*
X0491013Y0266890D01*
X0491005Y0266741D01*
X0490993Y0266593D01*
X0490977Y0266445D01*
X0490957Y0266297D01*
X0490933Y0266150D01*
X0490905Y0266004D01*
X0490874Y0265858D01*
X0490838Y0265714D01*
X0490799Y0265570D01*
X0490756Y0265428D01*
X0490709Y0265287D01*
X0490658Y0265147D01*
X0490604Y0265008D01*
X0490546Y0264871D01*
X0490484Y0264736D01*
X0490419Y0264602D01*
X0490350Y0264470D01*
X0490277Y0264340D01*
X0490201Y0264212D01*
X0490122Y0264086D01*
X0490039Y0263962D01*
X0489954Y0263840D01*
X0489865Y0263721D01*
X0489772Y0263604D01*
X0489677Y0263490D01*
X0489579Y0263378D01*
X0489477Y0263269D01*
X0489373Y0263163D01*
X0489266Y0263059D01*
X0489156Y0262959D01*
X0489044Y0262861D01*
X0488929Y0262766D01*
X0488811Y0262675D01*
X0488692Y0262587D01*
X0488569Y0262502D01*
X0488445Y0262420D01*
X0488319Y0262341D01*
X0488190Y0262266D01*
X0488059Y0262195D01*
X0487927Y0262127D01*
X0487793Y0262062D01*
X0487657Y0262001D01*
X0487519Y0261944D01*
X0487381Y0261891D01*
X0487240Y0261841D01*
X0487099Y0261795D01*
X0486956Y0261753D01*
X0486812Y0261714D01*
X0486667Y0261680D01*
X0486522Y0261649D01*
X0486375Y0261623D01*
X0486228Y0261600D01*
X0486080Y0261581D01*
X0485932Y0261566D01*
X0485784Y0261555D01*
X0485635Y0261548D01*
X0485486Y0261545D01*
X0485337Y0261546D01*
X0485189Y0261551D01*
X0485040Y0261560D01*
X0484892Y0261573D01*
X0484744Y0261590D01*
X0484596Y0261611D01*
X0484450Y0261635D01*
X0484303Y0261664D01*
X0484158Y0261697D01*
X0484014Y0261733D01*
X0483871Y0261773D01*
X0483728Y0261818D01*
X0483587Y0261865D01*
X0483448Y0261917D01*
X0483310Y0261972D01*
X0483173Y0262031D01*
X0483038Y0262094D01*
X0482905Y0262160D01*
X0482773Y0262230D01*
X0482644Y0262303D01*
X0482516Y0262380D01*
X0482390Y0262460D01*
X0482267Y0262544D01*
X0482146Y0262630D01*
X0482028Y0262720D01*
X0481911Y0262813D01*
X0481798Y0262909D01*
X0481687Y0263009D01*
X0481578Y0263111D01*
X0481473Y0263216D01*
X0481370Y0263323D01*
X0481270Y0263434D01*
X0481173Y0263547D01*
X0481079Y0263662D01*
X0480989Y0263780D01*
X0480901Y0263901D01*
X0480817Y0264023D01*
X0480736Y0264148D01*
X0480658Y0264275D01*
X0480584Y0264405D01*
X0480513Y0264536D01*
X0480446Y0264668D01*
X0480383Y0264803D01*
X0480323Y0264939D01*
X0480267Y0265077D01*
X0480214Y0265216D01*
X0480165Y0265357D01*
X0480120Y0265499D01*
X0480079Y0265642D01*
X0480041Y0265786D01*
X0480008Y0265931D01*
X0479978Y0266077D01*
X0479952Y0266224D01*
X0479931Y0266371D01*
X0479913Y0266519D01*
X0479899Y0266667D01*
X0479889Y0266815D01*
X0479883Y0266964D01*
X0479881Y0267113D01*
X0485449Y0278924D02*
X0485449Y0255302D01*
D14*
X0287024Y0121640D03*
D15*
X0305134Y0121837D03*
D16*
X0341846Y0150714D02*
X0342213Y0150347D01*
X0343681Y0150347D01*
X0344048Y0150714D01*
X0344048Y0151448D01*
X0343681Y0151815D01*
X0343681Y0152557D02*
X0344048Y0152924D01*
X0344048Y0153658D01*
X0343681Y0154025D01*
X0343314Y0154025D01*
X0342947Y0153658D01*
X0342947Y0152557D01*
X0343681Y0152557D01*
X0342947Y0152557D02*
X0342213Y0153291D01*
X0341846Y0154025D01*
X0342947Y0154767D02*
X0342947Y0155868D01*
X0343314Y0156235D01*
X0343681Y0156235D01*
X0344048Y0155868D01*
X0344048Y0155134D01*
X0343681Y0154767D01*
X0342947Y0154767D01*
X0342213Y0155501D01*
X0341846Y0156235D01*
X0342213Y0151815D02*
X0341846Y0151448D01*
X0341846Y0150714D01*
X0252869Y0151089D02*
X0252502Y0150722D01*
X0252869Y0151089D02*
X0252869Y0151823D01*
X0252502Y0152190D01*
X0252135Y0152190D01*
X0251768Y0151823D01*
X0251768Y0151456D01*
X0251768Y0151823D02*
X0251401Y0152190D01*
X0251034Y0152190D01*
X0250667Y0151823D01*
X0250667Y0151089D01*
X0251034Y0150722D01*
X0251034Y0149980D02*
X0250667Y0149613D01*
X0250667Y0148879D01*
X0251034Y0148512D01*
X0252502Y0148512D01*
X0252869Y0148879D01*
X0252869Y0149613D01*
X0252502Y0149980D01*
X0251768Y0152932D02*
X0251768Y0154400D01*
X0252869Y0154033D02*
X0250667Y0154033D01*
X0251768Y0152932D01*
X0218303Y0184014D02*
X0216835Y0184014D01*
X0218303Y0185482D01*
X0218303Y0185849D01*
X0217936Y0186216D01*
X0217202Y0186216D01*
X0216835Y0185849D01*
X0216093Y0186216D02*
X0216093Y0184381D01*
X0215726Y0184014D01*
X0214992Y0184014D01*
X0214625Y0184381D01*
X0214625Y0186216D01*
D17*
X0212220Y0188688D02*
X0212220Y0210223D01*
X0233283Y0188688D02*
X0235252Y0190656D01*
X0237220Y0190656D01*
X0239189Y0188688D01*
X0267142Y0188688D01*
X0267142Y0210223D01*
X0233283Y0188688D02*
X0212220Y0188688D01*
X0218520Y0183058D02*
X0218520Y0175971D01*
X0218519Y0175971D02*
X0218521Y0175932D01*
X0218527Y0175894D01*
X0218536Y0175857D01*
X0218549Y0175820D01*
X0218566Y0175785D01*
X0218585Y0175752D01*
X0218608Y0175721D01*
X0218634Y0175692D01*
X0218663Y0175666D01*
X0218694Y0175643D01*
X0218727Y0175624D01*
X0218762Y0175607D01*
X0218799Y0175594D01*
X0218836Y0175585D01*
X0218874Y0175579D01*
X0218913Y0175577D01*
X0228987Y0175577D01*
X0229033Y0175579D01*
X0229079Y0175585D01*
X0229124Y0175594D01*
X0229168Y0175607D01*
X0229211Y0175624D01*
X0229252Y0175644D01*
X0229292Y0175668D01*
X0229329Y0175694D01*
X0229364Y0175724D01*
X0229397Y0175757D01*
X0229427Y0175792D01*
X0229453Y0175829D01*
X0229477Y0175869D01*
X0229497Y0175910D01*
X0229514Y0175953D01*
X0229527Y0175997D01*
X0229536Y0176042D01*
X0229542Y0176088D01*
X0229544Y0176134D01*
X0229543Y0176134D02*
X0229543Y0182895D01*
X0229544Y0182895D02*
X0229542Y0182941D01*
X0229536Y0182987D01*
X0229527Y0183032D01*
X0229514Y0183076D01*
X0229497Y0183119D01*
X0229477Y0183160D01*
X0229453Y0183200D01*
X0229427Y0183237D01*
X0229397Y0183272D01*
X0229364Y0183305D01*
X0229329Y0183335D01*
X0229292Y0183361D01*
X0229252Y0183385D01*
X0229211Y0183405D01*
X0229168Y0183422D01*
X0229124Y0183435D01*
X0229079Y0183444D01*
X0229033Y0183450D01*
X0228987Y0183452D01*
X0228987Y0183451D02*
X0218913Y0183451D01*
X0218913Y0183452D02*
X0218874Y0183450D01*
X0218836Y0183444D01*
X0218799Y0183435D01*
X0218762Y0183422D01*
X0218727Y0183405D01*
X0218694Y0183386D01*
X0218663Y0183363D01*
X0218634Y0183337D01*
X0218608Y0183308D01*
X0218585Y0183277D01*
X0218566Y0183244D01*
X0218549Y0183209D01*
X0218536Y0183172D01*
X0218527Y0183135D01*
X0218521Y0183097D01*
X0218519Y0183058D01*
X0203953Y0182861D02*
X0200016Y0182861D01*
X0200016Y0178924D02*
X0203953Y0178924D01*
X0231906Y0172231D02*
X0231906Y0168294D01*
X0235843Y0168294D02*
X0235843Y0172231D01*
X0244110Y0173215D02*
X0244504Y0173215D01*
X0244110Y0173215D02*
X0244110Y0179514D01*
X0244504Y0179514D01*
X0252969Y0184042D02*
X0258087Y0184042D01*
X0255528Y0186601D01*
X0252969Y0184042D01*
X0255528Y0179514D02*
X0255921Y0179514D01*
X0255921Y0173215D01*
X0255528Y0173215D01*
X0263402Y0172231D02*
X0265764Y0172231D01*
X0265764Y0178530D01*
X0273638Y0178530D01*
X0273638Y0172231D01*
X0265764Y0172231D01*
X0273638Y0172231D02*
X0276000Y0172231D01*
X0276000Y0178530D02*
X0273638Y0178530D01*
X0268520Y0180105D02*
X0264583Y0180105D01*
X0263402Y0178530D02*
X0265764Y0178530D01*
X0264583Y0184042D02*
X0268520Y0184042D01*
X0273244Y0154514D02*
X0262614Y0154514D01*
X0262614Y0141522D01*
X0273244Y0141522D01*
X0273244Y0154514D01*
X0345380Y0151198D02*
X0345380Y0127556D01*
X0370990Y0127556D01*
X0370990Y0151198D01*
X0345380Y0151198D01*
X0345429Y0151188D02*
X0346610Y0151188D01*
X0345429Y0150007D01*
X0345429Y0151188D01*
X0345429Y0151021D02*
X0346444Y0151021D01*
X0345945Y0150523D02*
X0345429Y0150523D01*
X0345429Y0150024D02*
X0345447Y0150024D01*
X0349622Y0188373D02*
X0349622Y0192310D01*
X0353559Y0192310D02*
X0353559Y0188373D01*
X0388992Y0188373D02*
X0388992Y0192310D01*
X0392929Y0192310D02*
X0392929Y0188373D01*
X0258283Y0097822D02*
X0247260Y0097822D01*
X0247260Y0084436D01*
X0258283Y0084436D01*
X0258283Y0097822D01*
X0134770Y0127556D02*
X0134770Y0151198D01*
X0109159Y0151198D01*
X0109159Y0127556D01*
X0134770Y0127556D01*
X0110390Y0151188D02*
X0109209Y0151188D01*
X0109209Y0150007D01*
X0110390Y0151188D01*
X0110223Y0151021D02*
X0109209Y0151021D01*
X0109209Y0150523D02*
X0109725Y0150523D01*
X0109226Y0150024D02*
X0109209Y0150024D01*
X0113402Y0188373D02*
X0113402Y0192310D01*
X0117339Y0192310D02*
X0117339Y0188373D01*
X0152772Y0188373D02*
X0152772Y0192310D01*
X0156709Y0192310D02*
X0156709Y0188373D01*
D18*
X0274622Y0191522D02*
X0274622Y0193097D01*
X0277378Y0193097D02*
X0277378Y0191522D01*
D19*
X0277132Y0192802D03*
D20*
X0250016Y0156877D02*
X0210646Y0156877D01*
X0210646Y0152940D01*
X0214583Y0156877D01*
X0210646Y0156877D01*
X0210646Y0117507D01*
X0250016Y0117507D01*
X0250016Y0156877D01*
X0214208Y0156502D02*
X0210646Y0156502D01*
X0210646Y0155703D02*
X0213409Y0155703D01*
X0212611Y0154905D02*
X0210646Y0154905D01*
X0210646Y0154106D02*
X0211812Y0154106D01*
X0211014Y0153308D02*
X0210646Y0153308D01*
X0193126Y0157467D02*
X0193126Y0179121D01*
X0193124Y0179183D01*
X0193118Y0179244D01*
X0193109Y0179305D01*
X0193095Y0179366D01*
X0193078Y0179425D01*
X0193057Y0179483D01*
X0193032Y0179540D01*
X0193004Y0179595D01*
X0192973Y0179648D01*
X0192938Y0179699D01*
X0192900Y0179748D01*
X0192859Y0179795D01*
X0192816Y0179838D01*
X0192769Y0179879D01*
X0192720Y0179917D01*
X0192669Y0179952D01*
X0192616Y0179983D01*
X0192561Y0180011D01*
X0192504Y0180036D01*
X0192446Y0180057D01*
X0192387Y0180074D01*
X0192326Y0180088D01*
X0192265Y0180097D01*
X0192204Y0180103D01*
X0192142Y0180105D01*
X0190567Y0180105D01*
X0189189Y0174199D02*
X0183283Y0174199D01*
X0183283Y0162388D01*
X0189189Y0162388D01*
X0189189Y0174199D01*
X0180331Y0180105D02*
X0180269Y0180103D01*
X0180208Y0180097D01*
X0180147Y0180088D01*
X0180086Y0180074D01*
X0180027Y0180057D01*
X0179969Y0180036D01*
X0179912Y0180011D01*
X0179857Y0179983D01*
X0179804Y0179952D01*
X0179753Y0179917D01*
X0179704Y0179879D01*
X0179657Y0179838D01*
X0179614Y0179795D01*
X0179573Y0179748D01*
X0179535Y0179699D01*
X0179500Y0179648D01*
X0179469Y0179595D01*
X0179441Y0179540D01*
X0179416Y0179483D01*
X0179395Y0179425D01*
X0179378Y0179366D01*
X0179364Y0179305D01*
X0179355Y0179244D01*
X0179349Y0179183D01*
X0179347Y0179121D01*
X0179346Y0179121D02*
X0179346Y0157467D01*
X0179347Y0157467D02*
X0179349Y0157405D01*
X0179355Y0157344D01*
X0179364Y0157283D01*
X0179378Y0157222D01*
X0179395Y0157163D01*
X0179416Y0157105D01*
X0179441Y0157048D01*
X0179469Y0156993D01*
X0179500Y0156940D01*
X0179535Y0156889D01*
X0179573Y0156840D01*
X0179614Y0156793D01*
X0179657Y0156750D01*
X0179704Y0156709D01*
X0179753Y0156671D01*
X0179804Y0156636D01*
X0179857Y0156605D01*
X0179912Y0156577D01*
X0179969Y0156552D01*
X0180027Y0156531D01*
X0180086Y0156514D01*
X0180147Y0156500D01*
X0180208Y0156491D01*
X0180269Y0156485D01*
X0180331Y0156483D01*
X0181906Y0156483D01*
X0175094Y0160282D02*
X0175094Y0165282D01*
X0172594Y0167782D01*
X0175094Y0170282D01*
X0175094Y0175282D01*
X0172594Y0177782D01*
X0167594Y0177782D01*
X0165094Y0175282D01*
X0165094Y0170282D01*
X0167594Y0167782D01*
X0165094Y0165282D01*
X0165094Y0160282D01*
X0167594Y0157782D01*
X0172594Y0157782D01*
X0175094Y0160282D01*
X0190567Y0156483D02*
X0192142Y0156483D01*
X0192204Y0156485D01*
X0192265Y0156491D01*
X0192326Y0156500D01*
X0192387Y0156514D01*
X0192446Y0156531D01*
X0192504Y0156552D01*
X0192561Y0156577D01*
X0192616Y0156605D01*
X0192669Y0156636D01*
X0192720Y0156671D01*
X0192769Y0156709D01*
X0192816Y0156750D01*
X0192859Y0156793D01*
X0192900Y0156840D01*
X0192938Y0156889D01*
X0192973Y0156940D01*
X0193004Y0156993D01*
X0193032Y0157048D01*
X0193057Y0157105D01*
X0193078Y0157163D01*
X0193095Y0157222D01*
X0193109Y0157283D01*
X0193118Y0157344D01*
X0193124Y0157405D01*
X0193126Y0157467D01*
X0191748Y0136798D02*
X0191748Y0123806D01*
X0172850Y0123806D02*
X0172850Y0136798D01*
X0180331Y0180105D02*
X0181906Y0180105D01*
X0283177Y0118526D02*
X0308980Y0118526D01*
X0308979Y0094926D01*
X0283179Y0094926D02*
X0283177Y0118526D01*
X0214858Y0086542D02*
X0214858Y0081542D01*
X0212358Y0079042D01*
X0207358Y0079042D01*
X0204858Y0081542D01*
X0202358Y0079042D01*
X0197358Y0079042D01*
X0194858Y0081542D01*
X0192358Y0079042D01*
X0187358Y0079042D01*
X0184858Y0081542D01*
X0182358Y0079042D01*
X0177358Y0079042D01*
X0174858Y0081542D01*
X0172358Y0079042D01*
X0167358Y0079042D01*
X0164858Y0081542D01*
X0162358Y0079042D01*
X0157358Y0079042D01*
X0154858Y0081542D01*
X0154858Y0086542D01*
X0157358Y0089042D01*
X0162358Y0089042D01*
X0164858Y0086542D01*
X0167358Y0089042D01*
X0172358Y0089042D01*
X0174858Y0086542D01*
X0177358Y0089042D01*
X0182358Y0089042D01*
X0184858Y0086542D01*
X0187358Y0089042D01*
X0192358Y0089042D01*
X0194858Y0086542D01*
X0197358Y0089042D01*
X0202358Y0089042D01*
X0204858Y0086542D01*
X0207358Y0089042D01*
X0212358Y0089042D01*
X0214858Y0086542D01*
D21*
X0256708Y0178727D02*
X0256710Y0178766D01*
X0256716Y0178805D01*
X0256726Y0178843D01*
X0256739Y0178880D01*
X0256756Y0178915D01*
X0256776Y0178949D01*
X0256800Y0178980D01*
X0256827Y0179009D01*
X0256856Y0179035D01*
X0256888Y0179058D01*
X0256922Y0179078D01*
X0256958Y0179094D01*
X0256995Y0179106D01*
X0257034Y0179115D01*
X0257073Y0179120D01*
X0257112Y0179121D01*
X0257151Y0179118D01*
X0257190Y0179111D01*
X0257227Y0179100D01*
X0257264Y0179086D01*
X0257299Y0179068D01*
X0257332Y0179047D01*
X0257363Y0179022D01*
X0257391Y0178995D01*
X0257416Y0178965D01*
X0257438Y0178932D01*
X0257457Y0178898D01*
X0257472Y0178862D01*
X0257484Y0178824D01*
X0257492Y0178786D01*
X0257496Y0178747D01*
X0257496Y0178707D01*
X0257492Y0178668D01*
X0257484Y0178630D01*
X0257472Y0178592D01*
X0257457Y0178556D01*
X0257438Y0178522D01*
X0257416Y0178489D01*
X0257391Y0178459D01*
X0257363Y0178432D01*
X0257332Y0178407D01*
X0257299Y0178386D01*
X0257264Y0178368D01*
X0257227Y0178354D01*
X0257190Y0178343D01*
X0257151Y0178336D01*
X0257112Y0178333D01*
X0257073Y0178334D01*
X0257034Y0178339D01*
X0256995Y0178348D01*
X0256958Y0178360D01*
X0256922Y0178376D01*
X0256888Y0178396D01*
X0256856Y0178419D01*
X0256827Y0178445D01*
X0256800Y0178474D01*
X0256776Y0178505D01*
X0256756Y0178539D01*
X0256739Y0178574D01*
X0256726Y0178611D01*
X0256716Y0178649D01*
X0256710Y0178688D01*
X0256708Y0178727D01*
X0227575Y0184239D02*
X0227577Y0184278D01*
X0227583Y0184317D01*
X0227593Y0184355D01*
X0227606Y0184392D01*
X0227623Y0184427D01*
X0227643Y0184461D01*
X0227667Y0184492D01*
X0227694Y0184521D01*
X0227723Y0184547D01*
X0227755Y0184570D01*
X0227789Y0184590D01*
X0227825Y0184606D01*
X0227862Y0184618D01*
X0227901Y0184627D01*
X0227940Y0184632D01*
X0227979Y0184633D01*
X0228018Y0184630D01*
X0228057Y0184623D01*
X0228094Y0184612D01*
X0228131Y0184598D01*
X0228166Y0184580D01*
X0228199Y0184559D01*
X0228230Y0184534D01*
X0228258Y0184507D01*
X0228283Y0184477D01*
X0228305Y0184444D01*
X0228324Y0184410D01*
X0228339Y0184374D01*
X0228351Y0184336D01*
X0228359Y0184298D01*
X0228363Y0184259D01*
X0228363Y0184219D01*
X0228359Y0184180D01*
X0228351Y0184142D01*
X0228339Y0184104D01*
X0228324Y0184068D01*
X0228305Y0184034D01*
X0228283Y0184001D01*
X0228258Y0183971D01*
X0228230Y0183944D01*
X0228199Y0183919D01*
X0228166Y0183898D01*
X0228131Y0183880D01*
X0228094Y0183866D01*
X0228057Y0183855D01*
X0228018Y0183848D01*
X0227979Y0183845D01*
X0227940Y0183846D01*
X0227901Y0183851D01*
X0227862Y0183860D01*
X0227825Y0183872D01*
X0227789Y0183888D01*
X0227755Y0183908D01*
X0227723Y0183931D01*
X0227694Y0183957D01*
X0227667Y0183986D01*
X0227643Y0184017D01*
X0227623Y0184051D01*
X0227606Y0184086D01*
X0227593Y0184123D01*
X0227583Y0184161D01*
X0227577Y0184200D01*
X0227575Y0184239D01*
D22*
X0189133Y0134886D02*
X0189135Y0134933D01*
X0189141Y0134980D01*
X0189151Y0135027D01*
X0189164Y0135072D01*
X0189182Y0135116D01*
X0189203Y0135159D01*
X0189228Y0135199D01*
X0189255Y0135238D01*
X0189286Y0135273D01*
X0189320Y0135307D01*
X0189357Y0135337D01*
X0189396Y0135364D01*
X0189437Y0135388D01*
X0189480Y0135408D01*
X0189524Y0135424D01*
X0189570Y0135437D01*
X0189616Y0135446D01*
X0189663Y0135451D01*
X0189711Y0135452D01*
X0189758Y0135449D01*
X0189805Y0135442D01*
X0189851Y0135431D01*
X0189896Y0135417D01*
X0189940Y0135398D01*
X0189982Y0135376D01*
X0190022Y0135351D01*
X0190060Y0135322D01*
X0190095Y0135290D01*
X0190127Y0135256D01*
X0190157Y0135219D01*
X0190183Y0135179D01*
X0190206Y0135138D01*
X0190225Y0135094D01*
X0190241Y0135050D01*
X0190253Y0135004D01*
X0190261Y0134957D01*
X0190265Y0134910D01*
X0190265Y0134862D01*
X0190261Y0134815D01*
X0190253Y0134768D01*
X0190241Y0134722D01*
X0190225Y0134678D01*
X0190206Y0134634D01*
X0190183Y0134593D01*
X0190157Y0134553D01*
X0190127Y0134516D01*
X0190095Y0134482D01*
X0190060Y0134450D01*
X0190022Y0134421D01*
X0189982Y0134396D01*
X0189940Y0134374D01*
X0189896Y0134355D01*
X0189851Y0134341D01*
X0189805Y0134330D01*
X0189758Y0134323D01*
X0189711Y0134320D01*
X0189663Y0134321D01*
X0189616Y0134326D01*
X0189570Y0134335D01*
X0189524Y0134348D01*
X0189480Y0134364D01*
X0189437Y0134384D01*
X0189396Y0134408D01*
X0189357Y0134435D01*
X0189320Y0134465D01*
X0189286Y0134499D01*
X0189255Y0134534D01*
X0189228Y0134573D01*
X0189203Y0134613D01*
X0189182Y0134656D01*
X0189164Y0134700D01*
X0189151Y0134745D01*
X0189141Y0134792D01*
X0189135Y0134839D01*
X0189133Y0134886D01*
D23*
X0296079Y0120426D03*
D24*
X0247260Y0099790D03*
M02*
