G75*
%MOIN*%
%OFA0B0*%
%FSLAX25Y25*%
%IPPOS*%
%LPD*%
%AMOC8*
5,1,8,0,0,1.08239X$1,22.5*
%
%ADD10C,0.01000*%
%ADD11C,0.00394*%
%ADD12C,0.00000*%
D10*
X0062220Y0070262D02*
X0416551Y0070262D01*
X0416789Y0070265D01*
X0417027Y0070273D01*
X0417264Y0070288D01*
X0417501Y0070308D01*
X0417737Y0070334D01*
X0417973Y0070365D01*
X0418208Y0070402D01*
X0418442Y0070445D01*
X0418675Y0070494D01*
X0418907Y0070548D01*
X0419137Y0070608D01*
X0419366Y0070673D01*
X0419593Y0070744D01*
X0419818Y0070820D01*
X0420041Y0070902D01*
X0420263Y0070989D01*
X0420482Y0071081D01*
X0420699Y0071179D01*
X0420913Y0071281D01*
X0421125Y0071389D01*
X0421335Y0071503D01*
X0421541Y0071621D01*
X0421745Y0071744D01*
X0421945Y0071872D01*
X0422142Y0072004D01*
X0422337Y0072142D01*
X0422527Y0072284D01*
X0422715Y0072431D01*
X0422898Y0072582D01*
X0423078Y0072737D01*
X0423254Y0072897D01*
X0423426Y0073061D01*
X0423595Y0073230D01*
X0423759Y0073402D01*
X0423919Y0073578D01*
X0424074Y0073758D01*
X0424225Y0073941D01*
X0424372Y0074129D01*
X0424514Y0074319D01*
X0424652Y0074514D01*
X0424784Y0074711D01*
X0424912Y0074911D01*
X0425035Y0075115D01*
X0425153Y0075321D01*
X0425267Y0075531D01*
X0425375Y0075743D01*
X0425477Y0075957D01*
X0425575Y0076174D01*
X0425667Y0076393D01*
X0425754Y0076615D01*
X0425836Y0076838D01*
X0425912Y0077063D01*
X0425983Y0077290D01*
X0426048Y0077519D01*
X0426108Y0077749D01*
X0426162Y0077981D01*
X0426211Y0078214D01*
X0426254Y0078448D01*
X0426291Y0078683D01*
X0426322Y0078919D01*
X0426348Y0079155D01*
X0426368Y0079392D01*
X0426383Y0079629D01*
X0426391Y0079867D01*
X0426394Y0080105D01*
X0426394Y0198215D01*
X0426391Y0198453D01*
X0426383Y0198691D01*
X0426368Y0198928D01*
X0426348Y0199165D01*
X0426322Y0199401D01*
X0426291Y0199637D01*
X0426254Y0199872D01*
X0426211Y0200106D01*
X0426162Y0200339D01*
X0426108Y0200571D01*
X0426048Y0200801D01*
X0425983Y0201030D01*
X0425912Y0201257D01*
X0425836Y0201482D01*
X0425754Y0201705D01*
X0425667Y0201927D01*
X0425575Y0202146D01*
X0425477Y0202363D01*
X0425375Y0202577D01*
X0425267Y0202789D01*
X0425153Y0202999D01*
X0425035Y0203205D01*
X0424912Y0203409D01*
X0424784Y0203609D01*
X0424652Y0203806D01*
X0424514Y0204001D01*
X0424372Y0204191D01*
X0424225Y0204379D01*
X0424074Y0204562D01*
X0423919Y0204742D01*
X0423759Y0204918D01*
X0423595Y0205090D01*
X0423426Y0205259D01*
X0423254Y0205423D01*
X0423078Y0205583D01*
X0422898Y0205738D01*
X0422715Y0205889D01*
X0422527Y0206036D01*
X0422337Y0206178D01*
X0422142Y0206316D01*
X0421945Y0206448D01*
X0421745Y0206576D01*
X0421541Y0206699D01*
X0421335Y0206817D01*
X0421125Y0206931D01*
X0420913Y0207039D01*
X0420699Y0207141D01*
X0420482Y0207239D01*
X0420263Y0207331D01*
X0420041Y0207418D01*
X0419818Y0207500D01*
X0419593Y0207576D01*
X0419366Y0207647D01*
X0419137Y0207712D01*
X0418907Y0207772D01*
X0418675Y0207826D01*
X0418442Y0207875D01*
X0418208Y0207918D01*
X0417973Y0207955D01*
X0417737Y0207986D01*
X0417501Y0208012D01*
X0417264Y0208032D01*
X0417027Y0208047D01*
X0416789Y0208055D01*
X0416551Y0208058D01*
X0062220Y0208058D01*
X0061982Y0208055D01*
X0061744Y0208047D01*
X0061507Y0208032D01*
X0061270Y0208012D01*
X0061034Y0207986D01*
X0060798Y0207955D01*
X0060563Y0207918D01*
X0060329Y0207875D01*
X0060096Y0207826D01*
X0059864Y0207772D01*
X0059634Y0207712D01*
X0059405Y0207647D01*
X0059178Y0207576D01*
X0058953Y0207500D01*
X0058730Y0207418D01*
X0058508Y0207331D01*
X0058289Y0207239D01*
X0058072Y0207141D01*
X0057858Y0207039D01*
X0057646Y0206931D01*
X0057436Y0206817D01*
X0057230Y0206699D01*
X0057026Y0206576D01*
X0056826Y0206448D01*
X0056629Y0206316D01*
X0056434Y0206178D01*
X0056244Y0206036D01*
X0056056Y0205889D01*
X0055873Y0205738D01*
X0055693Y0205583D01*
X0055517Y0205423D01*
X0055345Y0205259D01*
X0055176Y0205090D01*
X0055012Y0204918D01*
X0054852Y0204742D01*
X0054697Y0204562D01*
X0054546Y0204379D01*
X0054399Y0204191D01*
X0054257Y0204001D01*
X0054119Y0203806D01*
X0053987Y0203609D01*
X0053859Y0203409D01*
X0053736Y0203205D01*
X0053618Y0202999D01*
X0053504Y0202789D01*
X0053396Y0202577D01*
X0053294Y0202363D01*
X0053196Y0202146D01*
X0053104Y0201927D01*
X0053017Y0201705D01*
X0052935Y0201482D01*
X0052859Y0201257D01*
X0052788Y0201030D01*
X0052723Y0200801D01*
X0052663Y0200571D01*
X0052609Y0200339D01*
X0052560Y0200106D01*
X0052517Y0199872D01*
X0052480Y0199637D01*
X0052449Y0199401D01*
X0052423Y0199165D01*
X0052403Y0198928D01*
X0052388Y0198691D01*
X0052380Y0198453D01*
X0052377Y0198215D01*
X0052378Y0198215D02*
X0052378Y0080105D01*
X0052377Y0080105D02*
X0052380Y0079867D01*
X0052388Y0079629D01*
X0052403Y0079392D01*
X0052423Y0079155D01*
X0052449Y0078919D01*
X0052480Y0078683D01*
X0052517Y0078448D01*
X0052560Y0078214D01*
X0052609Y0077981D01*
X0052663Y0077749D01*
X0052723Y0077519D01*
X0052788Y0077290D01*
X0052859Y0077063D01*
X0052935Y0076838D01*
X0053017Y0076615D01*
X0053104Y0076393D01*
X0053196Y0076174D01*
X0053294Y0075957D01*
X0053396Y0075743D01*
X0053504Y0075531D01*
X0053618Y0075321D01*
X0053736Y0075115D01*
X0053859Y0074911D01*
X0053987Y0074711D01*
X0054119Y0074514D01*
X0054257Y0074319D01*
X0054399Y0074129D01*
X0054546Y0073941D01*
X0054697Y0073758D01*
X0054852Y0073578D01*
X0055012Y0073402D01*
X0055176Y0073230D01*
X0055345Y0073061D01*
X0055517Y0072897D01*
X0055693Y0072737D01*
X0055873Y0072582D01*
X0056056Y0072431D01*
X0056244Y0072284D01*
X0056434Y0072142D01*
X0056629Y0072004D01*
X0056826Y0071872D01*
X0057026Y0071744D01*
X0057230Y0071621D01*
X0057436Y0071503D01*
X0057646Y0071389D01*
X0057858Y0071281D01*
X0058072Y0071179D01*
X0058289Y0071081D01*
X0058508Y0070989D01*
X0058730Y0070902D01*
X0058953Y0070820D01*
X0059178Y0070744D01*
X0059405Y0070673D01*
X0059634Y0070608D01*
X0059864Y0070548D01*
X0060096Y0070494D01*
X0060329Y0070445D01*
X0060563Y0070402D01*
X0060798Y0070365D01*
X0061034Y0070334D01*
X0061270Y0070308D01*
X0061507Y0070288D01*
X0061744Y0070273D01*
X0061982Y0070265D01*
X0062220Y0070262D01*
D11*
X0013008Y0042703D02*
X0013008Y0019081D01*
X0004656Y0030892D02*
X0004659Y0031097D01*
X0004666Y0031302D01*
X0004679Y0031506D01*
X0004696Y0031711D01*
X0004719Y0031914D01*
X0004746Y0032117D01*
X0004779Y0032320D01*
X0004816Y0032521D01*
X0004859Y0032722D01*
X0004906Y0032921D01*
X0004959Y0033120D01*
X0005016Y0033316D01*
X0005078Y0033512D01*
X0005144Y0033706D01*
X0005216Y0033898D01*
X0005292Y0034088D01*
X0005373Y0034277D01*
X0005458Y0034463D01*
X0005548Y0034647D01*
X0005642Y0034829D01*
X0005741Y0035009D01*
X0005844Y0035186D01*
X0005952Y0035360D01*
X0006064Y0035532D01*
X0006180Y0035701D01*
X0006300Y0035867D01*
X0006424Y0036030D01*
X0006552Y0036190D01*
X0006684Y0036347D01*
X0006820Y0036501D01*
X0006959Y0036651D01*
X0007102Y0036798D01*
X0007249Y0036941D01*
X0007399Y0037080D01*
X0007553Y0037216D01*
X0007710Y0037348D01*
X0007870Y0037476D01*
X0008033Y0037600D01*
X0008199Y0037720D01*
X0008368Y0037836D01*
X0008540Y0037948D01*
X0008714Y0038056D01*
X0008891Y0038159D01*
X0009071Y0038258D01*
X0009253Y0038352D01*
X0009437Y0038442D01*
X0009623Y0038527D01*
X0009812Y0038608D01*
X0010002Y0038684D01*
X0010194Y0038756D01*
X0010388Y0038822D01*
X0010584Y0038884D01*
X0010780Y0038941D01*
X0010979Y0038994D01*
X0011178Y0039041D01*
X0011379Y0039084D01*
X0011580Y0039121D01*
X0011783Y0039154D01*
X0011986Y0039181D01*
X0012189Y0039204D01*
X0012394Y0039221D01*
X0012598Y0039234D01*
X0012803Y0039241D01*
X0013008Y0039244D01*
X0013213Y0039241D01*
X0013418Y0039234D01*
X0013622Y0039221D01*
X0013827Y0039204D01*
X0014030Y0039181D01*
X0014233Y0039154D01*
X0014436Y0039121D01*
X0014637Y0039084D01*
X0014838Y0039041D01*
X0015037Y0038994D01*
X0015236Y0038941D01*
X0015432Y0038884D01*
X0015628Y0038822D01*
X0015822Y0038756D01*
X0016014Y0038684D01*
X0016204Y0038608D01*
X0016393Y0038527D01*
X0016579Y0038442D01*
X0016763Y0038352D01*
X0016945Y0038258D01*
X0017125Y0038159D01*
X0017302Y0038056D01*
X0017476Y0037948D01*
X0017648Y0037836D01*
X0017817Y0037720D01*
X0017983Y0037600D01*
X0018146Y0037476D01*
X0018306Y0037348D01*
X0018463Y0037216D01*
X0018617Y0037080D01*
X0018767Y0036941D01*
X0018914Y0036798D01*
X0019057Y0036651D01*
X0019196Y0036501D01*
X0019332Y0036347D01*
X0019464Y0036190D01*
X0019592Y0036030D01*
X0019716Y0035867D01*
X0019836Y0035701D01*
X0019952Y0035532D01*
X0020064Y0035360D01*
X0020172Y0035186D01*
X0020275Y0035009D01*
X0020374Y0034829D01*
X0020468Y0034647D01*
X0020558Y0034463D01*
X0020643Y0034277D01*
X0020724Y0034088D01*
X0020800Y0033898D01*
X0020872Y0033706D01*
X0020938Y0033512D01*
X0021000Y0033316D01*
X0021057Y0033120D01*
X0021110Y0032921D01*
X0021157Y0032722D01*
X0021200Y0032521D01*
X0021237Y0032320D01*
X0021270Y0032117D01*
X0021297Y0031914D01*
X0021320Y0031711D01*
X0021337Y0031506D01*
X0021350Y0031302D01*
X0021357Y0031097D01*
X0021360Y0030892D01*
X0021357Y0030687D01*
X0021350Y0030482D01*
X0021337Y0030278D01*
X0021320Y0030073D01*
X0021297Y0029870D01*
X0021270Y0029667D01*
X0021237Y0029464D01*
X0021200Y0029263D01*
X0021157Y0029062D01*
X0021110Y0028863D01*
X0021057Y0028664D01*
X0021000Y0028468D01*
X0020938Y0028272D01*
X0020872Y0028078D01*
X0020800Y0027886D01*
X0020724Y0027696D01*
X0020643Y0027507D01*
X0020558Y0027321D01*
X0020468Y0027137D01*
X0020374Y0026955D01*
X0020275Y0026775D01*
X0020172Y0026598D01*
X0020064Y0026424D01*
X0019952Y0026252D01*
X0019836Y0026083D01*
X0019716Y0025917D01*
X0019592Y0025754D01*
X0019464Y0025594D01*
X0019332Y0025437D01*
X0019196Y0025283D01*
X0019057Y0025133D01*
X0018914Y0024986D01*
X0018767Y0024843D01*
X0018617Y0024704D01*
X0018463Y0024568D01*
X0018306Y0024436D01*
X0018146Y0024308D01*
X0017983Y0024184D01*
X0017817Y0024064D01*
X0017648Y0023948D01*
X0017476Y0023836D01*
X0017302Y0023728D01*
X0017125Y0023625D01*
X0016945Y0023526D01*
X0016763Y0023432D01*
X0016579Y0023342D01*
X0016393Y0023257D01*
X0016204Y0023176D01*
X0016014Y0023100D01*
X0015822Y0023028D01*
X0015628Y0022962D01*
X0015432Y0022900D01*
X0015236Y0022843D01*
X0015037Y0022790D01*
X0014838Y0022743D01*
X0014637Y0022700D01*
X0014436Y0022663D01*
X0014233Y0022630D01*
X0014030Y0022603D01*
X0013827Y0022580D01*
X0013622Y0022563D01*
X0013418Y0022550D01*
X0013213Y0022543D01*
X0013008Y0022540D01*
X0012803Y0022543D01*
X0012598Y0022550D01*
X0012394Y0022563D01*
X0012189Y0022580D01*
X0011986Y0022603D01*
X0011783Y0022630D01*
X0011580Y0022663D01*
X0011379Y0022700D01*
X0011178Y0022743D01*
X0010979Y0022790D01*
X0010780Y0022843D01*
X0010584Y0022900D01*
X0010388Y0022962D01*
X0010194Y0023028D01*
X0010002Y0023100D01*
X0009812Y0023176D01*
X0009623Y0023257D01*
X0009437Y0023342D01*
X0009253Y0023432D01*
X0009071Y0023526D01*
X0008891Y0023625D01*
X0008714Y0023728D01*
X0008540Y0023836D01*
X0008368Y0023948D01*
X0008199Y0024064D01*
X0008033Y0024184D01*
X0007870Y0024308D01*
X0007710Y0024436D01*
X0007553Y0024568D01*
X0007399Y0024704D01*
X0007249Y0024843D01*
X0007102Y0024986D01*
X0006959Y0025133D01*
X0006820Y0025283D01*
X0006684Y0025437D01*
X0006552Y0025594D01*
X0006424Y0025754D01*
X0006300Y0025917D01*
X0006180Y0026083D01*
X0006064Y0026252D01*
X0005952Y0026424D01*
X0005844Y0026598D01*
X0005741Y0026775D01*
X0005642Y0026955D01*
X0005548Y0027137D01*
X0005458Y0027321D01*
X0005373Y0027507D01*
X0005292Y0027696D01*
X0005216Y0027886D01*
X0005144Y0028078D01*
X0005078Y0028272D01*
X0005016Y0028468D01*
X0004959Y0028664D01*
X0004906Y0028863D01*
X0004859Y0029062D01*
X0004816Y0029263D01*
X0004779Y0029464D01*
X0004746Y0029667D01*
X0004719Y0029870D01*
X0004696Y0030073D01*
X0004679Y0030278D01*
X0004666Y0030482D01*
X0004659Y0030687D01*
X0004656Y0030892D01*
X0001197Y0030892D02*
X0024819Y0030892D01*
X0010224Y0030892D02*
X0010226Y0030997D01*
X0010232Y0031103D01*
X0010242Y0031207D01*
X0010256Y0031312D01*
X0010274Y0031416D01*
X0010295Y0031519D01*
X0010321Y0031621D01*
X0010351Y0031722D01*
X0010384Y0031822D01*
X0010421Y0031921D01*
X0010462Y0032018D01*
X0010506Y0032113D01*
X0010554Y0032207D01*
X0010606Y0032299D01*
X0010661Y0032389D01*
X0010719Y0032477D01*
X0010781Y0032562D01*
X0010846Y0032645D01*
X0010913Y0032726D01*
X0010984Y0032804D01*
X0011058Y0032879D01*
X0011135Y0032951D01*
X0011214Y0033021D01*
X0011296Y0033087D01*
X0011380Y0033150D01*
X0011467Y0033210D01*
X0011556Y0033267D01*
X0011647Y0033320D01*
X0011739Y0033370D01*
X0011834Y0033416D01*
X0011930Y0033459D01*
X0012028Y0033498D01*
X0012128Y0033533D01*
X0012228Y0033565D01*
X0012330Y0033592D01*
X0012433Y0033616D01*
X0012536Y0033636D01*
X0012640Y0033652D01*
X0012745Y0033664D01*
X0012850Y0033672D01*
X0012955Y0033676D01*
X0013061Y0033676D01*
X0013166Y0033672D01*
X0013271Y0033664D01*
X0013376Y0033652D01*
X0013480Y0033636D01*
X0013583Y0033616D01*
X0013686Y0033592D01*
X0013788Y0033565D01*
X0013888Y0033533D01*
X0013988Y0033498D01*
X0014086Y0033459D01*
X0014182Y0033416D01*
X0014277Y0033370D01*
X0014369Y0033320D01*
X0014460Y0033267D01*
X0014549Y0033210D01*
X0014636Y0033150D01*
X0014720Y0033087D01*
X0014802Y0033021D01*
X0014881Y0032951D01*
X0014958Y0032879D01*
X0015032Y0032804D01*
X0015103Y0032726D01*
X0015170Y0032645D01*
X0015235Y0032562D01*
X0015297Y0032477D01*
X0015355Y0032389D01*
X0015410Y0032299D01*
X0015462Y0032207D01*
X0015510Y0032113D01*
X0015554Y0032018D01*
X0015595Y0031921D01*
X0015632Y0031822D01*
X0015665Y0031722D01*
X0015695Y0031621D01*
X0015721Y0031519D01*
X0015742Y0031416D01*
X0015760Y0031312D01*
X0015774Y0031207D01*
X0015784Y0031103D01*
X0015790Y0030997D01*
X0015792Y0030892D01*
X0015790Y0030787D01*
X0015784Y0030681D01*
X0015774Y0030577D01*
X0015760Y0030472D01*
X0015742Y0030368D01*
X0015721Y0030265D01*
X0015695Y0030163D01*
X0015665Y0030062D01*
X0015632Y0029962D01*
X0015595Y0029863D01*
X0015554Y0029766D01*
X0015510Y0029671D01*
X0015462Y0029577D01*
X0015410Y0029485D01*
X0015355Y0029395D01*
X0015297Y0029307D01*
X0015235Y0029222D01*
X0015170Y0029139D01*
X0015103Y0029058D01*
X0015032Y0028980D01*
X0014958Y0028905D01*
X0014881Y0028833D01*
X0014802Y0028763D01*
X0014720Y0028697D01*
X0014636Y0028634D01*
X0014549Y0028574D01*
X0014460Y0028517D01*
X0014369Y0028464D01*
X0014277Y0028414D01*
X0014182Y0028368D01*
X0014086Y0028325D01*
X0013988Y0028286D01*
X0013888Y0028251D01*
X0013788Y0028219D01*
X0013686Y0028192D01*
X0013583Y0028168D01*
X0013480Y0028148D01*
X0013376Y0028132D01*
X0013271Y0028120D01*
X0013166Y0028112D01*
X0013061Y0028108D01*
X0012955Y0028108D01*
X0012850Y0028112D01*
X0012745Y0028120D01*
X0012640Y0028132D01*
X0012536Y0028148D01*
X0012433Y0028168D01*
X0012330Y0028192D01*
X0012228Y0028219D01*
X0012128Y0028251D01*
X0012028Y0028286D01*
X0011930Y0028325D01*
X0011834Y0028368D01*
X0011739Y0028414D01*
X0011647Y0028464D01*
X0011556Y0028517D01*
X0011467Y0028574D01*
X0011380Y0028634D01*
X0011296Y0028697D01*
X0011214Y0028763D01*
X0011135Y0028833D01*
X0011058Y0028905D01*
X0010984Y0028980D01*
X0010913Y0029058D01*
X0010846Y0029139D01*
X0010781Y0029222D01*
X0010719Y0029307D01*
X0010661Y0029395D01*
X0010606Y0029485D01*
X0010554Y0029577D01*
X0010506Y0029671D01*
X0010462Y0029766D01*
X0010421Y0029863D01*
X0010384Y0029962D01*
X0010351Y0030062D01*
X0010321Y0030163D01*
X0010295Y0030265D01*
X0010274Y0030368D01*
X0010256Y0030472D01*
X0010242Y0030577D01*
X0010232Y0030681D01*
X0010226Y0030787D01*
X0010224Y0030892D01*
X0007440Y0030892D02*
X0007442Y0031041D01*
X0007448Y0031190D01*
X0007458Y0031338D01*
X0007472Y0031486D01*
X0007490Y0031634D01*
X0007511Y0031781D01*
X0007537Y0031928D01*
X0007567Y0032074D01*
X0007600Y0032219D01*
X0007638Y0032363D01*
X0007679Y0032506D01*
X0007724Y0032648D01*
X0007773Y0032789D01*
X0007826Y0032928D01*
X0007882Y0033066D01*
X0007942Y0033202D01*
X0008005Y0033337D01*
X0008072Y0033469D01*
X0008143Y0033600D01*
X0008217Y0033730D01*
X0008295Y0033857D01*
X0008376Y0033982D01*
X0008460Y0034104D01*
X0008548Y0034225D01*
X0008638Y0034343D01*
X0008732Y0034458D01*
X0008829Y0034571D01*
X0008929Y0034682D01*
X0009032Y0034789D01*
X0009137Y0034894D01*
X0009246Y0034996D01*
X0009357Y0035096D01*
X0009470Y0035192D01*
X0009587Y0035285D01*
X0009705Y0035375D01*
X0009826Y0035461D01*
X0009949Y0035545D01*
X0010075Y0035625D01*
X0010203Y0035702D01*
X0010332Y0035775D01*
X0010464Y0035845D01*
X0010597Y0035911D01*
X0010732Y0035974D01*
X0010869Y0036033D01*
X0011007Y0036088D01*
X0011146Y0036140D01*
X0011287Y0036187D01*
X0011430Y0036232D01*
X0011573Y0036272D01*
X0011717Y0036308D01*
X0011862Y0036341D01*
X0012009Y0036370D01*
X0012155Y0036394D01*
X0012303Y0036415D01*
X0012451Y0036432D01*
X0012599Y0036445D01*
X0012748Y0036454D01*
X0012896Y0036459D01*
X0013045Y0036460D01*
X0013194Y0036457D01*
X0013343Y0036450D01*
X0013491Y0036439D01*
X0013639Y0036424D01*
X0013787Y0036405D01*
X0013934Y0036382D01*
X0014081Y0036356D01*
X0014226Y0036325D01*
X0014371Y0036291D01*
X0014515Y0036252D01*
X0014658Y0036210D01*
X0014799Y0036164D01*
X0014940Y0036114D01*
X0015078Y0036061D01*
X0015216Y0036004D01*
X0015352Y0035943D01*
X0015486Y0035878D01*
X0015618Y0035810D01*
X0015749Y0035739D01*
X0015878Y0035664D01*
X0016004Y0035585D01*
X0016128Y0035503D01*
X0016251Y0035418D01*
X0016370Y0035330D01*
X0016488Y0035239D01*
X0016603Y0035144D01*
X0016715Y0035046D01*
X0016825Y0034946D01*
X0016932Y0034842D01*
X0017036Y0034736D01*
X0017138Y0034627D01*
X0017236Y0034515D01*
X0017331Y0034401D01*
X0017424Y0034284D01*
X0017513Y0034165D01*
X0017598Y0034043D01*
X0017681Y0033919D01*
X0017760Y0033793D01*
X0017836Y0033665D01*
X0017909Y0033535D01*
X0017978Y0033403D01*
X0018043Y0033269D01*
X0018105Y0033134D01*
X0018163Y0032997D01*
X0018217Y0032858D01*
X0018268Y0032718D01*
X0018315Y0032577D01*
X0018358Y0032435D01*
X0018397Y0032291D01*
X0018433Y0032147D01*
X0018464Y0032001D01*
X0018492Y0031855D01*
X0018516Y0031708D01*
X0018536Y0031560D01*
X0018552Y0031412D01*
X0018564Y0031264D01*
X0018572Y0031115D01*
X0018576Y0030966D01*
X0018576Y0030818D01*
X0018572Y0030669D01*
X0018564Y0030520D01*
X0018552Y0030372D01*
X0018536Y0030224D01*
X0018516Y0030076D01*
X0018492Y0029929D01*
X0018464Y0029783D01*
X0018433Y0029637D01*
X0018397Y0029493D01*
X0018358Y0029349D01*
X0018315Y0029207D01*
X0018268Y0029066D01*
X0018217Y0028926D01*
X0018163Y0028787D01*
X0018105Y0028650D01*
X0018043Y0028515D01*
X0017978Y0028381D01*
X0017909Y0028249D01*
X0017836Y0028119D01*
X0017760Y0027991D01*
X0017681Y0027865D01*
X0017598Y0027741D01*
X0017513Y0027619D01*
X0017424Y0027500D01*
X0017331Y0027383D01*
X0017236Y0027269D01*
X0017138Y0027157D01*
X0017036Y0027048D01*
X0016932Y0026942D01*
X0016825Y0026838D01*
X0016715Y0026738D01*
X0016603Y0026640D01*
X0016488Y0026545D01*
X0016370Y0026454D01*
X0016251Y0026366D01*
X0016128Y0026281D01*
X0016004Y0026199D01*
X0015878Y0026120D01*
X0015749Y0026045D01*
X0015618Y0025974D01*
X0015486Y0025906D01*
X0015352Y0025841D01*
X0015216Y0025780D01*
X0015078Y0025723D01*
X0014940Y0025670D01*
X0014799Y0025620D01*
X0014658Y0025574D01*
X0014515Y0025532D01*
X0014371Y0025493D01*
X0014226Y0025459D01*
X0014081Y0025428D01*
X0013934Y0025402D01*
X0013787Y0025379D01*
X0013639Y0025360D01*
X0013491Y0025345D01*
X0013343Y0025334D01*
X0013194Y0025327D01*
X0013045Y0025324D01*
X0012896Y0025325D01*
X0012748Y0025330D01*
X0012599Y0025339D01*
X0012451Y0025352D01*
X0012303Y0025369D01*
X0012155Y0025390D01*
X0012009Y0025414D01*
X0011862Y0025443D01*
X0011717Y0025476D01*
X0011573Y0025512D01*
X0011430Y0025552D01*
X0011287Y0025597D01*
X0011146Y0025644D01*
X0011007Y0025696D01*
X0010869Y0025751D01*
X0010732Y0025810D01*
X0010597Y0025873D01*
X0010464Y0025939D01*
X0010332Y0026009D01*
X0010203Y0026082D01*
X0010075Y0026159D01*
X0009949Y0026239D01*
X0009826Y0026323D01*
X0009705Y0026409D01*
X0009587Y0026499D01*
X0009470Y0026592D01*
X0009357Y0026688D01*
X0009246Y0026788D01*
X0009137Y0026890D01*
X0009032Y0026995D01*
X0008929Y0027102D01*
X0008829Y0027213D01*
X0008732Y0027326D01*
X0008638Y0027441D01*
X0008548Y0027559D01*
X0008460Y0027680D01*
X0008376Y0027802D01*
X0008295Y0027927D01*
X0008217Y0028054D01*
X0008143Y0028184D01*
X0008072Y0028315D01*
X0008005Y0028447D01*
X0007942Y0028582D01*
X0007882Y0028718D01*
X0007826Y0028856D01*
X0007773Y0028995D01*
X0007724Y0029136D01*
X0007679Y0029278D01*
X0007638Y0029421D01*
X0007600Y0029565D01*
X0007567Y0029710D01*
X0007537Y0029856D01*
X0007511Y0030003D01*
X0007490Y0030150D01*
X0007472Y0030298D01*
X0007458Y0030446D01*
X0007448Y0030594D01*
X0007442Y0030743D01*
X0007440Y0030892D01*
X0013008Y0255302D02*
X0013008Y0278924D01*
X0004656Y0267113D02*
X0004659Y0267318D01*
X0004666Y0267523D01*
X0004679Y0267727D01*
X0004696Y0267932D01*
X0004719Y0268135D01*
X0004746Y0268338D01*
X0004779Y0268541D01*
X0004816Y0268742D01*
X0004859Y0268943D01*
X0004906Y0269142D01*
X0004959Y0269341D01*
X0005016Y0269537D01*
X0005078Y0269733D01*
X0005144Y0269927D01*
X0005216Y0270119D01*
X0005292Y0270309D01*
X0005373Y0270498D01*
X0005458Y0270684D01*
X0005548Y0270868D01*
X0005642Y0271050D01*
X0005741Y0271230D01*
X0005844Y0271407D01*
X0005952Y0271581D01*
X0006064Y0271753D01*
X0006180Y0271922D01*
X0006300Y0272088D01*
X0006424Y0272251D01*
X0006552Y0272411D01*
X0006684Y0272568D01*
X0006820Y0272722D01*
X0006959Y0272872D01*
X0007102Y0273019D01*
X0007249Y0273162D01*
X0007399Y0273301D01*
X0007553Y0273437D01*
X0007710Y0273569D01*
X0007870Y0273697D01*
X0008033Y0273821D01*
X0008199Y0273941D01*
X0008368Y0274057D01*
X0008540Y0274169D01*
X0008714Y0274277D01*
X0008891Y0274380D01*
X0009071Y0274479D01*
X0009253Y0274573D01*
X0009437Y0274663D01*
X0009623Y0274748D01*
X0009812Y0274829D01*
X0010002Y0274905D01*
X0010194Y0274977D01*
X0010388Y0275043D01*
X0010584Y0275105D01*
X0010780Y0275162D01*
X0010979Y0275215D01*
X0011178Y0275262D01*
X0011379Y0275305D01*
X0011580Y0275342D01*
X0011783Y0275375D01*
X0011986Y0275402D01*
X0012189Y0275425D01*
X0012394Y0275442D01*
X0012598Y0275455D01*
X0012803Y0275462D01*
X0013008Y0275465D01*
X0013213Y0275462D01*
X0013418Y0275455D01*
X0013622Y0275442D01*
X0013827Y0275425D01*
X0014030Y0275402D01*
X0014233Y0275375D01*
X0014436Y0275342D01*
X0014637Y0275305D01*
X0014838Y0275262D01*
X0015037Y0275215D01*
X0015236Y0275162D01*
X0015432Y0275105D01*
X0015628Y0275043D01*
X0015822Y0274977D01*
X0016014Y0274905D01*
X0016204Y0274829D01*
X0016393Y0274748D01*
X0016579Y0274663D01*
X0016763Y0274573D01*
X0016945Y0274479D01*
X0017125Y0274380D01*
X0017302Y0274277D01*
X0017476Y0274169D01*
X0017648Y0274057D01*
X0017817Y0273941D01*
X0017983Y0273821D01*
X0018146Y0273697D01*
X0018306Y0273569D01*
X0018463Y0273437D01*
X0018617Y0273301D01*
X0018767Y0273162D01*
X0018914Y0273019D01*
X0019057Y0272872D01*
X0019196Y0272722D01*
X0019332Y0272568D01*
X0019464Y0272411D01*
X0019592Y0272251D01*
X0019716Y0272088D01*
X0019836Y0271922D01*
X0019952Y0271753D01*
X0020064Y0271581D01*
X0020172Y0271407D01*
X0020275Y0271230D01*
X0020374Y0271050D01*
X0020468Y0270868D01*
X0020558Y0270684D01*
X0020643Y0270498D01*
X0020724Y0270309D01*
X0020800Y0270119D01*
X0020872Y0269927D01*
X0020938Y0269733D01*
X0021000Y0269537D01*
X0021057Y0269341D01*
X0021110Y0269142D01*
X0021157Y0268943D01*
X0021200Y0268742D01*
X0021237Y0268541D01*
X0021270Y0268338D01*
X0021297Y0268135D01*
X0021320Y0267932D01*
X0021337Y0267727D01*
X0021350Y0267523D01*
X0021357Y0267318D01*
X0021360Y0267113D01*
X0021357Y0266908D01*
X0021350Y0266703D01*
X0021337Y0266499D01*
X0021320Y0266294D01*
X0021297Y0266091D01*
X0021270Y0265888D01*
X0021237Y0265685D01*
X0021200Y0265484D01*
X0021157Y0265283D01*
X0021110Y0265084D01*
X0021057Y0264885D01*
X0021000Y0264689D01*
X0020938Y0264493D01*
X0020872Y0264299D01*
X0020800Y0264107D01*
X0020724Y0263917D01*
X0020643Y0263728D01*
X0020558Y0263542D01*
X0020468Y0263358D01*
X0020374Y0263176D01*
X0020275Y0262996D01*
X0020172Y0262819D01*
X0020064Y0262645D01*
X0019952Y0262473D01*
X0019836Y0262304D01*
X0019716Y0262138D01*
X0019592Y0261975D01*
X0019464Y0261815D01*
X0019332Y0261658D01*
X0019196Y0261504D01*
X0019057Y0261354D01*
X0018914Y0261207D01*
X0018767Y0261064D01*
X0018617Y0260925D01*
X0018463Y0260789D01*
X0018306Y0260657D01*
X0018146Y0260529D01*
X0017983Y0260405D01*
X0017817Y0260285D01*
X0017648Y0260169D01*
X0017476Y0260057D01*
X0017302Y0259949D01*
X0017125Y0259846D01*
X0016945Y0259747D01*
X0016763Y0259653D01*
X0016579Y0259563D01*
X0016393Y0259478D01*
X0016204Y0259397D01*
X0016014Y0259321D01*
X0015822Y0259249D01*
X0015628Y0259183D01*
X0015432Y0259121D01*
X0015236Y0259064D01*
X0015037Y0259011D01*
X0014838Y0258964D01*
X0014637Y0258921D01*
X0014436Y0258884D01*
X0014233Y0258851D01*
X0014030Y0258824D01*
X0013827Y0258801D01*
X0013622Y0258784D01*
X0013418Y0258771D01*
X0013213Y0258764D01*
X0013008Y0258761D01*
X0012803Y0258764D01*
X0012598Y0258771D01*
X0012394Y0258784D01*
X0012189Y0258801D01*
X0011986Y0258824D01*
X0011783Y0258851D01*
X0011580Y0258884D01*
X0011379Y0258921D01*
X0011178Y0258964D01*
X0010979Y0259011D01*
X0010780Y0259064D01*
X0010584Y0259121D01*
X0010388Y0259183D01*
X0010194Y0259249D01*
X0010002Y0259321D01*
X0009812Y0259397D01*
X0009623Y0259478D01*
X0009437Y0259563D01*
X0009253Y0259653D01*
X0009071Y0259747D01*
X0008891Y0259846D01*
X0008714Y0259949D01*
X0008540Y0260057D01*
X0008368Y0260169D01*
X0008199Y0260285D01*
X0008033Y0260405D01*
X0007870Y0260529D01*
X0007710Y0260657D01*
X0007553Y0260789D01*
X0007399Y0260925D01*
X0007249Y0261064D01*
X0007102Y0261207D01*
X0006959Y0261354D01*
X0006820Y0261504D01*
X0006684Y0261658D01*
X0006552Y0261815D01*
X0006424Y0261975D01*
X0006300Y0262138D01*
X0006180Y0262304D01*
X0006064Y0262473D01*
X0005952Y0262645D01*
X0005844Y0262819D01*
X0005741Y0262996D01*
X0005642Y0263176D01*
X0005548Y0263358D01*
X0005458Y0263542D01*
X0005373Y0263728D01*
X0005292Y0263917D01*
X0005216Y0264107D01*
X0005144Y0264299D01*
X0005078Y0264493D01*
X0005016Y0264689D01*
X0004959Y0264885D01*
X0004906Y0265084D01*
X0004859Y0265283D01*
X0004816Y0265484D01*
X0004779Y0265685D01*
X0004746Y0265888D01*
X0004719Y0266091D01*
X0004696Y0266294D01*
X0004679Y0266499D01*
X0004666Y0266703D01*
X0004659Y0266908D01*
X0004656Y0267113D01*
X0001197Y0267113D02*
X0024819Y0267113D01*
X0010224Y0267113D02*
X0010226Y0267218D01*
X0010232Y0267324D01*
X0010242Y0267428D01*
X0010256Y0267533D01*
X0010274Y0267637D01*
X0010295Y0267740D01*
X0010321Y0267842D01*
X0010351Y0267943D01*
X0010384Y0268043D01*
X0010421Y0268142D01*
X0010462Y0268239D01*
X0010506Y0268334D01*
X0010554Y0268428D01*
X0010606Y0268520D01*
X0010661Y0268610D01*
X0010719Y0268698D01*
X0010781Y0268783D01*
X0010846Y0268866D01*
X0010913Y0268947D01*
X0010984Y0269025D01*
X0011058Y0269100D01*
X0011135Y0269172D01*
X0011214Y0269242D01*
X0011296Y0269308D01*
X0011380Y0269371D01*
X0011467Y0269431D01*
X0011556Y0269488D01*
X0011647Y0269541D01*
X0011739Y0269591D01*
X0011834Y0269637D01*
X0011930Y0269680D01*
X0012028Y0269719D01*
X0012128Y0269754D01*
X0012228Y0269786D01*
X0012330Y0269813D01*
X0012433Y0269837D01*
X0012536Y0269857D01*
X0012640Y0269873D01*
X0012745Y0269885D01*
X0012850Y0269893D01*
X0012955Y0269897D01*
X0013061Y0269897D01*
X0013166Y0269893D01*
X0013271Y0269885D01*
X0013376Y0269873D01*
X0013480Y0269857D01*
X0013583Y0269837D01*
X0013686Y0269813D01*
X0013788Y0269786D01*
X0013888Y0269754D01*
X0013988Y0269719D01*
X0014086Y0269680D01*
X0014182Y0269637D01*
X0014277Y0269591D01*
X0014369Y0269541D01*
X0014460Y0269488D01*
X0014549Y0269431D01*
X0014636Y0269371D01*
X0014720Y0269308D01*
X0014802Y0269242D01*
X0014881Y0269172D01*
X0014958Y0269100D01*
X0015032Y0269025D01*
X0015103Y0268947D01*
X0015170Y0268866D01*
X0015235Y0268783D01*
X0015297Y0268698D01*
X0015355Y0268610D01*
X0015410Y0268520D01*
X0015462Y0268428D01*
X0015510Y0268334D01*
X0015554Y0268239D01*
X0015595Y0268142D01*
X0015632Y0268043D01*
X0015665Y0267943D01*
X0015695Y0267842D01*
X0015721Y0267740D01*
X0015742Y0267637D01*
X0015760Y0267533D01*
X0015774Y0267428D01*
X0015784Y0267324D01*
X0015790Y0267218D01*
X0015792Y0267113D01*
X0015790Y0267008D01*
X0015784Y0266902D01*
X0015774Y0266798D01*
X0015760Y0266693D01*
X0015742Y0266589D01*
X0015721Y0266486D01*
X0015695Y0266384D01*
X0015665Y0266283D01*
X0015632Y0266183D01*
X0015595Y0266084D01*
X0015554Y0265987D01*
X0015510Y0265892D01*
X0015462Y0265798D01*
X0015410Y0265706D01*
X0015355Y0265616D01*
X0015297Y0265528D01*
X0015235Y0265443D01*
X0015170Y0265360D01*
X0015103Y0265279D01*
X0015032Y0265201D01*
X0014958Y0265126D01*
X0014881Y0265054D01*
X0014802Y0264984D01*
X0014720Y0264918D01*
X0014636Y0264855D01*
X0014549Y0264795D01*
X0014460Y0264738D01*
X0014369Y0264685D01*
X0014277Y0264635D01*
X0014182Y0264589D01*
X0014086Y0264546D01*
X0013988Y0264507D01*
X0013888Y0264472D01*
X0013788Y0264440D01*
X0013686Y0264413D01*
X0013583Y0264389D01*
X0013480Y0264369D01*
X0013376Y0264353D01*
X0013271Y0264341D01*
X0013166Y0264333D01*
X0013061Y0264329D01*
X0012955Y0264329D01*
X0012850Y0264333D01*
X0012745Y0264341D01*
X0012640Y0264353D01*
X0012536Y0264369D01*
X0012433Y0264389D01*
X0012330Y0264413D01*
X0012228Y0264440D01*
X0012128Y0264472D01*
X0012028Y0264507D01*
X0011930Y0264546D01*
X0011834Y0264589D01*
X0011739Y0264635D01*
X0011647Y0264685D01*
X0011556Y0264738D01*
X0011467Y0264795D01*
X0011380Y0264855D01*
X0011296Y0264918D01*
X0011214Y0264984D01*
X0011135Y0265054D01*
X0011058Y0265126D01*
X0010984Y0265201D01*
X0010913Y0265279D01*
X0010846Y0265360D01*
X0010781Y0265443D01*
X0010719Y0265528D01*
X0010661Y0265616D01*
X0010606Y0265706D01*
X0010554Y0265798D01*
X0010506Y0265892D01*
X0010462Y0265987D01*
X0010421Y0266084D01*
X0010384Y0266183D01*
X0010351Y0266283D01*
X0010321Y0266384D01*
X0010295Y0266486D01*
X0010274Y0266589D01*
X0010256Y0266693D01*
X0010242Y0266798D01*
X0010232Y0266902D01*
X0010226Y0267008D01*
X0010224Y0267113D01*
X0007440Y0267113D02*
X0007442Y0267262D01*
X0007448Y0267411D01*
X0007458Y0267559D01*
X0007472Y0267707D01*
X0007490Y0267855D01*
X0007511Y0268002D01*
X0007537Y0268149D01*
X0007567Y0268295D01*
X0007600Y0268440D01*
X0007638Y0268584D01*
X0007679Y0268727D01*
X0007724Y0268869D01*
X0007773Y0269010D01*
X0007826Y0269149D01*
X0007882Y0269287D01*
X0007942Y0269423D01*
X0008005Y0269558D01*
X0008072Y0269690D01*
X0008143Y0269821D01*
X0008217Y0269951D01*
X0008295Y0270078D01*
X0008376Y0270203D01*
X0008460Y0270325D01*
X0008548Y0270446D01*
X0008638Y0270564D01*
X0008732Y0270679D01*
X0008829Y0270792D01*
X0008929Y0270903D01*
X0009032Y0271010D01*
X0009137Y0271115D01*
X0009246Y0271217D01*
X0009357Y0271317D01*
X0009470Y0271413D01*
X0009587Y0271506D01*
X0009705Y0271596D01*
X0009826Y0271682D01*
X0009949Y0271766D01*
X0010075Y0271846D01*
X0010203Y0271923D01*
X0010332Y0271996D01*
X0010464Y0272066D01*
X0010597Y0272132D01*
X0010732Y0272195D01*
X0010869Y0272254D01*
X0011007Y0272309D01*
X0011146Y0272361D01*
X0011287Y0272408D01*
X0011430Y0272453D01*
X0011573Y0272493D01*
X0011717Y0272529D01*
X0011862Y0272562D01*
X0012009Y0272591D01*
X0012155Y0272615D01*
X0012303Y0272636D01*
X0012451Y0272653D01*
X0012599Y0272666D01*
X0012748Y0272675D01*
X0012896Y0272680D01*
X0013045Y0272681D01*
X0013194Y0272678D01*
X0013343Y0272671D01*
X0013491Y0272660D01*
X0013639Y0272645D01*
X0013787Y0272626D01*
X0013934Y0272603D01*
X0014081Y0272577D01*
X0014226Y0272546D01*
X0014371Y0272512D01*
X0014515Y0272473D01*
X0014658Y0272431D01*
X0014799Y0272385D01*
X0014940Y0272335D01*
X0015078Y0272282D01*
X0015216Y0272225D01*
X0015352Y0272164D01*
X0015486Y0272099D01*
X0015618Y0272031D01*
X0015749Y0271960D01*
X0015878Y0271885D01*
X0016004Y0271806D01*
X0016128Y0271724D01*
X0016251Y0271639D01*
X0016370Y0271551D01*
X0016488Y0271460D01*
X0016603Y0271365D01*
X0016715Y0271267D01*
X0016825Y0271167D01*
X0016932Y0271063D01*
X0017036Y0270957D01*
X0017138Y0270848D01*
X0017236Y0270736D01*
X0017331Y0270622D01*
X0017424Y0270505D01*
X0017513Y0270386D01*
X0017598Y0270264D01*
X0017681Y0270140D01*
X0017760Y0270014D01*
X0017836Y0269886D01*
X0017909Y0269756D01*
X0017978Y0269624D01*
X0018043Y0269490D01*
X0018105Y0269355D01*
X0018163Y0269218D01*
X0018217Y0269079D01*
X0018268Y0268939D01*
X0018315Y0268798D01*
X0018358Y0268656D01*
X0018397Y0268512D01*
X0018433Y0268368D01*
X0018464Y0268222D01*
X0018492Y0268076D01*
X0018516Y0267929D01*
X0018536Y0267781D01*
X0018552Y0267633D01*
X0018564Y0267485D01*
X0018572Y0267336D01*
X0018576Y0267187D01*
X0018576Y0267039D01*
X0018572Y0266890D01*
X0018564Y0266741D01*
X0018552Y0266593D01*
X0018536Y0266445D01*
X0018516Y0266297D01*
X0018492Y0266150D01*
X0018464Y0266004D01*
X0018433Y0265858D01*
X0018397Y0265714D01*
X0018358Y0265570D01*
X0018315Y0265428D01*
X0018268Y0265287D01*
X0018217Y0265147D01*
X0018163Y0265008D01*
X0018105Y0264871D01*
X0018043Y0264736D01*
X0017978Y0264602D01*
X0017909Y0264470D01*
X0017836Y0264340D01*
X0017760Y0264212D01*
X0017681Y0264086D01*
X0017598Y0263962D01*
X0017513Y0263840D01*
X0017424Y0263721D01*
X0017331Y0263604D01*
X0017236Y0263490D01*
X0017138Y0263378D01*
X0017036Y0263269D01*
X0016932Y0263163D01*
X0016825Y0263059D01*
X0016715Y0262959D01*
X0016603Y0262861D01*
X0016488Y0262766D01*
X0016370Y0262675D01*
X0016251Y0262587D01*
X0016128Y0262502D01*
X0016004Y0262420D01*
X0015878Y0262341D01*
X0015749Y0262266D01*
X0015618Y0262195D01*
X0015486Y0262127D01*
X0015352Y0262062D01*
X0015216Y0262001D01*
X0015078Y0261944D01*
X0014940Y0261891D01*
X0014799Y0261841D01*
X0014658Y0261795D01*
X0014515Y0261753D01*
X0014371Y0261714D01*
X0014226Y0261680D01*
X0014081Y0261649D01*
X0013934Y0261623D01*
X0013787Y0261600D01*
X0013639Y0261581D01*
X0013491Y0261566D01*
X0013343Y0261555D01*
X0013194Y0261548D01*
X0013045Y0261545D01*
X0012896Y0261546D01*
X0012748Y0261551D01*
X0012599Y0261560D01*
X0012451Y0261573D01*
X0012303Y0261590D01*
X0012155Y0261611D01*
X0012009Y0261635D01*
X0011862Y0261664D01*
X0011717Y0261697D01*
X0011573Y0261733D01*
X0011430Y0261773D01*
X0011287Y0261818D01*
X0011146Y0261865D01*
X0011007Y0261917D01*
X0010869Y0261972D01*
X0010732Y0262031D01*
X0010597Y0262094D01*
X0010464Y0262160D01*
X0010332Y0262230D01*
X0010203Y0262303D01*
X0010075Y0262380D01*
X0009949Y0262460D01*
X0009826Y0262544D01*
X0009705Y0262630D01*
X0009587Y0262720D01*
X0009470Y0262813D01*
X0009357Y0262909D01*
X0009246Y0263009D01*
X0009137Y0263111D01*
X0009032Y0263216D01*
X0008929Y0263323D01*
X0008829Y0263434D01*
X0008732Y0263547D01*
X0008638Y0263662D01*
X0008548Y0263780D01*
X0008460Y0263901D01*
X0008376Y0264023D01*
X0008295Y0264148D01*
X0008217Y0264275D01*
X0008143Y0264405D01*
X0008072Y0264536D01*
X0008005Y0264668D01*
X0007942Y0264803D01*
X0007882Y0264939D01*
X0007826Y0265077D01*
X0007773Y0265216D01*
X0007724Y0265357D01*
X0007679Y0265499D01*
X0007638Y0265642D01*
X0007600Y0265786D01*
X0007567Y0265931D01*
X0007537Y0266077D01*
X0007511Y0266224D01*
X0007490Y0266371D01*
X0007472Y0266519D01*
X0007458Y0266667D01*
X0007448Y0266815D01*
X0007442Y0266964D01*
X0007440Y0267113D01*
X0473638Y0267113D02*
X0497260Y0267113D01*
X0477097Y0267113D02*
X0477100Y0267318D01*
X0477107Y0267523D01*
X0477120Y0267727D01*
X0477137Y0267932D01*
X0477160Y0268135D01*
X0477187Y0268338D01*
X0477220Y0268541D01*
X0477257Y0268742D01*
X0477300Y0268943D01*
X0477347Y0269142D01*
X0477400Y0269341D01*
X0477457Y0269537D01*
X0477519Y0269733D01*
X0477585Y0269927D01*
X0477657Y0270119D01*
X0477733Y0270309D01*
X0477814Y0270498D01*
X0477899Y0270684D01*
X0477989Y0270868D01*
X0478083Y0271050D01*
X0478182Y0271230D01*
X0478285Y0271407D01*
X0478393Y0271581D01*
X0478505Y0271753D01*
X0478621Y0271922D01*
X0478741Y0272088D01*
X0478865Y0272251D01*
X0478993Y0272411D01*
X0479125Y0272568D01*
X0479261Y0272722D01*
X0479400Y0272872D01*
X0479543Y0273019D01*
X0479690Y0273162D01*
X0479840Y0273301D01*
X0479994Y0273437D01*
X0480151Y0273569D01*
X0480311Y0273697D01*
X0480474Y0273821D01*
X0480640Y0273941D01*
X0480809Y0274057D01*
X0480981Y0274169D01*
X0481155Y0274277D01*
X0481332Y0274380D01*
X0481512Y0274479D01*
X0481694Y0274573D01*
X0481878Y0274663D01*
X0482064Y0274748D01*
X0482253Y0274829D01*
X0482443Y0274905D01*
X0482635Y0274977D01*
X0482829Y0275043D01*
X0483025Y0275105D01*
X0483221Y0275162D01*
X0483420Y0275215D01*
X0483619Y0275262D01*
X0483820Y0275305D01*
X0484021Y0275342D01*
X0484224Y0275375D01*
X0484427Y0275402D01*
X0484630Y0275425D01*
X0484835Y0275442D01*
X0485039Y0275455D01*
X0485244Y0275462D01*
X0485449Y0275465D01*
X0485654Y0275462D01*
X0485859Y0275455D01*
X0486063Y0275442D01*
X0486268Y0275425D01*
X0486471Y0275402D01*
X0486674Y0275375D01*
X0486877Y0275342D01*
X0487078Y0275305D01*
X0487279Y0275262D01*
X0487478Y0275215D01*
X0487677Y0275162D01*
X0487873Y0275105D01*
X0488069Y0275043D01*
X0488263Y0274977D01*
X0488455Y0274905D01*
X0488645Y0274829D01*
X0488834Y0274748D01*
X0489020Y0274663D01*
X0489204Y0274573D01*
X0489386Y0274479D01*
X0489566Y0274380D01*
X0489743Y0274277D01*
X0489917Y0274169D01*
X0490089Y0274057D01*
X0490258Y0273941D01*
X0490424Y0273821D01*
X0490587Y0273697D01*
X0490747Y0273569D01*
X0490904Y0273437D01*
X0491058Y0273301D01*
X0491208Y0273162D01*
X0491355Y0273019D01*
X0491498Y0272872D01*
X0491637Y0272722D01*
X0491773Y0272568D01*
X0491905Y0272411D01*
X0492033Y0272251D01*
X0492157Y0272088D01*
X0492277Y0271922D01*
X0492393Y0271753D01*
X0492505Y0271581D01*
X0492613Y0271407D01*
X0492716Y0271230D01*
X0492815Y0271050D01*
X0492909Y0270868D01*
X0492999Y0270684D01*
X0493084Y0270498D01*
X0493165Y0270309D01*
X0493241Y0270119D01*
X0493313Y0269927D01*
X0493379Y0269733D01*
X0493441Y0269537D01*
X0493498Y0269341D01*
X0493551Y0269142D01*
X0493598Y0268943D01*
X0493641Y0268742D01*
X0493678Y0268541D01*
X0493711Y0268338D01*
X0493738Y0268135D01*
X0493761Y0267932D01*
X0493778Y0267727D01*
X0493791Y0267523D01*
X0493798Y0267318D01*
X0493801Y0267113D01*
X0493798Y0266908D01*
X0493791Y0266703D01*
X0493778Y0266499D01*
X0493761Y0266294D01*
X0493738Y0266091D01*
X0493711Y0265888D01*
X0493678Y0265685D01*
X0493641Y0265484D01*
X0493598Y0265283D01*
X0493551Y0265084D01*
X0493498Y0264885D01*
X0493441Y0264689D01*
X0493379Y0264493D01*
X0493313Y0264299D01*
X0493241Y0264107D01*
X0493165Y0263917D01*
X0493084Y0263728D01*
X0492999Y0263542D01*
X0492909Y0263358D01*
X0492815Y0263176D01*
X0492716Y0262996D01*
X0492613Y0262819D01*
X0492505Y0262645D01*
X0492393Y0262473D01*
X0492277Y0262304D01*
X0492157Y0262138D01*
X0492033Y0261975D01*
X0491905Y0261815D01*
X0491773Y0261658D01*
X0491637Y0261504D01*
X0491498Y0261354D01*
X0491355Y0261207D01*
X0491208Y0261064D01*
X0491058Y0260925D01*
X0490904Y0260789D01*
X0490747Y0260657D01*
X0490587Y0260529D01*
X0490424Y0260405D01*
X0490258Y0260285D01*
X0490089Y0260169D01*
X0489917Y0260057D01*
X0489743Y0259949D01*
X0489566Y0259846D01*
X0489386Y0259747D01*
X0489204Y0259653D01*
X0489020Y0259563D01*
X0488834Y0259478D01*
X0488645Y0259397D01*
X0488455Y0259321D01*
X0488263Y0259249D01*
X0488069Y0259183D01*
X0487873Y0259121D01*
X0487677Y0259064D01*
X0487478Y0259011D01*
X0487279Y0258964D01*
X0487078Y0258921D01*
X0486877Y0258884D01*
X0486674Y0258851D01*
X0486471Y0258824D01*
X0486268Y0258801D01*
X0486063Y0258784D01*
X0485859Y0258771D01*
X0485654Y0258764D01*
X0485449Y0258761D01*
X0485244Y0258764D01*
X0485039Y0258771D01*
X0484835Y0258784D01*
X0484630Y0258801D01*
X0484427Y0258824D01*
X0484224Y0258851D01*
X0484021Y0258884D01*
X0483820Y0258921D01*
X0483619Y0258964D01*
X0483420Y0259011D01*
X0483221Y0259064D01*
X0483025Y0259121D01*
X0482829Y0259183D01*
X0482635Y0259249D01*
X0482443Y0259321D01*
X0482253Y0259397D01*
X0482064Y0259478D01*
X0481878Y0259563D01*
X0481694Y0259653D01*
X0481512Y0259747D01*
X0481332Y0259846D01*
X0481155Y0259949D01*
X0480981Y0260057D01*
X0480809Y0260169D01*
X0480640Y0260285D01*
X0480474Y0260405D01*
X0480311Y0260529D01*
X0480151Y0260657D01*
X0479994Y0260789D01*
X0479840Y0260925D01*
X0479690Y0261064D01*
X0479543Y0261207D01*
X0479400Y0261354D01*
X0479261Y0261504D01*
X0479125Y0261658D01*
X0478993Y0261815D01*
X0478865Y0261975D01*
X0478741Y0262138D01*
X0478621Y0262304D01*
X0478505Y0262473D01*
X0478393Y0262645D01*
X0478285Y0262819D01*
X0478182Y0262996D01*
X0478083Y0263176D01*
X0477989Y0263358D01*
X0477899Y0263542D01*
X0477814Y0263728D01*
X0477733Y0263917D01*
X0477657Y0264107D01*
X0477585Y0264299D01*
X0477519Y0264493D01*
X0477457Y0264689D01*
X0477400Y0264885D01*
X0477347Y0265084D01*
X0477300Y0265283D01*
X0477257Y0265484D01*
X0477220Y0265685D01*
X0477187Y0265888D01*
X0477160Y0266091D01*
X0477137Y0266294D01*
X0477120Y0266499D01*
X0477107Y0266703D01*
X0477100Y0266908D01*
X0477097Y0267113D01*
X0482665Y0267113D02*
X0482667Y0267218D01*
X0482673Y0267324D01*
X0482683Y0267428D01*
X0482697Y0267533D01*
X0482715Y0267637D01*
X0482736Y0267740D01*
X0482762Y0267842D01*
X0482792Y0267943D01*
X0482825Y0268043D01*
X0482862Y0268142D01*
X0482903Y0268239D01*
X0482947Y0268334D01*
X0482995Y0268428D01*
X0483047Y0268520D01*
X0483102Y0268610D01*
X0483160Y0268698D01*
X0483222Y0268783D01*
X0483287Y0268866D01*
X0483354Y0268947D01*
X0483425Y0269025D01*
X0483499Y0269100D01*
X0483576Y0269172D01*
X0483655Y0269242D01*
X0483737Y0269308D01*
X0483821Y0269371D01*
X0483908Y0269431D01*
X0483997Y0269488D01*
X0484088Y0269541D01*
X0484180Y0269591D01*
X0484275Y0269637D01*
X0484371Y0269680D01*
X0484469Y0269719D01*
X0484569Y0269754D01*
X0484669Y0269786D01*
X0484771Y0269813D01*
X0484874Y0269837D01*
X0484977Y0269857D01*
X0485081Y0269873D01*
X0485186Y0269885D01*
X0485291Y0269893D01*
X0485396Y0269897D01*
X0485502Y0269897D01*
X0485607Y0269893D01*
X0485712Y0269885D01*
X0485817Y0269873D01*
X0485921Y0269857D01*
X0486024Y0269837D01*
X0486127Y0269813D01*
X0486229Y0269786D01*
X0486329Y0269754D01*
X0486429Y0269719D01*
X0486527Y0269680D01*
X0486623Y0269637D01*
X0486718Y0269591D01*
X0486810Y0269541D01*
X0486901Y0269488D01*
X0486990Y0269431D01*
X0487077Y0269371D01*
X0487161Y0269308D01*
X0487243Y0269242D01*
X0487322Y0269172D01*
X0487399Y0269100D01*
X0487473Y0269025D01*
X0487544Y0268947D01*
X0487611Y0268866D01*
X0487676Y0268783D01*
X0487738Y0268698D01*
X0487796Y0268610D01*
X0487851Y0268520D01*
X0487903Y0268428D01*
X0487951Y0268334D01*
X0487995Y0268239D01*
X0488036Y0268142D01*
X0488073Y0268043D01*
X0488106Y0267943D01*
X0488136Y0267842D01*
X0488162Y0267740D01*
X0488183Y0267637D01*
X0488201Y0267533D01*
X0488215Y0267428D01*
X0488225Y0267324D01*
X0488231Y0267218D01*
X0488233Y0267113D01*
X0488231Y0267008D01*
X0488225Y0266902D01*
X0488215Y0266798D01*
X0488201Y0266693D01*
X0488183Y0266589D01*
X0488162Y0266486D01*
X0488136Y0266384D01*
X0488106Y0266283D01*
X0488073Y0266183D01*
X0488036Y0266084D01*
X0487995Y0265987D01*
X0487951Y0265892D01*
X0487903Y0265798D01*
X0487851Y0265706D01*
X0487796Y0265616D01*
X0487738Y0265528D01*
X0487676Y0265443D01*
X0487611Y0265360D01*
X0487544Y0265279D01*
X0487473Y0265201D01*
X0487399Y0265126D01*
X0487322Y0265054D01*
X0487243Y0264984D01*
X0487161Y0264918D01*
X0487077Y0264855D01*
X0486990Y0264795D01*
X0486901Y0264738D01*
X0486810Y0264685D01*
X0486718Y0264635D01*
X0486623Y0264589D01*
X0486527Y0264546D01*
X0486429Y0264507D01*
X0486329Y0264472D01*
X0486229Y0264440D01*
X0486127Y0264413D01*
X0486024Y0264389D01*
X0485921Y0264369D01*
X0485817Y0264353D01*
X0485712Y0264341D01*
X0485607Y0264333D01*
X0485502Y0264329D01*
X0485396Y0264329D01*
X0485291Y0264333D01*
X0485186Y0264341D01*
X0485081Y0264353D01*
X0484977Y0264369D01*
X0484874Y0264389D01*
X0484771Y0264413D01*
X0484669Y0264440D01*
X0484569Y0264472D01*
X0484469Y0264507D01*
X0484371Y0264546D01*
X0484275Y0264589D01*
X0484180Y0264635D01*
X0484088Y0264685D01*
X0483997Y0264738D01*
X0483908Y0264795D01*
X0483821Y0264855D01*
X0483737Y0264918D01*
X0483655Y0264984D01*
X0483576Y0265054D01*
X0483499Y0265126D01*
X0483425Y0265201D01*
X0483354Y0265279D01*
X0483287Y0265360D01*
X0483222Y0265443D01*
X0483160Y0265528D01*
X0483102Y0265616D01*
X0483047Y0265706D01*
X0482995Y0265798D01*
X0482947Y0265892D01*
X0482903Y0265987D01*
X0482862Y0266084D01*
X0482825Y0266183D01*
X0482792Y0266283D01*
X0482762Y0266384D01*
X0482736Y0266486D01*
X0482715Y0266589D01*
X0482697Y0266693D01*
X0482683Y0266798D01*
X0482673Y0266902D01*
X0482667Y0267008D01*
X0482665Y0267113D01*
X0479881Y0267113D02*
X0479883Y0267262D01*
X0479889Y0267411D01*
X0479899Y0267559D01*
X0479913Y0267707D01*
X0479931Y0267855D01*
X0479952Y0268002D01*
X0479978Y0268149D01*
X0480008Y0268295D01*
X0480041Y0268440D01*
X0480079Y0268584D01*
X0480120Y0268727D01*
X0480165Y0268869D01*
X0480214Y0269010D01*
X0480267Y0269149D01*
X0480323Y0269287D01*
X0480383Y0269423D01*
X0480446Y0269558D01*
X0480513Y0269690D01*
X0480584Y0269821D01*
X0480658Y0269951D01*
X0480736Y0270078D01*
X0480817Y0270203D01*
X0480901Y0270325D01*
X0480989Y0270446D01*
X0481079Y0270564D01*
X0481173Y0270679D01*
X0481270Y0270792D01*
X0481370Y0270903D01*
X0481473Y0271010D01*
X0481578Y0271115D01*
X0481687Y0271217D01*
X0481798Y0271317D01*
X0481911Y0271413D01*
X0482028Y0271506D01*
X0482146Y0271596D01*
X0482267Y0271682D01*
X0482390Y0271766D01*
X0482516Y0271846D01*
X0482644Y0271923D01*
X0482773Y0271996D01*
X0482905Y0272066D01*
X0483038Y0272132D01*
X0483173Y0272195D01*
X0483310Y0272254D01*
X0483448Y0272309D01*
X0483587Y0272361D01*
X0483728Y0272408D01*
X0483871Y0272453D01*
X0484014Y0272493D01*
X0484158Y0272529D01*
X0484303Y0272562D01*
X0484450Y0272591D01*
X0484596Y0272615D01*
X0484744Y0272636D01*
X0484892Y0272653D01*
X0485040Y0272666D01*
X0485189Y0272675D01*
X0485337Y0272680D01*
X0485486Y0272681D01*
X0485635Y0272678D01*
X0485784Y0272671D01*
X0485932Y0272660D01*
X0486080Y0272645D01*
X0486228Y0272626D01*
X0486375Y0272603D01*
X0486522Y0272577D01*
X0486667Y0272546D01*
X0486812Y0272512D01*
X0486956Y0272473D01*
X0487099Y0272431D01*
X0487240Y0272385D01*
X0487381Y0272335D01*
X0487519Y0272282D01*
X0487657Y0272225D01*
X0487793Y0272164D01*
X0487927Y0272099D01*
X0488059Y0272031D01*
X0488190Y0271960D01*
X0488319Y0271885D01*
X0488445Y0271806D01*
X0488569Y0271724D01*
X0488692Y0271639D01*
X0488811Y0271551D01*
X0488929Y0271460D01*
X0489044Y0271365D01*
X0489156Y0271267D01*
X0489266Y0271167D01*
X0489373Y0271063D01*
X0489477Y0270957D01*
X0489579Y0270848D01*
X0489677Y0270736D01*
X0489772Y0270622D01*
X0489865Y0270505D01*
X0489954Y0270386D01*
X0490039Y0270264D01*
X0490122Y0270140D01*
X0490201Y0270014D01*
X0490277Y0269886D01*
X0490350Y0269756D01*
X0490419Y0269624D01*
X0490484Y0269490D01*
X0490546Y0269355D01*
X0490604Y0269218D01*
X0490658Y0269079D01*
X0490709Y0268939D01*
X0490756Y0268798D01*
X0490799Y0268656D01*
X0490838Y0268512D01*
X0490874Y0268368D01*
X0490905Y0268222D01*
X0490933Y0268076D01*
X0490957Y0267929D01*
X0490977Y0267781D01*
X0490993Y0267633D01*
X0491005Y0267485D01*
X0491013Y0267336D01*
X0491017Y0267187D01*
X0491017Y0267039D01*
X0491013Y0266890D01*
X0491005Y0266741D01*
X0490993Y0266593D01*
X0490977Y0266445D01*
X0490957Y0266297D01*
X0490933Y0266150D01*
X0490905Y0266004D01*
X0490874Y0265858D01*
X0490838Y0265714D01*
X0490799Y0265570D01*
X0490756Y0265428D01*
X0490709Y0265287D01*
X0490658Y0265147D01*
X0490604Y0265008D01*
X0490546Y0264871D01*
X0490484Y0264736D01*
X0490419Y0264602D01*
X0490350Y0264470D01*
X0490277Y0264340D01*
X0490201Y0264212D01*
X0490122Y0264086D01*
X0490039Y0263962D01*
X0489954Y0263840D01*
X0489865Y0263721D01*
X0489772Y0263604D01*
X0489677Y0263490D01*
X0489579Y0263378D01*
X0489477Y0263269D01*
X0489373Y0263163D01*
X0489266Y0263059D01*
X0489156Y0262959D01*
X0489044Y0262861D01*
X0488929Y0262766D01*
X0488811Y0262675D01*
X0488692Y0262587D01*
X0488569Y0262502D01*
X0488445Y0262420D01*
X0488319Y0262341D01*
X0488190Y0262266D01*
X0488059Y0262195D01*
X0487927Y0262127D01*
X0487793Y0262062D01*
X0487657Y0262001D01*
X0487519Y0261944D01*
X0487381Y0261891D01*
X0487240Y0261841D01*
X0487099Y0261795D01*
X0486956Y0261753D01*
X0486812Y0261714D01*
X0486667Y0261680D01*
X0486522Y0261649D01*
X0486375Y0261623D01*
X0486228Y0261600D01*
X0486080Y0261581D01*
X0485932Y0261566D01*
X0485784Y0261555D01*
X0485635Y0261548D01*
X0485486Y0261545D01*
X0485337Y0261546D01*
X0485189Y0261551D01*
X0485040Y0261560D01*
X0484892Y0261573D01*
X0484744Y0261590D01*
X0484596Y0261611D01*
X0484450Y0261635D01*
X0484303Y0261664D01*
X0484158Y0261697D01*
X0484014Y0261733D01*
X0483871Y0261773D01*
X0483728Y0261818D01*
X0483587Y0261865D01*
X0483448Y0261917D01*
X0483310Y0261972D01*
X0483173Y0262031D01*
X0483038Y0262094D01*
X0482905Y0262160D01*
X0482773Y0262230D01*
X0482644Y0262303D01*
X0482516Y0262380D01*
X0482390Y0262460D01*
X0482267Y0262544D01*
X0482146Y0262630D01*
X0482028Y0262720D01*
X0481911Y0262813D01*
X0481798Y0262909D01*
X0481687Y0263009D01*
X0481578Y0263111D01*
X0481473Y0263216D01*
X0481370Y0263323D01*
X0481270Y0263434D01*
X0481173Y0263547D01*
X0481079Y0263662D01*
X0480989Y0263780D01*
X0480901Y0263901D01*
X0480817Y0264023D01*
X0480736Y0264148D01*
X0480658Y0264275D01*
X0480584Y0264405D01*
X0480513Y0264536D01*
X0480446Y0264668D01*
X0480383Y0264803D01*
X0480323Y0264939D01*
X0480267Y0265077D01*
X0480214Y0265216D01*
X0480165Y0265357D01*
X0480120Y0265499D01*
X0480079Y0265642D01*
X0480041Y0265786D01*
X0480008Y0265931D01*
X0479978Y0266077D01*
X0479952Y0266224D01*
X0479931Y0266371D01*
X0479913Y0266519D01*
X0479899Y0266667D01*
X0479889Y0266815D01*
X0479883Y0266964D01*
X0479881Y0267113D01*
X0485449Y0278924D02*
X0485449Y0255302D01*
D12*
X0266079Y0203136D02*
X0266079Y0200774D01*
X0266077Y0200701D01*
X0266071Y0200628D01*
X0266061Y0200555D01*
X0266048Y0200483D01*
X0266030Y0200411D01*
X0266009Y0200341D01*
X0265984Y0200272D01*
X0265956Y0200205D01*
X0265924Y0200139D01*
X0265888Y0200074D01*
X0265849Y0200012D01*
X0265807Y0199952D01*
X0265762Y0199894D01*
X0265714Y0199839D01*
X0265662Y0199787D01*
X0265608Y0199737D01*
X0265552Y0199690D01*
X0265493Y0199646D01*
X0265432Y0199606D01*
X0265369Y0199569D01*
X0265304Y0199535D01*
X0265237Y0199504D01*
X0265168Y0199478D01*
X0265099Y0199455D01*
X0265028Y0199435D01*
X0264956Y0199420D01*
X0264884Y0199408D01*
X0264811Y0199400D01*
X0264738Y0199396D01*
X0264664Y0199396D01*
X0264591Y0199400D01*
X0264518Y0199408D01*
X0264446Y0199420D01*
X0264374Y0199435D01*
X0264303Y0199455D01*
X0264234Y0199478D01*
X0264165Y0199504D01*
X0264098Y0199535D01*
X0264033Y0199569D01*
X0263970Y0199606D01*
X0263909Y0199646D01*
X0263850Y0199690D01*
X0263794Y0199737D01*
X0263740Y0199787D01*
X0263688Y0199839D01*
X0263640Y0199894D01*
X0263595Y0199952D01*
X0263553Y0200012D01*
X0263514Y0200074D01*
X0263478Y0200139D01*
X0263446Y0200205D01*
X0263418Y0200272D01*
X0263393Y0200341D01*
X0263372Y0200411D01*
X0263354Y0200483D01*
X0263341Y0200555D01*
X0263331Y0200628D01*
X0263325Y0200701D01*
X0263323Y0200774D01*
X0263323Y0203136D01*
X0263325Y0203209D01*
X0263331Y0203282D01*
X0263341Y0203355D01*
X0263354Y0203427D01*
X0263372Y0203499D01*
X0263393Y0203569D01*
X0263418Y0203638D01*
X0263446Y0203705D01*
X0263478Y0203771D01*
X0263514Y0203836D01*
X0263553Y0203898D01*
X0263595Y0203958D01*
X0263640Y0204016D01*
X0263688Y0204071D01*
X0263740Y0204123D01*
X0263794Y0204173D01*
X0263850Y0204220D01*
X0263909Y0204264D01*
X0263970Y0204304D01*
X0264033Y0204341D01*
X0264098Y0204375D01*
X0264165Y0204406D01*
X0264234Y0204432D01*
X0264303Y0204455D01*
X0264374Y0204475D01*
X0264446Y0204490D01*
X0264518Y0204502D01*
X0264591Y0204510D01*
X0264664Y0204514D01*
X0264738Y0204514D01*
X0264811Y0204510D01*
X0264884Y0204502D01*
X0264956Y0204490D01*
X0265028Y0204475D01*
X0265099Y0204455D01*
X0265168Y0204432D01*
X0265237Y0204406D01*
X0265304Y0204375D01*
X0265369Y0204341D01*
X0265432Y0204304D01*
X0265493Y0204264D01*
X0265552Y0204220D01*
X0265608Y0204173D01*
X0265662Y0204123D01*
X0265714Y0204071D01*
X0265762Y0204016D01*
X0265807Y0203958D01*
X0265849Y0203898D01*
X0265888Y0203836D01*
X0265924Y0203771D01*
X0265956Y0203705D01*
X0265984Y0203638D01*
X0266009Y0203569D01*
X0266030Y0203499D01*
X0266048Y0203427D01*
X0266061Y0203355D01*
X0266071Y0203282D01*
X0266077Y0203209D01*
X0266079Y0203136D01*
X0216157Y0203136D02*
X0216157Y0200774D01*
X0216158Y0200774D02*
X0216156Y0200701D01*
X0216150Y0200628D01*
X0216140Y0200555D01*
X0216127Y0200483D01*
X0216109Y0200411D01*
X0216088Y0200341D01*
X0216063Y0200272D01*
X0216035Y0200205D01*
X0216003Y0200139D01*
X0215967Y0200074D01*
X0215928Y0200012D01*
X0215886Y0199952D01*
X0215841Y0199894D01*
X0215793Y0199839D01*
X0215741Y0199787D01*
X0215687Y0199737D01*
X0215631Y0199690D01*
X0215572Y0199646D01*
X0215511Y0199606D01*
X0215448Y0199569D01*
X0215383Y0199535D01*
X0215316Y0199504D01*
X0215247Y0199478D01*
X0215178Y0199455D01*
X0215107Y0199435D01*
X0215035Y0199420D01*
X0214963Y0199408D01*
X0214890Y0199400D01*
X0214817Y0199396D01*
X0214743Y0199396D01*
X0214670Y0199400D01*
X0214597Y0199408D01*
X0214525Y0199420D01*
X0214453Y0199435D01*
X0214382Y0199455D01*
X0214313Y0199478D01*
X0214244Y0199504D01*
X0214177Y0199535D01*
X0214112Y0199569D01*
X0214049Y0199606D01*
X0213988Y0199646D01*
X0213929Y0199690D01*
X0213873Y0199737D01*
X0213819Y0199787D01*
X0213767Y0199839D01*
X0213719Y0199894D01*
X0213674Y0199952D01*
X0213632Y0200012D01*
X0213593Y0200074D01*
X0213557Y0200139D01*
X0213525Y0200205D01*
X0213497Y0200272D01*
X0213472Y0200341D01*
X0213451Y0200411D01*
X0213433Y0200483D01*
X0213420Y0200555D01*
X0213410Y0200628D01*
X0213404Y0200701D01*
X0213402Y0200774D01*
X0213402Y0203136D01*
X0213404Y0203209D01*
X0213410Y0203282D01*
X0213420Y0203355D01*
X0213433Y0203427D01*
X0213451Y0203499D01*
X0213472Y0203569D01*
X0213497Y0203638D01*
X0213525Y0203705D01*
X0213557Y0203771D01*
X0213593Y0203836D01*
X0213632Y0203898D01*
X0213674Y0203958D01*
X0213719Y0204016D01*
X0213767Y0204071D01*
X0213819Y0204123D01*
X0213873Y0204173D01*
X0213929Y0204220D01*
X0213988Y0204264D01*
X0214049Y0204304D01*
X0214112Y0204341D01*
X0214177Y0204375D01*
X0214244Y0204406D01*
X0214313Y0204432D01*
X0214382Y0204455D01*
X0214453Y0204475D01*
X0214525Y0204490D01*
X0214597Y0204502D01*
X0214670Y0204510D01*
X0214743Y0204514D01*
X0214817Y0204514D01*
X0214890Y0204510D01*
X0214963Y0204502D01*
X0215035Y0204490D01*
X0215107Y0204475D01*
X0215178Y0204455D01*
X0215247Y0204432D01*
X0215316Y0204406D01*
X0215383Y0204375D01*
X0215448Y0204341D01*
X0215511Y0204304D01*
X0215572Y0204264D01*
X0215631Y0204220D01*
X0215687Y0204173D01*
X0215741Y0204123D01*
X0215793Y0204071D01*
X0215841Y0204016D01*
X0215886Y0203958D01*
X0215928Y0203898D01*
X0215967Y0203836D01*
X0216003Y0203771D01*
X0216035Y0203705D01*
X0216063Y0203638D01*
X0216088Y0203569D01*
X0216109Y0203499D01*
X0216127Y0203427D01*
X0216140Y0203355D01*
X0216150Y0203282D01*
X0216156Y0203209D01*
X0216158Y0203136D01*
M02*
