G75*
%MOIN*%
%OFA0B0*%
%FSLAX25Y25*%
%IPPOS*%
%LPD*%
%AMOC8*
5,1,8,0,0,1.08239X$1,22.5*
%
%ADD10C,0.00394*%
%ADD11C,0.00435*%
%ADD12C,0.00425*%
%ADD13C,0.00413*%
%ADD14C,0.00390*%
%ADD15C,0.00411*%
%ADD16C,0.00433*%
%ADD17C,0.07400*%
%ADD18C,0.07597*%
%ADD19C,0.19882*%
%ADD20C,0.14370*%
%ADD21C,0.02165*%
%ADD22C,0.02953*%
D10*
X0013008Y0019081D02*
X0013008Y0042703D01*
X0004656Y0030892D02*
X0004659Y0031097D01*
X0004666Y0031302D01*
X0004679Y0031506D01*
X0004696Y0031711D01*
X0004719Y0031914D01*
X0004746Y0032117D01*
X0004779Y0032320D01*
X0004816Y0032521D01*
X0004859Y0032722D01*
X0004906Y0032921D01*
X0004959Y0033120D01*
X0005016Y0033316D01*
X0005078Y0033512D01*
X0005144Y0033706D01*
X0005216Y0033898D01*
X0005292Y0034088D01*
X0005373Y0034277D01*
X0005458Y0034463D01*
X0005548Y0034647D01*
X0005642Y0034829D01*
X0005741Y0035009D01*
X0005844Y0035186D01*
X0005952Y0035360D01*
X0006064Y0035532D01*
X0006180Y0035701D01*
X0006300Y0035867D01*
X0006424Y0036030D01*
X0006552Y0036190D01*
X0006684Y0036347D01*
X0006820Y0036501D01*
X0006959Y0036651D01*
X0007102Y0036798D01*
X0007249Y0036941D01*
X0007399Y0037080D01*
X0007553Y0037216D01*
X0007710Y0037348D01*
X0007870Y0037476D01*
X0008033Y0037600D01*
X0008199Y0037720D01*
X0008368Y0037836D01*
X0008540Y0037948D01*
X0008714Y0038056D01*
X0008891Y0038159D01*
X0009071Y0038258D01*
X0009253Y0038352D01*
X0009437Y0038442D01*
X0009623Y0038527D01*
X0009812Y0038608D01*
X0010002Y0038684D01*
X0010194Y0038756D01*
X0010388Y0038822D01*
X0010584Y0038884D01*
X0010780Y0038941D01*
X0010979Y0038994D01*
X0011178Y0039041D01*
X0011379Y0039084D01*
X0011580Y0039121D01*
X0011783Y0039154D01*
X0011986Y0039181D01*
X0012189Y0039204D01*
X0012394Y0039221D01*
X0012598Y0039234D01*
X0012803Y0039241D01*
X0013008Y0039244D01*
X0013213Y0039241D01*
X0013418Y0039234D01*
X0013622Y0039221D01*
X0013827Y0039204D01*
X0014030Y0039181D01*
X0014233Y0039154D01*
X0014436Y0039121D01*
X0014637Y0039084D01*
X0014838Y0039041D01*
X0015037Y0038994D01*
X0015236Y0038941D01*
X0015432Y0038884D01*
X0015628Y0038822D01*
X0015822Y0038756D01*
X0016014Y0038684D01*
X0016204Y0038608D01*
X0016393Y0038527D01*
X0016579Y0038442D01*
X0016763Y0038352D01*
X0016945Y0038258D01*
X0017125Y0038159D01*
X0017302Y0038056D01*
X0017476Y0037948D01*
X0017648Y0037836D01*
X0017817Y0037720D01*
X0017983Y0037600D01*
X0018146Y0037476D01*
X0018306Y0037348D01*
X0018463Y0037216D01*
X0018617Y0037080D01*
X0018767Y0036941D01*
X0018914Y0036798D01*
X0019057Y0036651D01*
X0019196Y0036501D01*
X0019332Y0036347D01*
X0019464Y0036190D01*
X0019592Y0036030D01*
X0019716Y0035867D01*
X0019836Y0035701D01*
X0019952Y0035532D01*
X0020064Y0035360D01*
X0020172Y0035186D01*
X0020275Y0035009D01*
X0020374Y0034829D01*
X0020468Y0034647D01*
X0020558Y0034463D01*
X0020643Y0034277D01*
X0020724Y0034088D01*
X0020800Y0033898D01*
X0020872Y0033706D01*
X0020938Y0033512D01*
X0021000Y0033316D01*
X0021057Y0033120D01*
X0021110Y0032921D01*
X0021157Y0032722D01*
X0021200Y0032521D01*
X0021237Y0032320D01*
X0021270Y0032117D01*
X0021297Y0031914D01*
X0021320Y0031711D01*
X0021337Y0031506D01*
X0021350Y0031302D01*
X0021357Y0031097D01*
X0021360Y0030892D01*
X0021357Y0030687D01*
X0021350Y0030482D01*
X0021337Y0030278D01*
X0021320Y0030073D01*
X0021297Y0029870D01*
X0021270Y0029667D01*
X0021237Y0029464D01*
X0021200Y0029263D01*
X0021157Y0029062D01*
X0021110Y0028863D01*
X0021057Y0028664D01*
X0021000Y0028468D01*
X0020938Y0028272D01*
X0020872Y0028078D01*
X0020800Y0027886D01*
X0020724Y0027696D01*
X0020643Y0027507D01*
X0020558Y0027321D01*
X0020468Y0027137D01*
X0020374Y0026955D01*
X0020275Y0026775D01*
X0020172Y0026598D01*
X0020064Y0026424D01*
X0019952Y0026252D01*
X0019836Y0026083D01*
X0019716Y0025917D01*
X0019592Y0025754D01*
X0019464Y0025594D01*
X0019332Y0025437D01*
X0019196Y0025283D01*
X0019057Y0025133D01*
X0018914Y0024986D01*
X0018767Y0024843D01*
X0018617Y0024704D01*
X0018463Y0024568D01*
X0018306Y0024436D01*
X0018146Y0024308D01*
X0017983Y0024184D01*
X0017817Y0024064D01*
X0017648Y0023948D01*
X0017476Y0023836D01*
X0017302Y0023728D01*
X0017125Y0023625D01*
X0016945Y0023526D01*
X0016763Y0023432D01*
X0016579Y0023342D01*
X0016393Y0023257D01*
X0016204Y0023176D01*
X0016014Y0023100D01*
X0015822Y0023028D01*
X0015628Y0022962D01*
X0015432Y0022900D01*
X0015236Y0022843D01*
X0015037Y0022790D01*
X0014838Y0022743D01*
X0014637Y0022700D01*
X0014436Y0022663D01*
X0014233Y0022630D01*
X0014030Y0022603D01*
X0013827Y0022580D01*
X0013622Y0022563D01*
X0013418Y0022550D01*
X0013213Y0022543D01*
X0013008Y0022540D01*
X0012803Y0022543D01*
X0012598Y0022550D01*
X0012394Y0022563D01*
X0012189Y0022580D01*
X0011986Y0022603D01*
X0011783Y0022630D01*
X0011580Y0022663D01*
X0011379Y0022700D01*
X0011178Y0022743D01*
X0010979Y0022790D01*
X0010780Y0022843D01*
X0010584Y0022900D01*
X0010388Y0022962D01*
X0010194Y0023028D01*
X0010002Y0023100D01*
X0009812Y0023176D01*
X0009623Y0023257D01*
X0009437Y0023342D01*
X0009253Y0023432D01*
X0009071Y0023526D01*
X0008891Y0023625D01*
X0008714Y0023728D01*
X0008540Y0023836D01*
X0008368Y0023948D01*
X0008199Y0024064D01*
X0008033Y0024184D01*
X0007870Y0024308D01*
X0007710Y0024436D01*
X0007553Y0024568D01*
X0007399Y0024704D01*
X0007249Y0024843D01*
X0007102Y0024986D01*
X0006959Y0025133D01*
X0006820Y0025283D01*
X0006684Y0025437D01*
X0006552Y0025594D01*
X0006424Y0025754D01*
X0006300Y0025917D01*
X0006180Y0026083D01*
X0006064Y0026252D01*
X0005952Y0026424D01*
X0005844Y0026598D01*
X0005741Y0026775D01*
X0005642Y0026955D01*
X0005548Y0027137D01*
X0005458Y0027321D01*
X0005373Y0027507D01*
X0005292Y0027696D01*
X0005216Y0027886D01*
X0005144Y0028078D01*
X0005078Y0028272D01*
X0005016Y0028468D01*
X0004959Y0028664D01*
X0004906Y0028863D01*
X0004859Y0029062D01*
X0004816Y0029263D01*
X0004779Y0029464D01*
X0004746Y0029667D01*
X0004719Y0029870D01*
X0004696Y0030073D01*
X0004679Y0030278D01*
X0004666Y0030482D01*
X0004659Y0030687D01*
X0004656Y0030892D01*
X0001197Y0030892D02*
X0024819Y0030892D01*
X0010224Y0030892D02*
X0010226Y0030997D01*
X0010232Y0031103D01*
X0010242Y0031207D01*
X0010256Y0031312D01*
X0010274Y0031416D01*
X0010295Y0031519D01*
X0010321Y0031621D01*
X0010351Y0031722D01*
X0010384Y0031822D01*
X0010421Y0031921D01*
X0010462Y0032018D01*
X0010506Y0032113D01*
X0010554Y0032207D01*
X0010606Y0032299D01*
X0010661Y0032389D01*
X0010719Y0032477D01*
X0010781Y0032562D01*
X0010846Y0032645D01*
X0010913Y0032726D01*
X0010984Y0032804D01*
X0011058Y0032879D01*
X0011135Y0032951D01*
X0011214Y0033021D01*
X0011296Y0033087D01*
X0011380Y0033150D01*
X0011467Y0033210D01*
X0011556Y0033267D01*
X0011647Y0033320D01*
X0011739Y0033370D01*
X0011834Y0033416D01*
X0011930Y0033459D01*
X0012028Y0033498D01*
X0012128Y0033533D01*
X0012228Y0033565D01*
X0012330Y0033592D01*
X0012433Y0033616D01*
X0012536Y0033636D01*
X0012640Y0033652D01*
X0012745Y0033664D01*
X0012850Y0033672D01*
X0012955Y0033676D01*
X0013061Y0033676D01*
X0013166Y0033672D01*
X0013271Y0033664D01*
X0013376Y0033652D01*
X0013480Y0033636D01*
X0013583Y0033616D01*
X0013686Y0033592D01*
X0013788Y0033565D01*
X0013888Y0033533D01*
X0013988Y0033498D01*
X0014086Y0033459D01*
X0014182Y0033416D01*
X0014277Y0033370D01*
X0014369Y0033320D01*
X0014460Y0033267D01*
X0014549Y0033210D01*
X0014636Y0033150D01*
X0014720Y0033087D01*
X0014802Y0033021D01*
X0014881Y0032951D01*
X0014958Y0032879D01*
X0015032Y0032804D01*
X0015103Y0032726D01*
X0015170Y0032645D01*
X0015235Y0032562D01*
X0015297Y0032477D01*
X0015355Y0032389D01*
X0015410Y0032299D01*
X0015462Y0032207D01*
X0015510Y0032113D01*
X0015554Y0032018D01*
X0015595Y0031921D01*
X0015632Y0031822D01*
X0015665Y0031722D01*
X0015695Y0031621D01*
X0015721Y0031519D01*
X0015742Y0031416D01*
X0015760Y0031312D01*
X0015774Y0031207D01*
X0015784Y0031103D01*
X0015790Y0030997D01*
X0015792Y0030892D01*
X0015790Y0030787D01*
X0015784Y0030681D01*
X0015774Y0030577D01*
X0015760Y0030472D01*
X0015742Y0030368D01*
X0015721Y0030265D01*
X0015695Y0030163D01*
X0015665Y0030062D01*
X0015632Y0029962D01*
X0015595Y0029863D01*
X0015554Y0029766D01*
X0015510Y0029671D01*
X0015462Y0029577D01*
X0015410Y0029485D01*
X0015355Y0029395D01*
X0015297Y0029307D01*
X0015235Y0029222D01*
X0015170Y0029139D01*
X0015103Y0029058D01*
X0015032Y0028980D01*
X0014958Y0028905D01*
X0014881Y0028833D01*
X0014802Y0028763D01*
X0014720Y0028697D01*
X0014636Y0028634D01*
X0014549Y0028574D01*
X0014460Y0028517D01*
X0014369Y0028464D01*
X0014277Y0028414D01*
X0014182Y0028368D01*
X0014086Y0028325D01*
X0013988Y0028286D01*
X0013888Y0028251D01*
X0013788Y0028219D01*
X0013686Y0028192D01*
X0013583Y0028168D01*
X0013480Y0028148D01*
X0013376Y0028132D01*
X0013271Y0028120D01*
X0013166Y0028112D01*
X0013061Y0028108D01*
X0012955Y0028108D01*
X0012850Y0028112D01*
X0012745Y0028120D01*
X0012640Y0028132D01*
X0012536Y0028148D01*
X0012433Y0028168D01*
X0012330Y0028192D01*
X0012228Y0028219D01*
X0012128Y0028251D01*
X0012028Y0028286D01*
X0011930Y0028325D01*
X0011834Y0028368D01*
X0011739Y0028414D01*
X0011647Y0028464D01*
X0011556Y0028517D01*
X0011467Y0028574D01*
X0011380Y0028634D01*
X0011296Y0028697D01*
X0011214Y0028763D01*
X0011135Y0028833D01*
X0011058Y0028905D01*
X0010984Y0028980D01*
X0010913Y0029058D01*
X0010846Y0029139D01*
X0010781Y0029222D01*
X0010719Y0029307D01*
X0010661Y0029395D01*
X0010606Y0029485D01*
X0010554Y0029577D01*
X0010506Y0029671D01*
X0010462Y0029766D01*
X0010421Y0029863D01*
X0010384Y0029962D01*
X0010351Y0030062D01*
X0010321Y0030163D01*
X0010295Y0030265D01*
X0010274Y0030368D01*
X0010256Y0030472D01*
X0010242Y0030577D01*
X0010232Y0030681D01*
X0010226Y0030787D01*
X0010224Y0030892D01*
X0007440Y0030892D02*
X0007442Y0031041D01*
X0007448Y0031190D01*
X0007458Y0031338D01*
X0007472Y0031486D01*
X0007490Y0031634D01*
X0007511Y0031781D01*
X0007537Y0031928D01*
X0007567Y0032074D01*
X0007600Y0032219D01*
X0007638Y0032363D01*
X0007679Y0032506D01*
X0007724Y0032648D01*
X0007773Y0032789D01*
X0007826Y0032928D01*
X0007882Y0033066D01*
X0007942Y0033202D01*
X0008005Y0033337D01*
X0008072Y0033469D01*
X0008143Y0033600D01*
X0008217Y0033730D01*
X0008295Y0033857D01*
X0008376Y0033982D01*
X0008460Y0034104D01*
X0008548Y0034225D01*
X0008638Y0034343D01*
X0008732Y0034458D01*
X0008829Y0034571D01*
X0008929Y0034682D01*
X0009032Y0034789D01*
X0009137Y0034894D01*
X0009246Y0034996D01*
X0009357Y0035096D01*
X0009470Y0035192D01*
X0009587Y0035285D01*
X0009705Y0035375D01*
X0009826Y0035461D01*
X0009949Y0035545D01*
X0010075Y0035625D01*
X0010203Y0035702D01*
X0010332Y0035775D01*
X0010464Y0035845D01*
X0010597Y0035911D01*
X0010732Y0035974D01*
X0010869Y0036033D01*
X0011007Y0036088D01*
X0011146Y0036140D01*
X0011287Y0036187D01*
X0011430Y0036232D01*
X0011573Y0036272D01*
X0011717Y0036308D01*
X0011862Y0036341D01*
X0012009Y0036370D01*
X0012155Y0036394D01*
X0012303Y0036415D01*
X0012451Y0036432D01*
X0012599Y0036445D01*
X0012748Y0036454D01*
X0012896Y0036459D01*
X0013045Y0036460D01*
X0013194Y0036457D01*
X0013343Y0036450D01*
X0013491Y0036439D01*
X0013639Y0036424D01*
X0013787Y0036405D01*
X0013934Y0036382D01*
X0014081Y0036356D01*
X0014226Y0036325D01*
X0014371Y0036291D01*
X0014515Y0036252D01*
X0014658Y0036210D01*
X0014799Y0036164D01*
X0014940Y0036114D01*
X0015078Y0036061D01*
X0015216Y0036004D01*
X0015352Y0035943D01*
X0015486Y0035878D01*
X0015618Y0035810D01*
X0015749Y0035739D01*
X0015878Y0035664D01*
X0016004Y0035585D01*
X0016128Y0035503D01*
X0016251Y0035418D01*
X0016370Y0035330D01*
X0016488Y0035239D01*
X0016603Y0035144D01*
X0016715Y0035046D01*
X0016825Y0034946D01*
X0016932Y0034842D01*
X0017036Y0034736D01*
X0017138Y0034627D01*
X0017236Y0034515D01*
X0017331Y0034401D01*
X0017424Y0034284D01*
X0017513Y0034165D01*
X0017598Y0034043D01*
X0017681Y0033919D01*
X0017760Y0033793D01*
X0017836Y0033665D01*
X0017909Y0033535D01*
X0017978Y0033403D01*
X0018043Y0033269D01*
X0018105Y0033134D01*
X0018163Y0032997D01*
X0018217Y0032858D01*
X0018268Y0032718D01*
X0018315Y0032577D01*
X0018358Y0032435D01*
X0018397Y0032291D01*
X0018433Y0032147D01*
X0018464Y0032001D01*
X0018492Y0031855D01*
X0018516Y0031708D01*
X0018536Y0031560D01*
X0018552Y0031412D01*
X0018564Y0031264D01*
X0018572Y0031115D01*
X0018576Y0030966D01*
X0018576Y0030818D01*
X0018572Y0030669D01*
X0018564Y0030520D01*
X0018552Y0030372D01*
X0018536Y0030224D01*
X0018516Y0030076D01*
X0018492Y0029929D01*
X0018464Y0029783D01*
X0018433Y0029637D01*
X0018397Y0029493D01*
X0018358Y0029349D01*
X0018315Y0029207D01*
X0018268Y0029066D01*
X0018217Y0028926D01*
X0018163Y0028787D01*
X0018105Y0028650D01*
X0018043Y0028515D01*
X0017978Y0028381D01*
X0017909Y0028249D01*
X0017836Y0028119D01*
X0017760Y0027991D01*
X0017681Y0027865D01*
X0017598Y0027741D01*
X0017513Y0027619D01*
X0017424Y0027500D01*
X0017331Y0027383D01*
X0017236Y0027269D01*
X0017138Y0027157D01*
X0017036Y0027048D01*
X0016932Y0026942D01*
X0016825Y0026838D01*
X0016715Y0026738D01*
X0016603Y0026640D01*
X0016488Y0026545D01*
X0016370Y0026454D01*
X0016251Y0026366D01*
X0016128Y0026281D01*
X0016004Y0026199D01*
X0015878Y0026120D01*
X0015749Y0026045D01*
X0015618Y0025974D01*
X0015486Y0025906D01*
X0015352Y0025841D01*
X0015216Y0025780D01*
X0015078Y0025723D01*
X0014940Y0025670D01*
X0014799Y0025620D01*
X0014658Y0025574D01*
X0014515Y0025532D01*
X0014371Y0025493D01*
X0014226Y0025459D01*
X0014081Y0025428D01*
X0013934Y0025402D01*
X0013787Y0025379D01*
X0013639Y0025360D01*
X0013491Y0025345D01*
X0013343Y0025334D01*
X0013194Y0025327D01*
X0013045Y0025324D01*
X0012896Y0025325D01*
X0012748Y0025330D01*
X0012599Y0025339D01*
X0012451Y0025352D01*
X0012303Y0025369D01*
X0012155Y0025390D01*
X0012009Y0025414D01*
X0011862Y0025443D01*
X0011717Y0025476D01*
X0011573Y0025512D01*
X0011430Y0025552D01*
X0011287Y0025597D01*
X0011146Y0025644D01*
X0011007Y0025696D01*
X0010869Y0025751D01*
X0010732Y0025810D01*
X0010597Y0025873D01*
X0010464Y0025939D01*
X0010332Y0026009D01*
X0010203Y0026082D01*
X0010075Y0026159D01*
X0009949Y0026239D01*
X0009826Y0026323D01*
X0009705Y0026409D01*
X0009587Y0026499D01*
X0009470Y0026592D01*
X0009357Y0026688D01*
X0009246Y0026788D01*
X0009137Y0026890D01*
X0009032Y0026995D01*
X0008929Y0027102D01*
X0008829Y0027213D01*
X0008732Y0027326D01*
X0008638Y0027441D01*
X0008548Y0027559D01*
X0008460Y0027680D01*
X0008376Y0027802D01*
X0008295Y0027927D01*
X0008217Y0028054D01*
X0008143Y0028184D01*
X0008072Y0028315D01*
X0008005Y0028447D01*
X0007942Y0028582D01*
X0007882Y0028718D01*
X0007826Y0028856D01*
X0007773Y0028995D01*
X0007724Y0029136D01*
X0007679Y0029278D01*
X0007638Y0029421D01*
X0007600Y0029565D01*
X0007567Y0029710D01*
X0007537Y0029856D01*
X0007511Y0030003D01*
X0007490Y0030150D01*
X0007472Y0030298D01*
X0007458Y0030446D01*
X0007448Y0030594D01*
X0007442Y0030743D01*
X0007440Y0030892D01*
X0013008Y0255302D02*
X0013008Y0278924D01*
X0004656Y0267113D02*
X0004659Y0267318D01*
X0004666Y0267523D01*
X0004679Y0267727D01*
X0004696Y0267932D01*
X0004719Y0268135D01*
X0004746Y0268338D01*
X0004779Y0268541D01*
X0004816Y0268742D01*
X0004859Y0268943D01*
X0004906Y0269142D01*
X0004959Y0269341D01*
X0005016Y0269537D01*
X0005078Y0269733D01*
X0005144Y0269927D01*
X0005216Y0270119D01*
X0005292Y0270309D01*
X0005373Y0270498D01*
X0005458Y0270684D01*
X0005548Y0270868D01*
X0005642Y0271050D01*
X0005741Y0271230D01*
X0005844Y0271407D01*
X0005952Y0271581D01*
X0006064Y0271753D01*
X0006180Y0271922D01*
X0006300Y0272088D01*
X0006424Y0272251D01*
X0006552Y0272411D01*
X0006684Y0272568D01*
X0006820Y0272722D01*
X0006959Y0272872D01*
X0007102Y0273019D01*
X0007249Y0273162D01*
X0007399Y0273301D01*
X0007553Y0273437D01*
X0007710Y0273569D01*
X0007870Y0273697D01*
X0008033Y0273821D01*
X0008199Y0273941D01*
X0008368Y0274057D01*
X0008540Y0274169D01*
X0008714Y0274277D01*
X0008891Y0274380D01*
X0009071Y0274479D01*
X0009253Y0274573D01*
X0009437Y0274663D01*
X0009623Y0274748D01*
X0009812Y0274829D01*
X0010002Y0274905D01*
X0010194Y0274977D01*
X0010388Y0275043D01*
X0010584Y0275105D01*
X0010780Y0275162D01*
X0010979Y0275215D01*
X0011178Y0275262D01*
X0011379Y0275305D01*
X0011580Y0275342D01*
X0011783Y0275375D01*
X0011986Y0275402D01*
X0012189Y0275425D01*
X0012394Y0275442D01*
X0012598Y0275455D01*
X0012803Y0275462D01*
X0013008Y0275465D01*
X0013213Y0275462D01*
X0013418Y0275455D01*
X0013622Y0275442D01*
X0013827Y0275425D01*
X0014030Y0275402D01*
X0014233Y0275375D01*
X0014436Y0275342D01*
X0014637Y0275305D01*
X0014838Y0275262D01*
X0015037Y0275215D01*
X0015236Y0275162D01*
X0015432Y0275105D01*
X0015628Y0275043D01*
X0015822Y0274977D01*
X0016014Y0274905D01*
X0016204Y0274829D01*
X0016393Y0274748D01*
X0016579Y0274663D01*
X0016763Y0274573D01*
X0016945Y0274479D01*
X0017125Y0274380D01*
X0017302Y0274277D01*
X0017476Y0274169D01*
X0017648Y0274057D01*
X0017817Y0273941D01*
X0017983Y0273821D01*
X0018146Y0273697D01*
X0018306Y0273569D01*
X0018463Y0273437D01*
X0018617Y0273301D01*
X0018767Y0273162D01*
X0018914Y0273019D01*
X0019057Y0272872D01*
X0019196Y0272722D01*
X0019332Y0272568D01*
X0019464Y0272411D01*
X0019592Y0272251D01*
X0019716Y0272088D01*
X0019836Y0271922D01*
X0019952Y0271753D01*
X0020064Y0271581D01*
X0020172Y0271407D01*
X0020275Y0271230D01*
X0020374Y0271050D01*
X0020468Y0270868D01*
X0020558Y0270684D01*
X0020643Y0270498D01*
X0020724Y0270309D01*
X0020800Y0270119D01*
X0020872Y0269927D01*
X0020938Y0269733D01*
X0021000Y0269537D01*
X0021057Y0269341D01*
X0021110Y0269142D01*
X0021157Y0268943D01*
X0021200Y0268742D01*
X0021237Y0268541D01*
X0021270Y0268338D01*
X0021297Y0268135D01*
X0021320Y0267932D01*
X0021337Y0267727D01*
X0021350Y0267523D01*
X0021357Y0267318D01*
X0021360Y0267113D01*
X0021357Y0266908D01*
X0021350Y0266703D01*
X0021337Y0266499D01*
X0021320Y0266294D01*
X0021297Y0266091D01*
X0021270Y0265888D01*
X0021237Y0265685D01*
X0021200Y0265484D01*
X0021157Y0265283D01*
X0021110Y0265084D01*
X0021057Y0264885D01*
X0021000Y0264689D01*
X0020938Y0264493D01*
X0020872Y0264299D01*
X0020800Y0264107D01*
X0020724Y0263917D01*
X0020643Y0263728D01*
X0020558Y0263542D01*
X0020468Y0263358D01*
X0020374Y0263176D01*
X0020275Y0262996D01*
X0020172Y0262819D01*
X0020064Y0262645D01*
X0019952Y0262473D01*
X0019836Y0262304D01*
X0019716Y0262138D01*
X0019592Y0261975D01*
X0019464Y0261815D01*
X0019332Y0261658D01*
X0019196Y0261504D01*
X0019057Y0261354D01*
X0018914Y0261207D01*
X0018767Y0261064D01*
X0018617Y0260925D01*
X0018463Y0260789D01*
X0018306Y0260657D01*
X0018146Y0260529D01*
X0017983Y0260405D01*
X0017817Y0260285D01*
X0017648Y0260169D01*
X0017476Y0260057D01*
X0017302Y0259949D01*
X0017125Y0259846D01*
X0016945Y0259747D01*
X0016763Y0259653D01*
X0016579Y0259563D01*
X0016393Y0259478D01*
X0016204Y0259397D01*
X0016014Y0259321D01*
X0015822Y0259249D01*
X0015628Y0259183D01*
X0015432Y0259121D01*
X0015236Y0259064D01*
X0015037Y0259011D01*
X0014838Y0258964D01*
X0014637Y0258921D01*
X0014436Y0258884D01*
X0014233Y0258851D01*
X0014030Y0258824D01*
X0013827Y0258801D01*
X0013622Y0258784D01*
X0013418Y0258771D01*
X0013213Y0258764D01*
X0013008Y0258761D01*
X0012803Y0258764D01*
X0012598Y0258771D01*
X0012394Y0258784D01*
X0012189Y0258801D01*
X0011986Y0258824D01*
X0011783Y0258851D01*
X0011580Y0258884D01*
X0011379Y0258921D01*
X0011178Y0258964D01*
X0010979Y0259011D01*
X0010780Y0259064D01*
X0010584Y0259121D01*
X0010388Y0259183D01*
X0010194Y0259249D01*
X0010002Y0259321D01*
X0009812Y0259397D01*
X0009623Y0259478D01*
X0009437Y0259563D01*
X0009253Y0259653D01*
X0009071Y0259747D01*
X0008891Y0259846D01*
X0008714Y0259949D01*
X0008540Y0260057D01*
X0008368Y0260169D01*
X0008199Y0260285D01*
X0008033Y0260405D01*
X0007870Y0260529D01*
X0007710Y0260657D01*
X0007553Y0260789D01*
X0007399Y0260925D01*
X0007249Y0261064D01*
X0007102Y0261207D01*
X0006959Y0261354D01*
X0006820Y0261504D01*
X0006684Y0261658D01*
X0006552Y0261815D01*
X0006424Y0261975D01*
X0006300Y0262138D01*
X0006180Y0262304D01*
X0006064Y0262473D01*
X0005952Y0262645D01*
X0005844Y0262819D01*
X0005741Y0262996D01*
X0005642Y0263176D01*
X0005548Y0263358D01*
X0005458Y0263542D01*
X0005373Y0263728D01*
X0005292Y0263917D01*
X0005216Y0264107D01*
X0005144Y0264299D01*
X0005078Y0264493D01*
X0005016Y0264689D01*
X0004959Y0264885D01*
X0004906Y0265084D01*
X0004859Y0265283D01*
X0004816Y0265484D01*
X0004779Y0265685D01*
X0004746Y0265888D01*
X0004719Y0266091D01*
X0004696Y0266294D01*
X0004679Y0266499D01*
X0004666Y0266703D01*
X0004659Y0266908D01*
X0004656Y0267113D01*
X0001197Y0267113D02*
X0024819Y0267113D01*
X0010224Y0267113D02*
X0010226Y0267218D01*
X0010232Y0267324D01*
X0010242Y0267428D01*
X0010256Y0267533D01*
X0010274Y0267637D01*
X0010295Y0267740D01*
X0010321Y0267842D01*
X0010351Y0267943D01*
X0010384Y0268043D01*
X0010421Y0268142D01*
X0010462Y0268239D01*
X0010506Y0268334D01*
X0010554Y0268428D01*
X0010606Y0268520D01*
X0010661Y0268610D01*
X0010719Y0268698D01*
X0010781Y0268783D01*
X0010846Y0268866D01*
X0010913Y0268947D01*
X0010984Y0269025D01*
X0011058Y0269100D01*
X0011135Y0269172D01*
X0011214Y0269242D01*
X0011296Y0269308D01*
X0011380Y0269371D01*
X0011467Y0269431D01*
X0011556Y0269488D01*
X0011647Y0269541D01*
X0011739Y0269591D01*
X0011834Y0269637D01*
X0011930Y0269680D01*
X0012028Y0269719D01*
X0012128Y0269754D01*
X0012228Y0269786D01*
X0012330Y0269813D01*
X0012433Y0269837D01*
X0012536Y0269857D01*
X0012640Y0269873D01*
X0012745Y0269885D01*
X0012850Y0269893D01*
X0012955Y0269897D01*
X0013061Y0269897D01*
X0013166Y0269893D01*
X0013271Y0269885D01*
X0013376Y0269873D01*
X0013480Y0269857D01*
X0013583Y0269837D01*
X0013686Y0269813D01*
X0013788Y0269786D01*
X0013888Y0269754D01*
X0013988Y0269719D01*
X0014086Y0269680D01*
X0014182Y0269637D01*
X0014277Y0269591D01*
X0014369Y0269541D01*
X0014460Y0269488D01*
X0014549Y0269431D01*
X0014636Y0269371D01*
X0014720Y0269308D01*
X0014802Y0269242D01*
X0014881Y0269172D01*
X0014958Y0269100D01*
X0015032Y0269025D01*
X0015103Y0268947D01*
X0015170Y0268866D01*
X0015235Y0268783D01*
X0015297Y0268698D01*
X0015355Y0268610D01*
X0015410Y0268520D01*
X0015462Y0268428D01*
X0015510Y0268334D01*
X0015554Y0268239D01*
X0015595Y0268142D01*
X0015632Y0268043D01*
X0015665Y0267943D01*
X0015695Y0267842D01*
X0015721Y0267740D01*
X0015742Y0267637D01*
X0015760Y0267533D01*
X0015774Y0267428D01*
X0015784Y0267324D01*
X0015790Y0267218D01*
X0015792Y0267113D01*
X0015790Y0267008D01*
X0015784Y0266902D01*
X0015774Y0266798D01*
X0015760Y0266693D01*
X0015742Y0266589D01*
X0015721Y0266486D01*
X0015695Y0266384D01*
X0015665Y0266283D01*
X0015632Y0266183D01*
X0015595Y0266084D01*
X0015554Y0265987D01*
X0015510Y0265892D01*
X0015462Y0265798D01*
X0015410Y0265706D01*
X0015355Y0265616D01*
X0015297Y0265528D01*
X0015235Y0265443D01*
X0015170Y0265360D01*
X0015103Y0265279D01*
X0015032Y0265201D01*
X0014958Y0265126D01*
X0014881Y0265054D01*
X0014802Y0264984D01*
X0014720Y0264918D01*
X0014636Y0264855D01*
X0014549Y0264795D01*
X0014460Y0264738D01*
X0014369Y0264685D01*
X0014277Y0264635D01*
X0014182Y0264589D01*
X0014086Y0264546D01*
X0013988Y0264507D01*
X0013888Y0264472D01*
X0013788Y0264440D01*
X0013686Y0264413D01*
X0013583Y0264389D01*
X0013480Y0264369D01*
X0013376Y0264353D01*
X0013271Y0264341D01*
X0013166Y0264333D01*
X0013061Y0264329D01*
X0012955Y0264329D01*
X0012850Y0264333D01*
X0012745Y0264341D01*
X0012640Y0264353D01*
X0012536Y0264369D01*
X0012433Y0264389D01*
X0012330Y0264413D01*
X0012228Y0264440D01*
X0012128Y0264472D01*
X0012028Y0264507D01*
X0011930Y0264546D01*
X0011834Y0264589D01*
X0011739Y0264635D01*
X0011647Y0264685D01*
X0011556Y0264738D01*
X0011467Y0264795D01*
X0011380Y0264855D01*
X0011296Y0264918D01*
X0011214Y0264984D01*
X0011135Y0265054D01*
X0011058Y0265126D01*
X0010984Y0265201D01*
X0010913Y0265279D01*
X0010846Y0265360D01*
X0010781Y0265443D01*
X0010719Y0265528D01*
X0010661Y0265616D01*
X0010606Y0265706D01*
X0010554Y0265798D01*
X0010506Y0265892D01*
X0010462Y0265987D01*
X0010421Y0266084D01*
X0010384Y0266183D01*
X0010351Y0266283D01*
X0010321Y0266384D01*
X0010295Y0266486D01*
X0010274Y0266589D01*
X0010256Y0266693D01*
X0010242Y0266798D01*
X0010232Y0266902D01*
X0010226Y0267008D01*
X0010224Y0267113D01*
X0007440Y0267113D02*
X0007442Y0267262D01*
X0007448Y0267411D01*
X0007458Y0267559D01*
X0007472Y0267707D01*
X0007490Y0267855D01*
X0007511Y0268002D01*
X0007537Y0268149D01*
X0007567Y0268295D01*
X0007600Y0268440D01*
X0007638Y0268584D01*
X0007679Y0268727D01*
X0007724Y0268869D01*
X0007773Y0269010D01*
X0007826Y0269149D01*
X0007882Y0269287D01*
X0007942Y0269423D01*
X0008005Y0269558D01*
X0008072Y0269690D01*
X0008143Y0269821D01*
X0008217Y0269951D01*
X0008295Y0270078D01*
X0008376Y0270203D01*
X0008460Y0270325D01*
X0008548Y0270446D01*
X0008638Y0270564D01*
X0008732Y0270679D01*
X0008829Y0270792D01*
X0008929Y0270903D01*
X0009032Y0271010D01*
X0009137Y0271115D01*
X0009246Y0271217D01*
X0009357Y0271317D01*
X0009470Y0271413D01*
X0009587Y0271506D01*
X0009705Y0271596D01*
X0009826Y0271682D01*
X0009949Y0271766D01*
X0010075Y0271846D01*
X0010203Y0271923D01*
X0010332Y0271996D01*
X0010464Y0272066D01*
X0010597Y0272132D01*
X0010732Y0272195D01*
X0010869Y0272254D01*
X0011007Y0272309D01*
X0011146Y0272361D01*
X0011287Y0272408D01*
X0011430Y0272453D01*
X0011573Y0272493D01*
X0011717Y0272529D01*
X0011862Y0272562D01*
X0012009Y0272591D01*
X0012155Y0272615D01*
X0012303Y0272636D01*
X0012451Y0272653D01*
X0012599Y0272666D01*
X0012748Y0272675D01*
X0012896Y0272680D01*
X0013045Y0272681D01*
X0013194Y0272678D01*
X0013343Y0272671D01*
X0013491Y0272660D01*
X0013639Y0272645D01*
X0013787Y0272626D01*
X0013934Y0272603D01*
X0014081Y0272577D01*
X0014226Y0272546D01*
X0014371Y0272512D01*
X0014515Y0272473D01*
X0014658Y0272431D01*
X0014799Y0272385D01*
X0014940Y0272335D01*
X0015078Y0272282D01*
X0015216Y0272225D01*
X0015352Y0272164D01*
X0015486Y0272099D01*
X0015618Y0272031D01*
X0015749Y0271960D01*
X0015878Y0271885D01*
X0016004Y0271806D01*
X0016128Y0271724D01*
X0016251Y0271639D01*
X0016370Y0271551D01*
X0016488Y0271460D01*
X0016603Y0271365D01*
X0016715Y0271267D01*
X0016825Y0271167D01*
X0016932Y0271063D01*
X0017036Y0270957D01*
X0017138Y0270848D01*
X0017236Y0270736D01*
X0017331Y0270622D01*
X0017424Y0270505D01*
X0017513Y0270386D01*
X0017598Y0270264D01*
X0017681Y0270140D01*
X0017760Y0270014D01*
X0017836Y0269886D01*
X0017909Y0269756D01*
X0017978Y0269624D01*
X0018043Y0269490D01*
X0018105Y0269355D01*
X0018163Y0269218D01*
X0018217Y0269079D01*
X0018268Y0268939D01*
X0018315Y0268798D01*
X0018358Y0268656D01*
X0018397Y0268512D01*
X0018433Y0268368D01*
X0018464Y0268222D01*
X0018492Y0268076D01*
X0018516Y0267929D01*
X0018536Y0267781D01*
X0018552Y0267633D01*
X0018564Y0267485D01*
X0018572Y0267336D01*
X0018576Y0267187D01*
X0018576Y0267039D01*
X0018572Y0266890D01*
X0018564Y0266741D01*
X0018552Y0266593D01*
X0018536Y0266445D01*
X0018516Y0266297D01*
X0018492Y0266150D01*
X0018464Y0266004D01*
X0018433Y0265858D01*
X0018397Y0265714D01*
X0018358Y0265570D01*
X0018315Y0265428D01*
X0018268Y0265287D01*
X0018217Y0265147D01*
X0018163Y0265008D01*
X0018105Y0264871D01*
X0018043Y0264736D01*
X0017978Y0264602D01*
X0017909Y0264470D01*
X0017836Y0264340D01*
X0017760Y0264212D01*
X0017681Y0264086D01*
X0017598Y0263962D01*
X0017513Y0263840D01*
X0017424Y0263721D01*
X0017331Y0263604D01*
X0017236Y0263490D01*
X0017138Y0263378D01*
X0017036Y0263269D01*
X0016932Y0263163D01*
X0016825Y0263059D01*
X0016715Y0262959D01*
X0016603Y0262861D01*
X0016488Y0262766D01*
X0016370Y0262675D01*
X0016251Y0262587D01*
X0016128Y0262502D01*
X0016004Y0262420D01*
X0015878Y0262341D01*
X0015749Y0262266D01*
X0015618Y0262195D01*
X0015486Y0262127D01*
X0015352Y0262062D01*
X0015216Y0262001D01*
X0015078Y0261944D01*
X0014940Y0261891D01*
X0014799Y0261841D01*
X0014658Y0261795D01*
X0014515Y0261753D01*
X0014371Y0261714D01*
X0014226Y0261680D01*
X0014081Y0261649D01*
X0013934Y0261623D01*
X0013787Y0261600D01*
X0013639Y0261581D01*
X0013491Y0261566D01*
X0013343Y0261555D01*
X0013194Y0261548D01*
X0013045Y0261545D01*
X0012896Y0261546D01*
X0012748Y0261551D01*
X0012599Y0261560D01*
X0012451Y0261573D01*
X0012303Y0261590D01*
X0012155Y0261611D01*
X0012009Y0261635D01*
X0011862Y0261664D01*
X0011717Y0261697D01*
X0011573Y0261733D01*
X0011430Y0261773D01*
X0011287Y0261818D01*
X0011146Y0261865D01*
X0011007Y0261917D01*
X0010869Y0261972D01*
X0010732Y0262031D01*
X0010597Y0262094D01*
X0010464Y0262160D01*
X0010332Y0262230D01*
X0010203Y0262303D01*
X0010075Y0262380D01*
X0009949Y0262460D01*
X0009826Y0262544D01*
X0009705Y0262630D01*
X0009587Y0262720D01*
X0009470Y0262813D01*
X0009357Y0262909D01*
X0009246Y0263009D01*
X0009137Y0263111D01*
X0009032Y0263216D01*
X0008929Y0263323D01*
X0008829Y0263434D01*
X0008732Y0263547D01*
X0008638Y0263662D01*
X0008548Y0263780D01*
X0008460Y0263901D01*
X0008376Y0264023D01*
X0008295Y0264148D01*
X0008217Y0264275D01*
X0008143Y0264405D01*
X0008072Y0264536D01*
X0008005Y0264668D01*
X0007942Y0264803D01*
X0007882Y0264939D01*
X0007826Y0265077D01*
X0007773Y0265216D01*
X0007724Y0265357D01*
X0007679Y0265499D01*
X0007638Y0265642D01*
X0007600Y0265786D01*
X0007567Y0265931D01*
X0007537Y0266077D01*
X0007511Y0266224D01*
X0007490Y0266371D01*
X0007472Y0266519D01*
X0007458Y0266667D01*
X0007448Y0266815D01*
X0007442Y0266964D01*
X0007440Y0267113D01*
X0473638Y0267113D02*
X0497260Y0267113D01*
X0477097Y0267113D02*
X0477100Y0267318D01*
X0477107Y0267523D01*
X0477120Y0267727D01*
X0477137Y0267932D01*
X0477160Y0268135D01*
X0477187Y0268338D01*
X0477220Y0268541D01*
X0477257Y0268742D01*
X0477300Y0268943D01*
X0477347Y0269142D01*
X0477400Y0269341D01*
X0477457Y0269537D01*
X0477519Y0269733D01*
X0477585Y0269927D01*
X0477657Y0270119D01*
X0477733Y0270309D01*
X0477814Y0270498D01*
X0477899Y0270684D01*
X0477989Y0270868D01*
X0478083Y0271050D01*
X0478182Y0271230D01*
X0478285Y0271407D01*
X0478393Y0271581D01*
X0478505Y0271753D01*
X0478621Y0271922D01*
X0478741Y0272088D01*
X0478865Y0272251D01*
X0478993Y0272411D01*
X0479125Y0272568D01*
X0479261Y0272722D01*
X0479400Y0272872D01*
X0479543Y0273019D01*
X0479690Y0273162D01*
X0479840Y0273301D01*
X0479994Y0273437D01*
X0480151Y0273569D01*
X0480311Y0273697D01*
X0480474Y0273821D01*
X0480640Y0273941D01*
X0480809Y0274057D01*
X0480981Y0274169D01*
X0481155Y0274277D01*
X0481332Y0274380D01*
X0481512Y0274479D01*
X0481694Y0274573D01*
X0481878Y0274663D01*
X0482064Y0274748D01*
X0482253Y0274829D01*
X0482443Y0274905D01*
X0482635Y0274977D01*
X0482829Y0275043D01*
X0483025Y0275105D01*
X0483221Y0275162D01*
X0483420Y0275215D01*
X0483619Y0275262D01*
X0483820Y0275305D01*
X0484021Y0275342D01*
X0484224Y0275375D01*
X0484427Y0275402D01*
X0484630Y0275425D01*
X0484835Y0275442D01*
X0485039Y0275455D01*
X0485244Y0275462D01*
X0485449Y0275465D01*
X0485654Y0275462D01*
X0485859Y0275455D01*
X0486063Y0275442D01*
X0486268Y0275425D01*
X0486471Y0275402D01*
X0486674Y0275375D01*
X0486877Y0275342D01*
X0487078Y0275305D01*
X0487279Y0275262D01*
X0487478Y0275215D01*
X0487677Y0275162D01*
X0487873Y0275105D01*
X0488069Y0275043D01*
X0488263Y0274977D01*
X0488455Y0274905D01*
X0488645Y0274829D01*
X0488834Y0274748D01*
X0489020Y0274663D01*
X0489204Y0274573D01*
X0489386Y0274479D01*
X0489566Y0274380D01*
X0489743Y0274277D01*
X0489917Y0274169D01*
X0490089Y0274057D01*
X0490258Y0273941D01*
X0490424Y0273821D01*
X0490587Y0273697D01*
X0490747Y0273569D01*
X0490904Y0273437D01*
X0491058Y0273301D01*
X0491208Y0273162D01*
X0491355Y0273019D01*
X0491498Y0272872D01*
X0491637Y0272722D01*
X0491773Y0272568D01*
X0491905Y0272411D01*
X0492033Y0272251D01*
X0492157Y0272088D01*
X0492277Y0271922D01*
X0492393Y0271753D01*
X0492505Y0271581D01*
X0492613Y0271407D01*
X0492716Y0271230D01*
X0492815Y0271050D01*
X0492909Y0270868D01*
X0492999Y0270684D01*
X0493084Y0270498D01*
X0493165Y0270309D01*
X0493241Y0270119D01*
X0493313Y0269927D01*
X0493379Y0269733D01*
X0493441Y0269537D01*
X0493498Y0269341D01*
X0493551Y0269142D01*
X0493598Y0268943D01*
X0493641Y0268742D01*
X0493678Y0268541D01*
X0493711Y0268338D01*
X0493738Y0268135D01*
X0493761Y0267932D01*
X0493778Y0267727D01*
X0493791Y0267523D01*
X0493798Y0267318D01*
X0493801Y0267113D01*
X0493798Y0266908D01*
X0493791Y0266703D01*
X0493778Y0266499D01*
X0493761Y0266294D01*
X0493738Y0266091D01*
X0493711Y0265888D01*
X0493678Y0265685D01*
X0493641Y0265484D01*
X0493598Y0265283D01*
X0493551Y0265084D01*
X0493498Y0264885D01*
X0493441Y0264689D01*
X0493379Y0264493D01*
X0493313Y0264299D01*
X0493241Y0264107D01*
X0493165Y0263917D01*
X0493084Y0263728D01*
X0492999Y0263542D01*
X0492909Y0263358D01*
X0492815Y0263176D01*
X0492716Y0262996D01*
X0492613Y0262819D01*
X0492505Y0262645D01*
X0492393Y0262473D01*
X0492277Y0262304D01*
X0492157Y0262138D01*
X0492033Y0261975D01*
X0491905Y0261815D01*
X0491773Y0261658D01*
X0491637Y0261504D01*
X0491498Y0261354D01*
X0491355Y0261207D01*
X0491208Y0261064D01*
X0491058Y0260925D01*
X0490904Y0260789D01*
X0490747Y0260657D01*
X0490587Y0260529D01*
X0490424Y0260405D01*
X0490258Y0260285D01*
X0490089Y0260169D01*
X0489917Y0260057D01*
X0489743Y0259949D01*
X0489566Y0259846D01*
X0489386Y0259747D01*
X0489204Y0259653D01*
X0489020Y0259563D01*
X0488834Y0259478D01*
X0488645Y0259397D01*
X0488455Y0259321D01*
X0488263Y0259249D01*
X0488069Y0259183D01*
X0487873Y0259121D01*
X0487677Y0259064D01*
X0487478Y0259011D01*
X0487279Y0258964D01*
X0487078Y0258921D01*
X0486877Y0258884D01*
X0486674Y0258851D01*
X0486471Y0258824D01*
X0486268Y0258801D01*
X0486063Y0258784D01*
X0485859Y0258771D01*
X0485654Y0258764D01*
X0485449Y0258761D01*
X0485244Y0258764D01*
X0485039Y0258771D01*
X0484835Y0258784D01*
X0484630Y0258801D01*
X0484427Y0258824D01*
X0484224Y0258851D01*
X0484021Y0258884D01*
X0483820Y0258921D01*
X0483619Y0258964D01*
X0483420Y0259011D01*
X0483221Y0259064D01*
X0483025Y0259121D01*
X0482829Y0259183D01*
X0482635Y0259249D01*
X0482443Y0259321D01*
X0482253Y0259397D01*
X0482064Y0259478D01*
X0481878Y0259563D01*
X0481694Y0259653D01*
X0481512Y0259747D01*
X0481332Y0259846D01*
X0481155Y0259949D01*
X0480981Y0260057D01*
X0480809Y0260169D01*
X0480640Y0260285D01*
X0480474Y0260405D01*
X0480311Y0260529D01*
X0480151Y0260657D01*
X0479994Y0260789D01*
X0479840Y0260925D01*
X0479690Y0261064D01*
X0479543Y0261207D01*
X0479400Y0261354D01*
X0479261Y0261504D01*
X0479125Y0261658D01*
X0478993Y0261815D01*
X0478865Y0261975D01*
X0478741Y0262138D01*
X0478621Y0262304D01*
X0478505Y0262473D01*
X0478393Y0262645D01*
X0478285Y0262819D01*
X0478182Y0262996D01*
X0478083Y0263176D01*
X0477989Y0263358D01*
X0477899Y0263542D01*
X0477814Y0263728D01*
X0477733Y0263917D01*
X0477657Y0264107D01*
X0477585Y0264299D01*
X0477519Y0264493D01*
X0477457Y0264689D01*
X0477400Y0264885D01*
X0477347Y0265084D01*
X0477300Y0265283D01*
X0477257Y0265484D01*
X0477220Y0265685D01*
X0477187Y0265888D01*
X0477160Y0266091D01*
X0477137Y0266294D01*
X0477120Y0266499D01*
X0477107Y0266703D01*
X0477100Y0266908D01*
X0477097Y0267113D01*
X0482665Y0267113D02*
X0482667Y0267218D01*
X0482673Y0267324D01*
X0482683Y0267428D01*
X0482697Y0267533D01*
X0482715Y0267637D01*
X0482736Y0267740D01*
X0482762Y0267842D01*
X0482792Y0267943D01*
X0482825Y0268043D01*
X0482862Y0268142D01*
X0482903Y0268239D01*
X0482947Y0268334D01*
X0482995Y0268428D01*
X0483047Y0268520D01*
X0483102Y0268610D01*
X0483160Y0268698D01*
X0483222Y0268783D01*
X0483287Y0268866D01*
X0483354Y0268947D01*
X0483425Y0269025D01*
X0483499Y0269100D01*
X0483576Y0269172D01*
X0483655Y0269242D01*
X0483737Y0269308D01*
X0483821Y0269371D01*
X0483908Y0269431D01*
X0483997Y0269488D01*
X0484088Y0269541D01*
X0484180Y0269591D01*
X0484275Y0269637D01*
X0484371Y0269680D01*
X0484469Y0269719D01*
X0484569Y0269754D01*
X0484669Y0269786D01*
X0484771Y0269813D01*
X0484874Y0269837D01*
X0484977Y0269857D01*
X0485081Y0269873D01*
X0485186Y0269885D01*
X0485291Y0269893D01*
X0485396Y0269897D01*
X0485502Y0269897D01*
X0485607Y0269893D01*
X0485712Y0269885D01*
X0485817Y0269873D01*
X0485921Y0269857D01*
X0486024Y0269837D01*
X0486127Y0269813D01*
X0486229Y0269786D01*
X0486329Y0269754D01*
X0486429Y0269719D01*
X0486527Y0269680D01*
X0486623Y0269637D01*
X0486718Y0269591D01*
X0486810Y0269541D01*
X0486901Y0269488D01*
X0486990Y0269431D01*
X0487077Y0269371D01*
X0487161Y0269308D01*
X0487243Y0269242D01*
X0487322Y0269172D01*
X0487399Y0269100D01*
X0487473Y0269025D01*
X0487544Y0268947D01*
X0487611Y0268866D01*
X0487676Y0268783D01*
X0487738Y0268698D01*
X0487796Y0268610D01*
X0487851Y0268520D01*
X0487903Y0268428D01*
X0487951Y0268334D01*
X0487995Y0268239D01*
X0488036Y0268142D01*
X0488073Y0268043D01*
X0488106Y0267943D01*
X0488136Y0267842D01*
X0488162Y0267740D01*
X0488183Y0267637D01*
X0488201Y0267533D01*
X0488215Y0267428D01*
X0488225Y0267324D01*
X0488231Y0267218D01*
X0488233Y0267113D01*
X0488231Y0267008D01*
X0488225Y0266902D01*
X0488215Y0266798D01*
X0488201Y0266693D01*
X0488183Y0266589D01*
X0488162Y0266486D01*
X0488136Y0266384D01*
X0488106Y0266283D01*
X0488073Y0266183D01*
X0488036Y0266084D01*
X0487995Y0265987D01*
X0487951Y0265892D01*
X0487903Y0265798D01*
X0487851Y0265706D01*
X0487796Y0265616D01*
X0487738Y0265528D01*
X0487676Y0265443D01*
X0487611Y0265360D01*
X0487544Y0265279D01*
X0487473Y0265201D01*
X0487399Y0265126D01*
X0487322Y0265054D01*
X0487243Y0264984D01*
X0487161Y0264918D01*
X0487077Y0264855D01*
X0486990Y0264795D01*
X0486901Y0264738D01*
X0486810Y0264685D01*
X0486718Y0264635D01*
X0486623Y0264589D01*
X0486527Y0264546D01*
X0486429Y0264507D01*
X0486329Y0264472D01*
X0486229Y0264440D01*
X0486127Y0264413D01*
X0486024Y0264389D01*
X0485921Y0264369D01*
X0485817Y0264353D01*
X0485712Y0264341D01*
X0485607Y0264333D01*
X0485502Y0264329D01*
X0485396Y0264329D01*
X0485291Y0264333D01*
X0485186Y0264341D01*
X0485081Y0264353D01*
X0484977Y0264369D01*
X0484874Y0264389D01*
X0484771Y0264413D01*
X0484669Y0264440D01*
X0484569Y0264472D01*
X0484469Y0264507D01*
X0484371Y0264546D01*
X0484275Y0264589D01*
X0484180Y0264635D01*
X0484088Y0264685D01*
X0483997Y0264738D01*
X0483908Y0264795D01*
X0483821Y0264855D01*
X0483737Y0264918D01*
X0483655Y0264984D01*
X0483576Y0265054D01*
X0483499Y0265126D01*
X0483425Y0265201D01*
X0483354Y0265279D01*
X0483287Y0265360D01*
X0483222Y0265443D01*
X0483160Y0265528D01*
X0483102Y0265616D01*
X0483047Y0265706D01*
X0482995Y0265798D01*
X0482947Y0265892D01*
X0482903Y0265987D01*
X0482862Y0266084D01*
X0482825Y0266183D01*
X0482792Y0266283D01*
X0482762Y0266384D01*
X0482736Y0266486D01*
X0482715Y0266589D01*
X0482697Y0266693D01*
X0482683Y0266798D01*
X0482673Y0266902D01*
X0482667Y0267008D01*
X0482665Y0267113D01*
X0479881Y0267113D02*
X0479883Y0267262D01*
X0479889Y0267411D01*
X0479899Y0267559D01*
X0479913Y0267707D01*
X0479931Y0267855D01*
X0479952Y0268002D01*
X0479978Y0268149D01*
X0480008Y0268295D01*
X0480041Y0268440D01*
X0480079Y0268584D01*
X0480120Y0268727D01*
X0480165Y0268869D01*
X0480214Y0269010D01*
X0480267Y0269149D01*
X0480323Y0269287D01*
X0480383Y0269423D01*
X0480446Y0269558D01*
X0480513Y0269690D01*
X0480584Y0269821D01*
X0480658Y0269951D01*
X0480736Y0270078D01*
X0480817Y0270203D01*
X0480901Y0270325D01*
X0480989Y0270446D01*
X0481079Y0270564D01*
X0481173Y0270679D01*
X0481270Y0270792D01*
X0481370Y0270903D01*
X0481473Y0271010D01*
X0481578Y0271115D01*
X0481687Y0271217D01*
X0481798Y0271317D01*
X0481911Y0271413D01*
X0482028Y0271506D01*
X0482146Y0271596D01*
X0482267Y0271682D01*
X0482390Y0271766D01*
X0482516Y0271846D01*
X0482644Y0271923D01*
X0482773Y0271996D01*
X0482905Y0272066D01*
X0483038Y0272132D01*
X0483173Y0272195D01*
X0483310Y0272254D01*
X0483448Y0272309D01*
X0483587Y0272361D01*
X0483728Y0272408D01*
X0483871Y0272453D01*
X0484014Y0272493D01*
X0484158Y0272529D01*
X0484303Y0272562D01*
X0484450Y0272591D01*
X0484596Y0272615D01*
X0484744Y0272636D01*
X0484892Y0272653D01*
X0485040Y0272666D01*
X0485189Y0272675D01*
X0485337Y0272680D01*
X0485486Y0272681D01*
X0485635Y0272678D01*
X0485784Y0272671D01*
X0485932Y0272660D01*
X0486080Y0272645D01*
X0486228Y0272626D01*
X0486375Y0272603D01*
X0486522Y0272577D01*
X0486667Y0272546D01*
X0486812Y0272512D01*
X0486956Y0272473D01*
X0487099Y0272431D01*
X0487240Y0272385D01*
X0487381Y0272335D01*
X0487519Y0272282D01*
X0487657Y0272225D01*
X0487793Y0272164D01*
X0487927Y0272099D01*
X0488059Y0272031D01*
X0488190Y0271960D01*
X0488319Y0271885D01*
X0488445Y0271806D01*
X0488569Y0271724D01*
X0488692Y0271639D01*
X0488811Y0271551D01*
X0488929Y0271460D01*
X0489044Y0271365D01*
X0489156Y0271267D01*
X0489266Y0271167D01*
X0489373Y0271063D01*
X0489477Y0270957D01*
X0489579Y0270848D01*
X0489677Y0270736D01*
X0489772Y0270622D01*
X0489865Y0270505D01*
X0489954Y0270386D01*
X0490039Y0270264D01*
X0490122Y0270140D01*
X0490201Y0270014D01*
X0490277Y0269886D01*
X0490350Y0269756D01*
X0490419Y0269624D01*
X0490484Y0269490D01*
X0490546Y0269355D01*
X0490604Y0269218D01*
X0490658Y0269079D01*
X0490709Y0268939D01*
X0490756Y0268798D01*
X0490799Y0268656D01*
X0490838Y0268512D01*
X0490874Y0268368D01*
X0490905Y0268222D01*
X0490933Y0268076D01*
X0490957Y0267929D01*
X0490977Y0267781D01*
X0490993Y0267633D01*
X0491005Y0267485D01*
X0491013Y0267336D01*
X0491017Y0267187D01*
X0491017Y0267039D01*
X0491013Y0266890D01*
X0491005Y0266741D01*
X0490993Y0266593D01*
X0490977Y0266445D01*
X0490957Y0266297D01*
X0490933Y0266150D01*
X0490905Y0266004D01*
X0490874Y0265858D01*
X0490838Y0265714D01*
X0490799Y0265570D01*
X0490756Y0265428D01*
X0490709Y0265287D01*
X0490658Y0265147D01*
X0490604Y0265008D01*
X0490546Y0264871D01*
X0490484Y0264736D01*
X0490419Y0264602D01*
X0490350Y0264470D01*
X0490277Y0264340D01*
X0490201Y0264212D01*
X0490122Y0264086D01*
X0490039Y0263962D01*
X0489954Y0263840D01*
X0489865Y0263721D01*
X0489772Y0263604D01*
X0489677Y0263490D01*
X0489579Y0263378D01*
X0489477Y0263269D01*
X0489373Y0263163D01*
X0489266Y0263059D01*
X0489156Y0262959D01*
X0489044Y0262861D01*
X0488929Y0262766D01*
X0488811Y0262675D01*
X0488692Y0262587D01*
X0488569Y0262502D01*
X0488445Y0262420D01*
X0488319Y0262341D01*
X0488190Y0262266D01*
X0488059Y0262195D01*
X0487927Y0262127D01*
X0487793Y0262062D01*
X0487657Y0262001D01*
X0487519Y0261944D01*
X0487381Y0261891D01*
X0487240Y0261841D01*
X0487099Y0261795D01*
X0486956Y0261753D01*
X0486812Y0261714D01*
X0486667Y0261680D01*
X0486522Y0261649D01*
X0486375Y0261623D01*
X0486228Y0261600D01*
X0486080Y0261581D01*
X0485932Y0261566D01*
X0485784Y0261555D01*
X0485635Y0261548D01*
X0485486Y0261545D01*
X0485337Y0261546D01*
X0485189Y0261551D01*
X0485040Y0261560D01*
X0484892Y0261573D01*
X0484744Y0261590D01*
X0484596Y0261611D01*
X0484450Y0261635D01*
X0484303Y0261664D01*
X0484158Y0261697D01*
X0484014Y0261733D01*
X0483871Y0261773D01*
X0483728Y0261818D01*
X0483587Y0261865D01*
X0483448Y0261917D01*
X0483310Y0261972D01*
X0483173Y0262031D01*
X0483038Y0262094D01*
X0482905Y0262160D01*
X0482773Y0262230D01*
X0482644Y0262303D01*
X0482516Y0262380D01*
X0482390Y0262460D01*
X0482267Y0262544D01*
X0482146Y0262630D01*
X0482028Y0262720D01*
X0481911Y0262813D01*
X0481798Y0262909D01*
X0481687Y0263009D01*
X0481578Y0263111D01*
X0481473Y0263216D01*
X0481370Y0263323D01*
X0481270Y0263434D01*
X0481173Y0263547D01*
X0481079Y0263662D01*
X0480989Y0263780D01*
X0480901Y0263901D01*
X0480817Y0264023D01*
X0480736Y0264148D01*
X0480658Y0264275D01*
X0480584Y0264405D01*
X0480513Y0264536D01*
X0480446Y0264668D01*
X0480383Y0264803D01*
X0480323Y0264939D01*
X0480267Y0265077D01*
X0480214Y0265216D01*
X0480165Y0265357D01*
X0480120Y0265499D01*
X0480079Y0265642D01*
X0480041Y0265786D01*
X0480008Y0265931D01*
X0479978Y0266077D01*
X0479952Y0266224D01*
X0479931Y0266371D01*
X0479913Y0266519D01*
X0479899Y0266667D01*
X0479889Y0266815D01*
X0479883Y0266964D01*
X0479881Y0267113D01*
X0485449Y0278924D02*
X0485449Y0255302D01*
D11*
X0371808Y0148933D02*
X0371808Y0145529D01*
X0371808Y0148933D02*
X0374484Y0148933D01*
X0374484Y0145529D01*
X0371808Y0145529D01*
X0371808Y0145963D02*
X0374484Y0145963D01*
X0374484Y0146397D02*
X0371808Y0146397D01*
X0371808Y0146831D02*
X0374484Y0146831D01*
X0374484Y0147265D02*
X0371808Y0147265D01*
X0371808Y0147699D02*
X0374484Y0147699D01*
X0374484Y0148133D02*
X0371808Y0148133D01*
X0371808Y0148567D02*
X0374484Y0148567D01*
X0371808Y0144209D02*
X0371808Y0140805D01*
X0371808Y0144209D02*
X0374484Y0144209D01*
X0374484Y0140805D01*
X0371808Y0140805D01*
X0371808Y0141239D02*
X0374484Y0141239D01*
X0374484Y0141673D02*
X0371808Y0141673D01*
X0371808Y0142107D02*
X0374484Y0142107D01*
X0374484Y0142541D02*
X0371808Y0142541D01*
X0371808Y0142975D02*
X0374484Y0142975D01*
X0374484Y0143409D02*
X0371808Y0143409D01*
X0371808Y0143843D02*
X0374484Y0143843D01*
X0368942Y0139200D02*
X0365538Y0139200D01*
X0365538Y0141876D01*
X0368942Y0141876D01*
X0368942Y0139200D01*
X0368942Y0139634D02*
X0365538Y0139634D01*
X0365538Y0140068D02*
X0368942Y0140068D01*
X0368942Y0140502D02*
X0365538Y0140502D01*
X0365538Y0140936D02*
X0368942Y0140936D01*
X0368942Y0141370D02*
X0365538Y0141370D01*
X0365538Y0141804D02*
X0368942Y0141804D01*
X0364218Y0139200D02*
X0360814Y0139200D01*
X0360814Y0141876D01*
X0364218Y0141876D01*
X0364218Y0139200D01*
X0364218Y0139634D02*
X0360814Y0139634D01*
X0360814Y0140068D02*
X0364218Y0140068D01*
X0364218Y0140502D02*
X0360814Y0140502D01*
X0360814Y0140936D02*
X0364218Y0140936D01*
X0364218Y0141370D02*
X0360814Y0141370D01*
X0360814Y0141804D02*
X0364218Y0141804D01*
X0258914Y0142437D02*
X0258914Y0139033D01*
X0258914Y0142437D02*
X0261590Y0142437D01*
X0261590Y0139033D01*
X0258914Y0139033D01*
X0258914Y0139467D02*
X0261590Y0139467D01*
X0261590Y0139901D02*
X0258914Y0139901D01*
X0258914Y0140335D02*
X0261590Y0140335D01*
X0261590Y0140769D02*
X0258914Y0140769D01*
X0258914Y0141203D02*
X0261590Y0141203D01*
X0261590Y0141637D02*
X0258914Y0141637D01*
X0258914Y0142071D02*
X0261590Y0142071D01*
X0258914Y0143757D02*
X0258914Y0147161D01*
X0261590Y0147161D01*
X0261590Y0143757D01*
X0258914Y0143757D01*
X0258914Y0144191D02*
X0261590Y0144191D01*
X0261590Y0144625D02*
X0258914Y0144625D01*
X0258914Y0145059D02*
X0261590Y0145059D01*
X0261590Y0145493D02*
X0258914Y0145493D01*
X0258914Y0145927D02*
X0261590Y0145927D01*
X0261590Y0146361D02*
X0258914Y0146361D01*
X0258914Y0146795D02*
X0261590Y0146795D01*
X0254977Y0147161D02*
X0254977Y0143757D01*
X0254977Y0147161D02*
X0257653Y0147161D01*
X0257653Y0143757D01*
X0254977Y0143757D01*
X0254977Y0144191D02*
X0257653Y0144191D01*
X0257653Y0144625D02*
X0254977Y0144625D01*
X0254977Y0145059D02*
X0257653Y0145059D01*
X0257653Y0145493D02*
X0254977Y0145493D01*
X0254977Y0145927D02*
X0257653Y0145927D01*
X0257653Y0146361D02*
X0254977Y0146361D01*
X0254977Y0146795D02*
X0257653Y0146795D01*
X0254977Y0148285D02*
X0254977Y0151689D01*
X0257653Y0151689D01*
X0257653Y0148285D01*
X0254977Y0148285D01*
X0254977Y0148719D02*
X0257653Y0148719D01*
X0257653Y0149153D02*
X0254977Y0149153D01*
X0254977Y0149587D02*
X0257653Y0149587D01*
X0257653Y0150021D02*
X0254977Y0150021D01*
X0254977Y0150455D02*
X0257653Y0150455D01*
X0257653Y0150889D02*
X0254977Y0150889D01*
X0254977Y0151323D02*
X0257653Y0151323D01*
X0254977Y0153009D02*
X0254977Y0156413D01*
X0257653Y0156413D01*
X0257653Y0153009D01*
X0254977Y0153009D01*
X0254977Y0153443D02*
X0257653Y0153443D01*
X0257653Y0153877D02*
X0254977Y0153877D01*
X0254977Y0154311D02*
X0257653Y0154311D01*
X0257653Y0154745D02*
X0254977Y0154745D01*
X0254977Y0155179D02*
X0257653Y0155179D01*
X0257653Y0155613D02*
X0254977Y0155613D01*
X0254977Y0156047D02*
X0257653Y0156047D01*
X0248174Y0156246D02*
X0244770Y0156246D01*
X0248174Y0156246D02*
X0248174Y0153570D01*
X0244770Y0153570D01*
X0244770Y0156246D01*
X0244770Y0154004D02*
X0248174Y0154004D01*
X0248174Y0154438D02*
X0244770Y0154438D01*
X0244770Y0154872D02*
X0248174Y0154872D01*
X0248174Y0155306D02*
X0244770Y0155306D01*
X0244770Y0155740D02*
X0248174Y0155740D01*
X0248174Y0156174D02*
X0244770Y0156174D01*
X0244770Y0159986D02*
X0248174Y0159986D01*
X0248174Y0157310D01*
X0244770Y0157310D01*
X0244770Y0159986D01*
X0244770Y0157744D02*
X0248174Y0157744D01*
X0248174Y0158178D02*
X0244770Y0158178D01*
X0244770Y0158612D02*
X0248174Y0158612D01*
X0248174Y0159046D02*
X0244770Y0159046D01*
X0244770Y0159480D02*
X0248174Y0159480D01*
X0248174Y0159914D02*
X0244770Y0159914D01*
X0243450Y0159986D02*
X0240046Y0159986D01*
X0243450Y0159986D02*
X0243450Y0157310D01*
X0240046Y0157310D01*
X0240046Y0159986D01*
X0240046Y0157744D02*
X0243450Y0157744D01*
X0243450Y0158178D02*
X0240046Y0158178D01*
X0240046Y0158612D02*
X0243450Y0158612D01*
X0243450Y0159046D02*
X0240046Y0159046D01*
X0240046Y0159480D02*
X0243450Y0159480D01*
X0243450Y0159914D02*
X0240046Y0159914D01*
X0239652Y0163019D02*
X0243056Y0163019D01*
X0239652Y0163019D02*
X0239652Y0165695D01*
X0243056Y0165695D01*
X0243056Y0163019D01*
X0243056Y0163453D02*
X0239652Y0163453D01*
X0239652Y0163887D02*
X0243056Y0163887D01*
X0243056Y0164321D02*
X0239652Y0164321D01*
X0239652Y0164755D02*
X0243056Y0164755D01*
X0243056Y0165189D02*
X0239652Y0165189D01*
X0239652Y0165623D02*
X0243056Y0165623D01*
X0244377Y0163019D02*
X0247781Y0163019D01*
X0244377Y0163019D02*
X0244377Y0165695D01*
X0247781Y0165695D01*
X0247781Y0163019D01*
X0247781Y0163453D02*
X0244377Y0163453D01*
X0244377Y0163887D02*
X0247781Y0163887D01*
X0247781Y0164321D02*
X0244377Y0164321D01*
X0244377Y0164755D02*
X0247781Y0164755D01*
X0247781Y0165189D02*
X0244377Y0165189D01*
X0244377Y0165623D02*
X0247781Y0165623D01*
X0243450Y0156246D02*
X0240046Y0156246D01*
X0243450Y0156246D02*
X0243450Y0153570D01*
X0240046Y0153570D01*
X0240046Y0156246D01*
X0240046Y0154004D02*
X0243450Y0154004D01*
X0243450Y0154438D02*
X0240046Y0154438D01*
X0240046Y0154872D02*
X0243450Y0154872D01*
X0243450Y0155306D02*
X0240046Y0155306D01*
X0240046Y0155740D02*
X0243450Y0155740D01*
X0243450Y0156174D02*
X0240046Y0156174D01*
X0235576Y0153570D02*
X0232172Y0153570D01*
X0232172Y0156246D01*
X0235576Y0156246D01*
X0235576Y0153570D01*
X0235576Y0154004D02*
X0232172Y0154004D01*
X0232172Y0154438D02*
X0235576Y0154438D01*
X0235576Y0154872D02*
X0232172Y0154872D01*
X0232172Y0155306D02*
X0235576Y0155306D01*
X0235576Y0155740D02*
X0232172Y0155740D01*
X0232172Y0156174D02*
X0235576Y0156174D01*
X0230852Y0153570D02*
X0227448Y0153570D01*
X0227448Y0156246D01*
X0230852Y0156246D01*
X0230852Y0153570D01*
X0230852Y0154004D02*
X0227448Y0154004D01*
X0227448Y0154438D02*
X0230852Y0154438D01*
X0230852Y0154872D02*
X0227448Y0154872D01*
X0227448Y0155306D02*
X0230852Y0155306D01*
X0230852Y0155740D02*
X0227448Y0155740D01*
X0227448Y0156174D02*
X0230852Y0156174D01*
X0227418Y0150311D02*
X0227418Y0146907D01*
X0227418Y0150311D02*
X0230094Y0150311D01*
X0230094Y0146907D01*
X0227418Y0146907D01*
X0227418Y0147341D02*
X0230094Y0147341D01*
X0230094Y0147775D02*
X0227418Y0147775D01*
X0227418Y0148209D02*
X0230094Y0148209D01*
X0230094Y0148643D02*
X0227418Y0148643D01*
X0227418Y0149077D02*
X0230094Y0149077D01*
X0230094Y0149511D02*
X0227418Y0149511D01*
X0227418Y0149945D02*
X0230094Y0149945D01*
X0227418Y0145587D02*
X0227418Y0142183D01*
X0227418Y0145587D02*
X0230094Y0145587D01*
X0230094Y0142183D01*
X0227418Y0142183D01*
X0227418Y0142617D02*
X0230094Y0142617D01*
X0230094Y0143051D02*
X0227418Y0143051D01*
X0227418Y0143485D02*
X0230094Y0143485D01*
X0230094Y0143919D02*
X0227418Y0143919D01*
X0227418Y0144353D02*
X0230094Y0144353D01*
X0230094Y0144787D02*
X0227418Y0144787D01*
X0227418Y0145221D02*
X0230094Y0145221D01*
X0217466Y0143648D02*
X0214062Y0143648D01*
X0217466Y0143648D02*
X0217466Y0140972D01*
X0214062Y0140972D01*
X0214062Y0143648D01*
X0214062Y0141406D02*
X0217466Y0141406D01*
X0217466Y0141840D02*
X0214062Y0141840D01*
X0214062Y0142274D02*
X0217466Y0142274D01*
X0217466Y0142708D02*
X0214062Y0142708D01*
X0214062Y0143142D02*
X0217466Y0143142D01*
X0217466Y0143576D02*
X0214062Y0143576D01*
X0212741Y0143648D02*
X0209337Y0143648D01*
X0212741Y0143648D02*
X0212741Y0140972D01*
X0209337Y0140972D01*
X0209337Y0143648D01*
X0209337Y0141406D02*
X0212741Y0141406D01*
X0212741Y0141840D02*
X0209337Y0141840D01*
X0209337Y0142274D02*
X0212741Y0142274D01*
X0212741Y0142708D02*
X0209337Y0142708D01*
X0209337Y0143142D02*
X0212741Y0143142D01*
X0212741Y0143576D02*
X0209337Y0143576D01*
X0210803Y0146120D02*
X0210803Y0149524D01*
X0210803Y0146120D02*
X0208127Y0146120D01*
X0208127Y0149524D01*
X0210803Y0149524D01*
X0210803Y0146554D02*
X0208127Y0146554D01*
X0208127Y0146988D02*
X0210803Y0146988D01*
X0210803Y0147422D02*
X0208127Y0147422D01*
X0208127Y0147856D02*
X0210803Y0147856D01*
X0210803Y0148290D02*
X0208127Y0148290D01*
X0208127Y0148724D02*
X0210803Y0148724D01*
X0210803Y0149158D02*
X0208127Y0149158D01*
X0206866Y0149524D02*
X0206866Y0146120D01*
X0204190Y0146120D01*
X0204190Y0149524D01*
X0206866Y0149524D01*
X0206866Y0146554D02*
X0204190Y0146554D01*
X0204190Y0146988D02*
X0206866Y0146988D01*
X0206866Y0147422D02*
X0204190Y0147422D01*
X0204190Y0147856D02*
X0206866Y0147856D01*
X0206866Y0148290D02*
X0204190Y0148290D01*
X0204190Y0148724D02*
X0206866Y0148724D01*
X0206866Y0149158D02*
X0204190Y0149158D01*
X0206866Y0150844D02*
X0206866Y0154248D01*
X0206866Y0150844D02*
X0204190Y0150844D01*
X0204190Y0154248D01*
X0206866Y0154248D01*
X0206866Y0151278D02*
X0204190Y0151278D01*
X0204190Y0151712D02*
X0206866Y0151712D01*
X0206866Y0152146D02*
X0204190Y0152146D01*
X0204190Y0152580D02*
X0206866Y0152580D01*
X0206866Y0153014D02*
X0204190Y0153014D01*
X0204190Y0153448D02*
X0206866Y0153448D01*
X0206866Y0153882D02*
X0204190Y0153882D01*
X0210803Y0154248D02*
X0210803Y0150844D01*
X0208127Y0150844D01*
X0208127Y0154248D01*
X0210803Y0154248D01*
X0210803Y0151278D02*
X0208127Y0151278D01*
X0208127Y0151712D02*
X0210803Y0151712D01*
X0210803Y0152146D02*
X0208127Y0152146D01*
X0208127Y0152580D02*
X0210803Y0152580D01*
X0210803Y0153014D02*
X0208127Y0153014D01*
X0208127Y0153448D02*
X0210803Y0153448D01*
X0210803Y0153882D02*
X0208127Y0153882D01*
X0209337Y0160577D02*
X0212741Y0160577D01*
X0212741Y0157901D01*
X0209337Y0157901D01*
X0209337Y0160577D01*
X0209337Y0158335D02*
X0212741Y0158335D01*
X0212741Y0158769D02*
X0209337Y0158769D01*
X0209337Y0159203D02*
X0212741Y0159203D01*
X0212741Y0159637D02*
X0209337Y0159637D01*
X0209337Y0160071D02*
X0212741Y0160071D01*
X0212741Y0160505D02*
X0209337Y0160505D01*
X0214062Y0160577D02*
X0217466Y0160577D01*
X0217466Y0157901D01*
X0214062Y0157901D01*
X0214062Y0160577D01*
X0214062Y0158335D02*
X0217466Y0158335D01*
X0217466Y0158769D02*
X0214062Y0158769D01*
X0214062Y0159203D02*
X0217466Y0159203D01*
X0217466Y0159637D02*
X0214062Y0159637D01*
X0214062Y0160071D02*
X0217466Y0160071D01*
X0217466Y0160505D02*
X0214062Y0160505D01*
X0246236Y0145980D02*
X0246236Y0142576D01*
X0243560Y0142576D01*
X0243560Y0145980D01*
X0246236Y0145980D01*
X0246236Y0143010D02*
X0243560Y0143010D01*
X0243560Y0143444D02*
X0246236Y0143444D01*
X0246236Y0143878D02*
X0243560Y0143878D01*
X0243560Y0144312D02*
X0246236Y0144312D01*
X0246236Y0144746D02*
X0243560Y0144746D01*
X0243560Y0145180D02*
X0246236Y0145180D01*
X0246236Y0145614D02*
X0243560Y0145614D01*
X0246236Y0141256D02*
X0246236Y0137852D01*
X0243560Y0137852D01*
X0243560Y0141256D01*
X0246236Y0141256D01*
X0246236Y0138286D02*
X0243560Y0138286D01*
X0243560Y0138720D02*
X0246236Y0138720D01*
X0246236Y0139154D02*
X0243560Y0139154D01*
X0243560Y0139588D02*
X0246236Y0139588D01*
X0246236Y0140022D02*
X0243560Y0140022D01*
X0243560Y0140456D02*
X0246236Y0140456D01*
X0246236Y0140890D02*
X0243560Y0140890D01*
X0251463Y0135263D02*
X0254867Y0135263D01*
X0251463Y0135263D02*
X0251463Y0137939D01*
X0254867Y0137939D01*
X0254867Y0135263D01*
X0254867Y0135697D02*
X0251463Y0135697D01*
X0251463Y0136131D02*
X0254867Y0136131D01*
X0254867Y0136565D02*
X0251463Y0136565D01*
X0251463Y0136999D02*
X0254867Y0136999D01*
X0254867Y0137433D02*
X0251463Y0137433D01*
X0251463Y0137867D02*
X0254867Y0137867D01*
X0254977Y0139033D02*
X0254977Y0142437D01*
X0257653Y0142437D01*
X0257653Y0139033D01*
X0254977Y0139033D01*
X0254977Y0139467D02*
X0257653Y0139467D01*
X0257653Y0139901D02*
X0254977Y0139901D01*
X0254977Y0140335D02*
X0257653Y0140335D01*
X0257653Y0140769D02*
X0254977Y0140769D01*
X0254977Y0141203D02*
X0257653Y0141203D01*
X0257653Y0141637D02*
X0254977Y0141637D01*
X0254977Y0142071D02*
X0257653Y0142071D01*
X0256188Y0135263D02*
X0259592Y0135263D01*
X0256188Y0135263D02*
X0256188Y0137939D01*
X0259592Y0137939D01*
X0259592Y0135263D01*
X0259592Y0135697D02*
X0256188Y0135697D01*
X0256188Y0136131D02*
X0259592Y0136131D01*
X0259592Y0136565D02*
X0256188Y0136565D01*
X0256188Y0136999D02*
X0259592Y0136999D01*
X0259592Y0137433D02*
X0256188Y0137433D01*
X0256188Y0137867D02*
X0259592Y0137867D01*
X0254583Y0117240D02*
X0254583Y0113836D01*
X0254583Y0117240D02*
X0257259Y0117240D01*
X0257259Y0113836D01*
X0254583Y0113836D01*
X0254583Y0114270D02*
X0257259Y0114270D01*
X0257259Y0114704D02*
X0254583Y0114704D01*
X0254583Y0115138D02*
X0257259Y0115138D01*
X0257259Y0115572D02*
X0254583Y0115572D01*
X0254583Y0116006D02*
X0257259Y0116006D01*
X0257259Y0116440D02*
X0254583Y0116440D01*
X0254583Y0116874D02*
X0257259Y0116874D01*
X0250646Y0117240D02*
X0250646Y0113836D01*
X0250646Y0117240D02*
X0253322Y0117240D01*
X0253322Y0113836D01*
X0250646Y0113836D01*
X0250646Y0114270D02*
X0253322Y0114270D01*
X0253322Y0114704D02*
X0250646Y0114704D01*
X0250646Y0115138D02*
X0253322Y0115138D01*
X0253322Y0115572D02*
X0250646Y0115572D01*
X0250646Y0116006D02*
X0253322Y0116006D01*
X0253322Y0116440D02*
X0250646Y0116440D01*
X0250646Y0116874D02*
X0253322Y0116874D01*
X0249356Y0113806D02*
X0245952Y0113806D01*
X0245952Y0116482D01*
X0249356Y0116482D01*
X0249356Y0113806D01*
X0249356Y0114240D02*
X0245952Y0114240D01*
X0245952Y0114674D02*
X0249356Y0114674D01*
X0249356Y0115108D02*
X0245952Y0115108D01*
X0245952Y0115542D02*
X0249356Y0115542D01*
X0249356Y0115976D02*
X0245952Y0115976D01*
X0245952Y0116410D02*
X0249356Y0116410D01*
X0249356Y0109869D02*
X0245952Y0109869D01*
X0245952Y0112545D01*
X0249356Y0112545D01*
X0249356Y0109869D01*
X0249356Y0110303D02*
X0245952Y0110303D01*
X0245952Y0110737D02*
X0249356Y0110737D01*
X0249356Y0111171D02*
X0245952Y0111171D01*
X0245952Y0111605D02*
X0249356Y0111605D01*
X0249356Y0112039D02*
X0245952Y0112039D01*
X0245952Y0112473D02*
X0249356Y0112473D01*
X0250646Y0112516D02*
X0250646Y0109112D01*
X0250646Y0112516D02*
X0253322Y0112516D01*
X0253322Y0109112D01*
X0250646Y0109112D01*
X0250646Y0109546D02*
X0253322Y0109546D01*
X0253322Y0109980D02*
X0250646Y0109980D01*
X0250646Y0110414D02*
X0253322Y0110414D01*
X0253322Y0110848D02*
X0250646Y0110848D01*
X0250646Y0111282D02*
X0253322Y0111282D01*
X0253322Y0111716D02*
X0250646Y0111716D01*
X0250646Y0112150D02*
X0253322Y0112150D01*
X0254583Y0112516D02*
X0254583Y0109112D01*
X0254583Y0112516D02*
X0257259Y0112516D01*
X0257259Y0109112D01*
X0254583Y0109112D01*
X0254583Y0109546D02*
X0257259Y0109546D01*
X0257259Y0109980D02*
X0254583Y0109980D01*
X0254583Y0110414D02*
X0257259Y0110414D01*
X0257259Y0110848D02*
X0254583Y0110848D01*
X0254583Y0111282D02*
X0257259Y0111282D01*
X0257259Y0111716D02*
X0254583Y0111716D01*
X0254583Y0112150D02*
X0257259Y0112150D01*
X0244631Y0109869D02*
X0241227Y0109869D01*
X0241227Y0112545D01*
X0244631Y0112545D01*
X0244631Y0109869D01*
X0244631Y0110303D02*
X0241227Y0110303D01*
X0241227Y0110737D02*
X0244631Y0110737D01*
X0244631Y0111171D02*
X0241227Y0111171D01*
X0241227Y0111605D02*
X0244631Y0111605D01*
X0244631Y0112039D02*
X0241227Y0112039D01*
X0241227Y0112473D02*
X0244631Y0112473D01*
X0244631Y0113806D02*
X0241227Y0113806D01*
X0241227Y0116482D01*
X0244631Y0116482D01*
X0244631Y0113806D01*
X0244631Y0114240D02*
X0241227Y0114240D01*
X0241227Y0114674D02*
X0244631Y0114674D01*
X0244631Y0115108D02*
X0241227Y0115108D01*
X0241227Y0115542D02*
X0244631Y0115542D01*
X0244631Y0115976D02*
X0241227Y0115976D01*
X0241227Y0116410D02*
X0244631Y0116410D01*
X0225733Y0119632D02*
X0222329Y0119632D01*
X0225733Y0119632D02*
X0225733Y0116956D01*
X0222329Y0116956D01*
X0222329Y0119632D01*
X0222329Y0117390D02*
X0225733Y0117390D01*
X0225733Y0117824D02*
X0222329Y0117824D01*
X0222329Y0118258D02*
X0225733Y0118258D01*
X0225733Y0118692D02*
X0222329Y0118692D01*
X0222329Y0119126D02*
X0225733Y0119126D01*
X0225733Y0119560D02*
X0222329Y0119560D01*
X0221009Y0119632D02*
X0217605Y0119632D01*
X0221009Y0119632D02*
X0221009Y0116956D01*
X0217605Y0116956D01*
X0217605Y0119632D01*
X0217605Y0117390D02*
X0221009Y0117390D01*
X0221009Y0117824D02*
X0217605Y0117824D01*
X0217605Y0118258D02*
X0221009Y0118258D01*
X0221009Y0118692D02*
X0217605Y0118692D01*
X0217605Y0119126D02*
X0221009Y0119126D01*
X0221009Y0119560D02*
X0217605Y0119560D01*
X0217605Y0115695D02*
X0221009Y0115695D01*
X0221009Y0113019D01*
X0217605Y0113019D01*
X0217605Y0115695D01*
X0217605Y0113453D02*
X0221009Y0113453D01*
X0221009Y0113887D02*
X0217605Y0113887D01*
X0217605Y0114321D02*
X0221009Y0114321D01*
X0221009Y0114755D02*
X0217605Y0114755D01*
X0217605Y0115189D02*
X0221009Y0115189D01*
X0221009Y0115623D02*
X0217605Y0115623D01*
X0222329Y0115695D02*
X0225733Y0115695D01*
X0225733Y0113019D01*
X0222329Y0113019D01*
X0222329Y0115695D01*
X0222329Y0113453D02*
X0225733Y0113453D01*
X0225733Y0113887D02*
X0222329Y0113887D01*
X0222329Y0114321D02*
X0225733Y0114321D01*
X0225733Y0114755D02*
X0222329Y0114755D01*
X0222329Y0115189D02*
X0225733Y0115189D01*
X0225733Y0115623D02*
X0222329Y0115623D01*
X0209308Y0129584D02*
X0209308Y0132988D01*
X0211984Y0132988D01*
X0211984Y0129584D01*
X0209308Y0129584D01*
X0209308Y0130018D02*
X0211984Y0130018D01*
X0211984Y0130452D02*
X0209308Y0130452D01*
X0209308Y0130886D02*
X0211984Y0130886D01*
X0211984Y0131320D02*
X0209308Y0131320D01*
X0209308Y0131754D02*
X0211984Y0131754D01*
X0211984Y0132188D02*
X0209308Y0132188D01*
X0209308Y0132622D02*
X0211984Y0132622D01*
X0209308Y0134308D02*
X0209308Y0137712D01*
X0211984Y0137712D01*
X0211984Y0134308D01*
X0209308Y0134308D01*
X0209308Y0134742D02*
X0211984Y0134742D01*
X0211984Y0135176D02*
X0209308Y0135176D01*
X0209308Y0135610D02*
X0211984Y0135610D01*
X0211984Y0136044D02*
X0209308Y0136044D01*
X0209308Y0136478D02*
X0211984Y0136478D01*
X0211984Y0136912D02*
X0209308Y0136912D01*
X0209308Y0137346D02*
X0211984Y0137346D01*
X0205371Y0137712D02*
X0205371Y0134308D01*
X0205371Y0137712D02*
X0208047Y0137712D01*
X0208047Y0134308D01*
X0205371Y0134308D01*
X0205371Y0134742D02*
X0208047Y0134742D01*
X0208047Y0135176D02*
X0205371Y0135176D01*
X0205371Y0135610D02*
X0208047Y0135610D01*
X0208047Y0136044D02*
X0205371Y0136044D01*
X0205371Y0136478D02*
X0208047Y0136478D01*
X0208047Y0136912D02*
X0205371Y0136912D01*
X0205371Y0137346D02*
X0208047Y0137346D01*
X0204080Y0140498D02*
X0200676Y0140498D01*
X0204080Y0140498D02*
X0204080Y0137822D01*
X0200676Y0137822D01*
X0200676Y0140498D01*
X0200676Y0138256D02*
X0204080Y0138256D01*
X0204080Y0138690D02*
X0200676Y0138690D01*
X0200676Y0139124D02*
X0204080Y0139124D01*
X0204080Y0139558D02*
X0200676Y0139558D01*
X0200676Y0139992D02*
X0204080Y0139992D01*
X0204080Y0140426D02*
X0200676Y0140426D01*
X0199356Y0140498D02*
X0195952Y0140498D01*
X0199356Y0140498D02*
X0199356Y0137822D01*
X0195952Y0137822D01*
X0195952Y0140498D01*
X0195952Y0138256D02*
X0199356Y0138256D01*
X0199356Y0138690D02*
X0195952Y0138690D01*
X0195952Y0139124D02*
X0199356Y0139124D01*
X0199356Y0139558D02*
X0195952Y0139558D01*
X0195952Y0139992D02*
X0199356Y0139992D01*
X0199356Y0140426D02*
X0195952Y0140426D01*
X0205371Y0132988D02*
X0205371Y0129584D01*
X0205371Y0132988D02*
X0208047Y0132988D01*
X0208047Y0129584D01*
X0205371Y0129584D01*
X0205371Y0130018D02*
X0208047Y0130018D01*
X0208047Y0130452D02*
X0205371Y0130452D01*
X0205371Y0130886D02*
X0208047Y0130886D01*
X0208047Y0131320D02*
X0205371Y0131320D01*
X0205371Y0131754D02*
X0208047Y0131754D01*
X0208047Y0132188D02*
X0205371Y0132188D01*
X0205371Y0132622D02*
X0208047Y0132622D01*
X0135686Y0141001D02*
X0135686Y0144405D01*
X0138362Y0144405D01*
X0138362Y0141001D01*
X0135686Y0141001D01*
X0135686Y0141435D02*
X0138362Y0141435D01*
X0138362Y0141869D02*
X0135686Y0141869D01*
X0135686Y0142303D02*
X0138362Y0142303D01*
X0138362Y0142737D02*
X0135686Y0142737D01*
X0135686Y0143171D02*
X0138362Y0143171D01*
X0138362Y0143605D02*
X0135686Y0143605D01*
X0135686Y0144039D02*
X0138362Y0144039D01*
X0135686Y0145726D02*
X0135686Y0149130D01*
X0138362Y0149130D01*
X0138362Y0145726D01*
X0135686Y0145726D01*
X0135686Y0146160D02*
X0138362Y0146160D01*
X0138362Y0146594D02*
X0135686Y0146594D01*
X0135686Y0147028D02*
X0138362Y0147028D01*
X0138362Y0147462D02*
X0135686Y0147462D01*
X0135686Y0147896D02*
X0138362Y0147896D01*
X0138362Y0148330D02*
X0135686Y0148330D01*
X0135686Y0148764D02*
X0138362Y0148764D01*
X0132328Y0140007D02*
X0128924Y0140007D01*
X0128924Y0142683D01*
X0132328Y0142683D01*
X0132328Y0140007D01*
X0132328Y0140441D02*
X0128924Y0140441D01*
X0128924Y0140875D02*
X0132328Y0140875D01*
X0132328Y0141309D02*
X0128924Y0141309D01*
X0128924Y0141743D02*
X0132328Y0141743D01*
X0132328Y0142177D02*
X0128924Y0142177D01*
X0128924Y0142611D02*
X0132328Y0142611D01*
X0127604Y0140007D02*
X0124200Y0140007D01*
X0124200Y0142683D01*
X0127604Y0142683D01*
X0127604Y0140007D01*
X0127604Y0140441D02*
X0124200Y0140441D01*
X0124200Y0140875D02*
X0127604Y0140875D01*
X0127604Y0141309D02*
X0124200Y0141309D01*
X0124200Y0141743D02*
X0127604Y0141743D01*
X0127604Y0142177D02*
X0124200Y0142177D01*
X0124200Y0142611D02*
X0127604Y0142611D01*
D12*
X0139696Y0142196D02*
X0139696Y0137306D01*
X0139696Y0142196D02*
X0145374Y0142196D01*
X0145374Y0137306D01*
X0139696Y0137306D01*
X0139696Y0137730D02*
X0145374Y0137730D01*
X0145374Y0138154D02*
X0139696Y0138154D01*
X0139696Y0138578D02*
X0145374Y0138578D01*
X0145374Y0139002D02*
X0139696Y0139002D01*
X0139696Y0139426D02*
X0145374Y0139426D01*
X0145374Y0139850D02*
X0139696Y0139850D01*
X0139696Y0140274D02*
X0145374Y0140274D01*
X0145374Y0140698D02*
X0139696Y0140698D01*
X0139696Y0141122D02*
X0145374Y0141122D01*
X0145374Y0141546D02*
X0139696Y0141546D01*
X0139696Y0141970D02*
X0145374Y0141970D01*
X0139696Y0144786D02*
X0139696Y0149676D01*
X0145374Y0149676D01*
X0145374Y0144786D01*
X0139696Y0144786D01*
X0139696Y0145210D02*
X0145374Y0145210D01*
X0145374Y0145634D02*
X0139696Y0145634D01*
X0139696Y0146058D02*
X0145374Y0146058D01*
X0145374Y0146482D02*
X0139696Y0146482D01*
X0139696Y0146906D02*
X0145374Y0146906D01*
X0145374Y0147330D02*
X0139696Y0147330D01*
X0139696Y0147754D02*
X0145374Y0147754D01*
X0145374Y0148178D02*
X0139696Y0148178D01*
X0139696Y0148602D02*
X0145374Y0148602D01*
X0145374Y0149026D02*
X0139696Y0149026D01*
X0139696Y0149450D02*
X0145374Y0149450D01*
X0237500Y0163290D02*
X0237500Y0168180D01*
X0237500Y0163290D02*
X0231822Y0163290D01*
X0231822Y0168180D01*
X0237500Y0168180D01*
X0237500Y0163714D02*
X0231822Y0163714D01*
X0231822Y0164138D02*
X0237500Y0164138D01*
X0237500Y0164562D02*
X0231822Y0164562D01*
X0231822Y0164986D02*
X0237500Y0164986D01*
X0237500Y0165410D02*
X0231822Y0165410D01*
X0231822Y0165834D02*
X0237500Y0165834D01*
X0237500Y0166258D02*
X0231822Y0166258D01*
X0231822Y0166682D02*
X0237500Y0166682D01*
X0237500Y0167106D02*
X0231822Y0167106D01*
X0231822Y0167530D02*
X0237500Y0167530D01*
X0237500Y0167954D02*
X0231822Y0167954D01*
X0237500Y0170770D02*
X0237500Y0175660D01*
X0237500Y0170770D02*
X0231822Y0170770D01*
X0231822Y0175660D01*
X0237500Y0175660D01*
X0237500Y0171194D02*
X0231822Y0171194D01*
X0231822Y0171618D02*
X0237500Y0171618D01*
X0237500Y0172042D02*
X0231822Y0172042D01*
X0231822Y0172466D02*
X0237500Y0172466D01*
X0237500Y0172890D02*
X0231822Y0172890D01*
X0231822Y0173314D02*
X0237500Y0173314D01*
X0237500Y0173738D02*
X0231822Y0173738D01*
X0231822Y0174162D02*
X0237500Y0174162D01*
X0237500Y0174586D02*
X0231822Y0174586D01*
X0231822Y0175010D02*
X0237500Y0175010D01*
X0237500Y0175434D02*
X0231822Y0175434D01*
X0375818Y0150267D02*
X0375818Y0145377D01*
X0375818Y0150267D02*
X0381496Y0150267D01*
X0381496Y0145377D01*
X0375818Y0145377D01*
X0375818Y0145801D02*
X0381496Y0145801D01*
X0381496Y0146225D02*
X0375818Y0146225D01*
X0375818Y0146649D02*
X0381496Y0146649D01*
X0381496Y0147073D02*
X0375818Y0147073D01*
X0375818Y0147497D02*
X0381496Y0147497D01*
X0381496Y0147921D02*
X0375818Y0147921D01*
X0375818Y0148345D02*
X0381496Y0148345D01*
X0381496Y0148769D02*
X0375818Y0148769D01*
X0375818Y0149193D02*
X0381496Y0149193D01*
X0381496Y0149617D02*
X0375818Y0149617D01*
X0375818Y0150041D02*
X0381496Y0150041D01*
X0375818Y0142786D02*
X0375818Y0137896D01*
X0375818Y0142786D02*
X0381496Y0142786D01*
X0381496Y0137896D01*
X0375818Y0137896D01*
X0375818Y0138320D02*
X0381496Y0138320D01*
X0381496Y0138744D02*
X0375818Y0138744D01*
X0375818Y0139168D02*
X0381496Y0139168D01*
X0381496Y0139592D02*
X0375818Y0139592D01*
X0375818Y0140016D02*
X0381496Y0140016D01*
X0381496Y0140440D02*
X0375818Y0140440D01*
X0375818Y0140864D02*
X0381496Y0140864D01*
X0381496Y0141288D02*
X0375818Y0141288D01*
X0375818Y0141712D02*
X0381496Y0141712D01*
X0381496Y0142136D02*
X0375818Y0142136D01*
X0375818Y0142560D02*
X0381496Y0142560D01*
D13*
X0355026Y0153736D02*
X0352092Y0153736D01*
X0352092Y0156080D01*
X0355026Y0156080D01*
X0355026Y0153736D01*
X0355026Y0154148D02*
X0352092Y0154148D01*
X0352092Y0154560D02*
X0355026Y0154560D01*
X0355026Y0154972D02*
X0352092Y0154972D01*
X0352092Y0155384D02*
X0355026Y0155384D01*
X0355026Y0155796D02*
X0352092Y0155796D01*
X0350302Y0153736D02*
X0347368Y0153736D01*
X0347368Y0156080D01*
X0350302Y0156080D01*
X0350302Y0153736D01*
X0350302Y0154148D02*
X0347368Y0154148D01*
X0347368Y0154560D02*
X0350302Y0154560D01*
X0350302Y0154972D02*
X0347368Y0154972D01*
X0347368Y0155384D02*
X0350302Y0155384D01*
X0350302Y0155796D02*
X0347368Y0155796D01*
X0331798Y0130490D02*
X0328864Y0130490D01*
X0331798Y0130490D02*
X0331798Y0128146D01*
X0328864Y0128146D01*
X0328864Y0130490D01*
X0328864Y0128558D02*
X0331798Y0128558D01*
X0331798Y0128970D02*
X0328864Y0128970D01*
X0328864Y0129382D02*
X0331798Y0129382D01*
X0331798Y0129794D02*
X0328864Y0129794D01*
X0328864Y0130206D02*
X0331798Y0130206D01*
X0327073Y0130490D02*
X0324139Y0130490D01*
X0327073Y0130490D02*
X0327073Y0128146D01*
X0324139Y0128146D01*
X0324139Y0130490D01*
X0324139Y0128558D02*
X0327073Y0128558D01*
X0327073Y0128970D02*
X0324139Y0128970D01*
X0324139Y0129382D02*
X0327073Y0129382D01*
X0327073Y0129794D02*
X0324139Y0129794D01*
X0324139Y0130206D02*
X0327073Y0130206D01*
X0327073Y0126553D02*
X0324139Y0126553D01*
X0327073Y0126553D02*
X0327073Y0124209D01*
X0324139Y0124209D01*
X0324139Y0126553D01*
X0324139Y0124621D02*
X0327073Y0124621D01*
X0327073Y0125033D02*
X0324139Y0125033D01*
X0324139Y0125445D02*
X0327073Y0125445D01*
X0327073Y0125857D02*
X0324139Y0125857D01*
X0324139Y0126269D02*
X0327073Y0126269D01*
X0328864Y0126553D02*
X0331798Y0126553D01*
X0331798Y0124209D01*
X0328864Y0124209D01*
X0328864Y0126553D01*
X0328864Y0124621D02*
X0331798Y0124621D01*
X0331798Y0125033D02*
X0328864Y0125033D01*
X0328864Y0125445D02*
X0331798Y0125445D01*
X0331798Y0125857D02*
X0328864Y0125857D01*
X0328864Y0126269D02*
X0331798Y0126269D01*
X0342938Y0112281D02*
X0342938Y0109347D01*
X0342938Y0112281D02*
X0345282Y0112281D01*
X0345282Y0109347D01*
X0342938Y0109347D01*
X0342938Y0109759D02*
X0345282Y0109759D01*
X0345282Y0110171D02*
X0342938Y0110171D01*
X0342938Y0110583D02*
X0345282Y0110583D01*
X0345282Y0110995D02*
X0342938Y0110995D01*
X0342938Y0111407D02*
X0345282Y0111407D01*
X0345282Y0111819D02*
X0342938Y0111819D01*
X0342938Y0112231D02*
X0345282Y0112231D01*
X0346875Y0112281D02*
X0346875Y0109347D01*
X0346875Y0112281D02*
X0349219Y0112281D01*
X0349219Y0109347D01*
X0346875Y0109347D01*
X0346875Y0109759D02*
X0349219Y0109759D01*
X0349219Y0110171D02*
X0346875Y0110171D01*
X0346875Y0110583D02*
X0349219Y0110583D01*
X0349219Y0110995D02*
X0346875Y0110995D01*
X0346875Y0111407D02*
X0349219Y0111407D01*
X0349219Y0111819D02*
X0346875Y0111819D01*
X0346875Y0112231D02*
X0349219Y0112231D01*
X0350812Y0112281D02*
X0350812Y0109347D01*
X0350812Y0112281D02*
X0353156Y0112281D01*
X0353156Y0109347D01*
X0350812Y0109347D01*
X0350812Y0109759D02*
X0353156Y0109759D01*
X0353156Y0110171D02*
X0350812Y0110171D01*
X0350812Y0110583D02*
X0353156Y0110583D01*
X0353156Y0110995D02*
X0350812Y0110995D01*
X0350812Y0111407D02*
X0353156Y0111407D01*
X0353156Y0111819D02*
X0350812Y0111819D01*
X0350812Y0112231D02*
X0353156Y0112231D01*
X0354749Y0112281D02*
X0354749Y0109347D01*
X0354749Y0112281D02*
X0357093Y0112281D01*
X0357093Y0109347D01*
X0354749Y0109347D01*
X0354749Y0109759D02*
X0357093Y0109759D01*
X0357093Y0110171D02*
X0354749Y0110171D01*
X0354749Y0110583D02*
X0357093Y0110583D01*
X0357093Y0110995D02*
X0354749Y0110995D01*
X0354749Y0111407D02*
X0357093Y0111407D01*
X0357093Y0111819D02*
X0354749Y0111819D01*
X0354749Y0112231D02*
X0357093Y0112231D01*
X0358686Y0112281D02*
X0358686Y0109347D01*
X0358686Y0112281D02*
X0361030Y0112281D01*
X0361030Y0109347D01*
X0358686Y0109347D01*
X0358686Y0109759D02*
X0361030Y0109759D01*
X0361030Y0110171D02*
X0358686Y0110171D01*
X0358686Y0110583D02*
X0361030Y0110583D01*
X0361030Y0110995D02*
X0358686Y0110995D01*
X0358686Y0111407D02*
X0361030Y0111407D01*
X0361030Y0111819D02*
X0358686Y0111819D01*
X0358686Y0112231D02*
X0361030Y0112231D01*
X0362623Y0112281D02*
X0362623Y0109347D01*
X0362623Y0112281D02*
X0364967Y0112281D01*
X0364967Y0109347D01*
X0362623Y0109347D01*
X0362623Y0109759D02*
X0364967Y0109759D01*
X0364967Y0110171D02*
X0362623Y0110171D01*
X0362623Y0110583D02*
X0364967Y0110583D01*
X0364967Y0110995D02*
X0362623Y0110995D01*
X0362623Y0111407D02*
X0364967Y0111407D01*
X0364967Y0111819D02*
X0362623Y0111819D01*
X0362623Y0112231D02*
X0364967Y0112231D01*
X0366560Y0112281D02*
X0366560Y0109347D01*
X0366560Y0112281D02*
X0368904Y0112281D01*
X0368904Y0109347D01*
X0366560Y0109347D01*
X0366560Y0109759D02*
X0368904Y0109759D01*
X0368904Y0110171D02*
X0366560Y0110171D01*
X0366560Y0110583D02*
X0368904Y0110583D01*
X0368904Y0110995D02*
X0366560Y0110995D01*
X0366560Y0111407D02*
X0368904Y0111407D01*
X0368904Y0111819D02*
X0366560Y0111819D01*
X0366560Y0112231D02*
X0368904Y0112231D01*
X0370497Y0112281D02*
X0370497Y0109347D01*
X0370497Y0112281D02*
X0372841Y0112281D01*
X0372841Y0109347D01*
X0370497Y0109347D01*
X0370497Y0109759D02*
X0372841Y0109759D01*
X0372841Y0110171D02*
X0370497Y0110171D01*
X0370497Y0110583D02*
X0372841Y0110583D01*
X0372841Y0110995D02*
X0370497Y0110995D01*
X0370497Y0111407D02*
X0372841Y0111407D01*
X0372841Y0111819D02*
X0370497Y0111819D01*
X0370497Y0112231D02*
X0372841Y0112231D01*
X0374434Y0112281D02*
X0374434Y0109347D01*
X0374434Y0112281D02*
X0376778Y0112281D01*
X0376778Y0109347D01*
X0374434Y0109347D01*
X0374434Y0109759D02*
X0376778Y0109759D01*
X0376778Y0110171D02*
X0374434Y0110171D01*
X0374434Y0110583D02*
X0376778Y0110583D01*
X0376778Y0110995D02*
X0374434Y0110995D01*
X0374434Y0111407D02*
X0376778Y0111407D01*
X0376778Y0111819D02*
X0374434Y0111819D01*
X0374434Y0112231D02*
X0376778Y0112231D01*
X0374434Y0107556D02*
X0374434Y0104622D01*
X0374434Y0107556D02*
X0376778Y0107556D01*
X0376778Y0104622D01*
X0374434Y0104622D01*
X0374434Y0105034D02*
X0376778Y0105034D01*
X0376778Y0105446D02*
X0374434Y0105446D01*
X0374434Y0105858D02*
X0376778Y0105858D01*
X0376778Y0106270D02*
X0374434Y0106270D01*
X0374434Y0106682D02*
X0376778Y0106682D01*
X0376778Y0107094D02*
X0374434Y0107094D01*
X0374434Y0107506D02*
X0376778Y0107506D01*
X0370497Y0107556D02*
X0370497Y0104622D01*
X0370497Y0107556D02*
X0372841Y0107556D01*
X0372841Y0104622D01*
X0370497Y0104622D01*
X0370497Y0105034D02*
X0372841Y0105034D01*
X0372841Y0105446D02*
X0370497Y0105446D01*
X0370497Y0105858D02*
X0372841Y0105858D01*
X0372841Y0106270D02*
X0370497Y0106270D01*
X0370497Y0106682D02*
X0372841Y0106682D01*
X0372841Y0107094D02*
X0370497Y0107094D01*
X0370497Y0107506D02*
X0372841Y0107506D01*
X0366560Y0107556D02*
X0366560Y0104622D01*
X0366560Y0107556D02*
X0368904Y0107556D01*
X0368904Y0104622D01*
X0366560Y0104622D01*
X0366560Y0105034D02*
X0368904Y0105034D01*
X0368904Y0105446D02*
X0366560Y0105446D01*
X0366560Y0105858D02*
X0368904Y0105858D01*
X0368904Y0106270D02*
X0366560Y0106270D01*
X0366560Y0106682D02*
X0368904Y0106682D01*
X0368904Y0107094D02*
X0366560Y0107094D01*
X0366560Y0107506D02*
X0368904Y0107506D01*
X0362623Y0107556D02*
X0362623Y0104622D01*
X0362623Y0107556D02*
X0364967Y0107556D01*
X0364967Y0104622D01*
X0362623Y0104622D01*
X0362623Y0105034D02*
X0364967Y0105034D01*
X0364967Y0105446D02*
X0362623Y0105446D01*
X0362623Y0105858D02*
X0364967Y0105858D01*
X0364967Y0106270D02*
X0362623Y0106270D01*
X0362623Y0106682D02*
X0364967Y0106682D01*
X0364967Y0107094D02*
X0362623Y0107094D01*
X0362623Y0107506D02*
X0364967Y0107506D01*
X0358686Y0107556D02*
X0358686Y0104622D01*
X0358686Y0107556D02*
X0361030Y0107556D01*
X0361030Y0104622D01*
X0358686Y0104622D01*
X0358686Y0105034D02*
X0361030Y0105034D01*
X0361030Y0105446D02*
X0358686Y0105446D01*
X0358686Y0105858D02*
X0361030Y0105858D01*
X0361030Y0106270D02*
X0358686Y0106270D01*
X0358686Y0106682D02*
X0361030Y0106682D01*
X0361030Y0107094D02*
X0358686Y0107094D01*
X0358686Y0107506D02*
X0361030Y0107506D01*
X0354749Y0107556D02*
X0354749Y0104622D01*
X0354749Y0107556D02*
X0357093Y0107556D01*
X0357093Y0104622D01*
X0354749Y0104622D01*
X0354749Y0105034D02*
X0357093Y0105034D01*
X0357093Y0105446D02*
X0354749Y0105446D01*
X0354749Y0105858D02*
X0357093Y0105858D01*
X0357093Y0106270D02*
X0354749Y0106270D01*
X0354749Y0106682D02*
X0357093Y0106682D01*
X0357093Y0107094D02*
X0354749Y0107094D01*
X0354749Y0107506D02*
X0357093Y0107506D01*
X0350812Y0107556D02*
X0350812Y0104622D01*
X0350812Y0107556D02*
X0353156Y0107556D01*
X0353156Y0104622D01*
X0350812Y0104622D01*
X0350812Y0105034D02*
X0353156Y0105034D01*
X0353156Y0105446D02*
X0350812Y0105446D01*
X0350812Y0105858D02*
X0353156Y0105858D01*
X0353156Y0106270D02*
X0350812Y0106270D01*
X0350812Y0106682D02*
X0353156Y0106682D01*
X0353156Y0107094D02*
X0350812Y0107094D01*
X0350812Y0107506D02*
X0353156Y0107506D01*
X0346875Y0107556D02*
X0346875Y0104622D01*
X0346875Y0107556D02*
X0349219Y0107556D01*
X0349219Y0104622D01*
X0346875Y0104622D01*
X0346875Y0105034D02*
X0349219Y0105034D01*
X0349219Y0105446D02*
X0346875Y0105446D01*
X0346875Y0105858D02*
X0349219Y0105858D01*
X0349219Y0106270D02*
X0346875Y0106270D01*
X0346875Y0106682D02*
X0349219Y0106682D01*
X0349219Y0107094D02*
X0346875Y0107094D01*
X0346875Y0107506D02*
X0349219Y0107506D01*
X0342938Y0107556D02*
X0342938Y0104622D01*
X0342938Y0107556D02*
X0345282Y0107556D01*
X0345282Y0104622D01*
X0342938Y0104622D01*
X0342938Y0105034D02*
X0345282Y0105034D01*
X0345282Y0105446D02*
X0342938Y0105446D01*
X0342938Y0105858D02*
X0345282Y0105858D01*
X0345282Y0106270D02*
X0342938Y0106270D01*
X0342938Y0106682D02*
X0345282Y0106682D01*
X0345282Y0107094D02*
X0342938Y0107094D01*
X0342938Y0107506D02*
X0345282Y0107506D01*
X0265066Y0127457D02*
X0265066Y0129997D01*
X0265066Y0127457D02*
X0261738Y0127457D01*
X0261738Y0129997D01*
X0265066Y0129997D01*
X0265066Y0127869D02*
X0261738Y0127869D01*
X0261738Y0128281D02*
X0265066Y0128281D01*
X0265066Y0128693D02*
X0261738Y0128693D01*
X0261738Y0129105D02*
X0265066Y0129105D01*
X0265066Y0129517D02*
X0261738Y0129517D01*
X0261738Y0129929D02*
X0265066Y0129929D01*
X0265066Y0132575D02*
X0265066Y0135115D01*
X0265066Y0132575D02*
X0261738Y0132575D01*
X0261738Y0135115D01*
X0265066Y0135115D01*
X0265066Y0132987D02*
X0261738Y0132987D01*
X0261738Y0133399D02*
X0265066Y0133399D01*
X0265066Y0133811D02*
X0261738Y0133811D01*
X0261738Y0134223D02*
X0265066Y0134223D01*
X0265066Y0134635D02*
X0261738Y0134635D01*
X0261738Y0135047D02*
X0265066Y0135047D01*
X0153058Y0127358D02*
X0150124Y0127358D01*
X0150124Y0129702D01*
X0153058Y0129702D01*
X0153058Y0127358D01*
X0153058Y0127770D02*
X0150124Y0127770D01*
X0150124Y0128182D02*
X0153058Y0128182D01*
X0153058Y0128594D02*
X0150124Y0128594D01*
X0150124Y0129006D02*
X0153058Y0129006D01*
X0153058Y0129418D02*
X0150124Y0129418D01*
X0148333Y0127358D02*
X0145399Y0127358D01*
X0145399Y0129702D01*
X0148333Y0129702D01*
X0148333Y0127358D01*
X0148333Y0127770D02*
X0145399Y0127770D01*
X0145399Y0128182D02*
X0148333Y0128182D01*
X0148333Y0128594D02*
X0145399Y0128594D01*
X0145399Y0129006D02*
X0148333Y0129006D01*
X0148333Y0129418D02*
X0145399Y0129418D01*
X0145399Y0122240D02*
X0148333Y0122240D01*
X0145399Y0122240D02*
X0145399Y0124584D01*
X0148333Y0124584D01*
X0148333Y0122240D01*
X0148333Y0122652D02*
X0145399Y0122652D01*
X0145399Y0123064D02*
X0148333Y0123064D01*
X0148333Y0123476D02*
X0145399Y0123476D01*
X0145399Y0123888D02*
X0148333Y0123888D01*
X0148333Y0124300D02*
X0145399Y0124300D01*
X0150124Y0122240D02*
X0153058Y0122240D01*
X0150124Y0122240D02*
X0150124Y0124584D01*
X0153058Y0124584D01*
X0153058Y0122240D01*
X0153058Y0122652D02*
X0150124Y0122652D01*
X0150124Y0123064D02*
X0153058Y0123064D01*
X0153058Y0123476D02*
X0150124Y0123476D01*
X0150124Y0123888D02*
X0153058Y0123888D01*
X0153058Y0124300D02*
X0150124Y0124300D01*
X0135064Y0112281D02*
X0135064Y0109347D01*
X0135064Y0112281D02*
X0137408Y0112281D01*
X0137408Y0109347D01*
X0135064Y0109347D01*
X0135064Y0109759D02*
X0137408Y0109759D01*
X0137408Y0110171D02*
X0135064Y0110171D01*
X0135064Y0110583D02*
X0137408Y0110583D01*
X0137408Y0110995D02*
X0135064Y0110995D01*
X0135064Y0111407D02*
X0137408Y0111407D01*
X0137408Y0111819D02*
X0135064Y0111819D01*
X0135064Y0112231D02*
X0137408Y0112231D01*
X0131127Y0112281D02*
X0131127Y0109347D01*
X0131127Y0112281D02*
X0133471Y0112281D01*
X0133471Y0109347D01*
X0131127Y0109347D01*
X0131127Y0109759D02*
X0133471Y0109759D01*
X0133471Y0110171D02*
X0131127Y0110171D01*
X0131127Y0110583D02*
X0133471Y0110583D01*
X0133471Y0110995D02*
X0131127Y0110995D01*
X0131127Y0111407D02*
X0133471Y0111407D01*
X0133471Y0111819D02*
X0131127Y0111819D01*
X0131127Y0112231D02*
X0133471Y0112231D01*
X0127190Y0112281D02*
X0127190Y0109347D01*
X0127190Y0112281D02*
X0129534Y0112281D01*
X0129534Y0109347D01*
X0127190Y0109347D01*
X0127190Y0109759D02*
X0129534Y0109759D01*
X0129534Y0110171D02*
X0127190Y0110171D01*
X0127190Y0110583D02*
X0129534Y0110583D01*
X0129534Y0110995D02*
X0127190Y0110995D01*
X0127190Y0111407D02*
X0129534Y0111407D01*
X0129534Y0111819D02*
X0127190Y0111819D01*
X0127190Y0112231D02*
X0129534Y0112231D01*
X0123253Y0112281D02*
X0123253Y0109347D01*
X0123253Y0112281D02*
X0125597Y0112281D01*
X0125597Y0109347D01*
X0123253Y0109347D01*
X0123253Y0109759D02*
X0125597Y0109759D01*
X0125597Y0110171D02*
X0123253Y0110171D01*
X0123253Y0110583D02*
X0125597Y0110583D01*
X0125597Y0110995D02*
X0123253Y0110995D01*
X0123253Y0111407D02*
X0125597Y0111407D01*
X0125597Y0111819D02*
X0123253Y0111819D01*
X0123253Y0112231D02*
X0125597Y0112231D01*
X0119316Y0112281D02*
X0119316Y0109347D01*
X0119316Y0112281D02*
X0121660Y0112281D01*
X0121660Y0109347D01*
X0119316Y0109347D01*
X0119316Y0109759D02*
X0121660Y0109759D01*
X0121660Y0110171D02*
X0119316Y0110171D01*
X0119316Y0110583D02*
X0121660Y0110583D01*
X0121660Y0110995D02*
X0119316Y0110995D01*
X0119316Y0111407D02*
X0121660Y0111407D01*
X0121660Y0111819D02*
X0119316Y0111819D01*
X0119316Y0112231D02*
X0121660Y0112231D01*
X0115379Y0112281D02*
X0115379Y0109347D01*
X0115379Y0112281D02*
X0117723Y0112281D01*
X0117723Y0109347D01*
X0115379Y0109347D01*
X0115379Y0109759D02*
X0117723Y0109759D01*
X0117723Y0110171D02*
X0115379Y0110171D01*
X0115379Y0110583D02*
X0117723Y0110583D01*
X0117723Y0110995D02*
X0115379Y0110995D01*
X0115379Y0111407D02*
X0117723Y0111407D01*
X0117723Y0111819D02*
X0115379Y0111819D01*
X0115379Y0112231D02*
X0117723Y0112231D01*
X0111442Y0112281D02*
X0111442Y0109347D01*
X0111442Y0112281D02*
X0113786Y0112281D01*
X0113786Y0109347D01*
X0111442Y0109347D01*
X0111442Y0109759D02*
X0113786Y0109759D01*
X0113786Y0110171D02*
X0111442Y0110171D01*
X0111442Y0110583D02*
X0113786Y0110583D01*
X0113786Y0110995D02*
X0111442Y0110995D01*
X0111442Y0111407D02*
X0113786Y0111407D01*
X0113786Y0111819D02*
X0111442Y0111819D01*
X0111442Y0112231D02*
X0113786Y0112231D01*
X0107505Y0112281D02*
X0107505Y0109347D01*
X0107505Y0112281D02*
X0109849Y0112281D01*
X0109849Y0109347D01*
X0107505Y0109347D01*
X0107505Y0109759D02*
X0109849Y0109759D01*
X0109849Y0110171D02*
X0107505Y0110171D01*
X0107505Y0110583D02*
X0109849Y0110583D01*
X0109849Y0110995D02*
X0107505Y0110995D01*
X0107505Y0111407D02*
X0109849Y0111407D01*
X0109849Y0111819D02*
X0107505Y0111819D01*
X0107505Y0112231D02*
X0109849Y0112231D01*
X0107505Y0107556D02*
X0107505Y0104622D01*
X0107505Y0107556D02*
X0109849Y0107556D01*
X0109849Y0104622D01*
X0107505Y0104622D01*
X0107505Y0105034D02*
X0109849Y0105034D01*
X0109849Y0105446D02*
X0107505Y0105446D01*
X0107505Y0105858D02*
X0109849Y0105858D01*
X0109849Y0106270D02*
X0107505Y0106270D01*
X0107505Y0106682D02*
X0109849Y0106682D01*
X0109849Y0107094D02*
X0107505Y0107094D01*
X0107505Y0107506D02*
X0109849Y0107506D01*
X0111442Y0107556D02*
X0111442Y0104622D01*
X0111442Y0107556D02*
X0113786Y0107556D01*
X0113786Y0104622D01*
X0111442Y0104622D01*
X0111442Y0105034D02*
X0113786Y0105034D01*
X0113786Y0105446D02*
X0111442Y0105446D01*
X0111442Y0105858D02*
X0113786Y0105858D01*
X0113786Y0106270D02*
X0111442Y0106270D01*
X0111442Y0106682D02*
X0113786Y0106682D01*
X0113786Y0107094D02*
X0111442Y0107094D01*
X0111442Y0107506D02*
X0113786Y0107506D01*
X0115379Y0107556D02*
X0115379Y0104622D01*
X0115379Y0107556D02*
X0117723Y0107556D01*
X0117723Y0104622D01*
X0115379Y0104622D01*
X0115379Y0105034D02*
X0117723Y0105034D01*
X0117723Y0105446D02*
X0115379Y0105446D01*
X0115379Y0105858D02*
X0117723Y0105858D01*
X0117723Y0106270D02*
X0115379Y0106270D01*
X0115379Y0106682D02*
X0117723Y0106682D01*
X0117723Y0107094D02*
X0115379Y0107094D01*
X0115379Y0107506D02*
X0117723Y0107506D01*
X0119316Y0107556D02*
X0119316Y0104622D01*
X0119316Y0107556D02*
X0121660Y0107556D01*
X0121660Y0104622D01*
X0119316Y0104622D01*
X0119316Y0105034D02*
X0121660Y0105034D01*
X0121660Y0105446D02*
X0119316Y0105446D01*
X0119316Y0105858D02*
X0121660Y0105858D01*
X0121660Y0106270D02*
X0119316Y0106270D01*
X0119316Y0106682D02*
X0121660Y0106682D01*
X0121660Y0107094D02*
X0119316Y0107094D01*
X0119316Y0107506D02*
X0121660Y0107506D01*
X0123253Y0107556D02*
X0123253Y0104622D01*
X0123253Y0107556D02*
X0125597Y0107556D01*
X0125597Y0104622D01*
X0123253Y0104622D01*
X0123253Y0105034D02*
X0125597Y0105034D01*
X0125597Y0105446D02*
X0123253Y0105446D01*
X0123253Y0105858D02*
X0125597Y0105858D01*
X0125597Y0106270D02*
X0123253Y0106270D01*
X0123253Y0106682D02*
X0125597Y0106682D01*
X0125597Y0107094D02*
X0123253Y0107094D01*
X0123253Y0107506D02*
X0125597Y0107506D01*
X0127190Y0107556D02*
X0127190Y0104622D01*
X0127190Y0107556D02*
X0129534Y0107556D01*
X0129534Y0104622D01*
X0127190Y0104622D01*
X0127190Y0105034D02*
X0129534Y0105034D01*
X0129534Y0105446D02*
X0127190Y0105446D01*
X0127190Y0105858D02*
X0129534Y0105858D01*
X0129534Y0106270D02*
X0127190Y0106270D01*
X0127190Y0106682D02*
X0129534Y0106682D01*
X0129534Y0107094D02*
X0127190Y0107094D01*
X0127190Y0107506D02*
X0129534Y0107506D01*
X0131127Y0107556D02*
X0131127Y0104622D01*
X0131127Y0107556D02*
X0133471Y0107556D01*
X0133471Y0104622D01*
X0131127Y0104622D01*
X0131127Y0105034D02*
X0133471Y0105034D01*
X0133471Y0105446D02*
X0131127Y0105446D01*
X0131127Y0105858D02*
X0133471Y0105858D01*
X0133471Y0106270D02*
X0131127Y0106270D01*
X0131127Y0106682D02*
X0133471Y0106682D01*
X0133471Y0107094D02*
X0131127Y0107094D01*
X0131127Y0107506D02*
X0133471Y0107506D01*
X0135064Y0107556D02*
X0135064Y0104622D01*
X0135064Y0107556D02*
X0137408Y0107556D01*
X0137408Y0104622D01*
X0135064Y0104622D01*
X0135064Y0105034D02*
X0137408Y0105034D01*
X0137408Y0105446D02*
X0135064Y0105446D01*
X0135064Y0105858D02*
X0137408Y0105858D01*
X0137408Y0106270D02*
X0135064Y0106270D01*
X0135064Y0106682D02*
X0137408Y0106682D01*
X0137408Y0107094D02*
X0135064Y0107094D01*
X0135064Y0107506D02*
X0137408Y0107506D01*
D14*
X0216060Y0162879D02*
X0216060Y0168985D01*
X0216060Y0162879D02*
X0209168Y0162879D01*
X0209168Y0168985D01*
X0216060Y0168985D01*
X0216060Y0163268D02*
X0209168Y0163268D01*
X0209168Y0163657D02*
X0216060Y0163657D01*
X0216060Y0164046D02*
X0209168Y0164046D01*
X0209168Y0164435D02*
X0216060Y0164435D01*
X0216060Y0164824D02*
X0209168Y0164824D01*
X0209168Y0165213D02*
X0216060Y0165213D01*
X0216060Y0165602D02*
X0209168Y0165602D01*
X0209168Y0165991D02*
X0216060Y0165991D01*
X0216060Y0166380D02*
X0209168Y0166380D01*
X0209168Y0166769D02*
X0216060Y0166769D01*
X0216060Y0167158D02*
X0209168Y0167158D01*
X0209168Y0167547D02*
X0216060Y0167547D01*
X0216060Y0167936D02*
X0209168Y0167936D01*
X0209168Y0168325D02*
X0216060Y0168325D01*
X0216060Y0168714D02*
X0209168Y0168714D01*
X0216060Y0173902D02*
X0216060Y0180008D01*
X0216060Y0173902D02*
X0209168Y0173902D01*
X0209168Y0180008D01*
X0216060Y0180008D01*
X0216060Y0174291D02*
X0209168Y0174291D01*
X0209168Y0174680D02*
X0216060Y0174680D01*
X0216060Y0175069D02*
X0209168Y0175069D01*
X0209168Y0175458D02*
X0216060Y0175458D01*
X0216060Y0175847D02*
X0209168Y0175847D01*
X0209168Y0176236D02*
X0216060Y0176236D01*
X0216060Y0176625D02*
X0209168Y0176625D01*
X0209168Y0177014D02*
X0216060Y0177014D01*
X0216060Y0177403D02*
X0209168Y0177403D01*
X0209168Y0177792D02*
X0216060Y0177792D01*
X0216060Y0178181D02*
X0209168Y0178181D01*
X0209168Y0178570D02*
X0216060Y0178570D01*
X0216060Y0178959D02*
X0209168Y0178959D01*
X0209168Y0179348D02*
X0216060Y0179348D01*
X0216060Y0179737D02*
X0209168Y0179737D01*
D15*
X0197366Y0172912D02*
X0197366Y0169582D01*
X0197366Y0172912D02*
X0201090Y0172912D01*
X0201090Y0169582D01*
X0197366Y0169582D01*
X0197366Y0169992D02*
X0201090Y0169992D01*
X0201090Y0170402D02*
X0197366Y0170402D01*
X0197366Y0170812D02*
X0201090Y0170812D01*
X0201090Y0171222D02*
X0197366Y0171222D01*
X0197366Y0171632D02*
X0201090Y0171632D01*
X0201090Y0172042D02*
X0197366Y0172042D01*
X0197366Y0172452D02*
X0201090Y0172452D01*
X0201090Y0172862D02*
X0197366Y0172862D01*
X0197366Y0164644D02*
X0197366Y0161314D01*
X0197366Y0164644D02*
X0201090Y0164644D01*
X0201090Y0161314D01*
X0197366Y0161314D01*
X0197366Y0161724D02*
X0201090Y0161724D01*
X0201090Y0162134D02*
X0197366Y0162134D01*
X0197366Y0162544D02*
X0201090Y0162544D01*
X0201090Y0162954D02*
X0197366Y0162954D01*
X0197366Y0163364D02*
X0201090Y0163364D01*
X0201090Y0163774D02*
X0197366Y0163774D01*
X0197366Y0164184D02*
X0201090Y0164184D01*
X0201090Y0164594D02*
X0197366Y0164594D01*
X0242052Y0168558D02*
X0245382Y0168558D01*
X0242052Y0168558D02*
X0242052Y0172282D01*
X0245382Y0172282D01*
X0245382Y0168558D01*
X0245382Y0168968D02*
X0242052Y0168968D01*
X0242052Y0169378D02*
X0245382Y0169378D01*
X0245382Y0169788D02*
X0242052Y0169788D01*
X0242052Y0170198D02*
X0245382Y0170198D01*
X0245382Y0170608D02*
X0242052Y0170608D01*
X0242052Y0171018D02*
X0245382Y0171018D01*
X0245382Y0171428D02*
X0242052Y0171428D01*
X0242052Y0171838D02*
X0245382Y0171838D01*
X0245382Y0172248D02*
X0242052Y0172248D01*
X0250319Y0168558D02*
X0253649Y0168558D01*
X0250319Y0168558D02*
X0250319Y0172282D01*
X0253649Y0172282D01*
X0253649Y0168558D01*
X0253649Y0168968D02*
X0250319Y0168968D01*
X0250319Y0169378D02*
X0253649Y0169378D01*
X0253649Y0169788D02*
X0250319Y0169788D01*
X0250319Y0170198D02*
X0253649Y0170198D01*
X0253649Y0170608D02*
X0250319Y0170608D01*
X0250319Y0171018D02*
X0253649Y0171018D01*
X0253649Y0171428D02*
X0250319Y0171428D01*
X0250319Y0171838D02*
X0253649Y0171838D01*
X0253649Y0172248D02*
X0250319Y0172248D01*
D16*
X0203047Y0145893D02*
X0199149Y0145893D01*
X0203047Y0145893D02*
X0203047Y0141877D01*
X0199149Y0141877D01*
X0199149Y0145893D01*
X0199149Y0142309D02*
X0203047Y0142309D01*
X0203047Y0142741D02*
X0199149Y0142741D01*
X0199149Y0143173D02*
X0203047Y0143173D01*
X0203047Y0143605D02*
X0199149Y0143605D01*
X0199149Y0144037D02*
X0203047Y0144037D01*
X0203047Y0144469D02*
X0199149Y0144469D01*
X0199149Y0144901D02*
X0203047Y0144901D01*
X0203047Y0145333D02*
X0199149Y0145333D01*
X0199149Y0145765D02*
X0203047Y0145765D01*
X0196158Y0145893D02*
X0192260Y0145893D01*
X0196158Y0145893D02*
X0196158Y0141877D01*
X0192260Y0141877D01*
X0192260Y0145893D01*
X0192260Y0142309D02*
X0196158Y0142309D01*
X0196158Y0142741D02*
X0192260Y0142741D01*
X0192260Y0143173D02*
X0196158Y0143173D01*
X0196158Y0143605D02*
X0192260Y0143605D01*
X0192260Y0144037D02*
X0196158Y0144037D01*
X0196158Y0144469D02*
X0192260Y0144469D01*
X0192260Y0144901D02*
X0196158Y0144901D01*
X0196158Y0145333D02*
X0192260Y0145333D01*
X0192260Y0145765D02*
X0196158Y0145765D01*
X0216197Y0119357D02*
X0216197Y0115459D01*
X0212181Y0115459D01*
X0212181Y0119357D01*
X0216197Y0119357D01*
X0216197Y0115891D02*
X0212181Y0115891D01*
X0212181Y0116323D02*
X0216197Y0116323D01*
X0216197Y0116755D02*
X0212181Y0116755D01*
X0212181Y0117187D02*
X0216197Y0117187D01*
X0216197Y0117619D02*
X0212181Y0117619D01*
X0212181Y0118051D02*
X0216197Y0118051D01*
X0216197Y0118483D02*
X0212181Y0118483D01*
X0212181Y0118915D02*
X0216197Y0118915D01*
X0216197Y0119347D02*
X0212181Y0119347D01*
X0216197Y0112467D02*
X0216197Y0108569D01*
X0212181Y0108569D01*
X0212181Y0112467D01*
X0216197Y0112467D01*
X0216197Y0109001D02*
X0212181Y0109001D01*
X0212181Y0109433D02*
X0216197Y0109433D01*
X0216197Y0109865D02*
X0212181Y0109865D01*
X0212181Y0110297D02*
X0216197Y0110297D01*
X0216197Y0110729D02*
X0212181Y0110729D01*
X0212181Y0111161D02*
X0216197Y0111161D01*
X0216197Y0111593D02*
X0212181Y0111593D01*
X0212181Y0112025D02*
X0216197Y0112025D01*
X0216197Y0112457D02*
X0212181Y0112457D01*
X0131788Y0161247D02*
X0127890Y0161247D01*
X0131788Y0161247D02*
X0131788Y0157231D01*
X0127890Y0157231D01*
X0127890Y0161247D01*
X0127890Y0157663D02*
X0131788Y0157663D01*
X0131788Y0158095D02*
X0127890Y0158095D01*
X0127890Y0158527D02*
X0131788Y0158527D01*
X0131788Y0158959D02*
X0127890Y0158959D01*
X0127890Y0159391D02*
X0131788Y0159391D01*
X0131788Y0159823D02*
X0127890Y0159823D01*
X0127890Y0160255D02*
X0131788Y0160255D01*
X0131788Y0160687D02*
X0127890Y0160687D01*
X0127890Y0161119D02*
X0131788Y0161119D01*
X0124898Y0161247D02*
X0121000Y0161247D01*
X0124898Y0161247D02*
X0124898Y0157231D01*
X0121000Y0157231D01*
X0121000Y0161247D01*
X0121000Y0157663D02*
X0124898Y0157663D01*
X0124898Y0158095D02*
X0121000Y0158095D01*
X0121000Y0158527D02*
X0124898Y0158527D01*
X0124898Y0158959D02*
X0121000Y0158959D01*
X0121000Y0159391D02*
X0124898Y0159391D01*
X0124898Y0159823D02*
X0121000Y0159823D01*
X0121000Y0160255D02*
X0124898Y0160255D01*
X0124898Y0160687D02*
X0121000Y0160687D01*
X0121000Y0161119D02*
X0124898Y0161119D01*
X0351708Y0165578D02*
X0355606Y0165578D01*
X0355606Y0161562D01*
X0351708Y0161562D01*
X0351708Y0165578D01*
X0351708Y0161994D02*
X0355606Y0161994D01*
X0355606Y0162426D02*
X0351708Y0162426D01*
X0351708Y0162858D02*
X0355606Y0162858D01*
X0355606Y0163290D02*
X0351708Y0163290D01*
X0351708Y0163722D02*
X0355606Y0163722D01*
X0355606Y0164154D02*
X0351708Y0164154D01*
X0351708Y0164586D02*
X0355606Y0164586D01*
X0355606Y0165018D02*
X0351708Y0165018D01*
X0351708Y0165450D02*
X0355606Y0165450D01*
X0358598Y0165578D02*
X0362496Y0165578D01*
X0362496Y0161562D01*
X0358598Y0161562D01*
X0358598Y0165578D01*
X0358598Y0161994D02*
X0362496Y0161994D01*
X0362496Y0162426D02*
X0358598Y0162426D01*
X0358598Y0162858D02*
X0362496Y0162858D01*
X0362496Y0163290D02*
X0358598Y0163290D01*
X0358598Y0163722D02*
X0362496Y0163722D01*
X0362496Y0164154D02*
X0358598Y0164154D01*
X0358598Y0164586D02*
X0362496Y0164586D01*
X0362496Y0165018D02*
X0358598Y0165018D01*
X0358598Y0165450D02*
X0362496Y0165450D01*
D17*
X0209858Y0084042D03*
X0199858Y0084042D03*
X0189858Y0084042D03*
X0179858Y0084042D03*
X0169858Y0084042D03*
X0159858Y0084042D03*
X0170094Y0162782D03*
X0170094Y0172782D03*
D18*
X0170094Y0172782D03*
X0170094Y0162782D03*
X0169858Y0084042D03*
X0159858Y0084042D03*
X0179858Y0084042D03*
X0189858Y0084042D03*
X0199858Y0084042D03*
X0209858Y0084042D03*
D19*
X0062220Y0080105D03*
X0062220Y0198215D03*
X0180331Y0198215D03*
X0298441Y0198215D03*
X0416551Y0198215D03*
X0416551Y0080105D03*
D20*
X0396866Y0139160D03*
X0318126Y0139160D03*
X0160646Y0139160D03*
X0081906Y0139160D03*
D21*
X0102673Y0144495D03*
X0108972Y0140164D03*
X0109366Y0136621D03*
X0104346Y0137192D03*
X0118421Y0139377D03*
X0118815Y0142133D03*
X0120783Y0144495D03*
X0125508Y0144495D03*
X0136816Y0150988D03*
X0125510Y0151581D03*
X0114878Y0151975D03*
X0107890Y0149396D03*
X0117339Y0159239D03*
X0127575Y0163963D03*
X0149622Y0161995D03*
X0193323Y0138766D03*
X0201984Y0135617D03*
X0205528Y0142310D03*
X0208677Y0142310D03*
X0212614Y0148215D03*
X0216157Y0148215D03*
X0219307Y0148215D03*
X0222457Y0148215D03*
X0225606Y0148215D03*
X0231906Y0145066D03*
X0235055Y0145066D03*
X0235055Y0141916D03*
X0238205Y0138766D03*
X0238205Y0135617D03*
X0235055Y0135617D03*
X0235055Y0132467D03*
X0231906Y0132467D03*
X0228756Y0132467D03*
X0228756Y0129318D03*
X0225606Y0129318D03*
X0222457Y0126168D03*
X0219307Y0126168D03*
X0219307Y0129318D03*
X0228756Y0126168D03*
X0235055Y0126168D03*
X0238205Y0126168D03*
X0241354Y0126168D03*
X0238205Y0129318D03*
X0241354Y0132467D03*
X0241354Y0138766D03*
X0241354Y0141916D03*
X0241354Y0145066D03*
X0248835Y0142703D03*
X0250409Y0137979D03*
X0252378Y0133255D03*
X0259858Y0128530D03*
X0269701Y0129711D03*
X0269701Y0125774D03*
X0273244Y0123018D03*
X0259465Y0115538D03*
X0249228Y0121444D03*
X0238992Y0114357D03*
X0228756Y0116719D03*
X0228756Y0119869D03*
X0224031Y0110420D03*
X0219307Y0111207D03*
X0208283Y0109633D03*
X0205134Y0109633D03*
X0207496Y0115144D03*
X0201197Y0118294D03*
X0199228Y0115144D03*
X0195685Y0105696D03*
X0191354Y0102940D03*
X0191354Y0098609D03*
X0195685Y0098609D03*
X0214583Y0089554D03*
X0229937Y0089948D03*
X0234661Y0089554D03*
X0234661Y0086404D03*
X0244504Y0105696D03*
X0274819Y0108845D03*
X0280331Y0104514D03*
X0277575Y0102546D03*
X0274819Y0100577D03*
X0281118Y0114357D03*
X0291748Y0123806D03*
X0271669Y0134829D03*
X0267339Y0140341D03*
X0262614Y0137192D03*
X0253165Y0145459D03*
X0260252Y0152940D03*
X0244504Y0151365D03*
X0241354Y0151365D03*
X0230724Y0159239D03*
X0236630Y0160814D03*
X0228756Y0151365D03*
X0225606Y0151365D03*
X0225606Y0141916D03*
X0222457Y0141916D03*
X0219307Y0141916D03*
X0219307Y0138766D03*
X0216157Y0138766D03*
X0228756Y0135617D03*
X0193717Y0130105D03*
X0170094Y0126168D03*
X0167732Y0120656D03*
X0163402Y0125971D03*
X0161039Y0128530D03*
X0138205Y0132467D03*
X0135055Y0137192D03*
X0120390Y0135440D03*
X0124327Y0125203D03*
X0123146Y0122054D03*
X0124819Y0117113D03*
X0127575Y0115538D03*
X0130331Y0117113D03*
X0133480Y0115538D03*
X0122063Y0115538D03*
X0119307Y0117113D03*
X0116551Y0115538D03*
X0113795Y0117113D03*
X0112516Y0125597D03*
X0108579Y0125991D03*
X0145685Y0078924D03*
X0150016Y0078924D03*
X0281906Y0142703D03*
X0305921Y0153727D03*
X0309071Y0153727D03*
X0336827Y0141719D03*
X0340075Y0146050D03*
X0351098Y0151562D03*
X0353559Y0158845D03*
X0345291Y0161995D03*
X0345291Y0166719D03*
X0361728Y0151562D03*
X0373146Y0150774D03*
X0361335Y0144081D03*
X0357004Y0144475D03*
X0357004Y0141522D03*
X0353067Y0142113D03*
X0353362Y0136601D03*
X0346079Y0136010D03*
X0343323Y0137192D03*
X0344406Y0125774D03*
X0348736Y0124790D03*
X0339681Y0125577D03*
X0348835Y0115144D03*
X0351984Y0114357D03*
X0355921Y0114357D03*
X0359858Y0114357D03*
X0364189Y0117113D03*
X0366157Y0119869D03*
X0361039Y0122231D03*
X0360941Y0125381D03*
X0373244Y0131286D03*
X0371276Y0137192D03*
X0371669Y0114357D03*
X0367732Y0114357D03*
X0375606Y0114357D03*
X0321669Y0103333D03*
X0315764Y0105302D03*
X0318126Y0110026D03*
X0319701Y0122231D03*
X0279937Y0159239D03*
X0279937Y0165144D03*
X0257102Y0169081D03*
X0233874Y0183255D03*
X0224031Y0174199D03*
X0200016Y0176168D03*
X0195291Y0176168D03*
X0205134Y0156877D03*
X0195291Y0155302D03*
D22*
X0164583Y0155696D03*
X0158677Y0165538D03*
X0144110Y0178136D03*
X0140173Y0178136D03*
X0126787Y0178136D03*
X0122850Y0178136D03*
X0121276Y0184436D03*
X0121276Y0190341D03*
X0121276Y0196247D03*
X0101984Y0178136D03*
X0098047Y0178136D03*
X0081906Y0184436D03*
X0081906Y0190341D03*
X0081906Y0196247D03*
X0107102Y0163963D03*
X0111039Y0163963D03*
X0102772Y0160420D03*
X0072063Y0160814D03*
X0068126Y0156877D03*
X0137024Y0121444D03*
X0140567Y0110420D03*
X0153165Y0103727D03*
X0185449Y0102546D03*
X0200803Y0122625D03*
X0241354Y0099790D03*
X0264976Y0093885D03*
X0277181Y0092703D03*
X0281118Y0092703D03*
X0264976Y0105696D03*
X0297654Y0126955D03*
X0311039Y0127743D03*
X0332594Y0141325D03*
X0332594Y0145656D03*
X0338598Y0163963D03*
X0334268Y0178136D03*
X0330331Y0178136D03*
X0318126Y0184436D03*
X0318126Y0190341D03*
X0318126Y0196247D03*
X0301984Y0175774D03*
X0301984Y0171837D03*
X0301984Y0167900D03*
X0260646Y0168688D03*
X0245291Y0197822D03*
X0235843Y0200184D03*
X0224031Y0199396D03*
X0211827Y0184436D03*
X0164189Y0189160D03*
X0148835Y0133255D03*
X0101591Y0111601D03*
X0094504Y0102546D03*
X0094504Y0097822D03*
X0099622Y0084042D03*
X0107496Y0084042D03*
X0115370Y0084042D03*
X0068126Y0113570D03*
X0072063Y0117507D03*
X0233087Y0078136D03*
X0310646Y0088766D03*
X0310646Y0092703D03*
X0326000Y0080105D03*
X0359465Y0087192D03*
X0367339Y0087192D03*
X0375213Y0087192D03*
X0406709Y0113570D03*
X0402772Y0117507D03*
X0383874Y0119081D03*
X0339386Y0113570D03*
X0372752Y0162192D03*
X0359465Y0169475D03*
X0363402Y0178136D03*
X0367339Y0178136D03*
X0357496Y0184436D03*
X0357496Y0190341D03*
X0357496Y0196247D03*
X0381118Y0178530D03*
X0402772Y0164751D03*
X0406709Y0160814D03*
X0276000Y0199396D03*
M02*
