G75*
%MOIN*%
%OFA0B0*%
%FSLAX25Y25*%
%IPPOS*%
%LPD*%
%AMOC8*
5,1,8,0,0,1.08239X$1,22.5*
%
%ADD10C,0.00600*%
%ADD11C,0.00394*%
%ADD12C,0.06000*%
%ADD13C,0.12598*%
%ADD14C,0.01969*%
%ADD15C,0.02756*%
%ADD16C,0.00591*%
%ADD17C,0.00787*%
%ADD18C,0.01600*%
%ADD19C,0.02400*%
D10*
X0077368Y0222137D02*
X0079503Y0222137D01*
X0080570Y0223205D01*
X0077368Y0222137D02*
X0076300Y0223205D01*
X0076300Y0227475D01*
X0077368Y0228543D01*
X0079503Y0228543D01*
X0080570Y0227475D01*
D11*
X0013008Y0042703D02*
X0013008Y0019081D01*
X0004656Y0030892D02*
X0004659Y0031097D01*
X0004666Y0031302D01*
X0004679Y0031506D01*
X0004696Y0031711D01*
X0004719Y0031914D01*
X0004746Y0032117D01*
X0004779Y0032320D01*
X0004816Y0032521D01*
X0004859Y0032722D01*
X0004906Y0032921D01*
X0004959Y0033120D01*
X0005016Y0033316D01*
X0005078Y0033512D01*
X0005144Y0033706D01*
X0005216Y0033898D01*
X0005292Y0034088D01*
X0005373Y0034277D01*
X0005458Y0034463D01*
X0005548Y0034647D01*
X0005642Y0034829D01*
X0005741Y0035009D01*
X0005844Y0035186D01*
X0005952Y0035360D01*
X0006064Y0035532D01*
X0006180Y0035701D01*
X0006300Y0035867D01*
X0006424Y0036030D01*
X0006552Y0036190D01*
X0006684Y0036347D01*
X0006820Y0036501D01*
X0006959Y0036651D01*
X0007102Y0036798D01*
X0007249Y0036941D01*
X0007399Y0037080D01*
X0007553Y0037216D01*
X0007710Y0037348D01*
X0007870Y0037476D01*
X0008033Y0037600D01*
X0008199Y0037720D01*
X0008368Y0037836D01*
X0008540Y0037948D01*
X0008714Y0038056D01*
X0008891Y0038159D01*
X0009071Y0038258D01*
X0009253Y0038352D01*
X0009437Y0038442D01*
X0009623Y0038527D01*
X0009812Y0038608D01*
X0010002Y0038684D01*
X0010194Y0038756D01*
X0010388Y0038822D01*
X0010584Y0038884D01*
X0010780Y0038941D01*
X0010979Y0038994D01*
X0011178Y0039041D01*
X0011379Y0039084D01*
X0011580Y0039121D01*
X0011783Y0039154D01*
X0011986Y0039181D01*
X0012189Y0039204D01*
X0012394Y0039221D01*
X0012598Y0039234D01*
X0012803Y0039241D01*
X0013008Y0039244D01*
X0013213Y0039241D01*
X0013418Y0039234D01*
X0013622Y0039221D01*
X0013827Y0039204D01*
X0014030Y0039181D01*
X0014233Y0039154D01*
X0014436Y0039121D01*
X0014637Y0039084D01*
X0014838Y0039041D01*
X0015037Y0038994D01*
X0015236Y0038941D01*
X0015432Y0038884D01*
X0015628Y0038822D01*
X0015822Y0038756D01*
X0016014Y0038684D01*
X0016204Y0038608D01*
X0016393Y0038527D01*
X0016579Y0038442D01*
X0016763Y0038352D01*
X0016945Y0038258D01*
X0017125Y0038159D01*
X0017302Y0038056D01*
X0017476Y0037948D01*
X0017648Y0037836D01*
X0017817Y0037720D01*
X0017983Y0037600D01*
X0018146Y0037476D01*
X0018306Y0037348D01*
X0018463Y0037216D01*
X0018617Y0037080D01*
X0018767Y0036941D01*
X0018914Y0036798D01*
X0019057Y0036651D01*
X0019196Y0036501D01*
X0019332Y0036347D01*
X0019464Y0036190D01*
X0019592Y0036030D01*
X0019716Y0035867D01*
X0019836Y0035701D01*
X0019952Y0035532D01*
X0020064Y0035360D01*
X0020172Y0035186D01*
X0020275Y0035009D01*
X0020374Y0034829D01*
X0020468Y0034647D01*
X0020558Y0034463D01*
X0020643Y0034277D01*
X0020724Y0034088D01*
X0020800Y0033898D01*
X0020872Y0033706D01*
X0020938Y0033512D01*
X0021000Y0033316D01*
X0021057Y0033120D01*
X0021110Y0032921D01*
X0021157Y0032722D01*
X0021200Y0032521D01*
X0021237Y0032320D01*
X0021270Y0032117D01*
X0021297Y0031914D01*
X0021320Y0031711D01*
X0021337Y0031506D01*
X0021350Y0031302D01*
X0021357Y0031097D01*
X0021360Y0030892D01*
X0021357Y0030687D01*
X0021350Y0030482D01*
X0021337Y0030278D01*
X0021320Y0030073D01*
X0021297Y0029870D01*
X0021270Y0029667D01*
X0021237Y0029464D01*
X0021200Y0029263D01*
X0021157Y0029062D01*
X0021110Y0028863D01*
X0021057Y0028664D01*
X0021000Y0028468D01*
X0020938Y0028272D01*
X0020872Y0028078D01*
X0020800Y0027886D01*
X0020724Y0027696D01*
X0020643Y0027507D01*
X0020558Y0027321D01*
X0020468Y0027137D01*
X0020374Y0026955D01*
X0020275Y0026775D01*
X0020172Y0026598D01*
X0020064Y0026424D01*
X0019952Y0026252D01*
X0019836Y0026083D01*
X0019716Y0025917D01*
X0019592Y0025754D01*
X0019464Y0025594D01*
X0019332Y0025437D01*
X0019196Y0025283D01*
X0019057Y0025133D01*
X0018914Y0024986D01*
X0018767Y0024843D01*
X0018617Y0024704D01*
X0018463Y0024568D01*
X0018306Y0024436D01*
X0018146Y0024308D01*
X0017983Y0024184D01*
X0017817Y0024064D01*
X0017648Y0023948D01*
X0017476Y0023836D01*
X0017302Y0023728D01*
X0017125Y0023625D01*
X0016945Y0023526D01*
X0016763Y0023432D01*
X0016579Y0023342D01*
X0016393Y0023257D01*
X0016204Y0023176D01*
X0016014Y0023100D01*
X0015822Y0023028D01*
X0015628Y0022962D01*
X0015432Y0022900D01*
X0015236Y0022843D01*
X0015037Y0022790D01*
X0014838Y0022743D01*
X0014637Y0022700D01*
X0014436Y0022663D01*
X0014233Y0022630D01*
X0014030Y0022603D01*
X0013827Y0022580D01*
X0013622Y0022563D01*
X0013418Y0022550D01*
X0013213Y0022543D01*
X0013008Y0022540D01*
X0012803Y0022543D01*
X0012598Y0022550D01*
X0012394Y0022563D01*
X0012189Y0022580D01*
X0011986Y0022603D01*
X0011783Y0022630D01*
X0011580Y0022663D01*
X0011379Y0022700D01*
X0011178Y0022743D01*
X0010979Y0022790D01*
X0010780Y0022843D01*
X0010584Y0022900D01*
X0010388Y0022962D01*
X0010194Y0023028D01*
X0010002Y0023100D01*
X0009812Y0023176D01*
X0009623Y0023257D01*
X0009437Y0023342D01*
X0009253Y0023432D01*
X0009071Y0023526D01*
X0008891Y0023625D01*
X0008714Y0023728D01*
X0008540Y0023836D01*
X0008368Y0023948D01*
X0008199Y0024064D01*
X0008033Y0024184D01*
X0007870Y0024308D01*
X0007710Y0024436D01*
X0007553Y0024568D01*
X0007399Y0024704D01*
X0007249Y0024843D01*
X0007102Y0024986D01*
X0006959Y0025133D01*
X0006820Y0025283D01*
X0006684Y0025437D01*
X0006552Y0025594D01*
X0006424Y0025754D01*
X0006300Y0025917D01*
X0006180Y0026083D01*
X0006064Y0026252D01*
X0005952Y0026424D01*
X0005844Y0026598D01*
X0005741Y0026775D01*
X0005642Y0026955D01*
X0005548Y0027137D01*
X0005458Y0027321D01*
X0005373Y0027507D01*
X0005292Y0027696D01*
X0005216Y0027886D01*
X0005144Y0028078D01*
X0005078Y0028272D01*
X0005016Y0028468D01*
X0004959Y0028664D01*
X0004906Y0028863D01*
X0004859Y0029062D01*
X0004816Y0029263D01*
X0004779Y0029464D01*
X0004746Y0029667D01*
X0004719Y0029870D01*
X0004696Y0030073D01*
X0004679Y0030278D01*
X0004666Y0030482D01*
X0004659Y0030687D01*
X0004656Y0030892D01*
X0001197Y0030892D02*
X0024819Y0030892D01*
X0010224Y0030892D02*
X0010226Y0030997D01*
X0010232Y0031103D01*
X0010242Y0031207D01*
X0010256Y0031312D01*
X0010274Y0031416D01*
X0010295Y0031519D01*
X0010321Y0031621D01*
X0010351Y0031722D01*
X0010384Y0031822D01*
X0010421Y0031921D01*
X0010462Y0032018D01*
X0010506Y0032113D01*
X0010554Y0032207D01*
X0010606Y0032299D01*
X0010661Y0032389D01*
X0010719Y0032477D01*
X0010781Y0032562D01*
X0010846Y0032645D01*
X0010913Y0032726D01*
X0010984Y0032804D01*
X0011058Y0032879D01*
X0011135Y0032951D01*
X0011214Y0033021D01*
X0011296Y0033087D01*
X0011380Y0033150D01*
X0011467Y0033210D01*
X0011556Y0033267D01*
X0011647Y0033320D01*
X0011739Y0033370D01*
X0011834Y0033416D01*
X0011930Y0033459D01*
X0012028Y0033498D01*
X0012128Y0033533D01*
X0012228Y0033565D01*
X0012330Y0033592D01*
X0012433Y0033616D01*
X0012536Y0033636D01*
X0012640Y0033652D01*
X0012745Y0033664D01*
X0012850Y0033672D01*
X0012955Y0033676D01*
X0013061Y0033676D01*
X0013166Y0033672D01*
X0013271Y0033664D01*
X0013376Y0033652D01*
X0013480Y0033636D01*
X0013583Y0033616D01*
X0013686Y0033592D01*
X0013788Y0033565D01*
X0013888Y0033533D01*
X0013988Y0033498D01*
X0014086Y0033459D01*
X0014182Y0033416D01*
X0014277Y0033370D01*
X0014369Y0033320D01*
X0014460Y0033267D01*
X0014549Y0033210D01*
X0014636Y0033150D01*
X0014720Y0033087D01*
X0014802Y0033021D01*
X0014881Y0032951D01*
X0014958Y0032879D01*
X0015032Y0032804D01*
X0015103Y0032726D01*
X0015170Y0032645D01*
X0015235Y0032562D01*
X0015297Y0032477D01*
X0015355Y0032389D01*
X0015410Y0032299D01*
X0015462Y0032207D01*
X0015510Y0032113D01*
X0015554Y0032018D01*
X0015595Y0031921D01*
X0015632Y0031822D01*
X0015665Y0031722D01*
X0015695Y0031621D01*
X0015721Y0031519D01*
X0015742Y0031416D01*
X0015760Y0031312D01*
X0015774Y0031207D01*
X0015784Y0031103D01*
X0015790Y0030997D01*
X0015792Y0030892D01*
X0015790Y0030787D01*
X0015784Y0030681D01*
X0015774Y0030577D01*
X0015760Y0030472D01*
X0015742Y0030368D01*
X0015721Y0030265D01*
X0015695Y0030163D01*
X0015665Y0030062D01*
X0015632Y0029962D01*
X0015595Y0029863D01*
X0015554Y0029766D01*
X0015510Y0029671D01*
X0015462Y0029577D01*
X0015410Y0029485D01*
X0015355Y0029395D01*
X0015297Y0029307D01*
X0015235Y0029222D01*
X0015170Y0029139D01*
X0015103Y0029058D01*
X0015032Y0028980D01*
X0014958Y0028905D01*
X0014881Y0028833D01*
X0014802Y0028763D01*
X0014720Y0028697D01*
X0014636Y0028634D01*
X0014549Y0028574D01*
X0014460Y0028517D01*
X0014369Y0028464D01*
X0014277Y0028414D01*
X0014182Y0028368D01*
X0014086Y0028325D01*
X0013988Y0028286D01*
X0013888Y0028251D01*
X0013788Y0028219D01*
X0013686Y0028192D01*
X0013583Y0028168D01*
X0013480Y0028148D01*
X0013376Y0028132D01*
X0013271Y0028120D01*
X0013166Y0028112D01*
X0013061Y0028108D01*
X0012955Y0028108D01*
X0012850Y0028112D01*
X0012745Y0028120D01*
X0012640Y0028132D01*
X0012536Y0028148D01*
X0012433Y0028168D01*
X0012330Y0028192D01*
X0012228Y0028219D01*
X0012128Y0028251D01*
X0012028Y0028286D01*
X0011930Y0028325D01*
X0011834Y0028368D01*
X0011739Y0028414D01*
X0011647Y0028464D01*
X0011556Y0028517D01*
X0011467Y0028574D01*
X0011380Y0028634D01*
X0011296Y0028697D01*
X0011214Y0028763D01*
X0011135Y0028833D01*
X0011058Y0028905D01*
X0010984Y0028980D01*
X0010913Y0029058D01*
X0010846Y0029139D01*
X0010781Y0029222D01*
X0010719Y0029307D01*
X0010661Y0029395D01*
X0010606Y0029485D01*
X0010554Y0029577D01*
X0010506Y0029671D01*
X0010462Y0029766D01*
X0010421Y0029863D01*
X0010384Y0029962D01*
X0010351Y0030062D01*
X0010321Y0030163D01*
X0010295Y0030265D01*
X0010274Y0030368D01*
X0010256Y0030472D01*
X0010242Y0030577D01*
X0010232Y0030681D01*
X0010226Y0030787D01*
X0010224Y0030892D01*
X0007440Y0030892D02*
X0007442Y0031041D01*
X0007448Y0031190D01*
X0007458Y0031338D01*
X0007472Y0031486D01*
X0007490Y0031634D01*
X0007511Y0031781D01*
X0007537Y0031928D01*
X0007567Y0032074D01*
X0007600Y0032219D01*
X0007638Y0032363D01*
X0007679Y0032506D01*
X0007724Y0032648D01*
X0007773Y0032789D01*
X0007826Y0032928D01*
X0007882Y0033066D01*
X0007942Y0033202D01*
X0008005Y0033337D01*
X0008072Y0033469D01*
X0008143Y0033600D01*
X0008217Y0033730D01*
X0008295Y0033857D01*
X0008376Y0033982D01*
X0008460Y0034104D01*
X0008548Y0034225D01*
X0008638Y0034343D01*
X0008732Y0034458D01*
X0008829Y0034571D01*
X0008929Y0034682D01*
X0009032Y0034789D01*
X0009137Y0034894D01*
X0009246Y0034996D01*
X0009357Y0035096D01*
X0009470Y0035192D01*
X0009587Y0035285D01*
X0009705Y0035375D01*
X0009826Y0035461D01*
X0009949Y0035545D01*
X0010075Y0035625D01*
X0010203Y0035702D01*
X0010332Y0035775D01*
X0010464Y0035845D01*
X0010597Y0035911D01*
X0010732Y0035974D01*
X0010869Y0036033D01*
X0011007Y0036088D01*
X0011146Y0036140D01*
X0011287Y0036187D01*
X0011430Y0036232D01*
X0011573Y0036272D01*
X0011717Y0036308D01*
X0011862Y0036341D01*
X0012009Y0036370D01*
X0012155Y0036394D01*
X0012303Y0036415D01*
X0012451Y0036432D01*
X0012599Y0036445D01*
X0012748Y0036454D01*
X0012896Y0036459D01*
X0013045Y0036460D01*
X0013194Y0036457D01*
X0013343Y0036450D01*
X0013491Y0036439D01*
X0013639Y0036424D01*
X0013787Y0036405D01*
X0013934Y0036382D01*
X0014081Y0036356D01*
X0014226Y0036325D01*
X0014371Y0036291D01*
X0014515Y0036252D01*
X0014658Y0036210D01*
X0014799Y0036164D01*
X0014940Y0036114D01*
X0015078Y0036061D01*
X0015216Y0036004D01*
X0015352Y0035943D01*
X0015486Y0035878D01*
X0015618Y0035810D01*
X0015749Y0035739D01*
X0015878Y0035664D01*
X0016004Y0035585D01*
X0016128Y0035503D01*
X0016251Y0035418D01*
X0016370Y0035330D01*
X0016488Y0035239D01*
X0016603Y0035144D01*
X0016715Y0035046D01*
X0016825Y0034946D01*
X0016932Y0034842D01*
X0017036Y0034736D01*
X0017138Y0034627D01*
X0017236Y0034515D01*
X0017331Y0034401D01*
X0017424Y0034284D01*
X0017513Y0034165D01*
X0017598Y0034043D01*
X0017681Y0033919D01*
X0017760Y0033793D01*
X0017836Y0033665D01*
X0017909Y0033535D01*
X0017978Y0033403D01*
X0018043Y0033269D01*
X0018105Y0033134D01*
X0018163Y0032997D01*
X0018217Y0032858D01*
X0018268Y0032718D01*
X0018315Y0032577D01*
X0018358Y0032435D01*
X0018397Y0032291D01*
X0018433Y0032147D01*
X0018464Y0032001D01*
X0018492Y0031855D01*
X0018516Y0031708D01*
X0018536Y0031560D01*
X0018552Y0031412D01*
X0018564Y0031264D01*
X0018572Y0031115D01*
X0018576Y0030966D01*
X0018576Y0030818D01*
X0018572Y0030669D01*
X0018564Y0030520D01*
X0018552Y0030372D01*
X0018536Y0030224D01*
X0018516Y0030076D01*
X0018492Y0029929D01*
X0018464Y0029783D01*
X0018433Y0029637D01*
X0018397Y0029493D01*
X0018358Y0029349D01*
X0018315Y0029207D01*
X0018268Y0029066D01*
X0018217Y0028926D01*
X0018163Y0028787D01*
X0018105Y0028650D01*
X0018043Y0028515D01*
X0017978Y0028381D01*
X0017909Y0028249D01*
X0017836Y0028119D01*
X0017760Y0027991D01*
X0017681Y0027865D01*
X0017598Y0027741D01*
X0017513Y0027619D01*
X0017424Y0027500D01*
X0017331Y0027383D01*
X0017236Y0027269D01*
X0017138Y0027157D01*
X0017036Y0027048D01*
X0016932Y0026942D01*
X0016825Y0026838D01*
X0016715Y0026738D01*
X0016603Y0026640D01*
X0016488Y0026545D01*
X0016370Y0026454D01*
X0016251Y0026366D01*
X0016128Y0026281D01*
X0016004Y0026199D01*
X0015878Y0026120D01*
X0015749Y0026045D01*
X0015618Y0025974D01*
X0015486Y0025906D01*
X0015352Y0025841D01*
X0015216Y0025780D01*
X0015078Y0025723D01*
X0014940Y0025670D01*
X0014799Y0025620D01*
X0014658Y0025574D01*
X0014515Y0025532D01*
X0014371Y0025493D01*
X0014226Y0025459D01*
X0014081Y0025428D01*
X0013934Y0025402D01*
X0013787Y0025379D01*
X0013639Y0025360D01*
X0013491Y0025345D01*
X0013343Y0025334D01*
X0013194Y0025327D01*
X0013045Y0025324D01*
X0012896Y0025325D01*
X0012748Y0025330D01*
X0012599Y0025339D01*
X0012451Y0025352D01*
X0012303Y0025369D01*
X0012155Y0025390D01*
X0012009Y0025414D01*
X0011862Y0025443D01*
X0011717Y0025476D01*
X0011573Y0025512D01*
X0011430Y0025552D01*
X0011287Y0025597D01*
X0011146Y0025644D01*
X0011007Y0025696D01*
X0010869Y0025751D01*
X0010732Y0025810D01*
X0010597Y0025873D01*
X0010464Y0025939D01*
X0010332Y0026009D01*
X0010203Y0026082D01*
X0010075Y0026159D01*
X0009949Y0026239D01*
X0009826Y0026323D01*
X0009705Y0026409D01*
X0009587Y0026499D01*
X0009470Y0026592D01*
X0009357Y0026688D01*
X0009246Y0026788D01*
X0009137Y0026890D01*
X0009032Y0026995D01*
X0008929Y0027102D01*
X0008829Y0027213D01*
X0008732Y0027326D01*
X0008638Y0027441D01*
X0008548Y0027559D01*
X0008460Y0027680D01*
X0008376Y0027802D01*
X0008295Y0027927D01*
X0008217Y0028054D01*
X0008143Y0028184D01*
X0008072Y0028315D01*
X0008005Y0028447D01*
X0007942Y0028582D01*
X0007882Y0028718D01*
X0007826Y0028856D01*
X0007773Y0028995D01*
X0007724Y0029136D01*
X0007679Y0029278D01*
X0007638Y0029421D01*
X0007600Y0029565D01*
X0007567Y0029710D01*
X0007537Y0029856D01*
X0007511Y0030003D01*
X0007490Y0030150D01*
X0007472Y0030298D01*
X0007458Y0030446D01*
X0007448Y0030594D01*
X0007442Y0030743D01*
X0007440Y0030892D01*
X0013008Y0255302D02*
X0013008Y0278924D01*
X0004656Y0267113D02*
X0004659Y0267318D01*
X0004666Y0267523D01*
X0004679Y0267727D01*
X0004696Y0267932D01*
X0004719Y0268135D01*
X0004746Y0268338D01*
X0004779Y0268541D01*
X0004816Y0268742D01*
X0004859Y0268943D01*
X0004906Y0269142D01*
X0004959Y0269341D01*
X0005016Y0269537D01*
X0005078Y0269733D01*
X0005144Y0269927D01*
X0005216Y0270119D01*
X0005292Y0270309D01*
X0005373Y0270498D01*
X0005458Y0270684D01*
X0005548Y0270868D01*
X0005642Y0271050D01*
X0005741Y0271230D01*
X0005844Y0271407D01*
X0005952Y0271581D01*
X0006064Y0271753D01*
X0006180Y0271922D01*
X0006300Y0272088D01*
X0006424Y0272251D01*
X0006552Y0272411D01*
X0006684Y0272568D01*
X0006820Y0272722D01*
X0006959Y0272872D01*
X0007102Y0273019D01*
X0007249Y0273162D01*
X0007399Y0273301D01*
X0007553Y0273437D01*
X0007710Y0273569D01*
X0007870Y0273697D01*
X0008033Y0273821D01*
X0008199Y0273941D01*
X0008368Y0274057D01*
X0008540Y0274169D01*
X0008714Y0274277D01*
X0008891Y0274380D01*
X0009071Y0274479D01*
X0009253Y0274573D01*
X0009437Y0274663D01*
X0009623Y0274748D01*
X0009812Y0274829D01*
X0010002Y0274905D01*
X0010194Y0274977D01*
X0010388Y0275043D01*
X0010584Y0275105D01*
X0010780Y0275162D01*
X0010979Y0275215D01*
X0011178Y0275262D01*
X0011379Y0275305D01*
X0011580Y0275342D01*
X0011783Y0275375D01*
X0011986Y0275402D01*
X0012189Y0275425D01*
X0012394Y0275442D01*
X0012598Y0275455D01*
X0012803Y0275462D01*
X0013008Y0275465D01*
X0013213Y0275462D01*
X0013418Y0275455D01*
X0013622Y0275442D01*
X0013827Y0275425D01*
X0014030Y0275402D01*
X0014233Y0275375D01*
X0014436Y0275342D01*
X0014637Y0275305D01*
X0014838Y0275262D01*
X0015037Y0275215D01*
X0015236Y0275162D01*
X0015432Y0275105D01*
X0015628Y0275043D01*
X0015822Y0274977D01*
X0016014Y0274905D01*
X0016204Y0274829D01*
X0016393Y0274748D01*
X0016579Y0274663D01*
X0016763Y0274573D01*
X0016945Y0274479D01*
X0017125Y0274380D01*
X0017302Y0274277D01*
X0017476Y0274169D01*
X0017648Y0274057D01*
X0017817Y0273941D01*
X0017983Y0273821D01*
X0018146Y0273697D01*
X0018306Y0273569D01*
X0018463Y0273437D01*
X0018617Y0273301D01*
X0018767Y0273162D01*
X0018914Y0273019D01*
X0019057Y0272872D01*
X0019196Y0272722D01*
X0019332Y0272568D01*
X0019464Y0272411D01*
X0019592Y0272251D01*
X0019716Y0272088D01*
X0019836Y0271922D01*
X0019952Y0271753D01*
X0020064Y0271581D01*
X0020172Y0271407D01*
X0020275Y0271230D01*
X0020374Y0271050D01*
X0020468Y0270868D01*
X0020558Y0270684D01*
X0020643Y0270498D01*
X0020724Y0270309D01*
X0020800Y0270119D01*
X0020872Y0269927D01*
X0020938Y0269733D01*
X0021000Y0269537D01*
X0021057Y0269341D01*
X0021110Y0269142D01*
X0021157Y0268943D01*
X0021200Y0268742D01*
X0021237Y0268541D01*
X0021270Y0268338D01*
X0021297Y0268135D01*
X0021320Y0267932D01*
X0021337Y0267727D01*
X0021350Y0267523D01*
X0021357Y0267318D01*
X0021360Y0267113D01*
X0021357Y0266908D01*
X0021350Y0266703D01*
X0021337Y0266499D01*
X0021320Y0266294D01*
X0021297Y0266091D01*
X0021270Y0265888D01*
X0021237Y0265685D01*
X0021200Y0265484D01*
X0021157Y0265283D01*
X0021110Y0265084D01*
X0021057Y0264885D01*
X0021000Y0264689D01*
X0020938Y0264493D01*
X0020872Y0264299D01*
X0020800Y0264107D01*
X0020724Y0263917D01*
X0020643Y0263728D01*
X0020558Y0263542D01*
X0020468Y0263358D01*
X0020374Y0263176D01*
X0020275Y0262996D01*
X0020172Y0262819D01*
X0020064Y0262645D01*
X0019952Y0262473D01*
X0019836Y0262304D01*
X0019716Y0262138D01*
X0019592Y0261975D01*
X0019464Y0261815D01*
X0019332Y0261658D01*
X0019196Y0261504D01*
X0019057Y0261354D01*
X0018914Y0261207D01*
X0018767Y0261064D01*
X0018617Y0260925D01*
X0018463Y0260789D01*
X0018306Y0260657D01*
X0018146Y0260529D01*
X0017983Y0260405D01*
X0017817Y0260285D01*
X0017648Y0260169D01*
X0017476Y0260057D01*
X0017302Y0259949D01*
X0017125Y0259846D01*
X0016945Y0259747D01*
X0016763Y0259653D01*
X0016579Y0259563D01*
X0016393Y0259478D01*
X0016204Y0259397D01*
X0016014Y0259321D01*
X0015822Y0259249D01*
X0015628Y0259183D01*
X0015432Y0259121D01*
X0015236Y0259064D01*
X0015037Y0259011D01*
X0014838Y0258964D01*
X0014637Y0258921D01*
X0014436Y0258884D01*
X0014233Y0258851D01*
X0014030Y0258824D01*
X0013827Y0258801D01*
X0013622Y0258784D01*
X0013418Y0258771D01*
X0013213Y0258764D01*
X0013008Y0258761D01*
X0012803Y0258764D01*
X0012598Y0258771D01*
X0012394Y0258784D01*
X0012189Y0258801D01*
X0011986Y0258824D01*
X0011783Y0258851D01*
X0011580Y0258884D01*
X0011379Y0258921D01*
X0011178Y0258964D01*
X0010979Y0259011D01*
X0010780Y0259064D01*
X0010584Y0259121D01*
X0010388Y0259183D01*
X0010194Y0259249D01*
X0010002Y0259321D01*
X0009812Y0259397D01*
X0009623Y0259478D01*
X0009437Y0259563D01*
X0009253Y0259653D01*
X0009071Y0259747D01*
X0008891Y0259846D01*
X0008714Y0259949D01*
X0008540Y0260057D01*
X0008368Y0260169D01*
X0008199Y0260285D01*
X0008033Y0260405D01*
X0007870Y0260529D01*
X0007710Y0260657D01*
X0007553Y0260789D01*
X0007399Y0260925D01*
X0007249Y0261064D01*
X0007102Y0261207D01*
X0006959Y0261354D01*
X0006820Y0261504D01*
X0006684Y0261658D01*
X0006552Y0261815D01*
X0006424Y0261975D01*
X0006300Y0262138D01*
X0006180Y0262304D01*
X0006064Y0262473D01*
X0005952Y0262645D01*
X0005844Y0262819D01*
X0005741Y0262996D01*
X0005642Y0263176D01*
X0005548Y0263358D01*
X0005458Y0263542D01*
X0005373Y0263728D01*
X0005292Y0263917D01*
X0005216Y0264107D01*
X0005144Y0264299D01*
X0005078Y0264493D01*
X0005016Y0264689D01*
X0004959Y0264885D01*
X0004906Y0265084D01*
X0004859Y0265283D01*
X0004816Y0265484D01*
X0004779Y0265685D01*
X0004746Y0265888D01*
X0004719Y0266091D01*
X0004696Y0266294D01*
X0004679Y0266499D01*
X0004666Y0266703D01*
X0004659Y0266908D01*
X0004656Y0267113D01*
X0001197Y0267113D02*
X0024819Y0267113D01*
X0010224Y0267113D02*
X0010226Y0267218D01*
X0010232Y0267324D01*
X0010242Y0267428D01*
X0010256Y0267533D01*
X0010274Y0267637D01*
X0010295Y0267740D01*
X0010321Y0267842D01*
X0010351Y0267943D01*
X0010384Y0268043D01*
X0010421Y0268142D01*
X0010462Y0268239D01*
X0010506Y0268334D01*
X0010554Y0268428D01*
X0010606Y0268520D01*
X0010661Y0268610D01*
X0010719Y0268698D01*
X0010781Y0268783D01*
X0010846Y0268866D01*
X0010913Y0268947D01*
X0010984Y0269025D01*
X0011058Y0269100D01*
X0011135Y0269172D01*
X0011214Y0269242D01*
X0011296Y0269308D01*
X0011380Y0269371D01*
X0011467Y0269431D01*
X0011556Y0269488D01*
X0011647Y0269541D01*
X0011739Y0269591D01*
X0011834Y0269637D01*
X0011930Y0269680D01*
X0012028Y0269719D01*
X0012128Y0269754D01*
X0012228Y0269786D01*
X0012330Y0269813D01*
X0012433Y0269837D01*
X0012536Y0269857D01*
X0012640Y0269873D01*
X0012745Y0269885D01*
X0012850Y0269893D01*
X0012955Y0269897D01*
X0013061Y0269897D01*
X0013166Y0269893D01*
X0013271Y0269885D01*
X0013376Y0269873D01*
X0013480Y0269857D01*
X0013583Y0269837D01*
X0013686Y0269813D01*
X0013788Y0269786D01*
X0013888Y0269754D01*
X0013988Y0269719D01*
X0014086Y0269680D01*
X0014182Y0269637D01*
X0014277Y0269591D01*
X0014369Y0269541D01*
X0014460Y0269488D01*
X0014549Y0269431D01*
X0014636Y0269371D01*
X0014720Y0269308D01*
X0014802Y0269242D01*
X0014881Y0269172D01*
X0014958Y0269100D01*
X0015032Y0269025D01*
X0015103Y0268947D01*
X0015170Y0268866D01*
X0015235Y0268783D01*
X0015297Y0268698D01*
X0015355Y0268610D01*
X0015410Y0268520D01*
X0015462Y0268428D01*
X0015510Y0268334D01*
X0015554Y0268239D01*
X0015595Y0268142D01*
X0015632Y0268043D01*
X0015665Y0267943D01*
X0015695Y0267842D01*
X0015721Y0267740D01*
X0015742Y0267637D01*
X0015760Y0267533D01*
X0015774Y0267428D01*
X0015784Y0267324D01*
X0015790Y0267218D01*
X0015792Y0267113D01*
X0015790Y0267008D01*
X0015784Y0266902D01*
X0015774Y0266798D01*
X0015760Y0266693D01*
X0015742Y0266589D01*
X0015721Y0266486D01*
X0015695Y0266384D01*
X0015665Y0266283D01*
X0015632Y0266183D01*
X0015595Y0266084D01*
X0015554Y0265987D01*
X0015510Y0265892D01*
X0015462Y0265798D01*
X0015410Y0265706D01*
X0015355Y0265616D01*
X0015297Y0265528D01*
X0015235Y0265443D01*
X0015170Y0265360D01*
X0015103Y0265279D01*
X0015032Y0265201D01*
X0014958Y0265126D01*
X0014881Y0265054D01*
X0014802Y0264984D01*
X0014720Y0264918D01*
X0014636Y0264855D01*
X0014549Y0264795D01*
X0014460Y0264738D01*
X0014369Y0264685D01*
X0014277Y0264635D01*
X0014182Y0264589D01*
X0014086Y0264546D01*
X0013988Y0264507D01*
X0013888Y0264472D01*
X0013788Y0264440D01*
X0013686Y0264413D01*
X0013583Y0264389D01*
X0013480Y0264369D01*
X0013376Y0264353D01*
X0013271Y0264341D01*
X0013166Y0264333D01*
X0013061Y0264329D01*
X0012955Y0264329D01*
X0012850Y0264333D01*
X0012745Y0264341D01*
X0012640Y0264353D01*
X0012536Y0264369D01*
X0012433Y0264389D01*
X0012330Y0264413D01*
X0012228Y0264440D01*
X0012128Y0264472D01*
X0012028Y0264507D01*
X0011930Y0264546D01*
X0011834Y0264589D01*
X0011739Y0264635D01*
X0011647Y0264685D01*
X0011556Y0264738D01*
X0011467Y0264795D01*
X0011380Y0264855D01*
X0011296Y0264918D01*
X0011214Y0264984D01*
X0011135Y0265054D01*
X0011058Y0265126D01*
X0010984Y0265201D01*
X0010913Y0265279D01*
X0010846Y0265360D01*
X0010781Y0265443D01*
X0010719Y0265528D01*
X0010661Y0265616D01*
X0010606Y0265706D01*
X0010554Y0265798D01*
X0010506Y0265892D01*
X0010462Y0265987D01*
X0010421Y0266084D01*
X0010384Y0266183D01*
X0010351Y0266283D01*
X0010321Y0266384D01*
X0010295Y0266486D01*
X0010274Y0266589D01*
X0010256Y0266693D01*
X0010242Y0266798D01*
X0010232Y0266902D01*
X0010226Y0267008D01*
X0010224Y0267113D01*
X0007440Y0267113D02*
X0007442Y0267262D01*
X0007448Y0267411D01*
X0007458Y0267559D01*
X0007472Y0267707D01*
X0007490Y0267855D01*
X0007511Y0268002D01*
X0007537Y0268149D01*
X0007567Y0268295D01*
X0007600Y0268440D01*
X0007638Y0268584D01*
X0007679Y0268727D01*
X0007724Y0268869D01*
X0007773Y0269010D01*
X0007826Y0269149D01*
X0007882Y0269287D01*
X0007942Y0269423D01*
X0008005Y0269558D01*
X0008072Y0269690D01*
X0008143Y0269821D01*
X0008217Y0269951D01*
X0008295Y0270078D01*
X0008376Y0270203D01*
X0008460Y0270325D01*
X0008548Y0270446D01*
X0008638Y0270564D01*
X0008732Y0270679D01*
X0008829Y0270792D01*
X0008929Y0270903D01*
X0009032Y0271010D01*
X0009137Y0271115D01*
X0009246Y0271217D01*
X0009357Y0271317D01*
X0009470Y0271413D01*
X0009587Y0271506D01*
X0009705Y0271596D01*
X0009826Y0271682D01*
X0009949Y0271766D01*
X0010075Y0271846D01*
X0010203Y0271923D01*
X0010332Y0271996D01*
X0010464Y0272066D01*
X0010597Y0272132D01*
X0010732Y0272195D01*
X0010869Y0272254D01*
X0011007Y0272309D01*
X0011146Y0272361D01*
X0011287Y0272408D01*
X0011430Y0272453D01*
X0011573Y0272493D01*
X0011717Y0272529D01*
X0011862Y0272562D01*
X0012009Y0272591D01*
X0012155Y0272615D01*
X0012303Y0272636D01*
X0012451Y0272653D01*
X0012599Y0272666D01*
X0012748Y0272675D01*
X0012896Y0272680D01*
X0013045Y0272681D01*
X0013194Y0272678D01*
X0013343Y0272671D01*
X0013491Y0272660D01*
X0013639Y0272645D01*
X0013787Y0272626D01*
X0013934Y0272603D01*
X0014081Y0272577D01*
X0014226Y0272546D01*
X0014371Y0272512D01*
X0014515Y0272473D01*
X0014658Y0272431D01*
X0014799Y0272385D01*
X0014940Y0272335D01*
X0015078Y0272282D01*
X0015216Y0272225D01*
X0015352Y0272164D01*
X0015486Y0272099D01*
X0015618Y0272031D01*
X0015749Y0271960D01*
X0015878Y0271885D01*
X0016004Y0271806D01*
X0016128Y0271724D01*
X0016251Y0271639D01*
X0016370Y0271551D01*
X0016488Y0271460D01*
X0016603Y0271365D01*
X0016715Y0271267D01*
X0016825Y0271167D01*
X0016932Y0271063D01*
X0017036Y0270957D01*
X0017138Y0270848D01*
X0017236Y0270736D01*
X0017331Y0270622D01*
X0017424Y0270505D01*
X0017513Y0270386D01*
X0017598Y0270264D01*
X0017681Y0270140D01*
X0017760Y0270014D01*
X0017836Y0269886D01*
X0017909Y0269756D01*
X0017978Y0269624D01*
X0018043Y0269490D01*
X0018105Y0269355D01*
X0018163Y0269218D01*
X0018217Y0269079D01*
X0018268Y0268939D01*
X0018315Y0268798D01*
X0018358Y0268656D01*
X0018397Y0268512D01*
X0018433Y0268368D01*
X0018464Y0268222D01*
X0018492Y0268076D01*
X0018516Y0267929D01*
X0018536Y0267781D01*
X0018552Y0267633D01*
X0018564Y0267485D01*
X0018572Y0267336D01*
X0018576Y0267187D01*
X0018576Y0267039D01*
X0018572Y0266890D01*
X0018564Y0266741D01*
X0018552Y0266593D01*
X0018536Y0266445D01*
X0018516Y0266297D01*
X0018492Y0266150D01*
X0018464Y0266004D01*
X0018433Y0265858D01*
X0018397Y0265714D01*
X0018358Y0265570D01*
X0018315Y0265428D01*
X0018268Y0265287D01*
X0018217Y0265147D01*
X0018163Y0265008D01*
X0018105Y0264871D01*
X0018043Y0264736D01*
X0017978Y0264602D01*
X0017909Y0264470D01*
X0017836Y0264340D01*
X0017760Y0264212D01*
X0017681Y0264086D01*
X0017598Y0263962D01*
X0017513Y0263840D01*
X0017424Y0263721D01*
X0017331Y0263604D01*
X0017236Y0263490D01*
X0017138Y0263378D01*
X0017036Y0263269D01*
X0016932Y0263163D01*
X0016825Y0263059D01*
X0016715Y0262959D01*
X0016603Y0262861D01*
X0016488Y0262766D01*
X0016370Y0262675D01*
X0016251Y0262587D01*
X0016128Y0262502D01*
X0016004Y0262420D01*
X0015878Y0262341D01*
X0015749Y0262266D01*
X0015618Y0262195D01*
X0015486Y0262127D01*
X0015352Y0262062D01*
X0015216Y0262001D01*
X0015078Y0261944D01*
X0014940Y0261891D01*
X0014799Y0261841D01*
X0014658Y0261795D01*
X0014515Y0261753D01*
X0014371Y0261714D01*
X0014226Y0261680D01*
X0014081Y0261649D01*
X0013934Y0261623D01*
X0013787Y0261600D01*
X0013639Y0261581D01*
X0013491Y0261566D01*
X0013343Y0261555D01*
X0013194Y0261548D01*
X0013045Y0261545D01*
X0012896Y0261546D01*
X0012748Y0261551D01*
X0012599Y0261560D01*
X0012451Y0261573D01*
X0012303Y0261590D01*
X0012155Y0261611D01*
X0012009Y0261635D01*
X0011862Y0261664D01*
X0011717Y0261697D01*
X0011573Y0261733D01*
X0011430Y0261773D01*
X0011287Y0261818D01*
X0011146Y0261865D01*
X0011007Y0261917D01*
X0010869Y0261972D01*
X0010732Y0262031D01*
X0010597Y0262094D01*
X0010464Y0262160D01*
X0010332Y0262230D01*
X0010203Y0262303D01*
X0010075Y0262380D01*
X0009949Y0262460D01*
X0009826Y0262544D01*
X0009705Y0262630D01*
X0009587Y0262720D01*
X0009470Y0262813D01*
X0009357Y0262909D01*
X0009246Y0263009D01*
X0009137Y0263111D01*
X0009032Y0263216D01*
X0008929Y0263323D01*
X0008829Y0263434D01*
X0008732Y0263547D01*
X0008638Y0263662D01*
X0008548Y0263780D01*
X0008460Y0263901D01*
X0008376Y0264023D01*
X0008295Y0264148D01*
X0008217Y0264275D01*
X0008143Y0264405D01*
X0008072Y0264536D01*
X0008005Y0264668D01*
X0007942Y0264803D01*
X0007882Y0264939D01*
X0007826Y0265077D01*
X0007773Y0265216D01*
X0007724Y0265357D01*
X0007679Y0265499D01*
X0007638Y0265642D01*
X0007600Y0265786D01*
X0007567Y0265931D01*
X0007537Y0266077D01*
X0007511Y0266224D01*
X0007490Y0266371D01*
X0007472Y0266519D01*
X0007458Y0266667D01*
X0007448Y0266815D01*
X0007442Y0266964D01*
X0007440Y0267113D01*
X0473638Y0267113D02*
X0497260Y0267113D01*
X0477097Y0267113D02*
X0477100Y0267318D01*
X0477107Y0267523D01*
X0477120Y0267727D01*
X0477137Y0267932D01*
X0477160Y0268135D01*
X0477187Y0268338D01*
X0477220Y0268541D01*
X0477257Y0268742D01*
X0477300Y0268943D01*
X0477347Y0269142D01*
X0477400Y0269341D01*
X0477457Y0269537D01*
X0477519Y0269733D01*
X0477585Y0269927D01*
X0477657Y0270119D01*
X0477733Y0270309D01*
X0477814Y0270498D01*
X0477899Y0270684D01*
X0477989Y0270868D01*
X0478083Y0271050D01*
X0478182Y0271230D01*
X0478285Y0271407D01*
X0478393Y0271581D01*
X0478505Y0271753D01*
X0478621Y0271922D01*
X0478741Y0272088D01*
X0478865Y0272251D01*
X0478993Y0272411D01*
X0479125Y0272568D01*
X0479261Y0272722D01*
X0479400Y0272872D01*
X0479543Y0273019D01*
X0479690Y0273162D01*
X0479840Y0273301D01*
X0479994Y0273437D01*
X0480151Y0273569D01*
X0480311Y0273697D01*
X0480474Y0273821D01*
X0480640Y0273941D01*
X0480809Y0274057D01*
X0480981Y0274169D01*
X0481155Y0274277D01*
X0481332Y0274380D01*
X0481512Y0274479D01*
X0481694Y0274573D01*
X0481878Y0274663D01*
X0482064Y0274748D01*
X0482253Y0274829D01*
X0482443Y0274905D01*
X0482635Y0274977D01*
X0482829Y0275043D01*
X0483025Y0275105D01*
X0483221Y0275162D01*
X0483420Y0275215D01*
X0483619Y0275262D01*
X0483820Y0275305D01*
X0484021Y0275342D01*
X0484224Y0275375D01*
X0484427Y0275402D01*
X0484630Y0275425D01*
X0484835Y0275442D01*
X0485039Y0275455D01*
X0485244Y0275462D01*
X0485449Y0275465D01*
X0485654Y0275462D01*
X0485859Y0275455D01*
X0486063Y0275442D01*
X0486268Y0275425D01*
X0486471Y0275402D01*
X0486674Y0275375D01*
X0486877Y0275342D01*
X0487078Y0275305D01*
X0487279Y0275262D01*
X0487478Y0275215D01*
X0487677Y0275162D01*
X0487873Y0275105D01*
X0488069Y0275043D01*
X0488263Y0274977D01*
X0488455Y0274905D01*
X0488645Y0274829D01*
X0488834Y0274748D01*
X0489020Y0274663D01*
X0489204Y0274573D01*
X0489386Y0274479D01*
X0489566Y0274380D01*
X0489743Y0274277D01*
X0489917Y0274169D01*
X0490089Y0274057D01*
X0490258Y0273941D01*
X0490424Y0273821D01*
X0490587Y0273697D01*
X0490747Y0273569D01*
X0490904Y0273437D01*
X0491058Y0273301D01*
X0491208Y0273162D01*
X0491355Y0273019D01*
X0491498Y0272872D01*
X0491637Y0272722D01*
X0491773Y0272568D01*
X0491905Y0272411D01*
X0492033Y0272251D01*
X0492157Y0272088D01*
X0492277Y0271922D01*
X0492393Y0271753D01*
X0492505Y0271581D01*
X0492613Y0271407D01*
X0492716Y0271230D01*
X0492815Y0271050D01*
X0492909Y0270868D01*
X0492999Y0270684D01*
X0493084Y0270498D01*
X0493165Y0270309D01*
X0493241Y0270119D01*
X0493313Y0269927D01*
X0493379Y0269733D01*
X0493441Y0269537D01*
X0493498Y0269341D01*
X0493551Y0269142D01*
X0493598Y0268943D01*
X0493641Y0268742D01*
X0493678Y0268541D01*
X0493711Y0268338D01*
X0493738Y0268135D01*
X0493761Y0267932D01*
X0493778Y0267727D01*
X0493791Y0267523D01*
X0493798Y0267318D01*
X0493801Y0267113D01*
X0493798Y0266908D01*
X0493791Y0266703D01*
X0493778Y0266499D01*
X0493761Y0266294D01*
X0493738Y0266091D01*
X0493711Y0265888D01*
X0493678Y0265685D01*
X0493641Y0265484D01*
X0493598Y0265283D01*
X0493551Y0265084D01*
X0493498Y0264885D01*
X0493441Y0264689D01*
X0493379Y0264493D01*
X0493313Y0264299D01*
X0493241Y0264107D01*
X0493165Y0263917D01*
X0493084Y0263728D01*
X0492999Y0263542D01*
X0492909Y0263358D01*
X0492815Y0263176D01*
X0492716Y0262996D01*
X0492613Y0262819D01*
X0492505Y0262645D01*
X0492393Y0262473D01*
X0492277Y0262304D01*
X0492157Y0262138D01*
X0492033Y0261975D01*
X0491905Y0261815D01*
X0491773Y0261658D01*
X0491637Y0261504D01*
X0491498Y0261354D01*
X0491355Y0261207D01*
X0491208Y0261064D01*
X0491058Y0260925D01*
X0490904Y0260789D01*
X0490747Y0260657D01*
X0490587Y0260529D01*
X0490424Y0260405D01*
X0490258Y0260285D01*
X0490089Y0260169D01*
X0489917Y0260057D01*
X0489743Y0259949D01*
X0489566Y0259846D01*
X0489386Y0259747D01*
X0489204Y0259653D01*
X0489020Y0259563D01*
X0488834Y0259478D01*
X0488645Y0259397D01*
X0488455Y0259321D01*
X0488263Y0259249D01*
X0488069Y0259183D01*
X0487873Y0259121D01*
X0487677Y0259064D01*
X0487478Y0259011D01*
X0487279Y0258964D01*
X0487078Y0258921D01*
X0486877Y0258884D01*
X0486674Y0258851D01*
X0486471Y0258824D01*
X0486268Y0258801D01*
X0486063Y0258784D01*
X0485859Y0258771D01*
X0485654Y0258764D01*
X0485449Y0258761D01*
X0485244Y0258764D01*
X0485039Y0258771D01*
X0484835Y0258784D01*
X0484630Y0258801D01*
X0484427Y0258824D01*
X0484224Y0258851D01*
X0484021Y0258884D01*
X0483820Y0258921D01*
X0483619Y0258964D01*
X0483420Y0259011D01*
X0483221Y0259064D01*
X0483025Y0259121D01*
X0482829Y0259183D01*
X0482635Y0259249D01*
X0482443Y0259321D01*
X0482253Y0259397D01*
X0482064Y0259478D01*
X0481878Y0259563D01*
X0481694Y0259653D01*
X0481512Y0259747D01*
X0481332Y0259846D01*
X0481155Y0259949D01*
X0480981Y0260057D01*
X0480809Y0260169D01*
X0480640Y0260285D01*
X0480474Y0260405D01*
X0480311Y0260529D01*
X0480151Y0260657D01*
X0479994Y0260789D01*
X0479840Y0260925D01*
X0479690Y0261064D01*
X0479543Y0261207D01*
X0479400Y0261354D01*
X0479261Y0261504D01*
X0479125Y0261658D01*
X0478993Y0261815D01*
X0478865Y0261975D01*
X0478741Y0262138D01*
X0478621Y0262304D01*
X0478505Y0262473D01*
X0478393Y0262645D01*
X0478285Y0262819D01*
X0478182Y0262996D01*
X0478083Y0263176D01*
X0477989Y0263358D01*
X0477899Y0263542D01*
X0477814Y0263728D01*
X0477733Y0263917D01*
X0477657Y0264107D01*
X0477585Y0264299D01*
X0477519Y0264493D01*
X0477457Y0264689D01*
X0477400Y0264885D01*
X0477347Y0265084D01*
X0477300Y0265283D01*
X0477257Y0265484D01*
X0477220Y0265685D01*
X0477187Y0265888D01*
X0477160Y0266091D01*
X0477137Y0266294D01*
X0477120Y0266499D01*
X0477107Y0266703D01*
X0477100Y0266908D01*
X0477097Y0267113D01*
X0482665Y0267113D02*
X0482667Y0267218D01*
X0482673Y0267324D01*
X0482683Y0267428D01*
X0482697Y0267533D01*
X0482715Y0267637D01*
X0482736Y0267740D01*
X0482762Y0267842D01*
X0482792Y0267943D01*
X0482825Y0268043D01*
X0482862Y0268142D01*
X0482903Y0268239D01*
X0482947Y0268334D01*
X0482995Y0268428D01*
X0483047Y0268520D01*
X0483102Y0268610D01*
X0483160Y0268698D01*
X0483222Y0268783D01*
X0483287Y0268866D01*
X0483354Y0268947D01*
X0483425Y0269025D01*
X0483499Y0269100D01*
X0483576Y0269172D01*
X0483655Y0269242D01*
X0483737Y0269308D01*
X0483821Y0269371D01*
X0483908Y0269431D01*
X0483997Y0269488D01*
X0484088Y0269541D01*
X0484180Y0269591D01*
X0484275Y0269637D01*
X0484371Y0269680D01*
X0484469Y0269719D01*
X0484569Y0269754D01*
X0484669Y0269786D01*
X0484771Y0269813D01*
X0484874Y0269837D01*
X0484977Y0269857D01*
X0485081Y0269873D01*
X0485186Y0269885D01*
X0485291Y0269893D01*
X0485396Y0269897D01*
X0485502Y0269897D01*
X0485607Y0269893D01*
X0485712Y0269885D01*
X0485817Y0269873D01*
X0485921Y0269857D01*
X0486024Y0269837D01*
X0486127Y0269813D01*
X0486229Y0269786D01*
X0486329Y0269754D01*
X0486429Y0269719D01*
X0486527Y0269680D01*
X0486623Y0269637D01*
X0486718Y0269591D01*
X0486810Y0269541D01*
X0486901Y0269488D01*
X0486990Y0269431D01*
X0487077Y0269371D01*
X0487161Y0269308D01*
X0487243Y0269242D01*
X0487322Y0269172D01*
X0487399Y0269100D01*
X0487473Y0269025D01*
X0487544Y0268947D01*
X0487611Y0268866D01*
X0487676Y0268783D01*
X0487738Y0268698D01*
X0487796Y0268610D01*
X0487851Y0268520D01*
X0487903Y0268428D01*
X0487951Y0268334D01*
X0487995Y0268239D01*
X0488036Y0268142D01*
X0488073Y0268043D01*
X0488106Y0267943D01*
X0488136Y0267842D01*
X0488162Y0267740D01*
X0488183Y0267637D01*
X0488201Y0267533D01*
X0488215Y0267428D01*
X0488225Y0267324D01*
X0488231Y0267218D01*
X0488233Y0267113D01*
X0488231Y0267008D01*
X0488225Y0266902D01*
X0488215Y0266798D01*
X0488201Y0266693D01*
X0488183Y0266589D01*
X0488162Y0266486D01*
X0488136Y0266384D01*
X0488106Y0266283D01*
X0488073Y0266183D01*
X0488036Y0266084D01*
X0487995Y0265987D01*
X0487951Y0265892D01*
X0487903Y0265798D01*
X0487851Y0265706D01*
X0487796Y0265616D01*
X0487738Y0265528D01*
X0487676Y0265443D01*
X0487611Y0265360D01*
X0487544Y0265279D01*
X0487473Y0265201D01*
X0487399Y0265126D01*
X0487322Y0265054D01*
X0487243Y0264984D01*
X0487161Y0264918D01*
X0487077Y0264855D01*
X0486990Y0264795D01*
X0486901Y0264738D01*
X0486810Y0264685D01*
X0486718Y0264635D01*
X0486623Y0264589D01*
X0486527Y0264546D01*
X0486429Y0264507D01*
X0486329Y0264472D01*
X0486229Y0264440D01*
X0486127Y0264413D01*
X0486024Y0264389D01*
X0485921Y0264369D01*
X0485817Y0264353D01*
X0485712Y0264341D01*
X0485607Y0264333D01*
X0485502Y0264329D01*
X0485396Y0264329D01*
X0485291Y0264333D01*
X0485186Y0264341D01*
X0485081Y0264353D01*
X0484977Y0264369D01*
X0484874Y0264389D01*
X0484771Y0264413D01*
X0484669Y0264440D01*
X0484569Y0264472D01*
X0484469Y0264507D01*
X0484371Y0264546D01*
X0484275Y0264589D01*
X0484180Y0264635D01*
X0484088Y0264685D01*
X0483997Y0264738D01*
X0483908Y0264795D01*
X0483821Y0264855D01*
X0483737Y0264918D01*
X0483655Y0264984D01*
X0483576Y0265054D01*
X0483499Y0265126D01*
X0483425Y0265201D01*
X0483354Y0265279D01*
X0483287Y0265360D01*
X0483222Y0265443D01*
X0483160Y0265528D01*
X0483102Y0265616D01*
X0483047Y0265706D01*
X0482995Y0265798D01*
X0482947Y0265892D01*
X0482903Y0265987D01*
X0482862Y0266084D01*
X0482825Y0266183D01*
X0482792Y0266283D01*
X0482762Y0266384D01*
X0482736Y0266486D01*
X0482715Y0266589D01*
X0482697Y0266693D01*
X0482683Y0266798D01*
X0482673Y0266902D01*
X0482667Y0267008D01*
X0482665Y0267113D01*
X0479881Y0267113D02*
X0479883Y0267262D01*
X0479889Y0267411D01*
X0479899Y0267559D01*
X0479913Y0267707D01*
X0479931Y0267855D01*
X0479952Y0268002D01*
X0479978Y0268149D01*
X0480008Y0268295D01*
X0480041Y0268440D01*
X0480079Y0268584D01*
X0480120Y0268727D01*
X0480165Y0268869D01*
X0480214Y0269010D01*
X0480267Y0269149D01*
X0480323Y0269287D01*
X0480383Y0269423D01*
X0480446Y0269558D01*
X0480513Y0269690D01*
X0480584Y0269821D01*
X0480658Y0269951D01*
X0480736Y0270078D01*
X0480817Y0270203D01*
X0480901Y0270325D01*
X0480989Y0270446D01*
X0481079Y0270564D01*
X0481173Y0270679D01*
X0481270Y0270792D01*
X0481370Y0270903D01*
X0481473Y0271010D01*
X0481578Y0271115D01*
X0481687Y0271217D01*
X0481798Y0271317D01*
X0481911Y0271413D01*
X0482028Y0271506D01*
X0482146Y0271596D01*
X0482267Y0271682D01*
X0482390Y0271766D01*
X0482516Y0271846D01*
X0482644Y0271923D01*
X0482773Y0271996D01*
X0482905Y0272066D01*
X0483038Y0272132D01*
X0483173Y0272195D01*
X0483310Y0272254D01*
X0483448Y0272309D01*
X0483587Y0272361D01*
X0483728Y0272408D01*
X0483871Y0272453D01*
X0484014Y0272493D01*
X0484158Y0272529D01*
X0484303Y0272562D01*
X0484450Y0272591D01*
X0484596Y0272615D01*
X0484744Y0272636D01*
X0484892Y0272653D01*
X0485040Y0272666D01*
X0485189Y0272675D01*
X0485337Y0272680D01*
X0485486Y0272681D01*
X0485635Y0272678D01*
X0485784Y0272671D01*
X0485932Y0272660D01*
X0486080Y0272645D01*
X0486228Y0272626D01*
X0486375Y0272603D01*
X0486522Y0272577D01*
X0486667Y0272546D01*
X0486812Y0272512D01*
X0486956Y0272473D01*
X0487099Y0272431D01*
X0487240Y0272385D01*
X0487381Y0272335D01*
X0487519Y0272282D01*
X0487657Y0272225D01*
X0487793Y0272164D01*
X0487927Y0272099D01*
X0488059Y0272031D01*
X0488190Y0271960D01*
X0488319Y0271885D01*
X0488445Y0271806D01*
X0488569Y0271724D01*
X0488692Y0271639D01*
X0488811Y0271551D01*
X0488929Y0271460D01*
X0489044Y0271365D01*
X0489156Y0271267D01*
X0489266Y0271167D01*
X0489373Y0271063D01*
X0489477Y0270957D01*
X0489579Y0270848D01*
X0489677Y0270736D01*
X0489772Y0270622D01*
X0489865Y0270505D01*
X0489954Y0270386D01*
X0490039Y0270264D01*
X0490122Y0270140D01*
X0490201Y0270014D01*
X0490277Y0269886D01*
X0490350Y0269756D01*
X0490419Y0269624D01*
X0490484Y0269490D01*
X0490546Y0269355D01*
X0490604Y0269218D01*
X0490658Y0269079D01*
X0490709Y0268939D01*
X0490756Y0268798D01*
X0490799Y0268656D01*
X0490838Y0268512D01*
X0490874Y0268368D01*
X0490905Y0268222D01*
X0490933Y0268076D01*
X0490957Y0267929D01*
X0490977Y0267781D01*
X0490993Y0267633D01*
X0491005Y0267485D01*
X0491013Y0267336D01*
X0491017Y0267187D01*
X0491017Y0267039D01*
X0491013Y0266890D01*
X0491005Y0266741D01*
X0490993Y0266593D01*
X0490977Y0266445D01*
X0490957Y0266297D01*
X0490933Y0266150D01*
X0490905Y0266004D01*
X0490874Y0265858D01*
X0490838Y0265714D01*
X0490799Y0265570D01*
X0490756Y0265428D01*
X0490709Y0265287D01*
X0490658Y0265147D01*
X0490604Y0265008D01*
X0490546Y0264871D01*
X0490484Y0264736D01*
X0490419Y0264602D01*
X0490350Y0264470D01*
X0490277Y0264340D01*
X0490201Y0264212D01*
X0490122Y0264086D01*
X0490039Y0263962D01*
X0489954Y0263840D01*
X0489865Y0263721D01*
X0489772Y0263604D01*
X0489677Y0263490D01*
X0489579Y0263378D01*
X0489477Y0263269D01*
X0489373Y0263163D01*
X0489266Y0263059D01*
X0489156Y0262959D01*
X0489044Y0262861D01*
X0488929Y0262766D01*
X0488811Y0262675D01*
X0488692Y0262587D01*
X0488569Y0262502D01*
X0488445Y0262420D01*
X0488319Y0262341D01*
X0488190Y0262266D01*
X0488059Y0262195D01*
X0487927Y0262127D01*
X0487793Y0262062D01*
X0487657Y0262001D01*
X0487519Y0261944D01*
X0487381Y0261891D01*
X0487240Y0261841D01*
X0487099Y0261795D01*
X0486956Y0261753D01*
X0486812Y0261714D01*
X0486667Y0261680D01*
X0486522Y0261649D01*
X0486375Y0261623D01*
X0486228Y0261600D01*
X0486080Y0261581D01*
X0485932Y0261566D01*
X0485784Y0261555D01*
X0485635Y0261548D01*
X0485486Y0261545D01*
X0485337Y0261546D01*
X0485189Y0261551D01*
X0485040Y0261560D01*
X0484892Y0261573D01*
X0484744Y0261590D01*
X0484596Y0261611D01*
X0484450Y0261635D01*
X0484303Y0261664D01*
X0484158Y0261697D01*
X0484014Y0261733D01*
X0483871Y0261773D01*
X0483728Y0261818D01*
X0483587Y0261865D01*
X0483448Y0261917D01*
X0483310Y0261972D01*
X0483173Y0262031D01*
X0483038Y0262094D01*
X0482905Y0262160D01*
X0482773Y0262230D01*
X0482644Y0262303D01*
X0482516Y0262380D01*
X0482390Y0262460D01*
X0482267Y0262544D01*
X0482146Y0262630D01*
X0482028Y0262720D01*
X0481911Y0262813D01*
X0481798Y0262909D01*
X0481687Y0263009D01*
X0481578Y0263111D01*
X0481473Y0263216D01*
X0481370Y0263323D01*
X0481270Y0263434D01*
X0481173Y0263547D01*
X0481079Y0263662D01*
X0480989Y0263780D01*
X0480901Y0263901D01*
X0480817Y0264023D01*
X0480736Y0264148D01*
X0480658Y0264275D01*
X0480584Y0264405D01*
X0480513Y0264536D01*
X0480446Y0264668D01*
X0480383Y0264803D01*
X0480323Y0264939D01*
X0480267Y0265077D01*
X0480214Y0265216D01*
X0480165Y0265357D01*
X0480120Y0265499D01*
X0480079Y0265642D01*
X0480041Y0265786D01*
X0480008Y0265931D01*
X0479978Y0266077D01*
X0479952Y0266224D01*
X0479931Y0266371D01*
X0479913Y0266519D01*
X0479899Y0266667D01*
X0479889Y0266815D01*
X0479883Y0266964D01*
X0479881Y0267113D01*
X0485449Y0278924D02*
X0485449Y0255302D01*
D12*
X0209858Y0084042D03*
X0199858Y0084042D03*
X0189858Y0084042D03*
X0179858Y0084042D03*
X0169858Y0084042D03*
X0159858Y0084042D03*
X0170094Y0162782D03*
X0170094Y0172782D03*
D13*
X0180331Y0198215D03*
X0160646Y0139160D03*
X0081906Y0139160D03*
X0062220Y0080105D03*
X0062220Y0198215D03*
X0298441Y0198215D03*
X0318126Y0139160D03*
X0396866Y0139160D03*
X0416551Y0080105D03*
X0416551Y0198215D03*
D14*
X0353559Y0158845D03*
X0345291Y0161995D03*
X0345291Y0166719D03*
X0351098Y0151562D03*
X0361728Y0151562D03*
X0373146Y0150774D03*
X0361335Y0144081D03*
X0357004Y0144475D03*
X0357004Y0141522D03*
X0353067Y0142113D03*
X0353362Y0136601D03*
X0346079Y0136010D03*
X0343323Y0137192D03*
X0336827Y0141719D03*
X0340075Y0146050D03*
X0309071Y0153727D03*
X0305921Y0153727D03*
X0281906Y0142703D03*
X0271669Y0134829D03*
X0269701Y0129711D03*
X0269701Y0125774D03*
X0273244Y0123018D03*
X0259858Y0128530D03*
X0252378Y0133255D03*
X0250409Y0137979D03*
X0248835Y0142703D03*
X0253165Y0145459D03*
X0241354Y0145066D03*
X0241354Y0141916D03*
X0241354Y0138766D03*
X0238205Y0138766D03*
X0238205Y0135617D03*
X0235055Y0135617D03*
X0235055Y0132467D03*
X0231906Y0132467D03*
X0228756Y0132467D03*
X0228756Y0129318D03*
X0225606Y0129318D03*
X0222457Y0126168D03*
X0219307Y0126168D03*
X0219307Y0129318D03*
X0228756Y0126168D03*
X0235055Y0126168D03*
X0238205Y0126168D03*
X0241354Y0126168D03*
X0238205Y0129318D03*
X0241354Y0132467D03*
X0235055Y0141916D03*
X0235055Y0145066D03*
X0231906Y0145066D03*
X0225606Y0148215D03*
X0222457Y0148215D03*
X0219307Y0148215D03*
X0216157Y0148215D03*
X0212614Y0148215D03*
X0208677Y0142310D03*
X0205528Y0142310D03*
X0201984Y0135617D03*
X0193323Y0138766D03*
X0193717Y0130105D03*
X0201197Y0118294D03*
X0199228Y0115144D03*
X0205134Y0109633D03*
X0208283Y0109633D03*
X0207496Y0115144D03*
X0219307Y0111207D03*
X0224031Y0110420D03*
X0228756Y0116719D03*
X0228756Y0119869D03*
X0238992Y0114357D03*
X0244504Y0105696D03*
X0259465Y0115538D03*
X0249228Y0121444D03*
X0262614Y0137192D03*
X0267339Y0140341D03*
X0260252Y0152940D03*
X0244504Y0151365D03*
X0241354Y0151365D03*
X0230724Y0159239D03*
X0236630Y0160814D03*
X0228756Y0151365D03*
X0225606Y0151365D03*
X0225606Y0141916D03*
X0222457Y0141916D03*
X0219307Y0141916D03*
X0219307Y0138766D03*
X0216157Y0138766D03*
X0228756Y0135617D03*
X0195291Y0155302D03*
X0205134Y0156877D03*
X0200016Y0176168D03*
X0195291Y0176168D03*
X0224031Y0174199D03*
X0233874Y0183255D03*
X0257102Y0169081D03*
X0279937Y0165144D03*
X0279937Y0159239D03*
X0291748Y0123806D03*
X0281118Y0114357D03*
X0274819Y0108845D03*
X0280331Y0104514D03*
X0277575Y0102546D03*
X0274819Y0100577D03*
X0315764Y0105302D03*
X0321669Y0103333D03*
X0318126Y0110026D03*
X0319701Y0122231D03*
X0339681Y0125577D03*
X0344406Y0125774D03*
X0348736Y0124790D03*
X0348835Y0115144D03*
X0351984Y0114357D03*
X0355921Y0114357D03*
X0359858Y0114357D03*
X0364189Y0117113D03*
X0366157Y0119869D03*
X0361039Y0122231D03*
X0360941Y0125381D03*
X0373244Y0131286D03*
X0371276Y0137192D03*
X0371669Y0114357D03*
X0367732Y0114357D03*
X0375606Y0114357D03*
X0234661Y0089554D03*
X0234661Y0086404D03*
X0229937Y0089948D03*
X0214583Y0089554D03*
X0195685Y0098609D03*
X0191354Y0098609D03*
X0191354Y0102940D03*
X0195685Y0105696D03*
X0167732Y0120656D03*
X0163402Y0125971D03*
X0161039Y0128530D03*
X0170094Y0126168D03*
X0138205Y0132467D03*
X0135055Y0137192D03*
X0125508Y0144495D03*
X0120783Y0144495D03*
X0118815Y0142133D03*
X0118421Y0139377D03*
X0120390Y0135440D03*
X0109366Y0136621D03*
X0104346Y0137192D03*
X0108972Y0140164D03*
X0102673Y0144495D03*
X0107890Y0149396D03*
X0114878Y0151975D03*
X0117339Y0159239D03*
X0125510Y0151581D03*
X0136816Y0150988D03*
X0149622Y0161995D03*
X0127575Y0163963D03*
X0124327Y0125203D03*
X0123146Y0122054D03*
X0124819Y0117113D03*
X0127575Y0115538D03*
X0130331Y0117113D03*
X0133480Y0115538D03*
X0122063Y0115538D03*
X0119307Y0117113D03*
X0116551Y0115538D03*
X0113795Y0117113D03*
X0112516Y0125597D03*
X0108579Y0125991D03*
X0145685Y0078924D03*
X0150016Y0078924D03*
D15*
X0115370Y0084042D03*
X0107496Y0084042D03*
X0099622Y0084042D03*
X0094504Y0097822D03*
X0094504Y0102546D03*
X0101591Y0111601D03*
X0072063Y0117507D03*
X0068126Y0113570D03*
X0137024Y0121444D03*
X0140567Y0110420D03*
X0153165Y0103727D03*
X0185449Y0102546D03*
X0200803Y0122625D03*
X0241354Y0099790D03*
X0264976Y0093885D03*
X0277181Y0092703D03*
X0281118Y0092703D03*
X0264976Y0105696D03*
X0297654Y0126955D03*
X0311039Y0127743D03*
X0332594Y0141325D03*
X0332594Y0145656D03*
X0338598Y0163963D03*
X0334268Y0178136D03*
X0330331Y0178136D03*
X0318126Y0184436D03*
X0318126Y0190341D03*
X0318126Y0196247D03*
X0301984Y0175774D03*
X0301984Y0171837D03*
X0301984Y0167900D03*
X0260646Y0168688D03*
X0245291Y0197822D03*
X0235843Y0200184D03*
X0224031Y0199396D03*
X0211827Y0184436D03*
X0164189Y0189160D03*
X0144110Y0178136D03*
X0140173Y0178136D03*
X0126787Y0178136D03*
X0122850Y0178136D03*
X0121276Y0184436D03*
X0121276Y0190341D03*
X0121276Y0196247D03*
X0101984Y0178136D03*
X0098047Y0178136D03*
X0081906Y0184436D03*
X0081906Y0190341D03*
X0081906Y0196247D03*
X0107102Y0163963D03*
X0111039Y0163963D03*
X0102772Y0160420D03*
X0072063Y0160814D03*
X0068126Y0156877D03*
X0148835Y0133255D03*
X0164583Y0155696D03*
X0158677Y0165538D03*
X0276000Y0199396D03*
X0357496Y0196247D03*
X0357496Y0190341D03*
X0357496Y0184436D03*
X0363402Y0178136D03*
X0367339Y0178136D03*
X0359465Y0169475D03*
X0372752Y0162192D03*
X0381118Y0178530D03*
X0402772Y0164751D03*
X0406709Y0160814D03*
X0383874Y0119081D03*
X0402772Y0117507D03*
X0406709Y0113570D03*
X0375213Y0087192D03*
X0367339Y0087192D03*
X0359465Y0087192D03*
X0326000Y0080105D03*
X0310646Y0088766D03*
X0310646Y0092703D03*
X0339386Y0113570D03*
X0233087Y0078136D03*
D16*
X0234898Y0080277D02*
X0211992Y0080277D01*
X0212291Y0080401D02*
X0212407Y0080517D01*
X0214451Y0081547D01*
X0233628Y0081547D01*
X0237579Y0077596D01*
X0238496Y0077216D01*
X0317310Y0077216D01*
X0317777Y0077205D01*
X0317805Y0077216D01*
X0317835Y0077216D01*
X0318267Y0077395D01*
X0318702Y0077564D01*
X0318724Y0077584D01*
X0318752Y0077596D01*
X0319082Y0077926D01*
X0327386Y0085852D01*
X0327413Y0085864D01*
X0327744Y0086194D01*
X0328082Y0086517D01*
X0328094Y0086544D01*
X0328115Y0086566D01*
X0328294Y0086997D01*
X0328483Y0087425D01*
X0328484Y0087455D01*
X0328495Y0087483D01*
X0328495Y0087950D01*
X0328506Y0088417D01*
X0328495Y0088445D01*
X0328495Y0124523D01*
X0334468Y0132190D01*
X0334710Y0132432D01*
X0334770Y0132578D01*
X0334868Y0132703D01*
X0424598Y0132703D01*
X0424598Y0132114D02*
X0334409Y0132114D01*
X0333950Y0131525D02*
X0424598Y0131525D01*
X0424598Y0130936D02*
X0333491Y0130936D01*
X0333032Y0130347D02*
X0424598Y0130347D01*
X0424598Y0129758D02*
X0332573Y0129758D01*
X0332114Y0129169D02*
X0424598Y0129169D01*
X0424598Y0128580D02*
X0331655Y0128580D01*
X0331197Y0127991D02*
X0343398Y0127991D01*
X0343461Y0128054D02*
X0342126Y0126718D01*
X0342126Y0124830D01*
X0343461Y0123495D01*
X0345350Y0123495D01*
X0346685Y0124830D01*
X0346685Y0126718D01*
X0345350Y0128054D01*
X0343461Y0128054D01*
X0342809Y0127402D02*
X0330738Y0127402D01*
X0330279Y0126812D02*
X0342220Y0126812D01*
X0342126Y0126223D02*
X0329820Y0126223D01*
X0329361Y0125634D02*
X0342126Y0125634D01*
X0342126Y0125045D02*
X0328902Y0125045D01*
X0328495Y0124456D02*
X0342500Y0124456D01*
X0343089Y0123867D02*
X0328495Y0123867D01*
X0328495Y0123278D02*
X0359820Y0123278D01*
X0359997Y0123101D02*
X0361885Y0123101D01*
X0363220Y0124436D01*
X0363220Y0126325D01*
X0361885Y0127660D01*
X0359997Y0127660D01*
X0358661Y0126325D01*
X0358661Y0124436D01*
X0359997Y0123101D01*
X0359231Y0123867D02*
X0345722Y0123867D01*
X0346311Y0124456D02*
X0358661Y0124456D01*
X0358661Y0125045D02*
X0346685Y0125045D01*
X0346685Y0125634D02*
X0358661Y0125634D01*
X0358661Y0126223D02*
X0346685Y0126223D01*
X0346591Y0126812D02*
X0359149Y0126812D01*
X0359738Y0127402D02*
X0346002Y0127402D01*
X0345413Y0127991D02*
X0424598Y0127991D01*
X0424598Y0127402D02*
X0362144Y0127402D01*
X0362733Y0126812D02*
X0424598Y0126812D01*
X0424598Y0126223D02*
X0363220Y0126223D01*
X0363220Y0125634D02*
X0424598Y0125634D01*
X0424598Y0125045D02*
X0363220Y0125045D01*
X0363220Y0124456D02*
X0424598Y0124456D01*
X0424598Y0123867D02*
X0362651Y0123867D01*
X0362062Y0123278D02*
X0424598Y0123278D01*
X0424598Y0122689D02*
X0328495Y0122689D01*
X0328495Y0122100D02*
X0365165Y0122100D01*
X0365213Y0122148D02*
X0363878Y0120813D01*
X0363878Y0119392D01*
X0363245Y0119392D01*
X0361909Y0118057D01*
X0361909Y0116169D01*
X0363245Y0114833D01*
X0365133Y0114833D01*
X0365453Y0115153D01*
X0365453Y0113413D01*
X0366788Y0112077D01*
X0368676Y0112077D01*
X0369701Y0113102D01*
X0370725Y0112077D01*
X0372613Y0112077D01*
X0373638Y0113102D01*
X0374662Y0112077D01*
X0376551Y0112077D01*
X0377886Y0113413D01*
X0377886Y0115301D01*
X0376551Y0116636D01*
X0374662Y0116636D01*
X0373638Y0115612D01*
X0372613Y0116636D01*
X0370725Y0116636D01*
X0369701Y0115612D01*
X0368676Y0116636D01*
X0366788Y0116636D01*
X0366468Y0116317D01*
X0366468Y0117589D01*
X0367102Y0117589D01*
X0368437Y0118925D01*
X0368437Y0120813D01*
X0367102Y0122148D01*
X0365213Y0122148D01*
X0364576Y0121511D02*
X0328495Y0121511D01*
X0328495Y0120922D02*
X0363987Y0120922D01*
X0363878Y0120333D02*
X0328495Y0120333D01*
X0328495Y0119744D02*
X0363878Y0119744D01*
X0363007Y0119155D02*
X0328495Y0119155D01*
X0328495Y0118566D02*
X0362418Y0118566D01*
X0361909Y0117977D02*
X0328495Y0117977D01*
X0328495Y0117387D02*
X0347854Y0117387D01*
X0347890Y0117424D02*
X0346555Y0116089D01*
X0346555Y0114200D01*
X0347890Y0112865D01*
X0349779Y0112865D01*
X0350016Y0113102D01*
X0351040Y0112077D01*
X0352928Y0112077D01*
X0353953Y0113102D01*
X0354977Y0112077D01*
X0356865Y0112077D01*
X0357890Y0113102D01*
X0358914Y0112077D01*
X0360802Y0112077D01*
X0362138Y0113413D01*
X0362138Y0115301D01*
X0360802Y0116636D01*
X0358914Y0116636D01*
X0357890Y0115612D01*
X0356865Y0116636D01*
X0354977Y0116636D01*
X0353953Y0115612D01*
X0352928Y0116636D01*
X0351040Y0116636D01*
X0350803Y0116400D01*
X0349779Y0117424D01*
X0347890Y0117424D01*
X0347265Y0116798D02*
X0328495Y0116798D01*
X0328495Y0116209D02*
X0346676Y0116209D01*
X0346555Y0115620D02*
X0328495Y0115620D01*
X0328495Y0115031D02*
X0346555Y0115031D01*
X0346555Y0114442D02*
X0328495Y0114442D01*
X0328495Y0113853D02*
X0346902Y0113853D01*
X0347491Y0113264D02*
X0328495Y0113264D01*
X0328495Y0112675D02*
X0350442Y0112675D01*
X0351032Y0112086D02*
X0328495Y0112086D01*
X0328495Y0111497D02*
X0424598Y0111497D01*
X0424598Y0112086D02*
X0376559Y0112086D01*
X0377148Y0112675D02*
X0424598Y0112675D01*
X0424598Y0113264D02*
X0377737Y0113264D01*
X0377886Y0113853D02*
X0424598Y0113853D01*
X0424598Y0114442D02*
X0377886Y0114442D01*
X0377886Y0115031D02*
X0424598Y0115031D01*
X0424598Y0115620D02*
X0377567Y0115620D01*
X0376978Y0116209D02*
X0424598Y0116209D01*
X0424598Y0116798D02*
X0366468Y0116798D01*
X0366468Y0117387D02*
X0424598Y0117387D01*
X0424598Y0117977D02*
X0367489Y0117977D01*
X0368078Y0118566D02*
X0424598Y0118566D01*
X0424598Y0119155D02*
X0368437Y0119155D01*
X0368437Y0119744D02*
X0424598Y0119744D01*
X0424598Y0120333D02*
X0368437Y0120333D01*
X0368328Y0120922D02*
X0424598Y0120922D01*
X0424598Y0121511D02*
X0367739Y0121511D01*
X0367150Y0122100D02*
X0424598Y0122100D01*
X0424598Y0133292D02*
X0335066Y0133292D01*
X0335090Y0133349D02*
X0335090Y0133507D01*
X0335132Y0133660D01*
X0335090Y0133999D01*
X0335090Y0140232D01*
X0335883Y0139440D01*
X0337771Y0139440D01*
X0339106Y0140775D01*
X0339106Y0142663D01*
X0337771Y0143999D01*
X0335883Y0143999D01*
X0335090Y0143206D01*
X0335090Y0144695D01*
X0335268Y0145124D01*
X0335268Y0146188D01*
X0334861Y0147170D01*
X0334109Y0147922D01*
X0333126Y0148329D01*
X0332063Y0148329D01*
X0331080Y0147922D01*
X0330328Y0147170D01*
X0329921Y0146188D01*
X0329921Y0145124D01*
X0330099Y0144695D01*
X0330099Y0142287D01*
X0329921Y0141857D01*
X0329921Y0140794D01*
X0330099Y0140364D01*
X0330099Y0134702D01*
X0324126Y0127036D01*
X0323885Y0126794D01*
X0323824Y0126648D01*
X0323727Y0126523D01*
X0323636Y0126193D01*
X0323505Y0125877D01*
X0323505Y0125718D01*
X0323463Y0125566D01*
X0323505Y0125226D01*
X0323505Y0089047D01*
X0316339Y0082207D01*
X0240026Y0082207D01*
X0236857Y0085376D01*
X0236941Y0085460D01*
X0236941Y0087348D01*
X0236757Y0087533D01*
X0236757Y0088425D01*
X0236941Y0088610D01*
X0236941Y0090498D01*
X0235606Y0091833D01*
X0233717Y0091833D01*
X0232382Y0090498D01*
X0232382Y0088610D01*
X0232566Y0088425D01*
X0232566Y0087533D01*
X0232382Y0087348D01*
X0232382Y0086537D01*
X0214451Y0086537D01*
X0213056Y0087240D01*
X0212431Y0088482D01*
X0213638Y0087274D01*
X0215527Y0087274D01*
X0216862Y0088610D01*
X0216862Y0090498D01*
X0215527Y0091833D01*
X0213638Y0091833D01*
X0212303Y0090498D01*
X0212303Y0089384D01*
X0211974Y0090180D01*
X0207643Y0094511D01*
X0206941Y0095212D01*
X0206024Y0095592D01*
X0100262Y0095592D01*
X0096999Y0098855D01*
X0096999Y0101585D01*
X0097177Y0102014D01*
X0097177Y0103078D01*
X0096770Y0104060D01*
X0096018Y0104812D01*
X0095036Y0105219D01*
X0093972Y0105219D01*
X0092990Y0104812D01*
X0092238Y0104060D01*
X0091831Y0103078D01*
X0091831Y0102014D01*
X0092009Y0101585D01*
X0092009Y0098783D01*
X0091831Y0098353D01*
X0091831Y0097290D01*
X0092238Y0096307D01*
X0092990Y0095555D01*
X0093419Y0095377D01*
X0097815Y0090982D01*
X0098732Y0090602D01*
X0204494Y0090602D01*
X0207061Y0088035D01*
X0206333Y0086591D01*
X0206217Y0086475D01*
X0205951Y0085833D01*
X0205806Y0085545D01*
X0205799Y0085532D01*
X0205793Y0085452D01*
X0205563Y0084896D01*
X0205563Y0083188D01*
X0206217Y0081609D01*
X0207425Y0080401D01*
X0209004Y0079747D01*
X0210713Y0079747D01*
X0211268Y0079977D01*
X0211348Y0079983D01*
X0211361Y0079989D01*
X0211649Y0080135D01*
X0212291Y0080401D01*
X0213100Y0080866D02*
X0234309Y0080866D01*
X0233720Y0081455D02*
X0214269Y0081455D01*
X0214017Y0086756D02*
X0232382Y0086756D01*
X0232382Y0087345D02*
X0215598Y0087345D01*
X0216187Y0087934D02*
X0228726Y0087934D01*
X0228993Y0087668D02*
X0230881Y0087668D01*
X0232217Y0089003D01*
X0232217Y0090892D01*
X0230881Y0092227D01*
X0228993Y0092227D01*
X0227657Y0090892D01*
X0227657Y0089003D01*
X0228993Y0087668D01*
X0228137Y0088523D02*
X0216776Y0088523D01*
X0216862Y0089112D02*
X0227657Y0089112D01*
X0227657Y0089702D02*
X0216862Y0089702D01*
X0216862Y0090291D02*
X0227657Y0090291D01*
X0227657Y0090880D02*
X0216481Y0090880D01*
X0215891Y0091469D02*
X0228234Y0091469D01*
X0228824Y0092058D02*
X0210096Y0092058D01*
X0210685Y0091469D02*
X0213274Y0091469D01*
X0212685Y0090880D02*
X0211274Y0090880D01*
X0211863Y0090291D02*
X0212303Y0090291D01*
X0212303Y0089702D02*
X0212172Y0089702D01*
X0212707Y0087934D02*
X0212978Y0087934D01*
X0213004Y0087345D02*
X0213567Y0087345D01*
X0207010Y0087934D02*
X0201091Y0087934D01*
X0200814Y0088024D02*
X0200180Y0088125D01*
X0200154Y0088125D01*
X0200154Y0084337D01*
X0203941Y0084337D01*
X0203941Y0084363D01*
X0203840Y0084998D01*
X0203642Y0085609D01*
X0203350Y0086182D01*
X0202972Y0086702D01*
X0202518Y0087156D01*
X0201998Y0087534D01*
X0201425Y0087826D01*
X0200814Y0088024D01*
X0200154Y0087934D02*
X0199563Y0087934D01*
X0199563Y0088125D02*
X0199537Y0088125D01*
X0198902Y0088024D01*
X0198291Y0087826D01*
X0197718Y0087534D01*
X0197199Y0087156D01*
X0196744Y0086702D01*
X0196366Y0086182D01*
X0196075Y0085609D01*
X0195876Y0084998D01*
X0195776Y0084363D01*
X0195776Y0084337D01*
X0199563Y0084337D01*
X0199563Y0083747D01*
X0195776Y0083747D01*
X0195776Y0083721D01*
X0195876Y0083086D01*
X0196075Y0082475D01*
X0196366Y0081902D01*
X0196744Y0081382D01*
X0197199Y0080928D01*
X0197718Y0080550D01*
X0198291Y0080258D01*
X0198902Y0080060D01*
X0199537Y0079959D01*
X0199563Y0079959D01*
X0199563Y0083747D01*
X0200154Y0083747D01*
X0200154Y0084337D01*
X0199563Y0084337D01*
X0199563Y0088125D01*
X0199563Y0087345D02*
X0200154Y0087345D01*
X0200154Y0086756D02*
X0199563Y0086756D01*
X0199563Y0086167D02*
X0200154Y0086167D01*
X0200154Y0085578D02*
X0199563Y0085578D01*
X0199563Y0084989D02*
X0200154Y0084989D01*
X0200154Y0084400D02*
X0199563Y0084400D01*
X0199563Y0083811D02*
X0194154Y0083811D01*
X0194154Y0084400D02*
X0195781Y0084400D01*
X0195875Y0084989D02*
X0194115Y0084989D01*
X0194154Y0084896D02*
X0193500Y0086475D01*
X0192291Y0087683D01*
X0190713Y0088337D01*
X0189004Y0088337D01*
X0187425Y0087683D01*
X0186217Y0086475D01*
X0185563Y0084896D01*
X0185563Y0083188D01*
X0186217Y0081609D01*
X0187425Y0080401D01*
X0189004Y0079747D01*
X0190713Y0079747D01*
X0192291Y0080401D01*
X0193500Y0081609D01*
X0194154Y0083188D01*
X0194154Y0084896D01*
X0193871Y0085578D02*
X0196065Y0085578D01*
X0196359Y0086167D02*
X0193627Y0086167D01*
X0193218Y0086756D02*
X0196799Y0086756D01*
X0197459Y0087345D02*
X0192629Y0087345D01*
X0191685Y0087934D02*
X0198626Y0087934D01*
X0202258Y0087345D02*
X0206713Y0087345D01*
X0206416Y0086756D02*
X0202918Y0086756D01*
X0203358Y0086167D02*
X0206089Y0086167D01*
X0205823Y0085578D02*
X0203652Y0085578D01*
X0203842Y0084989D02*
X0205601Y0084989D01*
X0205563Y0084400D02*
X0203935Y0084400D01*
X0203941Y0083747D02*
X0200154Y0083747D01*
X0200154Y0079959D01*
X0200180Y0079959D01*
X0200814Y0080060D01*
X0201425Y0080258D01*
X0201998Y0080550D01*
X0202518Y0080928D01*
X0202972Y0081382D01*
X0203350Y0081902D01*
X0203642Y0082475D01*
X0203840Y0083086D01*
X0203941Y0083721D01*
X0203941Y0083747D01*
X0203862Y0083222D02*
X0205563Y0083222D01*
X0205563Y0083811D02*
X0200154Y0083811D01*
X0200154Y0083222D02*
X0199563Y0083222D01*
X0199563Y0082633D02*
X0200154Y0082633D01*
X0200154Y0082044D02*
X0199563Y0082044D01*
X0199563Y0081455D02*
X0200154Y0081455D01*
X0200154Y0080866D02*
X0199563Y0080866D01*
X0199563Y0080277D02*
X0200154Y0080277D01*
X0201461Y0080277D02*
X0207725Y0080277D01*
X0206960Y0080866D02*
X0202432Y0080866D01*
X0203025Y0081455D02*
X0206371Y0081455D01*
X0206037Y0082044D02*
X0203422Y0082044D01*
X0203693Y0082633D02*
X0205793Y0082633D01*
X0206572Y0088523D02*
X0054173Y0088523D01*
X0054173Y0087934D02*
X0158031Y0087934D01*
X0157425Y0087683D02*
X0156217Y0086475D01*
X0155563Y0084896D01*
X0155563Y0083188D01*
X0156217Y0081609D01*
X0157425Y0080401D01*
X0159004Y0079747D01*
X0160713Y0079747D01*
X0162291Y0080401D01*
X0163500Y0081609D01*
X0164154Y0083188D01*
X0164154Y0084896D01*
X0163500Y0086475D01*
X0162291Y0087683D01*
X0160713Y0088337D01*
X0159004Y0088337D01*
X0157425Y0087683D01*
X0157087Y0087345D02*
X0054173Y0087345D01*
X0054173Y0086756D02*
X0156498Y0086756D01*
X0156089Y0086167D02*
X0054173Y0086167D01*
X0054173Y0085578D02*
X0155845Y0085578D01*
X0155601Y0084989D02*
X0054173Y0084989D01*
X0054173Y0084400D02*
X0155563Y0084400D01*
X0155563Y0083811D02*
X0054173Y0083811D01*
X0054173Y0083222D02*
X0155563Y0083222D01*
X0155793Y0082633D02*
X0054173Y0082633D01*
X0054173Y0082044D02*
X0156037Y0082044D01*
X0156371Y0081455D02*
X0054173Y0081455D01*
X0054173Y0080866D02*
X0144403Y0080866D01*
X0144741Y0081203D02*
X0143406Y0079868D01*
X0143406Y0077980D01*
X0144741Y0076644D01*
X0146629Y0076644D01*
X0147850Y0077866D01*
X0149072Y0076644D01*
X0150960Y0076644D01*
X0152295Y0077980D01*
X0152295Y0079868D01*
X0150960Y0081203D01*
X0149072Y0081203D01*
X0147850Y0079982D01*
X0146629Y0081203D01*
X0144741Y0081203D01*
X0143814Y0080277D02*
X0054173Y0080277D01*
X0054173Y0080105D02*
X0054173Y0198215D01*
X0054272Y0199474D01*
X0055050Y0201869D01*
X0056530Y0203905D01*
X0058567Y0205385D01*
X0060962Y0206163D01*
X0062220Y0206262D01*
X0416551Y0206262D01*
X0417810Y0206163D01*
X0420205Y0205385D01*
X0422241Y0203905D01*
X0423721Y0201869D01*
X0424499Y0199474D01*
X0424598Y0198215D01*
X0424598Y0080105D01*
X0424499Y0078846D01*
X0423721Y0076452D01*
X0422241Y0074415D01*
X0420205Y0072935D01*
X0417810Y0072157D01*
X0416551Y0072058D01*
X0415808Y0072058D01*
X0062220Y0072058D01*
X0060962Y0072157D01*
X0058567Y0072935D01*
X0056530Y0074415D01*
X0055050Y0076452D01*
X0054272Y0078846D01*
X0054173Y0080105D01*
X0054206Y0079687D02*
X0143406Y0079687D01*
X0143406Y0079098D02*
X0054252Y0079098D01*
X0054382Y0078509D02*
X0143406Y0078509D01*
X0143465Y0077920D02*
X0054573Y0077920D01*
X0054765Y0077331D02*
X0144054Y0077331D01*
X0144643Y0076742D02*
X0054956Y0076742D01*
X0055267Y0076153D02*
X0423504Y0076153D01*
X0423816Y0076742D02*
X0151058Y0076742D01*
X0151647Y0077331D02*
X0238218Y0077331D01*
X0237254Y0077920D02*
X0152236Y0077920D01*
X0152295Y0078509D02*
X0236665Y0078509D01*
X0236076Y0079098D02*
X0152295Y0079098D01*
X0152295Y0079687D02*
X0235487Y0079687D01*
X0239010Y0083222D02*
X0317402Y0083222D01*
X0316785Y0082633D02*
X0239599Y0082633D01*
X0238421Y0083811D02*
X0318020Y0083811D01*
X0318637Y0084400D02*
X0237832Y0084400D01*
X0237243Y0084989D02*
X0319254Y0084989D01*
X0319871Y0085578D02*
X0236941Y0085578D01*
X0236941Y0086167D02*
X0320488Y0086167D01*
X0321105Y0086756D02*
X0236941Y0086756D01*
X0236941Y0087345D02*
X0321722Y0087345D01*
X0322339Y0087934D02*
X0236757Y0087934D01*
X0236855Y0088523D02*
X0322956Y0088523D01*
X0323505Y0089112D02*
X0236941Y0089112D01*
X0236941Y0089702D02*
X0323505Y0089702D01*
X0323505Y0090291D02*
X0236941Y0090291D01*
X0236559Y0090880D02*
X0323505Y0090880D01*
X0323505Y0091469D02*
X0235970Y0091469D01*
X0233353Y0091469D02*
X0231640Y0091469D01*
X0232217Y0090880D02*
X0232764Y0090880D01*
X0232382Y0090291D02*
X0232217Y0090291D01*
X0232217Y0089702D02*
X0232382Y0089702D01*
X0232382Y0089112D02*
X0232217Y0089112D01*
X0232468Y0088523D02*
X0231737Y0088523D01*
X0231148Y0087934D02*
X0232566Y0087934D01*
X0231050Y0092058D02*
X0323505Y0092058D01*
X0323505Y0092647D02*
X0209507Y0092647D01*
X0208918Y0093236D02*
X0323505Y0093236D01*
X0323505Y0093825D02*
X0208329Y0093825D01*
X0207739Y0094414D02*
X0323505Y0094414D01*
X0323505Y0095003D02*
X0207150Y0095003D01*
X0206024Y0095592D02*
X0323505Y0095592D01*
X0323505Y0096181D02*
X0099673Y0096181D01*
X0099084Y0096770D02*
X0189969Y0096770D01*
X0190410Y0096329D02*
X0192299Y0096329D01*
X0193520Y0097551D01*
X0194741Y0096329D01*
X0196629Y0096329D01*
X0197965Y0097665D01*
X0197965Y0099553D01*
X0196629Y0100888D01*
X0194741Y0100888D01*
X0193520Y0099667D01*
X0192413Y0100774D01*
X0193634Y0101995D01*
X0193634Y0103884D01*
X0192299Y0105219D01*
X0190410Y0105219D01*
X0189075Y0103884D01*
X0189075Y0101995D01*
X0190296Y0100774D01*
X0189075Y0099553D01*
X0189075Y0097665D01*
X0190410Y0096329D01*
X0189380Y0097359D02*
X0098495Y0097359D01*
X0097906Y0097948D02*
X0189075Y0097948D01*
X0189075Y0098537D02*
X0097317Y0098537D01*
X0096999Y0099127D02*
X0189075Y0099127D01*
X0189237Y0099716D02*
X0096999Y0099716D01*
X0096999Y0100305D02*
X0189826Y0100305D01*
X0190177Y0100894D02*
X0096999Y0100894D01*
X0096999Y0101483D02*
X0189587Y0101483D01*
X0189075Y0102072D02*
X0097177Y0102072D01*
X0097177Y0102661D02*
X0189075Y0102661D01*
X0189075Y0103250D02*
X0097106Y0103250D01*
X0096862Y0103839D02*
X0189075Y0103839D01*
X0189619Y0104428D02*
X0096402Y0104428D01*
X0095523Y0105017D02*
X0190208Y0105017D01*
X0192501Y0105017D02*
X0193406Y0105017D01*
X0193406Y0104751D02*
X0194741Y0103416D01*
X0196629Y0103416D01*
X0197965Y0104751D01*
X0197965Y0106640D01*
X0196629Y0107975D01*
X0194741Y0107975D01*
X0193406Y0106640D01*
X0193406Y0104751D01*
X0193090Y0104428D02*
X0193729Y0104428D01*
X0193634Y0103839D02*
X0194318Y0103839D01*
X0193634Y0103250D02*
X0275295Y0103250D01*
X0275295Y0103490D02*
X0275295Y0102857D01*
X0273875Y0102857D01*
X0272539Y0101522D01*
X0272539Y0099633D01*
X0273875Y0098298D01*
X0275763Y0098298D01*
X0277098Y0099633D01*
X0277098Y0100266D01*
X0278519Y0100266D01*
X0279854Y0101602D01*
X0279854Y0102235D01*
X0281275Y0102235D01*
X0282610Y0103570D01*
X0282610Y0105459D01*
X0281275Y0106794D01*
X0279386Y0106794D01*
X0278051Y0105459D01*
X0278051Y0104825D01*
X0276631Y0104825D01*
X0275295Y0103490D01*
X0275644Y0103839D02*
X0247579Y0103839D01*
X0247340Y0103600D02*
X0248521Y0104781D01*
X0249749Y0106009D01*
X0249749Y0108325D01*
X0266238Y0108325D01*
X0279276Y0121363D01*
X0279276Y0130185D01*
X0278049Y0131413D01*
X0273949Y0135513D01*
X0273949Y0135774D01*
X0272613Y0137109D01*
X0272210Y0137109D01*
X0276914Y0141813D01*
X0276914Y0158926D01*
X0275687Y0160153D01*
X0271356Y0164484D01*
X0260726Y0164484D01*
X0259198Y0166012D01*
X0259198Y0167953D01*
X0259382Y0168137D01*
X0259382Y0170026D01*
X0258047Y0171361D01*
X0256158Y0171361D01*
X0254823Y0170026D01*
X0254823Y0168137D01*
X0255007Y0167953D01*
X0255007Y0164276D01*
X0257763Y0161521D01*
X0258990Y0160293D01*
X0269620Y0160293D01*
X0272724Y0157190D01*
X0272724Y0143549D01*
X0263388Y0134213D01*
X0259261Y0138282D01*
X0259231Y0138465D01*
X0258659Y0138876D01*
X0258157Y0139370D01*
X0257972Y0139369D01*
X0257676Y0139582D01*
X0257183Y0140074D01*
X0256989Y0140074D01*
X0256832Y0140187D01*
X0256144Y0140074D01*
X0251538Y0140074D01*
X0251354Y0140259D01*
X0249465Y0140259D01*
X0248130Y0138923D01*
X0248130Y0137035D01*
X0249465Y0135699D01*
X0251354Y0135699D01*
X0251538Y0135884D01*
X0255641Y0135884D01*
X0255950Y0135662D01*
X0261417Y0130272D01*
X0261923Y0129774D01*
X0262393Y0129304D01*
X0262138Y0129048D01*
X0262138Y0129474D01*
X0260802Y0130810D01*
X0258914Y0130810D01*
X0257579Y0129474D01*
X0257579Y0127586D01*
X0258914Y0126251D01*
X0259340Y0126251D01*
X0255644Y0122555D01*
X0252691Y0119602D01*
X0250610Y0119602D01*
X0251508Y0120499D01*
X0251508Y0122388D01*
X0250173Y0123723D01*
X0248284Y0123723D01*
X0246949Y0122388D01*
X0246949Y0120499D01*
X0247846Y0119602D01*
X0238545Y0119602D01*
X0238044Y0119769D01*
X0237710Y0119602D01*
X0237337Y0119602D01*
X0236964Y0119229D01*
X0236135Y0118814D01*
X0230925Y0118814D01*
X0231035Y0118925D01*
X0231035Y0120813D01*
X0229700Y0122148D01*
X0227812Y0122148D01*
X0226476Y0120813D01*
X0226476Y0118925D01*
X0226587Y0118814D01*
X0221356Y0118814D01*
X0207623Y0132548D01*
X0207623Y0141181D01*
X0207807Y0141365D01*
X0207807Y0143254D01*
X0206472Y0144589D01*
X0206211Y0144589D01*
X0197387Y0153414D01*
X0197387Y0154173D01*
X0197571Y0154358D01*
X0197571Y0156246D01*
X0197387Y0156430D01*
X0197387Y0175040D01*
X0197571Y0175224D01*
X0197571Y0177112D01*
X0196236Y0178447D01*
X0194347Y0178447D01*
X0193012Y0177112D01*
X0193012Y0175224D01*
X0193196Y0175040D01*
X0193196Y0156430D01*
X0193012Y0156246D01*
X0193012Y0154358D01*
X0193196Y0154173D01*
X0193196Y0151678D01*
X0203248Y0141626D01*
X0203248Y0141365D01*
X0203432Y0141181D01*
X0203432Y0137392D01*
X0202928Y0137896D01*
X0201040Y0137896D01*
X0200856Y0137712D01*
X0188679Y0137712D01*
X0168600Y0157791D01*
X0166268Y0157791D01*
X0166097Y0157962D01*
X0165114Y0158369D01*
X0164051Y0158369D01*
X0163068Y0157962D01*
X0162316Y0157210D01*
X0161909Y0156227D01*
X0161909Y0155164D01*
X0162316Y0154181D01*
X0163068Y0153429D01*
X0164051Y0153022D01*
X0165114Y0153022D01*
X0166097Y0153429D01*
X0166268Y0153600D01*
X0166864Y0153600D01*
X0185322Y0135143D01*
X0185322Y0126481D01*
X0190046Y0121757D01*
X0191274Y0120529D01*
X0199118Y0120529D01*
X0199289Y0120358D01*
X0200271Y0119951D01*
X0201335Y0119951D01*
X0202317Y0120358D01*
X0203069Y0121110D01*
X0203476Y0122093D01*
X0203476Y0123156D01*
X0203069Y0124139D01*
X0202317Y0124891D01*
X0201335Y0125298D01*
X0200271Y0125298D01*
X0199289Y0124891D01*
X0199118Y0124720D01*
X0193010Y0124720D01*
X0189513Y0128217D01*
X0189513Y0133522D01*
X0200856Y0133522D01*
X0201040Y0133337D01*
X0202928Y0133337D01*
X0203432Y0133841D01*
X0203432Y0130812D01*
X0219620Y0114624D01*
X0227627Y0114624D01*
X0227812Y0114440D01*
X0229700Y0114440D01*
X0229884Y0114624D01*
X0236290Y0114624D01*
X0236713Y0114483D01*
X0236713Y0113413D01*
X0237610Y0112515D01*
X0225160Y0112515D01*
X0224976Y0112699D01*
X0223087Y0112699D01*
X0221752Y0111364D01*
X0221752Y0109476D01*
X0223087Y0108140D01*
X0224976Y0108140D01*
X0225160Y0108325D01*
X0245558Y0108325D01*
X0245558Y0107865D01*
X0245448Y0107975D01*
X0243560Y0107975D01*
X0242224Y0106640D01*
X0242224Y0104751D01*
X0243560Y0103416D01*
X0245448Y0103416D01*
X0245632Y0103600D01*
X0247340Y0103600D01*
X0248168Y0104428D02*
X0276233Y0104428D01*
X0278051Y0105017D02*
X0248757Y0105017D01*
X0249346Y0105606D02*
X0278199Y0105606D01*
X0278788Y0106195D02*
X0249749Y0106195D01*
X0249749Y0106784D02*
X0279377Y0106784D01*
X0281285Y0106784D02*
X0323505Y0106784D01*
X0323505Y0106195D02*
X0281874Y0106195D01*
X0282463Y0105606D02*
X0323505Y0105606D01*
X0323505Y0105017D02*
X0282610Y0105017D01*
X0282610Y0104428D02*
X0323505Y0104428D01*
X0323505Y0103839D02*
X0282610Y0103839D01*
X0282290Y0103250D02*
X0323505Y0103250D01*
X0323505Y0102661D02*
X0281701Y0102661D01*
X0279854Y0102072D02*
X0323505Y0102072D01*
X0323505Y0101483D02*
X0279735Y0101483D01*
X0279146Y0100894D02*
X0323505Y0100894D01*
X0323505Y0100305D02*
X0278557Y0100305D01*
X0277098Y0099716D02*
X0323505Y0099716D01*
X0323505Y0099127D02*
X0276592Y0099127D01*
X0276003Y0098537D02*
X0323505Y0098537D01*
X0323505Y0097948D02*
X0197965Y0097948D01*
X0197965Y0098537D02*
X0273635Y0098537D01*
X0273046Y0099127D02*
X0197965Y0099127D01*
X0197802Y0099716D02*
X0272539Y0099716D01*
X0272539Y0100305D02*
X0197213Y0100305D01*
X0197659Y0097359D02*
X0323505Y0097359D01*
X0323505Y0096770D02*
X0197070Y0096770D01*
X0194300Y0096770D02*
X0192739Y0096770D01*
X0193328Y0097359D02*
X0193711Y0097359D01*
X0193568Y0099716D02*
X0193471Y0099716D01*
X0192882Y0100305D02*
X0194157Y0100305D01*
X0193121Y0101483D02*
X0272539Y0101483D01*
X0272539Y0100894D02*
X0192532Y0100894D01*
X0193634Y0102072D02*
X0273090Y0102072D01*
X0273679Y0102661D02*
X0193634Y0102661D01*
X0193406Y0105606D02*
X0054173Y0105606D01*
X0054173Y0105017D02*
X0093485Y0105017D01*
X0092606Y0104428D02*
X0054173Y0104428D01*
X0054173Y0103839D02*
X0092146Y0103839D01*
X0091902Y0103250D02*
X0054173Y0103250D01*
X0054173Y0102661D02*
X0091831Y0102661D01*
X0091831Y0102072D02*
X0054173Y0102072D01*
X0054173Y0101483D02*
X0092009Y0101483D01*
X0092009Y0100894D02*
X0054173Y0100894D01*
X0054173Y0100305D02*
X0092009Y0100305D01*
X0092009Y0099716D02*
X0054173Y0099716D01*
X0054173Y0099127D02*
X0092009Y0099127D01*
X0091907Y0098537D02*
X0054173Y0098537D01*
X0054173Y0097948D02*
X0091831Y0097948D01*
X0091831Y0097359D02*
X0054173Y0097359D01*
X0054173Y0096770D02*
X0092046Y0096770D01*
X0092364Y0096181D02*
X0054173Y0096181D01*
X0054173Y0095592D02*
X0092953Y0095592D01*
X0093794Y0095003D02*
X0054173Y0095003D01*
X0054173Y0094414D02*
X0094383Y0094414D01*
X0094972Y0093825D02*
X0054173Y0093825D01*
X0054173Y0093236D02*
X0095561Y0093236D01*
X0096150Y0092647D02*
X0054173Y0092647D01*
X0054173Y0092058D02*
X0096739Y0092058D01*
X0097328Y0091469D02*
X0054173Y0091469D01*
X0054173Y0090880D02*
X0098061Y0090880D01*
X0112851Y0114833D02*
X0114272Y0114833D01*
X0114272Y0114594D01*
X0115607Y0113259D01*
X0117495Y0113259D01*
X0118831Y0114594D01*
X0118831Y0114833D01*
X0119783Y0114833D01*
X0119783Y0114594D01*
X0121119Y0113259D01*
X0123007Y0113259D01*
X0124343Y0114594D01*
X0124343Y0114833D01*
X0125295Y0114833D01*
X0125295Y0114594D01*
X0126631Y0113259D01*
X0128519Y0113259D01*
X0129854Y0114594D01*
X0129854Y0114833D01*
X0131201Y0114833D01*
X0131201Y0114594D01*
X0132536Y0113259D01*
X0134425Y0113259D01*
X0135760Y0114594D01*
X0135760Y0116482D01*
X0134425Y0117818D01*
X0132610Y0117818D01*
X0132610Y0118057D01*
X0131275Y0119392D01*
X0129386Y0119392D01*
X0128051Y0118057D01*
X0128051Y0117818D01*
X0127098Y0117818D01*
X0127098Y0118057D01*
X0125763Y0119392D01*
X0123875Y0119392D01*
X0122539Y0118057D01*
X0122539Y0117818D01*
X0121587Y0117818D01*
X0121587Y0118057D01*
X0120251Y0119392D01*
X0118363Y0119392D01*
X0117028Y0118057D01*
X0117028Y0117818D01*
X0116075Y0117818D01*
X0116075Y0118057D01*
X0114739Y0119392D01*
X0112851Y0119392D01*
X0111516Y0118057D01*
X0111516Y0116169D01*
X0112851Y0114833D01*
X0112653Y0115031D02*
X0054173Y0115031D01*
X0054173Y0114442D02*
X0114423Y0114442D01*
X0115012Y0113853D02*
X0054173Y0113853D01*
X0054173Y0113264D02*
X0115601Y0113264D01*
X0117501Y0113264D02*
X0121113Y0113264D01*
X0120524Y0113853D02*
X0118090Y0113853D01*
X0118679Y0114442D02*
X0119935Y0114442D01*
X0123013Y0113264D02*
X0126625Y0113264D01*
X0126036Y0113853D02*
X0123602Y0113853D01*
X0124191Y0114442D02*
X0125447Y0114442D01*
X0128525Y0113264D02*
X0132531Y0113264D01*
X0131942Y0113853D02*
X0129114Y0113853D01*
X0129703Y0114442D02*
X0131352Y0114442D01*
X0134430Y0113264D02*
X0197885Y0113264D01*
X0198284Y0112865D02*
X0200173Y0112865D01*
X0201508Y0114200D01*
X0201508Y0116089D01*
X0200173Y0117424D01*
X0198284Y0117424D01*
X0196949Y0116089D01*
X0196949Y0114200D01*
X0198284Y0112865D01*
X0197296Y0113853D02*
X0135019Y0113853D01*
X0135608Y0114442D02*
X0196949Y0114442D01*
X0196949Y0115031D02*
X0135760Y0115031D01*
X0135760Y0115620D02*
X0196949Y0115620D01*
X0197070Y0116209D02*
X0135760Y0116209D01*
X0135444Y0116798D02*
X0197659Y0116798D01*
X0198248Y0117387D02*
X0134855Y0117387D01*
X0132610Y0117977D02*
X0216268Y0117977D01*
X0215679Y0118566D02*
X0168865Y0118566D01*
X0168676Y0118377D02*
X0170012Y0119712D01*
X0170012Y0121600D01*
X0168676Y0122936D01*
X0166788Y0122936D01*
X0165453Y0121600D01*
X0165453Y0119712D01*
X0166788Y0118377D01*
X0168676Y0118377D01*
X0169455Y0119155D02*
X0215090Y0119155D01*
X0214500Y0119744D02*
X0170012Y0119744D01*
X0170012Y0120333D02*
X0199351Y0120333D01*
X0202255Y0120333D02*
X0213911Y0120333D01*
X0213322Y0120922D02*
X0202881Y0120922D01*
X0203235Y0121511D02*
X0212733Y0121511D01*
X0212144Y0122100D02*
X0203476Y0122100D01*
X0203476Y0122689D02*
X0211555Y0122689D01*
X0210966Y0123278D02*
X0203426Y0123278D01*
X0203182Y0123867D02*
X0210377Y0123867D01*
X0209788Y0124456D02*
X0202752Y0124456D01*
X0201945Y0125045D02*
X0209199Y0125045D01*
X0208610Y0125634D02*
X0192095Y0125634D01*
X0192684Y0125045D02*
X0199662Y0125045D01*
X0205665Y0128580D02*
X0189513Y0128580D01*
X0189513Y0129169D02*
X0205075Y0129169D01*
X0204486Y0129758D02*
X0189513Y0129758D01*
X0189513Y0130347D02*
X0203897Y0130347D01*
X0203432Y0130936D02*
X0189513Y0130936D01*
X0189513Y0131525D02*
X0203432Y0131525D01*
X0203432Y0132114D02*
X0189513Y0132114D01*
X0189513Y0132703D02*
X0203432Y0132703D01*
X0203432Y0133292D02*
X0189513Y0133292D01*
X0185322Y0133292D02*
X0121466Y0133292D01*
X0121334Y0133160D02*
X0122669Y0134495D01*
X0122669Y0136384D01*
X0121334Y0137719D01*
X0119987Y0137719D01*
X0120701Y0138432D01*
X0120701Y0140321D01*
X0120464Y0140558D01*
X0121094Y0141188D01*
X0121094Y0142215D01*
X0121728Y0142215D01*
X0123063Y0143551D01*
X0123063Y0145439D01*
X0121728Y0146774D01*
X0119839Y0146774D01*
X0118504Y0145439D01*
X0118504Y0144412D01*
X0117871Y0144412D01*
X0116535Y0143077D01*
X0116535Y0141188D01*
X0116772Y0140951D01*
X0116142Y0140321D01*
X0116142Y0138432D01*
X0117477Y0137097D01*
X0118824Y0137097D01*
X0118110Y0136384D01*
X0118110Y0134495D01*
X0119446Y0133160D01*
X0121334Y0133160D01*
X0122055Y0133881D02*
X0185322Y0133881D01*
X0185322Y0134470D02*
X0122644Y0134470D01*
X0122669Y0135059D02*
X0185322Y0135059D01*
X0184816Y0135648D02*
X0122669Y0135648D01*
X0122669Y0136237D02*
X0184227Y0136237D01*
X0183638Y0136827D02*
X0122227Y0136827D01*
X0121638Y0137416D02*
X0183049Y0137416D01*
X0182460Y0138005D02*
X0120273Y0138005D01*
X0120701Y0138594D02*
X0181871Y0138594D01*
X0181282Y0139183D02*
X0120701Y0139183D01*
X0120701Y0139772D02*
X0180693Y0139772D01*
X0180104Y0140361D02*
X0120661Y0140361D01*
X0120856Y0140950D02*
X0179515Y0140950D01*
X0178926Y0141539D02*
X0121094Y0141539D01*
X0121094Y0142128D02*
X0178337Y0142128D01*
X0177747Y0142717D02*
X0126954Y0142717D01*
X0126452Y0142215D02*
X0127787Y0143551D01*
X0127787Y0145439D01*
X0126452Y0146774D01*
X0124564Y0146774D01*
X0123228Y0145439D01*
X0123228Y0143551D01*
X0124564Y0142215D01*
X0126452Y0142215D01*
X0127543Y0143306D02*
X0177158Y0143306D01*
X0176569Y0143895D02*
X0127787Y0143895D01*
X0127787Y0144484D02*
X0175980Y0144484D01*
X0175391Y0145073D02*
X0127787Y0145073D01*
X0127564Y0145662D02*
X0174802Y0145662D01*
X0174213Y0146252D02*
X0126975Y0146252D01*
X0124041Y0146252D02*
X0122250Y0146252D01*
X0122839Y0145662D02*
X0123452Y0145662D01*
X0123228Y0145073D02*
X0123063Y0145073D01*
X0123063Y0144484D02*
X0123228Y0144484D01*
X0123228Y0143895D02*
X0123063Y0143895D01*
X0122819Y0143306D02*
X0123473Y0143306D01*
X0124062Y0142717D02*
X0122230Y0142717D01*
X0118504Y0144484D02*
X0104953Y0144484D01*
X0104953Y0143895D02*
X0117354Y0143895D01*
X0116765Y0143306D02*
X0104708Y0143306D01*
X0104953Y0143551D02*
X0103617Y0142215D01*
X0101729Y0142215D01*
X0100394Y0143551D01*
X0100394Y0145439D01*
X0101729Y0146774D01*
X0103617Y0146774D01*
X0104953Y0145439D01*
X0104953Y0143551D01*
X0104119Y0142717D02*
X0116535Y0142717D01*
X0116535Y0142128D02*
X0110232Y0142128D01*
X0109917Y0142444D02*
X0108028Y0142444D01*
X0106693Y0141108D01*
X0106693Y0139220D01*
X0107717Y0138196D01*
X0107087Y0137565D01*
X0107087Y0135677D01*
X0108422Y0134341D01*
X0110310Y0134341D01*
X0111646Y0135677D01*
X0111646Y0137565D01*
X0110621Y0138589D01*
X0111252Y0139220D01*
X0111252Y0141108D01*
X0109917Y0142444D01*
X0110821Y0141539D02*
X0116535Y0141539D01*
X0116771Y0140950D02*
X0111252Y0140950D01*
X0111252Y0140361D02*
X0116182Y0140361D01*
X0116142Y0139772D02*
X0111252Y0139772D01*
X0111215Y0139183D02*
X0116142Y0139183D01*
X0116142Y0138594D02*
X0110626Y0138594D01*
X0111206Y0138005D02*
X0116570Y0138005D01*
X0117159Y0137416D02*
X0111646Y0137416D01*
X0111646Y0136827D02*
X0118553Y0136827D01*
X0118110Y0136237D02*
X0111646Y0136237D01*
X0111618Y0135648D02*
X0118110Y0135648D01*
X0118110Y0135059D02*
X0111028Y0135059D01*
X0110439Y0134470D02*
X0118135Y0134470D01*
X0118724Y0133881D02*
X0054173Y0133881D01*
X0054173Y0133292D02*
X0119313Y0133292D01*
X0123383Y0127483D02*
X0122047Y0126148D01*
X0122047Y0124259D01*
X0123383Y0122924D01*
X0125271Y0122924D01*
X0126606Y0124259D01*
X0126606Y0126148D01*
X0125271Y0127483D01*
X0123383Y0127483D01*
X0123301Y0127402D02*
X0110392Y0127402D01*
X0110858Y0126935D02*
X0109523Y0128270D01*
X0107635Y0128270D01*
X0106299Y0126935D01*
X0106299Y0125047D01*
X0107635Y0123711D01*
X0109523Y0123711D01*
X0110858Y0125047D01*
X0110858Y0126935D01*
X0110858Y0126812D02*
X0122712Y0126812D01*
X0122123Y0126223D02*
X0110858Y0126223D01*
X0110858Y0125634D02*
X0122047Y0125634D01*
X0122047Y0125045D02*
X0110857Y0125045D01*
X0110268Y0124456D02*
X0122047Y0124456D01*
X0122439Y0123867D02*
X0109679Y0123867D01*
X0107479Y0123867D02*
X0054173Y0123867D01*
X0054173Y0123278D02*
X0123028Y0123278D01*
X0125625Y0123278D02*
X0188525Y0123278D01*
X0187936Y0123867D02*
X0164521Y0123867D01*
X0164346Y0123692D02*
X0165681Y0125027D01*
X0165681Y0126915D01*
X0164346Y0128251D01*
X0163319Y0128251D01*
X0163319Y0129474D01*
X0161984Y0130810D01*
X0160095Y0130810D01*
X0158760Y0129474D01*
X0158760Y0127586D01*
X0160095Y0126251D01*
X0161122Y0126251D01*
X0161122Y0125027D01*
X0162457Y0123692D01*
X0164346Y0123692D01*
X0165110Y0124456D02*
X0168583Y0124456D01*
X0169150Y0123888D02*
X0171039Y0123888D01*
X0172374Y0125224D01*
X0172374Y0127112D01*
X0171039Y0128447D01*
X0169150Y0128447D01*
X0167815Y0127112D01*
X0167815Y0125224D01*
X0169150Y0123888D01*
X0168923Y0122689D02*
X0189114Y0122689D01*
X0189703Y0122100D02*
X0169512Y0122100D01*
X0170012Y0121511D02*
X0190292Y0121511D01*
X0190046Y0121757D02*
X0190046Y0121757D01*
X0190881Y0120922D02*
X0170012Y0120922D01*
X0171606Y0124456D02*
X0187347Y0124456D01*
X0186758Y0125045D02*
X0172196Y0125045D01*
X0172374Y0125634D02*
X0186169Y0125634D01*
X0185580Y0126223D02*
X0172374Y0126223D01*
X0172374Y0126812D02*
X0185322Y0126812D01*
X0185322Y0127402D02*
X0172085Y0127402D01*
X0171496Y0127991D02*
X0185322Y0127991D01*
X0185322Y0128580D02*
X0163319Y0128580D01*
X0163319Y0129169D02*
X0185322Y0129169D01*
X0185322Y0129758D02*
X0163035Y0129758D01*
X0162446Y0130347D02*
X0185322Y0130347D01*
X0185322Y0130936D02*
X0054173Y0130936D01*
X0054173Y0131525D02*
X0185322Y0131525D01*
X0185322Y0132114D02*
X0054173Y0132114D01*
X0054173Y0132703D02*
X0185322Y0132703D01*
X0188386Y0138005D02*
X0203432Y0138005D01*
X0203432Y0138594D02*
X0187797Y0138594D01*
X0187208Y0139183D02*
X0203432Y0139183D01*
X0203432Y0139772D02*
X0186619Y0139772D01*
X0186030Y0140361D02*
X0203432Y0140361D01*
X0203432Y0140950D02*
X0185441Y0140950D01*
X0184852Y0141539D02*
X0203248Y0141539D01*
X0202746Y0142128D02*
X0184263Y0142128D01*
X0183674Y0142717D02*
X0202157Y0142717D01*
X0201568Y0143306D02*
X0183085Y0143306D01*
X0182496Y0143895D02*
X0200979Y0143895D01*
X0200390Y0144484D02*
X0181907Y0144484D01*
X0181318Y0145073D02*
X0199801Y0145073D01*
X0199212Y0145662D02*
X0180729Y0145662D01*
X0180139Y0146252D02*
X0198623Y0146252D01*
X0198034Y0146841D02*
X0179550Y0146841D01*
X0178961Y0147430D02*
X0197444Y0147430D01*
X0196855Y0148019D02*
X0178372Y0148019D01*
X0177783Y0148608D02*
X0196266Y0148608D01*
X0195677Y0149197D02*
X0177194Y0149197D01*
X0176605Y0149786D02*
X0195088Y0149786D01*
X0194499Y0150375D02*
X0176016Y0150375D01*
X0175427Y0150964D02*
X0193910Y0150964D01*
X0193321Y0151553D02*
X0174838Y0151553D01*
X0174249Y0152142D02*
X0193196Y0152142D01*
X0193196Y0152731D02*
X0173660Y0152731D01*
X0173071Y0153320D02*
X0193196Y0153320D01*
X0193196Y0153909D02*
X0172482Y0153909D01*
X0171893Y0154498D02*
X0193012Y0154498D01*
X0193012Y0155087D02*
X0171304Y0155087D01*
X0170714Y0155677D02*
X0193012Y0155677D01*
X0193031Y0156266D02*
X0170125Y0156266D01*
X0169536Y0156855D02*
X0193196Y0156855D01*
X0193196Y0157444D02*
X0168947Y0157444D01*
X0169240Y0158487D02*
X0170949Y0158487D01*
X0172528Y0159141D01*
X0173736Y0160349D01*
X0174390Y0161928D01*
X0174390Y0163637D01*
X0173736Y0165215D01*
X0172528Y0166423D01*
X0170949Y0167077D01*
X0169240Y0167077D01*
X0167661Y0166423D01*
X0166453Y0165215D01*
X0165799Y0163637D01*
X0165799Y0161928D01*
X0166453Y0160349D01*
X0167661Y0159141D01*
X0169240Y0158487D01*
X0168914Y0158622D02*
X0119618Y0158622D01*
X0119618Y0158295D02*
X0118283Y0156959D01*
X0116394Y0156959D01*
X0115059Y0158295D01*
X0115059Y0160183D01*
X0116394Y0161518D01*
X0118283Y0161518D01*
X0119618Y0160183D01*
X0119618Y0158295D01*
X0119356Y0158033D02*
X0163240Y0158033D01*
X0162550Y0157444D02*
X0118767Y0157444D01*
X0119618Y0159211D02*
X0167591Y0159211D01*
X0167002Y0159800D02*
X0150651Y0159800D01*
X0150566Y0159715D02*
X0151902Y0161051D01*
X0151902Y0162939D01*
X0150566Y0164274D01*
X0148678Y0164274D01*
X0147343Y0162939D01*
X0147343Y0161051D01*
X0148678Y0159715D01*
X0150566Y0159715D01*
X0151240Y0160389D02*
X0166437Y0160389D01*
X0166193Y0160978D02*
X0151829Y0160978D01*
X0151902Y0161567D02*
X0165949Y0161567D01*
X0165799Y0162156D02*
X0151902Y0162156D01*
X0151902Y0162745D02*
X0165799Y0162745D01*
X0165799Y0163334D02*
X0151506Y0163334D01*
X0150917Y0163923D02*
X0165918Y0163923D01*
X0166162Y0164512D02*
X0129854Y0164512D01*
X0129854Y0164907D02*
X0128519Y0166243D01*
X0126631Y0166243D01*
X0125295Y0164907D01*
X0125295Y0163019D01*
X0126631Y0161684D01*
X0128519Y0161684D01*
X0129854Y0163019D01*
X0129854Y0164907D01*
X0129660Y0165102D02*
X0166406Y0165102D01*
X0166928Y0165691D02*
X0129071Y0165691D01*
X0129854Y0163923D02*
X0148327Y0163923D01*
X0147738Y0163334D02*
X0129854Y0163334D01*
X0129581Y0162745D02*
X0147343Y0162745D01*
X0147343Y0162156D02*
X0128991Y0162156D01*
X0126158Y0162156D02*
X0113013Y0162156D01*
X0113306Y0162449D02*
X0113713Y0163432D01*
X0113713Y0164495D01*
X0113306Y0165478D01*
X0112554Y0166229D01*
X0111571Y0166636D01*
X0110508Y0166636D01*
X0109525Y0166229D01*
X0109071Y0165775D01*
X0108617Y0166229D01*
X0107634Y0166636D01*
X0106571Y0166636D01*
X0105588Y0166229D01*
X0104836Y0165478D01*
X0104429Y0164495D01*
X0104429Y0163432D01*
X0104836Y0162449D01*
X0105588Y0161697D01*
X0106571Y0161290D01*
X0107634Y0161290D01*
X0108617Y0161697D01*
X0109071Y0162151D01*
X0109525Y0161697D01*
X0110508Y0161290D01*
X0111571Y0161290D01*
X0112554Y0161697D01*
X0113306Y0162449D01*
X0113428Y0162745D02*
X0125569Y0162745D01*
X0125295Y0163334D02*
X0113672Y0163334D01*
X0113713Y0163923D02*
X0125295Y0163923D01*
X0125295Y0164512D02*
X0113705Y0164512D01*
X0113461Y0165102D02*
X0125489Y0165102D01*
X0126078Y0165691D02*
X0113093Y0165691D01*
X0112433Y0166280D02*
X0167518Y0166280D01*
X0168736Y0166869D02*
X0054173Y0166869D01*
X0054173Y0167458D02*
X0193196Y0167458D01*
X0193196Y0168047D02*
X0054173Y0168047D01*
X0054173Y0168636D02*
X0168880Y0168636D01*
X0169240Y0168487D02*
X0170949Y0168487D01*
X0172528Y0169141D01*
X0173736Y0170349D01*
X0174390Y0171928D01*
X0174390Y0173637D01*
X0173736Y0175215D01*
X0172528Y0176423D01*
X0170949Y0177077D01*
X0169240Y0177077D01*
X0167661Y0176423D01*
X0166453Y0175215D01*
X0165799Y0173637D01*
X0165799Y0171928D01*
X0166453Y0170349D01*
X0167661Y0169141D01*
X0169240Y0168487D01*
X0167577Y0169225D02*
X0054173Y0169225D01*
X0054173Y0169814D02*
X0166988Y0169814D01*
X0166431Y0170403D02*
X0054173Y0170403D01*
X0054173Y0170992D02*
X0166187Y0170992D01*
X0165943Y0171581D02*
X0054173Y0171581D01*
X0054173Y0172170D02*
X0165799Y0172170D01*
X0165799Y0172759D02*
X0054173Y0172759D01*
X0054173Y0173348D02*
X0165799Y0173348D01*
X0165924Y0173937D02*
X0054173Y0173937D01*
X0054173Y0174527D02*
X0166168Y0174527D01*
X0166412Y0175116D02*
X0054173Y0175116D01*
X0054173Y0175705D02*
X0096933Y0175705D01*
X0096533Y0175870D02*
X0097516Y0175463D01*
X0098579Y0175463D01*
X0099562Y0175870D01*
X0100016Y0176324D01*
X0100470Y0175870D01*
X0101453Y0175463D01*
X0102516Y0175463D01*
X0103499Y0175870D01*
X0104250Y0176622D01*
X0104657Y0177605D01*
X0104657Y0178668D01*
X0104250Y0179651D01*
X0103499Y0180403D01*
X0102516Y0180810D01*
X0101453Y0180810D01*
X0100470Y0180403D01*
X0100016Y0179948D01*
X0099562Y0180403D01*
X0098579Y0180810D01*
X0097516Y0180810D01*
X0096533Y0180403D01*
X0095781Y0179651D01*
X0095374Y0178668D01*
X0095374Y0177605D01*
X0095781Y0176622D01*
X0096533Y0175870D01*
X0096109Y0176294D02*
X0054173Y0176294D01*
X0054173Y0176883D02*
X0095673Y0176883D01*
X0095429Y0177472D02*
X0054173Y0177472D01*
X0054173Y0178061D02*
X0095374Y0178061D01*
X0095374Y0178650D02*
X0054173Y0178650D01*
X0054173Y0179239D02*
X0095610Y0179239D01*
X0095958Y0179828D02*
X0054173Y0179828D01*
X0054173Y0180417D02*
X0096568Y0180417D01*
X0099527Y0180417D02*
X0100505Y0180417D01*
X0103464Y0180417D02*
X0121371Y0180417D01*
X0121336Y0180403D02*
X0120584Y0179651D01*
X0120177Y0178668D01*
X0120177Y0177605D01*
X0120584Y0176622D01*
X0121336Y0175870D01*
X0122319Y0175463D01*
X0123382Y0175463D01*
X0124365Y0175870D01*
X0124819Y0176324D01*
X0125273Y0175870D01*
X0126256Y0175463D01*
X0127319Y0175463D01*
X0128302Y0175870D01*
X0129054Y0176622D01*
X0129461Y0177605D01*
X0129461Y0178668D01*
X0129054Y0179651D01*
X0128302Y0180403D01*
X0127319Y0180810D01*
X0126256Y0180810D01*
X0125273Y0180403D01*
X0124819Y0179948D01*
X0124365Y0180403D01*
X0123382Y0180810D01*
X0122319Y0180810D01*
X0121336Y0180403D01*
X0120761Y0179828D02*
X0104073Y0179828D01*
X0104421Y0179239D02*
X0120414Y0179239D01*
X0120177Y0178650D02*
X0104657Y0178650D01*
X0104657Y0178061D02*
X0120177Y0178061D01*
X0120232Y0177472D02*
X0104602Y0177472D01*
X0104358Y0176883D02*
X0120476Y0176883D01*
X0120913Y0176294D02*
X0103922Y0176294D01*
X0103099Y0175705D02*
X0121736Y0175705D01*
X0123965Y0175705D02*
X0125673Y0175705D01*
X0124850Y0176294D02*
X0124788Y0176294D01*
X0127902Y0175705D02*
X0139059Y0175705D01*
X0138659Y0175870D02*
X0139641Y0175463D01*
X0140705Y0175463D01*
X0141687Y0175870D01*
X0142142Y0176324D01*
X0142596Y0175870D01*
X0143578Y0175463D01*
X0144642Y0175463D01*
X0145624Y0175870D01*
X0146376Y0176622D01*
X0146783Y0177605D01*
X0146783Y0178668D01*
X0146376Y0179651D01*
X0145624Y0180403D01*
X0144642Y0180810D01*
X0143578Y0180810D01*
X0142596Y0180403D01*
X0142142Y0179948D01*
X0141687Y0180403D01*
X0140705Y0180810D01*
X0139641Y0180810D01*
X0138659Y0180403D01*
X0137907Y0179651D01*
X0137500Y0178668D01*
X0137500Y0177605D01*
X0137907Y0176622D01*
X0138659Y0175870D01*
X0138235Y0176294D02*
X0128725Y0176294D01*
X0129162Y0176883D02*
X0137799Y0176883D01*
X0137555Y0177472D02*
X0129406Y0177472D01*
X0129461Y0178061D02*
X0137500Y0178061D01*
X0137500Y0178650D02*
X0129461Y0178650D01*
X0129224Y0179239D02*
X0137736Y0179239D01*
X0138084Y0179828D02*
X0128876Y0179828D01*
X0128267Y0180417D02*
X0138694Y0180417D01*
X0141653Y0180417D02*
X0142631Y0180417D01*
X0145590Y0180417D02*
X0328851Y0180417D01*
X0328816Y0180403D02*
X0328064Y0179651D01*
X0327657Y0178668D01*
X0327657Y0177605D01*
X0328064Y0176622D01*
X0328816Y0175870D01*
X0329799Y0175463D01*
X0330862Y0175463D01*
X0331845Y0175870D01*
X0332299Y0176324D01*
X0332753Y0175870D01*
X0333736Y0175463D01*
X0334799Y0175463D01*
X0335782Y0175870D01*
X0336534Y0176622D01*
X0336941Y0177605D01*
X0336941Y0178668D01*
X0336534Y0179651D01*
X0335782Y0180403D01*
X0334799Y0180810D01*
X0333736Y0180810D01*
X0332753Y0180403D01*
X0332299Y0179948D01*
X0331845Y0180403D01*
X0330862Y0180810D01*
X0329799Y0180810D01*
X0328816Y0180403D01*
X0328242Y0179828D02*
X0146199Y0179828D01*
X0146547Y0179239D02*
X0327894Y0179239D01*
X0327657Y0178650D02*
X0146783Y0178650D01*
X0146783Y0178061D02*
X0193961Y0178061D01*
X0193371Y0177472D02*
X0146728Y0177472D01*
X0146484Y0176883D02*
X0168770Y0176883D01*
X0167532Y0176294D02*
X0146048Y0176294D01*
X0145225Y0175705D02*
X0166943Y0175705D01*
X0171419Y0176883D02*
X0193012Y0176883D01*
X0193012Y0176294D02*
X0172657Y0176294D01*
X0173246Y0175705D02*
X0193012Y0175705D01*
X0193120Y0175116D02*
X0173777Y0175116D01*
X0174021Y0174527D02*
X0193196Y0174527D01*
X0193196Y0173937D02*
X0174265Y0173937D01*
X0174390Y0173348D02*
X0193196Y0173348D01*
X0193196Y0172759D02*
X0174390Y0172759D01*
X0174390Y0172170D02*
X0193196Y0172170D01*
X0193196Y0171581D02*
X0174246Y0171581D01*
X0174002Y0170992D02*
X0193196Y0170992D01*
X0193196Y0170403D02*
X0173758Y0170403D01*
X0173201Y0169814D02*
X0193196Y0169814D01*
X0193196Y0169225D02*
X0172612Y0169225D01*
X0171309Y0168636D02*
X0193196Y0168636D01*
X0193196Y0166869D02*
X0171453Y0166869D01*
X0172671Y0166280D02*
X0193196Y0166280D01*
X0193196Y0165691D02*
X0173260Y0165691D01*
X0173783Y0165102D02*
X0193196Y0165102D01*
X0193196Y0164512D02*
X0174027Y0164512D01*
X0174271Y0163923D02*
X0193196Y0163923D01*
X0193196Y0163334D02*
X0174390Y0163334D01*
X0174390Y0162745D02*
X0193196Y0162745D01*
X0193196Y0162156D02*
X0174390Y0162156D01*
X0174240Y0161567D02*
X0193196Y0161567D01*
X0193196Y0160978D02*
X0173996Y0160978D01*
X0173752Y0160389D02*
X0193196Y0160389D01*
X0193196Y0159800D02*
X0173187Y0159800D01*
X0172598Y0159211D02*
X0193196Y0159211D01*
X0193196Y0158622D02*
X0171275Y0158622D01*
X0165926Y0158033D02*
X0193196Y0158033D01*
X0197387Y0158033D02*
X0203066Y0158033D01*
X0202854Y0157821D02*
X0202854Y0155932D01*
X0204190Y0154597D01*
X0206078Y0154597D01*
X0207413Y0155932D01*
X0207413Y0157821D01*
X0206078Y0159156D01*
X0204190Y0159156D01*
X0202854Y0157821D01*
X0202854Y0157444D02*
X0197387Y0157444D01*
X0197387Y0156855D02*
X0202854Y0156855D01*
X0202854Y0156266D02*
X0197551Y0156266D01*
X0197571Y0155677D02*
X0203110Y0155677D01*
X0203699Y0155087D02*
X0197571Y0155087D01*
X0197571Y0154498D02*
X0258587Y0154498D01*
X0257998Y0153909D02*
X0197387Y0153909D01*
X0197480Y0153320D02*
X0224338Y0153320D01*
X0224662Y0153644D02*
X0223327Y0152309D01*
X0223327Y0150495D01*
X0221512Y0150495D01*
X0220882Y0149864D01*
X0220251Y0150495D01*
X0218363Y0150495D01*
X0217028Y0149159D01*
X0217028Y0147271D01*
X0218363Y0145936D01*
X0220251Y0145936D01*
X0220882Y0146566D01*
X0221512Y0145936D01*
X0223401Y0145936D01*
X0224031Y0146566D01*
X0224662Y0145936D01*
X0226551Y0145936D01*
X0227886Y0147271D01*
X0227886Y0149085D01*
X0229700Y0149085D01*
X0231035Y0150421D01*
X0231035Y0152309D01*
X0229700Y0153644D01*
X0227812Y0153644D01*
X0227181Y0153014D01*
X0226551Y0153644D01*
X0224662Y0153644D01*
X0223749Y0152731D02*
X0198069Y0152731D01*
X0198658Y0152142D02*
X0223327Y0152142D01*
X0223327Y0151553D02*
X0199247Y0151553D01*
X0199836Y0150964D02*
X0223327Y0150964D01*
X0221393Y0150375D02*
X0220371Y0150375D01*
X0218243Y0150375D02*
X0213678Y0150375D01*
X0213558Y0150495D02*
X0211670Y0150495D01*
X0210335Y0149159D01*
X0210335Y0147271D01*
X0211670Y0145936D01*
X0213558Y0145936D01*
X0214894Y0147271D01*
X0214894Y0149159D01*
X0213558Y0150495D01*
X0214267Y0149786D02*
X0217654Y0149786D01*
X0217065Y0149197D02*
X0214856Y0149197D01*
X0214894Y0148608D02*
X0217028Y0148608D01*
X0217028Y0148019D02*
X0214894Y0148019D01*
X0214894Y0147430D02*
X0217028Y0147430D01*
X0217458Y0146841D02*
X0214463Y0146841D01*
X0213874Y0146252D02*
X0218047Y0146252D01*
X0218363Y0144196D02*
X0217028Y0142860D01*
X0217028Y0141046D01*
X0215213Y0141046D01*
X0213878Y0139711D01*
X0213878Y0137822D01*
X0215213Y0136487D01*
X0217102Y0136487D01*
X0218437Y0137822D01*
X0218437Y0139636D01*
X0220251Y0139636D01*
X0221587Y0140972D01*
X0221587Y0142860D01*
X0220251Y0144196D01*
X0218363Y0144196D01*
X0218063Y0143895D02*
X0207166Y0143895D01*
X0207755Y0143306D02*
X0217474Y0143306D01*
X0217028Y0142717D02*
X0207807Y0142717D01*
X0207807Y0142128D02*
X0217028Y0142128D01*
X0217028Y0141539D02*
X0207807Y0141539D01*
X0207623Y0140950D02*
X0215117Y0140950D01*
X0214528Y0140361D02*
X0207623Y0140361D01*
X0207623Y0139772D02*
X0213939Y0139772D01*
X0213878Y0139183D02*
X0207623Y0139183D01*
X0207623Y0138594D02*
X0213878Y0138594D01*
X0213878Y0138005D02*
X0207623Y0138005D01*
X0207623Y0137416D02*
X0214285Y0137416D01*
X0214874Y0136827D02*
X0207623Y0136827D01*
X0207623Y0136237D02*
X0226476Y0136237D01*
X0226476Y0136561D02*
X0226476Y0134673D01*
X0227812Y0133337D01*
X0229700Y0133337D01*
X0231035Y0134673D01*
X0231035Y0136561D01*
X0229700Y0137896D01*
X0227812Y0137896D01*
X0226476Y0136561D01*
X0226742Y0136827D02*
X0217441Y0136827D01*
X0218030Y0137416D02*
X0227331Y0137416D01*
X0226476Y0135648D02*
X0207623Y0135648D01*
X0207623Y0135059D02*
X0226476Y0135059D01*
X0226679Y0134470D02*
X0207623Y0134470D01*
X0207623Y0133881D02*
X0227268Y0133881D01*
X0227812Y0131597D02*
X0227181Y0130966D01*
X0226551Y0131597D01*
X0224662Y0131597D01*
X0223327Y0130262D01*
X0223327Y0128447D01*
X0221587Y0128447D01*
X0221587Y0130262D01*
X0220251Y0131597D01*
X0218363Y0131597D01*
X0217028Y0130262D01*
X0217028Y0128373D01*
X0217658Y0127743D01*
X0217028Y0127112D01*
X0217028Y0125224D01*
X0218363Y0123888D01*
X0220251Y0123888D01*
X0220882Y0124519D01*
X0221512Y0123888D01*
X0223401Y0123888D01*
X0224736Y0125224D01*
X0224736Y0127038D01*
X0226476Y0127038D01*
X0226476Y0125224D01*
X0227812Y0123888D01*
X0229700Y0123888D01*
X0231035Y0125224D01*
X0231035Y0127112D01*
X0230405Y0127743D01*
X0231035Y0128373D01*
X0231035Y0130262D01*
X0229700Y0131597D01*
X0227812Y0131597D01*
X0227740Y0131525D02*
X0226623Y0131525D01*
X0224590Y0131525D02*
X0220323Y0131525D01*
X0220912Y0130936D02*
X0224001Y0130936D01*
X0223412Y0130347D02*
X0221502Y0130347D01*
X0221587Y0129758D02*
X0223327Y0129758D01*
X0223327Y0129169D02*
X0221587Y0129169D01*
X0221587Y0128580D02*
X0223327Y0128580D01*
X0224736Y0126812D02*
X0226476Y0126812D01*
X0226476Y0126223D02*
X0224736Y0126223D01*
X0224736Y0125634D02*
X0226476Y0125634D01*
X0226655Y0125045D02*
X0224558Y0125045D01*
X0223969Y0124456D02*
X0227244Y0124456D01*
X0227763Y0122100D02*
X0218071Y0122100D01*
X0218660Y0121511D02*
X0227174Y0121511D01*
X0226585Y0120922D02*
X0219249Y0120922D01*
X0219838Y0120333D02*
X0226476Y0120333D01*
X0226476Y0119744D02*
X0220427Y0119744D01*
X0221016Y0119155D02*
X0226476Y0119155D01*
X0229748Y0122100D02*
X0246949Y0122100D01*
X0246949Y0121511D02*
X0230337Y0121511D01*
X0230927Y0120922D02*
X0246949Y0120922D01*
X0247115Y0120333D02*
X0231035Y0120333D01*
X0231035Y0119744D02*
X0237994Y0119744D01*
X0238119Y0119744D02*
X0247704Y0119744D01*
X0247250Y0122689D02*
X0217481Y0122689D01*
X0216892Y0123278D02*
X0247839Y0123278D01*
X0250618Y0123278D02*
X0256367Y0123278D01*
X0255778Y0122689D02*
X0251207Y0122689D01*
X0251508Y0122100D02*
X0255189Y0122100D01*
X0255644Y0122555D02*
X0255644Y0122555D01*
X0254600Y0121511D02*
X0251508Y0121511D01*
X0251508Y0120922D02*
X0254011Y0120922D01*
X0253422Y0120333D02*
X0251341Y0120333D01*
X0250752Y0119744D02*
X0252833Y0119744D01*
X0255814Y0116798D02*
X0257501Y0116798D01*
X0257643Y0116940D02*
X0257185Y0116482D01*
X0257185Y0114594D01*
X0258520Y0113259D01*
X0260409Y0113259D01*
X0261744Y0114594D01*
X0261744Y0116482D01*
X0261154Y0117073D01*
X0261154Y0118206D01*
X0259188Y0120172D01*
X0266238Y0127222D01*
X0266244Y0127228D01*
X0266253Y0127229D01*
X0266635Y0127616D01*
X0268572Y0127616D01*
X0268757Y0127432D01*
X0270645Y0127432D01*
X0271980Y0128767D01*
X0271980Y0130655D01*
X0270645Y0131991D01*
X0268757Y0131991D01*
X0268572Y0131807D01*
X0266908Y0131807D01*
X0269390Y0134288D01*
X0269390Y0133885D01*
X0270725Y0132550D01*
X0270986Y0132550D01*
X0275086Y0128450D01*
X0275086Y0124400D01*
X0274188Y0125298D01*
X0272300Y0125298D01*
X0270965Y0123963D01*
X0270965Y0122074D01*
X0272300Y0120739D01*
X0272726Y0120739D01*
X0264502Y0112515D01*
X0246786Y0112515D01*
X0240374Y0112515D01*
X0241272Y0113413D01*
X0241272Y0115301D01*
X0241162Y0115411D01*
X0254427Y0115411D01*
X0255654Y0116639D01*
X0256799Y0117783D01*
X0257643Y0116940D01*
X0257195Y0117387D02*
X0256403Y0117387D01*
X0257185Y0116209D02*
X0255225Y0116209D01*
X0254636Y0115620D02*
X0257185Y0115620D01*
X0257185Y0115031D02*
X0241272Y0115031D01*
X0241272Y0114442D02*
X0257337Y0114442D01*
X0257926Y0113853D02*
X0241272Y0113853D01*
X0241123Y0113264D02*
X0258515Y0113264D01*
X0260414Y0113264D02*
X0265251Y0113264D01*
X0264662Y0112675D02*
X0240534Y0112675D01*
X0237450Y0112675D02*
X0225000Y0112675D01*
X0223063Y0112675D02*
X0054173Y0112675D01*
X0054173Y0112086D02*
X0222474Y0112086D01*
X0221885Y0111497D02*
X0209643Y0111497D01*
X0209228Y0111912D02*
X0210563Y0110577D01*
X0210563Y0108688D01*
X0209228Y0107353D01*
X0207339Y0107353D01*
X0206709Y0107984D01*
X0206078Y0107353D01*
X0204190Y0107353D01*
X0202854Y0108688D01*
X0202854Y0110577D01*
X0204190Y0111912D01*
X0206078Y0111912D01*
X0206709Y0111281D01*
X0207339Y0111912D01*
X0209228Y0111912D01*
X0208440Y0112865D02*
X0209776Y0114200D01*
X0209776Y0116089D01*
X0208440Y0117424D01*
X0206552Y0117424D01*
X0205217Y0116089D01*
X0205217Y0114200D01*
X0206552Y0112865D01*
X0208440Y0112865D01*
X0208839Y0113264D02*
X0236861Y0113264D01*
X0236713Y0113853D02*
X0209429Y0113853D01*
X0209776Y0114442D02*
X0227809Y0114442D01*
X0229703Y0114442D02*
X0236713Y0114442D01*
X0236816Y0119155D02*
X0231035Y0119155D01*
X0230268Y0124456D02*
X0233543Y0124456D01*
X0234111Y0123888D02*
X0235999Y0123888D01*
X0236630Y0124519D01*
X0237261Y0123888D01*
X0239149Y0123888D01*
X0239780Y0124519D01*
X0240410Y0123888D01*
X0242299Y0123888D01*
X0243634Y0125224D01*
X0243634Y0127112D01*
X0242299Y0128447D01*
X0240484Y0128447D01*
X0240484Y0130188D01*
X0242299Y0130188D01*
X0243634Y0131523D01*
X0243634Y0133411D01*
X0242299Y0134747D01*
X0240484Y0134747D01*
X0240484Y0136487D01*
X0242299Y0136487D01*
X0243634Y0137822D01*
X0243634Y0139711D01*
X0243003Y0140341D01*
X0243634Y0140972D01*
X0243634Y0142860D01*
X0243003Y0143491D01*
X0243634Y0144121D01*
X0243634Y0146010D01*
X0242299Y0147345D01*
X0240410Y0147345D01*
X0239820Y0146755D01*
X0236590Y0146755D01*
X0235999Y0147345D01*
X0234211Y0147345D01*
X0236542Y0149676D01*
X0239820Y0149676D01*
X0240410Y0149085D01*
X0242299Y0149085D01*
X0242929Y0149716D01*
X0243560Y0149085D01*
X0245448Y0149085D01*
X0246783Y0150421D01*
X0246783Y0152309D01*
X0245448Y0153644D01*
X0243560Y0153644D01*
X0242929Y0153014D01*
X0242299Y0153644D01*
X0240410Y0153644D01*
X0239820Y0153054D01*
X0235143Y0153054D01*
X0230217Y0148127D01*
X0230217Y0146600D01*
X0229626Y0146010D01*
X0229626Y0144121D01*
X0230961Y0142786D01*
X0232776Y0142786D01*
X0232776Y0140972D01*
X0234111Y0139636D01*
X0235925Y0139636D01*
X0235925Y0137896D01*
X0234111Y0137896D01*
X0232776Y0136561D01*
X0232776Y0134673D01*
X0233406Y0134042D01*
X0232776Y0133411D01*
X0232776Y0131523D01*
X0234111Y0130188D01*
X0235925Y0130188D01*
X0235925Y0128447D01*
X0234111Y0128447D01*
X0232776Y0127112D01*
X0232776Y0125224D01*
X0234111Y0123888D01*
X0232954Y0125045D02*
X0230857Y0125045D01*
X0231035Y0125634D02*
X0232776Y0125634D01*
X0232776Y0126223D02*
X0231035Y0126223D01*
X0231035Y0126812D02*
X0232776Y0126812D01*
X0233065Y0127402D02*
X0230746Y0127402D01*
X0230653Y0127991D02*
X0233654Y0127991D01*
X0235925Y0128580D02*
X0231035Y0128580D01*
X0231035Y0129169D02*
X0235925Y0129169D01*
X0235925Y0129758D02*
X0231035Y0129758D01*
X0230950Y0130347D02*
X0233952Y0130347D01*
X0233363Y0130936D02*
X0230361Y0130936D01*
X0229772Y0131525D02*
X0232776Y0131525D01*
X0232776Y0132114D02*
X0208056Y0132114D01*
X0207623Y0132703D02*
X0232776Y0132703D01*
X0232776Y0133292D02*
X0207623Y0133292D01*
X0208646Y0131525D02*
X0218291Y0131525D01*
X0217702Y0130936D02*
X0209235Y0130936D01*
X0209824Y0130347D02*
X0217113Y0130347D01*
X0217028Y0129758D02*
X0210413Y0129758D01*
X0211002Y0129169D02*
X0217028Y0129169D01*
X0217028Y0128580D02*
X0211591Y0128580D01*
X0212180Y0127991D02*
X0217410Y0127991D01*
X0217317Y0127402D02*
X0212769Y0127402D01*
X0213358Y0126812D02*
X0217028Y0126812D01*
X0217028Y0126223D02*
X0213947Y0126223D01*
X0214536Y0125634D02*
X0217028Y0125634D01*
X0217206Y0125045D02*
X0215125Y0125045D01*
X0215714Y0124456D02*
X0217795Y0124456D01*
X0216303Y0123867D02*
X0256956Y0123867D01*
X0257546Y0124456D02*
X0242866Y0124456D01*
X0243455Y0125045D02*
X0258135Y0125045D01*
X0258724Y0125634D02*
X0243634Y0125634D01*
X0243634Y0126223D02*
X0259313Y0126223D01*
X0258352Y0126812D02*
X0243634Y0126812D01*
X0243345Y0127402D02*
X0257763Y0127402D01*
X0257579Y0127991D02*
X0242755Y0127991D01*
X0240484Y0128580D02*
X0257579Y0128580D01*
X0257579Y0129169D02*
X0240484Y0129169D01*
X0240484Y0129758D02*
X0257862Y0129758D01*
X0258451Y0130347D02*
X0242458Y0130347D01*
X0243047Y0130936D02*
X0260744Y0130936D01*
X0261265Y0130347D02*
X0261341Y0130347D01*
X0261854Y0129758D02*
X0261939Y0129758D01*
X0262138Y0129169D02*
X0262258Y0129169D01*
X0260146Y0131525D02*
X0243634Y0131525D01*
X0243634Y0132114D02*
X0259549Y0132114D01*
X0258951Y0132703D02*
X0243634Y0132703D01*
X0243634Y0133292D02*
X0258354Y0133292D01*
X0257756Y0133881D02*
X0243164Y0133881D01*
X0242575Y0134470D02*
X0257159Y0134470D01*
X0256561Y0135059D02*
X0240484Y0135059D01*
X0240484Y0135648D02*
X0255964Y0135648D01*
X0258348Y0139183D02*
X0268358Y0139183D01*
X0268947Y0139772D02*
X0257485Y0139772D01*
X0259052Y0138594D02*
X0267769Y0138594D01*
X0267180Y0138005D02*
X0259543Y0138005D01*
X0260140Y0137416D02*
X0266591Y0137416D01*
X0266002Y0136827D02*
X0260738Y0136827D01*
X0261335Y0136237D02*
X0265412Y0136237D01*
X0264823Y0135648D02*
X0261933Y0135648D01*
X0262530Y0135059D02*
X0264234Y0135059D01*
X0263645Y0134470D02*
X0263128Y0134470D01*
X0267215Y0132114D02*
X0271421Y0132114D01*
X0271111Y0131525D02*
X0272011Y0131525D01*
X0271700Y0130936D02*
X0272600Y0130936D01*
X0273189Y0130347D02*
X0271980Y0130347D01*
X0271980Y0129758D02*
X0273778Y0129758D01*
X0274367Y0129169D02*
X0271980Y0129169D01*
X0271793Y0128580D02*
X0274956Y0128580D01*
X0275086Y0127991D02*
X0271204Y0127991D01*
X0272047Y0125045D02*
X0264061Y0125045D01*
X0263472Y0124456D02*
X0271458Y0124456D01*
X0270965Y0123867D02*
X0262883Y0123867D01*
X0262294Y0123278D02*
X0270965Y0123278D01*
X0270965Y0122689D02*
X0261705Y0122689D01*
X0261116Y0122100D02*
X0270965Y0122100D01*
X0271528Y0121511D02*
X0260527Y0121511D01*
X0259937Y0120922D02*
X0272117Y0120922D01*
X0272320Y0120333D02*
X0259348Y0120333D01*
X0259616Y0119744D02*
X0271731Y0119744D01*
X0271142Y0119155D02*
X0260205Y0119155D01*
X0260794Y0118566D02*
X0270553Y0118566D01*
X0269964Y0117977D02*
X0261154Y0117977D01*
X0261154Y0117387D02*
X0269374Y0117387D01*
X0268785Y0116798D02*
X0261428Y0116798D01*
X0261744Y0116209D02*
X0268196Y0116209D01*
X0267607Y0115620D02*
X0261744Y0115620D01*
X0261744Y0115031D02*
X0267018Y0115031D01*
X0266429Y0114442D02*
X0261592Y0114442D01*
X0261003Y0113853D02*
X0265840Y0113853D01*
X0268821Y0110908D02*
X0323505Y0110908D01*
X0323505Y0111497D02*
X0269410Y0111497D01*
X0269999Y0112086D02*
X0280165Y0112086D01*
X0280174Y0112077D02*
X0282062Y0112077D01*
X0283398Y0113413D01*
X0283398Y0115301D01*
X0282062Y0116636D01*
X0280174Y0116636D01*
X0278839Y0115301D01*
X0278839Y0113413D01*
X0280174Y0112077D01*
X0279576Y0112675D02*
X0270588Y0112675D01*
X0271177Y0113264D02*
X0278987Y0113264D01*
X0278839Y0113853D02*
X0271766Y0113853D01*
X0272355Y0114442D02*
X0278839Y0114442D01*
X0278839Y0115031D02*
X0272945Y0115031D01*
X0273534Y0115620D02*
X0279158Y0115620D01*
X0279747Y0116209D02*
X0274123Y0116209D01*
X0274712Y0116798D02*
X0323505Y0116798D01*
X0323505Y0116209D02*
X0282489Y0116209D01*
X0283079Y0115620D02*
X0323505Y0115620D01*
X0323505Y0115031D02*
X0283398Y0115031D01*
X0283398Y0114442D02*
X0323505Y0114442D01*
X0323505Y0113853D02*
X0283398Y0113853D01*
X0283249Y0113264D02*
X0323505Y0113264D01*
X0323505Y0112675D02*
X0282660Y0112675D01*
X0282071Y0112086D02*
X0323505Y0112086D01*
X0323505Y0110319D02*
X0268232Y0110319D01*
X0267643Y0109730D02*
X0323505Y0109730D01*
X0323505Y0109141D02*
X0267054Y0109141D01*
X0266465Y0108552D02*
X0323505Y0108552D01*
X0323505Y0107962D02*
X0249749Y0107962D01*
X0249749Y0107373D02*
X0323505Y0107373D01*
X0328495Y0107373D02*
X0424598Y0107373D01*
X0424598Y0106784D02*
X0328495Y0106784D01*
X0328495Y0106195D02*
X0424598Y0106195D01*
X0424598Y0105606D02*
X0328495Y0105606D01*
X0328495Y0105017D02*
X0424598Y0105017D01*
X0424598Y0104428D02*
X0328495Y0104428D01*
X0328495Y0103839D02*
X0424598Y0103839D01*
X0424598Y0103250D02*
X0328495Y0103250D01*
X0328495Y0102661D02*
X0424598Y0102661D01*
X0424598Y0102072D02*
X0328495Y0102072D01*
X0328495Y0101483D02*
X0424598Y0101483D01*
X0424598Y0100894D02*
X0328495Y0100894D01*
X0328495Y0100305D02*
X0424598Y0100305D01*
X0424598Y0099716D02*
X0328495Y0099716D01*
X0328495Y0099127D02*
X0424598Y0099127D01*
X0424598Y0098537D02*
X0328495Y0098537D01*
X0328495Y0097948D02*
X0424598Y0097948D01*
X0424598Y0097359D02*
X0328495Y0097359D01*
X0328495Y0096770D02*
X0424598Y0096770D01*
X0424598Y0096181D02*
X0328495Y0096181D01*
X0328495Y0095592D02*
X0424598Y0095592D01*
X0424598Y0095003D02*
X0328495Y0095003D01*
X0328495Y0094414D02*
X0424598Y0094414D01*
X0424598Y0093825D02*
X0328495Y0093825D01*
X0328495Y0093236D02*
X0424598Y0093236D01*
X0424598Y0092647D02*
X0328495Y0092647D01*
X0328495Y0092058D02*
X0424598Y0092058D01*
X0424598Y0091469D02*
X0328495Y0091469D01*
X0328495Y0090880D02*
X0424598Y0090880D01*
X0424598Y0090291D02*
X0328495Y0090291D01*
X0328495Y0089702D02*
X0424598Y0089702D01*
X0424598Y0089112D02*
X0328495Y0089112D01*
X0328495Y0088523D02*
X0424598Y0088523D01*
X0424598Y0087934D02*
X0328495Y0087934D01*
X0328448Y0087345D02*
X0424598Y0087345D01*
X0424598Y0086756D02*
X0328194Y0086756D01*
X0327717Y0086167D02*
X0424598Y0086167D01*
X0424598Y0085578D02*
X0327099Y0085578D01*
X0326481Y0084989D02*
X0424598Y0084989D01*
X0424598Y0084400D02*
X0325864Y0084400D01*
X0325247Y0083811D02*
X0424598Y0083811D01*
X0424598Y0083222D02*
X0324630Y0083222D01*
X0324013Y0082633D02*
X0424598Y0082633D01*
X0424598Y0082044D02*
X0323396Y0082044D01*
X0322779Y0081455D02*
X0424598Y0081455D01*
X0424598Y0080866D02*
X0322162Y0080866D01*
X0321545Y0080277D02*
X0424598Y0080277D01*
X0424566Y0079687D02*
X0320927Y0079687D01*
X0320310Y0079098D02*
X0424519Y0079098D01*
X0424390Y0078509D02*
X0319693Y0078509D01*
X0319076Y0077920D02*
X0424199Y0077920D01*
X0424007Y0077331D02*
X0318113Y0077331D01*
X0328495Y0107962D02*
X0424598Y0107962D01*
X0424598Y0108552D02*
X0328495Y0108552D01*
X0328495Y0109141D02*
X0424598Y0109141D01*
X0424598Y0109730D02*
X0328495Y0109730D01*
X0328495Y0110319D02*
X0424598Y0110319D01*
X0424598Y0110908D02*
X0328495Y0110908D01*
X0323505Y0117387D02*
X0275301Y0117387D01*
X0275890Y0117977D02*
X0323505Y0117977D01*
X0323505Y0118566D02*
X0276479Y0118566D01*
X0277068Y0119155D02*
X0323505Y0119155D01*
X0323505Y0119744D02*
X0277657Y0119744D01*
X0278246Y0120333D02*
X0323505Y0120333D01*
X0323505Y0120922D02*
X0278835Y0120922D01*
X0279276Y0121511D02*
X0323505Y0121511D01*
X0323505Y0122100D02*
X0293266Y0122100D01*
X0292692Y0121526D02*
X0294028Y0122862D01*
X0294028Y0124750D01*
X0292692Y0126085D01*
X0290804Y0126085D01*
X0289469Y0124750D01*
X0289469Y0122862D01*
X0290804Y0121526D01*
X0292692Y0121526D01*
X0293855Y0122689D02*
X0323505Y0122689D01*
X0323505Y0123278D02*
X0294028Y0123278D01*
X0294028Y0123867D02*
X0323505Y0123867D01*
X0323505Y0124456D02*
X0294028Y0124456D01*
X0293732Y0125045D02*
X0323505Y0125045D01*
X0323482Y0125634D02*
X0293143Y0125634D01*
X0290353Y0125634D02*
X0279276Y0125634D01*
X0279276Y0125045D02*
X0289764Y0125045D01*
X0289469Y0124456D02*
X0279276Y0124456D01*
X0279276Y0123867D02*
X0289469Y0123867D01*
X0289469Y0123278D02*
X0279276Y0123278D01*
X0279276Y0122689D02*
X0289641Y0122689D01*
X0290230Y0122100D02*
X0279276Y0122100D01*
X0275086Y0124456D02*
X0275030Y0124456D01*
X0275086Y0125045D02*
X0274441Y0125045D01*
X0275086Y0125634D02*
X0264650Y0125634D01*
X0265239Y0126223D02*
X0275086Y0126223D01*
X0275086Y0126812D02*
X0265828Y0126812D01*
X0266238Y0127222D02*
X0266238Y0127222D01*
X0266423Y0127402D02*
X0275086Y0127402D01*
X0279276Y0127402D02*
X0324411Y0127402D01*
X0324870Y0127991D02*
X0279276Y0127991D01*
X0279276Y0128580D02*
X0325329Y0128580D01*
X0325788Y0129169D02*
X0279276Y0129169D01*
X0279276Y0129758D02*
X0326247Y0129758D01*
X0326706Y0130347D02*
X0279115Y0130347D01*
X0278526Y0130936D02*
X0327165Y0130936D01*
X0327624Y0131525D02*
X0277937Y0131525D01*
X0278049Y0131413D02*
X0278049Y0131413D01*
X0277348Y0132114D02*
X0328083Y0132114D01*
X0328542Y0132703D02*
X0276759Y0132703D01*
X0276170Y0133292D02*
X0329001Y0133292D01*
X0329459Y0133881D02*
X0275581Y0133881D01*
X0274992Y0134470D02*
X0329918Y0134470D01*
X0330099Y0135059D02*
X0274402Y0135059D01*
X0273949Y0135648D02*
X0330099Y0135648D01*
X0330099Y0136237D02*
X0273485Y0136237D01*
X0272896Y0136827D02*
X0330099Y0136827D01*
X0330099Y0137416D02*
X0272517Y0137416D01*
X0273106Y0138005D02*
X0330099Y0138005D01*
X0330099Y0138594D02*
X0273695Y0138594D01*
X0274284Y0139183D02*
X0330099Y0139183D01*
X0330099Y0139772D02*
X0274873Y0139772D01*
X0275462Y0140361D02*
X0330099Y0140361D01*
X0329921Y0140950D02*
X0276051Y0140950D01*
X0276640Y0141539D02*
X0329921Y0141539D01*
X0330033Y0142128D02*
X0276914Y0142128D01*
X0276914Y0142717D02*
X0330099Y0142717D01*
X0330099Y0143306D02*
X0276914Y0143306D01*
X0276914Y0143895D02*
X0330099Y0143895D01*
X0330099Y0144484D02*
X0276914Y0144484D01*
X0276914Y0145073D02*
X0329942Y0145073D01*
X0329921Y0145662D02*
X0276914Y0145662D01*
X0276914Y0146252D02*
X0329948Y0146252D01*
X0330192Y0146841D02*
X0276914Y0146841D01*
X0276914Y0147430D02*
X0330587Y0147430D01*
X0331313Y0148019D02*
X0276914Y0148019D01*
X0276914Y0148608D02*
X0372088Y0148608D01*
X0372201Y0148495D02*
X0374090Y0148495D01*
X0375425Y0149830D01*
X0375425Y0151718D01*
X0374090Y0153054D01*
X0372201Y0153054D01*
X0370866Y0151718D01*
X0370866Y0149830D01*
X0372201Y0148495D01*
X0371499Y0149197D02*
X0276914Y0149197D01*
X0276914Y0149786D02*
X0349650Y0149786D01*
X0350154Y0149282D02*
X0352043Y0149282D01*
X0353378Y0150617D01*
X0353378Y0152506D01*
X0352043Y0153841D01*
X0350154Y0153841D01*
X0348819Y0152506D01*
X0348819Y0150617D01*
X0350154Y0149282D01*
X0349061Y0150375D02*
X0276914Y0150375D01*
X0276914Y0150964D02*
X0348819Y0150964D01*
X0348819Y0151553D02*
X0276914Y0151553D01*
X0276914Y0152142D02*
X0348819Y0152142D01*
X0349044Y0152731D02*
X0276914Y0152731D01*
X0276914Y0153320D02*
X0349633Y0153320D01*
X0352564Y0153320D02*
X0360263Y0153320D01*
X0360784Y0153841D02*
X0359449Y0152506D01*
X0359449Y0150617D01*
X0360784Y0149282D01*
X0362673Y0149282D01*
X0364008Y0150617D01*
X0364008Y0152506D01*
X0362673Y0153841D01*
X0360784Y0153841D01*
X0359674Y0152731D02*
X0353153Y0152731D01*
X0353378Y0152142D02*
X0359449Y0152142D01*
X0359449Y0151553D02*
X0353378Y0151553D01*
X0353378Y0150964D02*
X0359449Y0150964D01*
X0359691Y0150375D02*
X0353135Y0150375D01*
X0352546Y0149786D02*
X0360280Y0149786D01*
X0363176Y0149786D02*
X0370910Y0149786D01*
X0370866Y0150375D02*
X0363765Y0150375D01*
X0364008Y0150964D02*
X0370866Y0150964D01*
X0370866Y0151553D02*
X0364008Y0151553D01*
X0364008Y0152142D02*
X0371290Y0152142D01*
X0371879Y0152731D02*
X0363783Y0152731D01*
X0363193Y0153320D02*
X0424598Y0153320D01*
X0424598Y0152731D02*
X0374412Y0152731D01*
X0375002Y0152142D02*
X0424598Y0152142D01*
X0424598Y0151553D02*
X0375425Y0151553D01*
X0375425Y0150964D02*
X0424598Y0150964D01*
X0424598Y0150375D02*
X0375425Y0150375D01*
X0375381Y0149786D02*
X0424598Y0149786D01*
X0424598Y0149197D02*
X0374792Y0149197D01*
X0374203Y0148608D02*
X0424598Y0148608D01*
X0424598Y0148019D02*
X0341330Y0148019D01*
X0341019Y0148329D02*
X0339131Y0148329D01*
X0337795Y0146994D01*
X0337795Y0145106D01*
X0339131Y0143770D01*
X0341019Y0143770D01*
X0342354Y0145106D01*
X0342354Y0146994D01*
X0341019Y0148329D01*
X0341919Y0147430D02*
X0424598Y0147430D01*
X0424598Y0146841D02*
X0342354Y0146841D01*
X0342354Y0146252D02*
X0355557Y0146252D01*
X0356060Y0146755D02*
X0354724Y0145419D01*
X0354724Y0143679D01*
X0354011Y0144392D01*
X0352123Y0144392D01*
X0350787Y0143057D01*
X0350787Y0141169D01*
X0352123Y0139833D01*
X0354011Y0139833D01*
X0354740Y0140562D01*
X0356060Y0139243D01*
X0357948Y0139243D01*
X0359283Y0140578D01*
X0359283Y0142467D01*
X0358751Y0142999D01*
X0359055Y0143303D01*
X0359055Y0143137D01*
X0360390Y0141802D01*
X0362279Y0141802D01*
X0363614Y0143137D01*
X0363614Y0145026D01*
X0362279Y0146361D01*
X0360390Y0146361D01*
X0359283Y0145254D01*
X0359283Y0145419D01*
X0357948Y0146755D01*
X0356060Y0146755D01*
X0354968Y0145662D02*
X0342354Y0145662D01*
X0342322Y0145073D02*
X0354724Y0145073D01*
X0354724Y0144484D02*
X0341733Y0144484D01*
X0341144Y0143895D02*
X0351626Y0143895D01*
X0351037Y0143306D02*
X0338463Y0143306D01*
X0339006Y0143895D02*
X0337874Y0143895D01*
X0338417Y0144484D02*
X0335090Y0144484D01*
X0335090Y0143895D02*
X0335779Y0143895D01*
X0335190Y0143306D02*
X0335090Y0143306D01*
X0335247Y0145073D02*
X0337828Y0145073D01*
X0337795Y0145662D02*
X0335268Y0145662D01*
X0335241Y0146252D02*
X0337795Y0146252D01*
X0337795Y0146841D02*
X0334997Y0146841D01*
X0334602Y0147430D02*
X0338231Y0147430D01*
X0338820Y0148019D02*
X0333876Y0148019D01*
X0339052Y0142717D02*
X0350787Y0142717D01*
X0350787Y0142128D02*
X0339106Y0142128D01*
X0339106Y0141539D02*
X0350787Y0141539D01*
X0351006Y0140950D02*
X0339106Y0140950D01*
X0338692Y0140361D02*
X0351595Y0140361D01*
X0352418Y0138881D02*
X0351083Y0137545D01*
X0351083Y0135657D01*
X0352418Y0134322D01*
X0354306Y0134322D01*
X0355642Y0135657D01*
X0355642Y0137545D01*
X0354306Y0138881D01*
X0352418Y0138881D01*
X0352131Y0138594D02*
X0345144Y0138594D01*
X0345448Y0138290D02*
X0344267Y0139471D01*
X0342379Y0139471D01*
X0341043Y0138136D01*
X0341043Y0136247D01*
X0342379Y0134912D01*
X0343953Y0134912D01*
X0345135Y0133731D01*
X0347023Y0133731D01*
X0348358Y0135066D01*
X0348358Y0136955D01*
X0347023Y0138290D01*
X0345448Y0138290D01*
X0344555Y0139183D02*
X0424598Y0139183D01*
X0424598Y0139772D02*
X0358477Y0139772D01*
X0359066Y0140361D02*
X0424598Y0140361D01*
X0424598Y0140950D02*
X0359283Y0140950D01*
X0359283Y0141539D02*
X0424598Y0141539D01*
X0424598Y0142128D02*
X0362605Y0142128D01*
X0363194Y0142717D02*
X0424598Y0142717D01*
X0424598Y0143306D02*
X0363614Y0143306D01*
X0363614Y0143895D02*
X0424598Y0143895D01*
X0424598Y0144484D02*
X0363614Y0144484D01*
X0363566Y0145073D02*
X0424598Y0145073D01*
X0424598Y0145662D02*
X0362977Y0145662D01*
X0362388Y0146252D02*
X0424598Y0146252D01*
X0424598Y0153909D02*
X0276914Y0153909D01*
X0276914Y0154498D02*
X0424598Y0154498D01*
X0424598Y0155087D02*
X0276914Y0155087D01*
X0276914Y0155677D02*
X0424598Y0155677D01*
X0424598Y0156266D02*
X0276914Y0156266D01*
X0276914Y0156855D02*
X0352326Y0156855D01*
X0352615Y0156566D02*
X0354503Y0156566D01*
X0355839Y0157901D01*
X0355839Y0159789D01*
X0354503Y0161125D01*
X0352615Y0161125D01*
X0351280Y0159789D01*
X0351280Y0157901D01*
X0352615Y0156566D01*
X0351737Y0157444D02*
X0276914Y0157444D01*
X0276914Y0158033D02*
X0351280Y0158033D01*
X0351280Y0158622D02*
X0276914Y0158622D01*
X0276629Y0159211D02*
X0351280Y0159211D01*
X0351290Y0159800D02*
X0346320Y0159800D01*
X0346236Y0159715D02*
X0347571Y0161051D01*
X0347571Y0162939D01*
X0346236Y0164274D01*
X0344347Y0164274D01*
X0343012Y0162939D01*
X0343012Y0161051D01*
X0344347Y0159715D01*
X0346236Y0159715D01*
X0346909Y0160389D02*
X0351879Y0160389D01*
X0352468Y0160978D02*
X0347498Y0160978D01*
X0347571Y0161567D02*
X0370117Y0161567D01*
X0370079Y0161660D02*
X0370486Y0160677D01*
X0371238Y0159925D01*
X0372220Y0159518D01*
X0373284Y0159518D01*
X0374266Y0159925D01*
X0375018Y0160677D01*
X0375425Y0161660D01*
X0375425Y0162723D01*
X0375018Y0163706D01*
X0374266Y0164458D01*
X0373284Y0164865D01*
X0372220Y0164865D01*
X0371238Y0164458D01*
X0370486Y0163706D01*
X0370079Y0162723D01*
X0370079Y0161660D01*
X0370079Y0162156D02*
X0347571Y0162156D01*
X0347571Y0162745D02*
X0370088Y0162745D01*
X0370332Y0163334D02*
X0347175Y0163334D01*
X0346586Y0163923D02*
X0370703Y0163923D01*
X0371370Y0164512D02*
X0346308Y0164512D01*
X0346236Y0164440D02*
X0347571Y0165775D01*
X0347571Y0167663D01*
X0346236Y0168999D01*
X0344347Y0168999D01*
X0343012Y0167663D01*
X0343012Y0165775D01*
X0344347Y0164440D01*
X0346236Y0164440D01*
X0346897Y0165102D02*
X0424598Y0165102D01*
X0424598Y0165691D02*
X0347487Y0165691D01*
X0347571Y0166280D02*
X0424598Y0166280D01*
X0424598Y0166869D02*
X0347571Y0166869D01*
X0347571Y0167458D02*
X0424598Y0167458D01*
X0424598Y0168047D02*
X0347187Y0168047D01*
X0346598Y0168636D02*
X0424598Y0168636D01*
X0424598Y0169225D02*
X0304329Y0169225D01*
X0304250Y0169415D02*
X0303796Y0169869D01*
X0304250Y0170323D01*
X0304657Y0171306D01*
X0304657Y0172369D01*
X0304250Y0173352D01*
X0303796Y0173806D01*
X0304250Y0174260D01*
X0304657Y0175243D01*
X0304657Y0176306D01*
X0304250Y0177289D01*
X0303499Y0178041D01*
X0302516Y0178447D01*
X0301453Y0178447D01*
X0300470Y0178041D01*
X0299718Y0177289D01*
X0299311Y0176306D01*
X0299311Y0175243D01*
X0299718Y0174260D01*
X0300172Y0173806D01*
X0299718Y0173352D01*
X0299311Y0172369D01*
X0299311Y0171306D01*
X0299718Y0170323D01*
X0300172Y0169869D01*
X0299718Y0169415D01*
X0299311Y0168432D01*
X0299311Y0167369D01*
X0299718Y0166386D01*
X0300470Y0165634D01*
X0301453Y0165227D01*
X0302516Y0165227D01*
X0303499Y0165634D01*
X0304250Y0166386D01*
X0304657Y0167369D01*
X0304657Y0168432D01*
X0304250Y0169415D01*
X0303851Y0169814D02*
X0424598Y0169814D01*
X0424598Y0170403D02*
X0304284Y0170403D01*
X0304528Y0170992D02*
X0424598Y0170992D01*
X0424598Y0171581D02*
X0304657Y0171581D01*
X0304657Y0172170D02*
X0424598Y0172170D01*
X0424598Y0172759D02*
X0304496Y0172759D01*
X0304252Y0173348D02*
X0424598Y0173348D01*
X0424598Y0173937D02*
X0303928Y0173937D01*
X0304361Y0174527D02*
X0424598Y0174527D01*
X0424598Y0175116D02*
X0304605Y0175116D01*
X0304657Y0175705D02*
X0329216Y0175705D01*
X0328393Y0176294D02*
X0304657Y0176294D01*
X0304419Y0176883D02*
X0327957Y0176883D01*
X0327713Y0177472D02*
X0304067Y0177472D01*
X0303449Y0178061D02*
X0327657Y0178061D01*
X0331445Y0175705D02*
X0333153Y0175705D01*
X0332330Y0176294D02*
X0332268Y0176294D01*
X0335382Y0175705D02*
X0362287Y0175705D01*
X0361887Y0175870D02*
X0362870Y0175463D01*
X0363933Y0175463D01*
X0364916Y0175870D01*
X0365370Y0176324D01*
X0365824Y0175870D01*
X0366807Y0175463D01*
X0367870Y0175463D01*
X0368853Y0175870D01*
X0369605Y0176622D01*
X0370012Y0177605D01*
X0370012Y0178668D01*
X0369605Y0179651D01*
X0368853Y0180403D01*
X0367870Y0180810D01*
X0366807Y0180810D01*
X0365824Y0180403D01*
X0365370Y0179948D01*
X0364916Y0180403D01*
X0363933Y0180810D01*
X0362870Y0180810D01*
X0361887Y0180403D01*
X0361135Y0179651D01*
X0360728Y0178668D01*
X0360728Y0177605D01*
X0361135Y0176622D01*
X0361887Y0175870D01*
X0361464Y0176294D02*
X0336205Y0176294D01*
X0336642Y0176883D02*
X0361027Y0176883D01*
X0360783Y0177472D02*
X0336886Y0177472D01*
X0336941Y0178061D02*
X0360728Y0178061D01*
X0360728Y0178650D02*
X0336941Y0178650D01*
X0336705Y0179239D02*
X0360965Y0179239D01*
X0361313Y0179828D02*
X0336357Y0179828D01*
X0335747Y0180417D02*
X0361922Y0180417D01*
X0364881Y0180417D02*
X0365859Y0180417D01*
X0368818Y0180417D02*
X0424598Y0180417D01*
X0424598Y0179828D02*
X0369427Y0179828D01*
X0369775Y0179239D02*
X0424598Y0179239D01*
X0424598Y0178650D02*
X0370012Y0178650D01*
X0370012Y0178061D02*
X0424598Y0178061D01*
X0424598Y0177472D02*
X0369957Y0177472D01*
X0369713Y0176883D02*
X0424598Y0176883D01*
X0424598Y0176294D02*
X0369276Y0176294D01*
X0368453Y0175705D02*
X0424598Y0175705D01*
X0424598Y0181006D02*
X0234849Y0181006D01*
X0234818Y0180975D02*
X0236154Y0182310D01*
X0236154Y0184199D01*
X0234818Y0185534D01*
X0232930Y0185534D01*
X0231594Y0184199D01*
X0231594Y0182310D01*
X0232930Y0180975D01*
X0234818Y0180975D01*
X0235438Y0181595D02*
X0424598Y0181595D01*
X0424598Y0182184D02*
X0236027Y0182184D01*
X0236154Y0182773D02*
X0424598Y0182773D01*
X0424598Y0183362D02*
X0236154Y0183362D01*
X0236154Y0183952D02*
X0424598Y0183952D01*
X0424598Y0184541D02*
X0235812Y0184541D01*
X0235223Y0185130D02*
X0424598Y0185130D01*
X0424598Y0185719D02*
X0054173Y0185719D01*
X0054173Y0186308D02*
X0424598Y0186308D01*
X0424598Y0186897D02*
X0054173Y0186897D01*
X0054173Y0187486D02*
X0424598Y0187486D01*
X0424598Y0188075D02*
X0054173Y0188075D01*
X0054173Y0188664D02*
X0424598Y0188664D01*
X0424598Y0189253D02*
X0054173Y0189253D01*
X0054173Y0189842D02*
X0424598Y0189842D01*
X0424598Y0190431D02*
X0054173Y0190431D01*
X0054173Y0191020D02*
X0424598Y0191020D01*
X0424598Y0191609D02*
X0054173Y0191609D01*
X0054173Y0192198D02*
X0424598Y0192198D01*
X0424598Y0192787D02*
X0054173Y0192787D01*
X0054173Y0193377D02*
X0424598Y0193377D01*
X0424598Y0193966D02*
X0054173Y0193966D01*
X0054173Y0194555D02*
X0424598Y0194555D01*
X0424598Y0195144D02*
X0054173Y0195144D01*
X0054173Y0195733D02*
X0424598Y0195733D01*
X0424598Y0196322D02*
X0054173Y0196322D01*
X0054173Y0196911D02*
X0424598Y0196911D01*
X0424598Y0197500D02*
X0054173Y0197500D01*
X0054173Y0198089D02*
X0214393Y0198089D01*
X0214780Y0197963D02*
X0214780Y0197963D01*
X0216432Y0198500D01*
X0217453Y0199906D01*
X0217453Y0204005D01*
X0216432Y0205410D01*
X0216432Y0205410D01*
X0216432Y0205410D01*
X0214780Y0205947D01*
X0214780Y0205947D01*
X0213127Y0205410D01*
X0212106Y0204005D01*
X0212106Y0200238D01*
X0212106Y0199906D01*
X0212106Y0199906D01*
X0213127Y0198500D01*
X0213127Y0198500D01*
X0213127Y0198500D01*
X0214780Y0197963D01*
X0215166Y0198089D02*
X0264314Y0198089D01*
X0264701Y0197963D02*
X0264701Y0197963D01*
X0266353Y0198500D01*
X0267374Y0199906D01*
X0267374Y0204005D01*
X0266353Y0205410D01*
X0266353Y0205410D01*
X0264701Y0205947D01*
X0264701Y0205947D01*
X0263049Y0205410D01*
X0262028Y0204005D01*
X0262028Y0200238D01*
X0262028Y0199906D01*
X0262028Y0199906D01*
X0263049Y0198500D01*
X0264701Y0197963D01*
X0265087Y0198089D02*
X0424598Y0198089D01*
X0424562Y0198678D02*
X0266482Y0198678D01*
X0266353Y0198500D02*
X0266353Y0198500D01*
X0266910Y0199267D02*
X0424516Y0199267D01*
X0424375Y0199856D02*
X0267338Y0199856D01*
X0267374Y0200445D02*
X0424184Y0200445D01*
X0423992Y0201034D02*
X0267374Y0201034D01*
X0267374Y0201623D02*
X0423801Y0201623D01*
X0423471Y0202212D02*
X0267374Y0202212D01*
X0267374Y0202802D02*
X0423043Y0202802D01*
X0422616Y0203391D02*
X0267374Y0203391D01*
X0267374Y0203980D02*
X0422139Y0203980D01*
X0421329Y0204569D02*
X0266964Y0204569D01*
X0266537Y0205158D02*
X0420518Y0205158D01*
X0419092Y0205747D02*
X0265318Y0205747D01*
X0266353Y0205410D02*
X0266353Y0205410D01*
X0264084Y0205747D02*
X0215396Y0205747D01*
X0214163Y0205747D02*
X0059680Y0205747D01*
X0058254Y0205158D02*
X0212944Y0205158D01*
X0213127Y0205410D02*
X0213127Y0205410D01*
X0212516Y0204569D02*
X0057443Y0204569D01*
X0056632Y0203980D02*
X0212106Y0203980D01*
X0212106Y0203391D02*
X0056156Y0203391D01*
X0055728Y0202802D02*
X0212106Y0202802D01*
X0212106Y0202212D02*
X0055300Y0202212D01*
X0054971Y0201623D02*
X0212106Y0201623D01*
X0212106Y0201034D02*
X0054779Y0201034D01*
X0054588Y0200445D02*
X0212106Y0200445D01*
X0212142Y0199856D02*
X0054396Y0199856D01*
X0054256Y0199267D02*
X0212570Y0199267D01*
X0212998Y0198678D02*
X0054210Y0198678D01*
X0054173Y0185130D02*
X0232525Y0185130D01*
X0231936Y0184541D02*
X0054173Y0184541D01*
X0054173Y0183952D02*
X0231594Y0183952D01*
X0231594Y0183362D02*
X0054173Y0183362D01*
X0054173Y0182773D02*
X0231594Y0182773D01*
X0231721Y0182184D02*
X0054173Y0182184D01*
X0054173Y0181595D02*
X0232310Y0181595D01*
X0232899Y0181006D02*
X0054173Y0181006D01*
X0054173Y0166280D02*
X0105709Y0166280D01*
X0105049Y0165691D02*
X0054173Y0165691D01*
X0054173Y0165102D02*
X0104680Y0165102D01*
X0104436Y0164512D02*
X0054173Y0164512D01*
X0054173Y0163923D02*
X0104429Y0163923D01*
X0104469Y0163334D02*
X0054173Y0163334D01*
X0054173Y0162745D02*
X0104713Y0162745D01*
X0105129Y0162156D02*
X0054173Y0162156D01*
X0054173Y0161567D02*
X0105902Y0161567D01*
X0108303Y0161567D02*
X0109839Y0161567D01*
X0112240Y0161567D02*
X0147343Y0161567D01*
X0147415Y0160978D02*
X0118823Y0160978D01*
X0119412Y0160389D02*
X0148004Y0160389D01*
X0148593Y0159800D02*
X0119618Y0159800D01*
X0115854Y0160978D02*
X0054173Y0160978D01*
X0054173Y0160389D02*
X0115265Y0160389D01*
X0115059Y0159800D02*
X0054173Y0159800D01*
X0054173Y0159211D02*
X0115059Y0159211D01*
X0115059Y0158622D02*
X0054173Y0158622D01*
X0054173Y0158033D02*
X0115321Y0158033D01*
X0115910Y0157444D02*
X0054173Y0157444D01*
X0054173Y0156855D02*
X0162169Y0156855D01*
X0161925Y0156266D02*
X0054173Y0156266D01*
X0054173Y0155677D02*
X0161909Y0155677D01*
X0161941Y0155087D02*
X0054173Y0155087D01*
X0054173Y0154498D02*
X0162185Y0154498D01*
X0162588Y0153909D02*
X0116167Y0153909D01*
X0115822Y0154255D02*
X0117157Y0152919D01*
X0117157Y0151031D01*
X0115822Y0149696D01*
X0113934Y0149696D01*
X0112598Y0151031D01*
X0112598Y0152919D01*
X0113934Y0154255D01*
X0115822Y0154255D01*
X0116756Y0153320D02*
X0124025Y0153320D01*
X0124566Y0153861D02*
X0123230Y0152526D01*
X0123230Y0150637D01*
X0124566Y0149302D01*
X0126454Y0149302D01*
X0127789Y0150637D01*
X0127789Y0152526D01*
X0126454Y0153861D01*
X0124566Y0153861D01*
X0123436Y0152731D02*
X0117157Y0152731D01*
X0117157Y0152142D02*
X0123230Y0152142D01*
X0123230Y0151553D02*
X0117157Y0151553D01*
X0117091Y0150964D02*
X0123230Y0150964D01*
X0123492Y0150375D02*
X0116502Y0150375D01*
X0115913Y0149786D02*
X0124082Y0149786D01*
X0126938Y0149786D02*
X0134794Y0149786D01*
X0134536Y0150043D02*
X0135872Y0148708D01*
X0137760Y0148708D01*
X0139095Y0150043D01*
X0139095Y0151932D01*
X0137760Y0153267D01*
X0135872Y0153267D01*
X0134536Y0151932D01*
X0134536Y0150043D01*
X0134536Y0150375D02*
X0127527Y0150375D01*
X0127789Y0150964D02*
X0134536Y0150964D01*
X0134536Y0151553D02*
X0127789Y0151553D01*
X0127789Y0152142D02*
X0134747Y0152142D01*
X0135336Y0152731D02*
X0127584Y0152731D01*
X0126995Y0153320D02*
X0163332Y0153320D01*
X0165834Y0153320D02*
X0167144Y0153320D01*
X0167733Y0152731D02*
X0138296Y0152731D01*
X0138885Y0152142D02*
X0168322Y0152142D01*
X0168912Y0151553D02*
X0139095Y0151553D01*
X0139095Y0150964D02*
X0169501Y0150964D01*
X0170090Y0150375D02*
X0139095Y0150375D01*
X0138838Y0149786D02*
X0170679Y0149786D01*
X0171268Y0149197D02*
X0138249Y0149197D01*
X0135383Y0149197D02*
X0110169Y0149197D01*
X0110169Y0149786D02*
X0113843Y0149786D01*
X0113254Y0150375D02*
X0110135Y0150375D01*
X0110169Y0150341D02*
X0108834Y0151676D01*
X0106946Y0151676D01*
X0105610Y0150341D01*
X0105610Y0148452D01*
X0106946Y0147117D01*
X0108834Y0147117D01*
X0110169Y0148452D01*
X0110169Y0150341D01*
X0109546Y0150964D02*
X0112665Y0150964D01*
X0112598Y0151553D02*
X0108957Y0151553D01*
X0106823Y0151553D02*
X0054173Y0151553D01*
X0054173Y0150964D02*
X0106234Y0150964D01*
X0105645Y0150375D02*
X0054173Y0150375D01*
X0054173Y0149786D02*
X0105610Y0149786D01*
X0105610Y0149197D02*
X0054173Y0149197D01*
X0054173Y0148608D02*
X0105610Y0148608D01*
X0106044Y0148019D02*
X0054173Y0148019D01*
X0054173Y0147430D02*
X0106633Y0147430D01*
X0109147Y0147430D02*
X0173035Y0147430D01*
X0172446Y0148019D02*
X0109736Y0148019D01*
X0110169Y0148608D02*
X0171857Y0148608D01*
X0173624Y0146841D02*
X0054173Y0146841D01*
X0054173Y0146252D02*
X0101206Y0146252D01*
X0100617Y0145662D02*
X0054173Y0145662D01*
X0054173Y0145073D02*
X0100394Y0145073D01*
X0100394Y0144484D02*
X0054173Y0144484D01*
X0054173Y0143895D02*
X0100394Y0143895D01*
X0100638Y0143306D02*
X0054173Y0143306D01*
X0054173Y0142717D02*
X0101227Y0142717D01*
X0103402Y0139471D02*
X0102067Y0138136D01*
X0102067Y0136247D01*
X0103402Y0134912D01*
X0105291Y0134912D01*
X0106626Y0136247D01*
X0106626Y0138136D01*
X0105291Y0139471D01*
X0103402Y0139471D01*
X0103114Y0139183D02*
X0054173Y0139183D01*
X0054173Y0139772D02*
X0106693Y0139772D01*
X0106693Y0140361D02*
X0054173Y0140361D01*
X0054173Y0140950D02*
X0106693Y0140950D01*
X0107124Y0141539D02*
X0054173Y0141539D01*
X0054173Y0142128D02*
X0107713Y0142128D01*
X0106730Y0139183D02*
X0105579Y0139183D01*
X0106168Y0138594D02*
X0107319Y0138594D01*
X0107526Y0138005D02*
X0106626Y0138005D01*
X0106626Y0137416D02*
X0107087Y0137416D01*
X0107087Y0136827D02*
X0106626Y0136827D01*
X0106616Y0136237D02*
X0107087Y0136237D01*
X0107115Y0135648D02*
X0106027Y0135648D01*
X0105438Y0135059D02*
X0107704Y0135059D01*
X0108293Y0134470D02*
X0054173Y0134470D01*
X0054173Y0135059D02*
X0103255Y0135059D01*
X0102666Y0135648D02*
X0054173Y0135648D01*
X0054173Y0136237D02*
X0102077Y0136237D01*
X0102067Y0136827D02*
X0054173Y0136827D01*
X0054173Y0137416D02*
X0102067Y0137416D01*
X0102067Y0138005D02*
X0054173Y0138005D01*
X0054173Y0138594D02*
X0102525Y0138594D01*
X0104953Y0145073D02*
X0118504Y0145073D01*
X0118727Y0145662D02*
X0104729Y0145662D01*
X0104140Y0146252D02*
X0119317Y0146252D01*
X0112598Y0152142D02*
X0054173Y0152142D01*
X0054173Y0152731D02*
X0112598Y0152731D01*
X0112999Y0153320D02*
X0054173Y0153320D01*
X0054173Y0153909D02*
X0113588Y0153909D01*
X0109646Y0166280D02*
X0108496Y0166280D01*
X0100870Y0175705D02*
X0099162Y0175705D01*
X0099985Y0176294D02*
X0100046Y0176294D01*
X0124330Y0180417D02*
X0125308Y0180417D01*
X0141288Y0175705D02*
X0142996Y0175705D01*
X0142172Y0176294D02*
X0142111Y0176294D01*
X0196622Y0178061D02*
X0198685Y0178061D01*
X0199072Y0178447D02*
X0197736Y0177112D01*
X0197736Y0175224D01*
X0199072Y0173888D01*
X0200960Y0173888D01*
X0202295Y0175224D01*
X0202295Y0177112D01*
X0200960Y0178447D01*
X0199072Y0178447D01*
X0198096Y0177472D02*
X0197211Y0177472D01*
X0197571Y0176883D02*
X0197736Y0176883D01*
X0197736Y0176294D02*
X0197571Y0176294D01*
X0197571Y0175705D02*
X0197736Y0175705D01*
X0197844Y0175116D02*
X0197463Y0175116D01*
X0197387Y0174527D02*
X0198433Y0174527D01*
X0199023Y0173937D02*
X0197387Y0173937D01*
X0197387Y0173348D02*
X0299717Y0173348D01*
X0299473Y0172759D02*
X0197387Y0172759D01*
X0197387Y0172170D02*
X0299311Y0172170D01*
X0299311Y0171581D02*
X0197387Y0171581D01*
X0197387Y0170992D02*
X0255789Y0170992D01*
X0255200Y0170403D02*
X0197387Y0170403D01*
X0197387Y0169814D02*
X0254823Y0169814D01*
X0254823Y0169225D02*
X0197387Y0169225D01*
X0197387Y0168636D02*
X0254823Y0168636D01*
X0254913Y0168047D02*
X0197387Y0168047D01*
X0197387Y0167458D02*
X0255007Y0167458D01*
X0255007Y0166869D02*
X0197387Y0166869D01*
X0197387Y0166280D02*
X0255007Y0166280D01*
X0255007Y0165691D02*
X0197387Y0165691D01*
X0197387Y0165102D02*
X0255007Y0165102D01*
X0255007Y0164512D02*
X0197387Y0164512D01*
X0197387Y0163923D02*
X0255360Y0163923D01*
X0255949Y0163334D02*
X0197387Y0163334D01*
X0197387Y0162745D02*
X0235338Y0162745D01*
X0235686Y0163093D02*
X0234350Y0161758D01*
X0234350Y0159869D01*
X0235686Y0158534D01*
X0237574Y0158534D01*
X0238909Y0159869D01*
X0238909Y0161758D01*
X0237574Y0163093D01*
X0235686Y0163093D01*
X0234749Y0162156D02*
X0197387Y0162156D01*
X0197387Y0161567D02*
X0234350Y0161567D01*
X0234350Y0160978D02*
X0232209Y0160978D01*
X0231669Y0161518D02*
X0229780Y0161518D01*
X0228445Y0160183D01*
X0228445Y0158295D01*
X0229780Y0156959D01*
X0231669Y0156959D01*
X0233004Y0158295D01*
X0233004Y0160183D01*
X0231669Y0161518D01*
X0232798Y0160389D02*
X0234350Y0160389D01*
X0234420Y0159800D02*
X0233004Y0159800D01*
X0233004Y0159211D02*
X0235009Y0159211D01*
X0235598Y0158622D02*
X0233004Y0158622D01*
X0232742Y0158033D02*
X0271881Y0158033D01*
X0272470Y0157444D02*
X0232153Y0157444D01*
X0229296Y0157444D02*
X0207413Y0157444D01*
X0207413Y0156855D02*
X0272724Y0156855D01*
X0272724Y0156266D02*
X0207413Y0156266D01*
X0207157Y0155677D02*
X0272724Y0155677D01*
X0272724Y0155087D02*
X0261328Y0155087D01*
X0261196Y0155219D02*
X0259308Y0155219D01*
X0257972Y0153884D01*
X0257972Y0151995D01*
X0259308Y0150660D01*
X0261196Y0150660D01*
X0262531Y0151995D01*
X0262531Y0153884D01*
X0261196Y0155219D01*
X0261917Y0154498D02*
X0272724Y0154498D01*
X0272724Y0153909D02*
X0262506Y0153909D01*
X0262531Y0153320D02*
X0272724Y0153320D01*
X0272724Y0152731D02*
X0262531Y0152731D01*
X0262531Y0152142D02*
X0272724Y0152142D01*
X0272724Y0151553D02*
X0262089Y0151553D01*
X0261500Y0150964D02*
X0272724Y0150964D01*
X0272724Y0150375D02*
X0246738Y0150375D01*
X0246783Y0150964D02*
X0259004Y0150964D01*
X0258415Y0151553D02*
X0246783Y0151553D01*
X0246783Y0152142D02*
X0257972Y0152142D01*
X0257972Y0152731D02*
X0246361Y0152731D01*
X0245772Y0153320D02*
X0257972Y0153320D01*
X0259176Y0155087D02*
X0206568Y0155087D01*
X0207201Y0158033D02*
X0228707Y0158033D01*
X0228445Y0158622D02*
X0206612Y0158622D01*
X0203655Y0158622D02*
X0197387Y0158622D01*
X0197387Y0159211D02*
X0228445Y0159211D01*
X0228445Y0159800D02*
X0197387Y0159800D01*
X0197387Y0160389D02*
X0228651Y0160389D01*
X0229240Y0160978D02*
X0197387Y0160978D01*
X0200425Y0150375D02*
X0211550Y0150375D01*
X0210961Y0149786D02*
X0201015Y0149786D01*
X0201604Y0149197D02*
X0210372Y0149197D01*
X0210335Y0148608D02*
X0202193Y0148608D01*
X0202782Y0148019D02*
X0210335Y0148019D01*
X0210335Y0147430D02*
X0203371Y0147430D01*
X0203960Y0146841D02*
X0210765Y0146841D01*
X0211354Y0146252D02*
X0204549Y0146252D01*
X0205138Y0145662D02*
X0229626Y0145662D01*
X0229626Y0145073D02*
X0205727Y0145073D01*
X0206577Y0144484D02*
X0229626Y0144484D01*
X0229852Y0143895D02*
X0220552Y0143895D01*
X0221141Y0143306D02*
X0230441Y0143306D01*
X0232776Y0142717D02*
X0221587Y0142717D01*
X0221587Y0142128D02*
X0232776Y0142128D01*
X0232776Y0141539D02*
X0221587Y0141539D01*
X0221565Y0140950D02*
X0232797Y0140950D01*
X0233386Y0140361D02*
X0220976Y0140361D01*
X0220387Y0139772D02*
X0233976Y0139772D01*
X0235925Y0139183D02*
X0218437Y0139183D01*
X0218437Y0138594D02*
X0235925Y0138594D01*
X0235925Y0138005D02*
X0218437Y0138005D01*
X0220567Y0146252D02*
X0221197Y0146252D01*
X0223717Y0146252D02*
X0224346Y0146252D01*
X0226866Y0146252D02*
X0229868Y0146252D01*
X0230217Y0146841D02*
X0227455Y0146841D01*
X0227886Y0147430D02*
X0230217Y0147430D01*
X0230217Y0148019D02*
X0227886Y0148019D01*
X0227886Y0148608D02*
X0230697Y0148608D01*
X0231286Y0149197D02*
X0229812Y0149197D01*
X0230401Y0149786D02*
X0231875Y0149786D01*
X0232464Y0150375D02*
X0230990Y0150375D01*
X0231035Y0150964D02*
X0233053Y0150964D01*
X0233642Y0151553D02*
X0231035Y0151553D01*
X0231035Y0152142D02*
X0234231Y0152142D01*
X0234820Y0152731D02*
X0230613Y0152731D01*
X0230024Y0153320D02*
X0240086Y0153320D01*
X0242623Y0153320D02*
X0243236Y0153320D01*
X0243448Y0149197D02*
X0242410Y0149197D01*
X0240299Y0149197D02*
X0236063Y0149197D01*
X0235474Y0148608D02*
X0272724Y0148608D01*
X0272724Y0149197D02*
X0245560Y0149197D01*
X0246149Y0149786D02*
X0272724Y0149786D01*
X0272724Y0148019D02*
X0234885Y0148019D01*
X0234296Y0147430D02*
X0251912Y0147430D01*
X0252221Y0147739D02*
X0250886Y0146404D01*
X0250886Y0144515D01*
X0252221Y0143180D01*
X0254110Y0143180D01*
X0255445Y0144515D01*
X0255445Y0146404D01*
X0254110Y0147739D01*
X0252221Y0147739D01*
X0251323Y0146841D02*
X0242803Y0146841D01*
X0243392Y0146252D02*
X0250886Y0146252D01*
X0250886Y0145662D02*
X0243634Y0145662D01*
X0243634Y0145073D02*
X0250886Y0145073D01*
X0250917Y0144484D02*
X0250277Y0144484D01*
X0249779Y0144983D02*
X0247890Y0144983D01*
X0246555Y0143648D01*
X0246555Y0141759D01*
X0247890Y0140424D01*
X0249779Y0140424D01*
X0251114Y0141759D01*
X0251114Y0143648D01*
X0249779Y0144983D01*
X0250866Y0143895D02*
X0251506Y0143895D01*
X0251114Y0143306D02*
X0252095Y0143306D01*
X0251114Y0142717D02*
X0271892Y0142717D01*
X0271303Y0142128D02*
X0251114Y0142128D01*
X0250894Y0141539D02*
X0270714Y0141539D01*
X0270125Y0140950D02*
X0250305Y0140950D01*
X0248979Y0139772D02*
X0243573Y0139772D01*
X0243634Y0139183D02*
X0248389Y0139183D01*
X0248130Y0138594D02*
X0243634Y0138594D01*
X0243634Y0138005D02*
X0248130Y0138005D01*
X0248130Y0137416D02*
X0243227Y0137416D01*
X0242638Y0136827D02*
X0248338Y0136827D01*
X0248927Y0136237D02*
X0240484Y0136237D01*
X0243023Y0140361D02*
X0269536Y0140361D01*
X0272481Y0143306D02*
X0254236Y0143306D01*
X0254825Y0143895D02*
X0272724Y0143895D01*
X0272724Y0144484D02*
X0255414Y0144484D01*
X0255445Y0145073D02*
X0272724Y0145073D01*
X0272724Y0145662D02*
X0255445Y0145662D01*
X0255445Y0146252D02*
X0272724Y0146252D01*
X0272724Y0146841D02*
X0255008Y0146841D01*
X0254419Y0147430D02*
X0272724Y0147430D01*
X0271292Y0158622D02*
X0237662Y0158622D01*
X0238251Y0159211D02*
X0270703Y0159211D01*
X0270113Y0159800D02*
X0238840Y0159800D01*
X0238909Y0160389D02*
X0258895Y0160389D01*
X0258305Y0160978D02*
X0238909Y0160978D01*
X0238909Y0161567D02*
X0257716Y0161567D01*
X0257127Y0162156D02*
X0238511Y0162156D01*
X0237922Y0162745D02*
X0256538Y0162745D01*
X0259519Y0165691D02*
X0300413Y0165691D01*
X0299824Y0166280D02*
X0259198Y0166280D01*
X0259198Y0166869D02*
X0299518Y0166869D01*
X0299311Y0167458D02*
X0259198Y0167458D01*
X0259292Y0168047D02*
X0299311Y0168047D01*
X0299395Y0168636D02*
X0259382Y0168636D01*
X0259382Y0169225D02*
X0299639Y0169225D01*
X0300118Y0169814D02*
X0259382Y0169814D01*
X0259004Y0170403D02*
X0299685Y0170403D01*
X0299441Y0170992D02*
X0258415Y0170992D01*
X0260108Y0165102D02*
X0343685Y0165102D01*
X0343096Y0165691D02*
X0303555Y0165691D01*
X0304144Y0166280D02*
X0343012Y0166280D01*
X0343012Y0166869D02*
X0304450Y0166869D01*
X0304657Y0167458D02*
X0343012Y0167458D01*
X0343395Y0168047D02*
X0304657Y0168047D01*
X0304573Y0168636D02*
X0343984Y0168636D01*
X0344274Y0164512D02*
X0260697Y0164512D01*
X0271916Y0163923D02*
X0343996Y0163923D01*
X0343407Y0163334D02*
X0272505Y0163334D01*
X0273095Y0162745D02*
X0343012Y0162745D01*
X0343012Y0162156D02*
X0273684Y0162156D01*
X0274273Y0161567D02*
X0343012Y0161567D01*
X0343084Y0160978D02*
X0274862Y0160978D01*
X0275451Y0160389D02*
X0343673Y0160389D01*
X0344262Y0159800D02*
X0276040Y0159800D01*
X0299608Y0174527D02*
X0201598Y0174527D01*
X0202187Y0175116D02*
X0299364Y0175116D01*
X0299311Y0175705D02*
X0202295Y0175705D01*
X0202295Y0176294D02*
X0299311Y0176294D01*
X0299550Y0176883D02*
X0202295Y0176883D01*
X0201936Y0177472D02*
X0299901Y0177472D01*
X0300519Y0178061D02*
X0201347Y0178061D01*
X0201009Y0173937D02*
X0300041Y0173937D01*
X0331810Y0180417D02*
X0332788Y0180417D01*
X0354650Y0160978D02*
X0370361Y0160978D01*
X0370774Y0160389D02*
X0355239Y0160389D01*
X0355828Y0159800D02*
X0371540Y0159800D01*
X0373964Y0159800D02*
X0424598Y0159800D01*
X0424598Y0160389D02*
X0374730Y0160389D01*
X0375143Y0160978D02*
X0424598Y0160978D01*
X0424598Y0161567D02*
X0375387Y0161567D01*
X0375425Y0162156D02*
X0424598Y0162156D01*
X0424598Y0162745D02*
X0375416Y0162745D01*
X0375172Y0163334D02*
X0424598Y0163334D01*
X0424598Y0163923D02*
X0374801Y0163923D01*
X0374134Y0164512D02*
X0424598Y0164512D01*
X0424598Y0159211D02*
X0355839Y0159211D01*
X0355839Y0158622D02*
X0424598Y0158622D01*
X0424598Y0158033D02*
X0355839Y0158033D01*
X0355381Y0157444D02*
X0424598Y0157444D01*
X0424598Y0156855D02*
X0354792Y0156855D01*
X0358451Y0146252D02*
X0360281Y0146252D01*
X0359692Y0145662D02*
X0359040Y0145662D01*
X0359033Y0142717D02*
X0359475Y0142717D01*
X0359283Y0142128D02*
X0360064Y0142128D01*
X0355531Y0139772D02*
X0338103Y0139772D01*
X0335550Y0139772D02*
X0335090Y0139772D01*
X0335090Y0139183D02*
X0342090Y0139183D01*
X0341501Y0138594D02*
X0335090Y0138594D01*
X0335090Y0138005D02*
X0341043Y0138005D01*
X0341043Y0137416D02*
X0335090Y0137416D01*
X0335090Y0136827D02*
X0341043Y0136827D01*
X0341053Y0136237D02*
X0335090Y0136237D01*
X0335090Y0135648D02*
X0341642Y0135648D01*
X0342231Y0135059D02*
X0335090Y0135059D01*
X0335090Y0134470D02*
X0344395Y0134470D01*
X0344984Y0133881D02*
X0335104Y0133881D01*
X0335090Y0133349D02*
X0334959Y0133033D01*
X0334868Y0132703D01*
X0347173Y0133881D02*
X0424598Y0133881D01*
X0424598Y0134470D02*
X0354455Y0134470D01*
X0355044Y0135059D02*
X0424598Y0135059D01*
X0424598Y0135648D02*
X0355633Y0135648D01*
X0355642Y0136237D02*
X0424598Y0136237D01*
X0424598Y0136827D02*
X0355642Y0136827D01*
X0355642Y0137416D02*
X0424598Y0137416D01*
X0424598Y0138005D02*
X0355182Y0138005D01*
X0354593Y0138594D02*
X0424598Y0138594D01*
X0374235Y0116209D02*
X0373041Y0116209D01*
X0373630Y0115620D02*
X0373646Y0115620D01*
X0374065Y0112675D02*
X0373211Y0112675D01*
X0372622Y0112086D02*
X0374654Y0112086D01*
X0370717Y0112086D02*
X0368685Y0112086D01*
X0369274Y0112675D02*
X0370128Y0112675D01*
X0369709Y0115620D02*
X0369693Y0115620D01*
X0369104Y0116209D02*
X0370298Y0116209D01*
X0365453Y0115031D02*
X0365331Y0115031D01*
X0365453Y0114442D02*
X0362138Y0114442D01*
X0362138Y0113853D02*
X0365453Y0113853D01*
X0365601Y0113264D02*
X0361989Y0113264D01*
X0361400Y0112675D02*
X0366191Y0112675D01*
X0366780Y0112086D02*
X0360811Y0112086D01*
X0358906Y0112086D02*
X0356874Y0112086D01*
X0357463Y0112675D02*
X0358317Y0112675D01*
X0357898Y0115620D02*
X0357882Y0115620D01*
X0357293Y0116209D02*
X0358487Y0116209D01*
X0361230Y0116209D02*
X0361909Y0116209D01*
X0361909Y0116798D02*
X0350404Y0116798D01*
X0349815Y0117387D02*
X0361909Y0117387D01*
X0361819Y0115620D02*
X0362458Y0115620D01*
X0362138Y0115031D02*
X0363047Y0115031D01*
X0354550Y0116209D02*
X0353356Y0116209D01*
X0353945Y0115620D02*
X0353961Y0115620D01*
X0354380Y0112675D02*
X0353526Y0112675D01*
X0352937Y0112086D02*
X0354969Y0112086D01*
X0323644Y0126223D02*
X0279276Y0126223D01*
X0279276Y0126812D02*
X0323903Y0126812D01*
X0347762Y0134470D02*
X0352269Y0134470D01*
X0351680Y0135059D02*
X0348351Y0135059D01*
X0348358Y0135648D02*
X0351091Y0135648D01*
X0351083Y0136237D02*
X0348358Y0136237D01*
X0348358Y0136827D02*
X0351083Y0136827D01*
X0351083Y0137416D02*
X0347897Y0137416D01*
X0347308Y0138005D02*
X0351542Y0138005D01*
X0354539Y0140361D02*
X0354942Y0140361D01*
X0354724Y0143895D02*
X0354508Y0143895D01*
X0364516Y0175705D02*
X0366224Y0175705D01*
X0365401Y0176294D02*
X0365339Y0176294D01*
X0270572Y0132703D02*
X0267804Y0132703D01*
X0268393Y0133292D02*
X0269983Y0133292D01*
X0269394Y0133881D02*
X0268983Y0133881D01*
X0247364Y0140950D02*
X0243612Y0140950D01*
X0243634Y0141539D02*
X0246775Y0141539D01*
X0246555Y0142128D02*
X0243634Y0142128D01*
X0243634Y0142717D02*
X0246555Y0142717D01*
X0246555Y0143306D02*
X0243188Y0143306D01*
X0243408Y0143895D02*
X0246803Y0143895D01*
X0247392Y0144484D02*
X0243634Y0144484D01*
X0239906Y0146841D02*
X0236504Y0146841D01*
X0227488Y0153320D02*
X0226875Y0153320D01*
X0230181Y0137416D02*
X0233630Y0137416D01*
X0233041Y0136827D02*
X0230770Y0136827D01*
X0231035Y0136237D02*
X0232776Y0136237D01*
X0232776Y0135648D02*
X0231035Y0135648D01*
X0231035Y0135059D02*
X0232776Y0135059D01*
X0232978Y0134470D02*
X0230833Y0134470D01*
X0230244Y0133881D02*
X0233245Y0133881D01*
X0236567Y0124456D02*
X0236693Y0124456D01*
X0239717Y0124456D02*
X0239842Y0124456D01*
X0220945Y0124456D02*
X0220819Y0124456D01*
X0216857Y0117387D02*
X0208477Y0117387D01*
X0209066Y0116798D02*
X0217446Y0116798D01*
X0218035Y0116209D02*
X0209655Y0116209D01*
X0209776Y0115620D02*
X0218624Y0115620D01*
X0219213Y0115031D02*
X0209776Y0115031D01*
X0206515Y0117387D02*
X0200209Y0117387D01*
X0200798Y0116798D02*
X0205926Y0116798D01*
X0205337Y0116209D02*
X0201387Y0116209D01*
X0201508Y0115620D02*
X0205217Y0115620D01*
X0205217Y0115031D02*
X0201508Y0115031D01*
X0201508Y0114442D02*
X0205217Y0114442D01*
X0205564Y0113853D02*
X0201161Y0113853D01*
X0200572Y0113264D02*
X0206153Y0113264D01*
X0206493Y0111497D02*
X0206924Y0111497D01*
X0203774Y0111497D02*
X0054173Y0111497D01*
X0054173Y0110908D02*
X0203185Y0110908D01*
X0202854Y0110319D02*
X0054173Y0110319D01*
X0054173Y0109730D02*
X0202854Y0109730D01*
X0202854Y0109141D02*
X0054173Y0109141D01*
X0054173Y0108552D02*
X0202991Y0108552D01*
X0203580Y0107962D02*
X0196642Y0107962D01*
X0197231Y0107373D02*
X0204169Y0107373D01*
X0206098Y0107373D02*
X0207319Y0107373D01*
X0206730Y0107962D02*
X0206688Y0107962D01*
X0209248Y0107373D02*
X0242958Y0107373D01*
X0242369Y0106784D02*
X0197820Y0106784D01*
X0197965Y0106195D02*
X0242224Y0106195D01*
X0242224Y0105606D02*
X0197965Y0105606D01*
X0197965Y0105017D02*
X0242224Y0105017D01*
X0242548Y0104428D02*
X0197641Y0104428D01*
X0197052Y0103839D02*
X0243137Y0103839D01*
X0243547Y0107962D02*
X0209837Y0107962D01*
X0210426Y0108552D02*
X0222676Y0108552D01*
X0222087Y0109141D02*
X0210563Y0109141D01*
X0210563Y0109730D02*
X0221752Y0109730D01*
X0221752Y0110319D02*
X0210563Y0110319D01*
X0210232Y0110908D02*
X0221752Y0110908D01*
X0245461Y0107962D02*
X0245558Y0107962D01*
X0208021Y0126223D02*
X0191506Y0126223D01*
X0190917Y0126812D02*
X0207432Y0126812D01*
X0206843Y0127402D02*
X0190328Y0127402D01*
X0189739Y0127991D02*
X0206254Y0127991D01*
X0203432Y0137416D02*
X0203409Y0137416D01*
X0168693Y0127991D02*
X0164606Y0127991D01*
X0165195Y0127402D02*
X0168104Y0127402D01*
X0167815Y0126812D02*
X0165681Y0126812D01*
X0165681Y0126223D02*
X0167815Y0126223D01*
X0167815Y0125634D02*
X0165681Y0125634D01*
X0165681Y0125045D02*
X0167993Y0125045D01*
X0166541Y0122689D02*
X0054173Y0122689D01*
X0054173Y0122100D02*
X0165952Y0122100D01*
X0165453Y0121511D02*
X0054173Y0121511D01*
X0054173Y0120922D02*
X0165453Y0120922D01*
X0165453Y0120333D02*
X0054173Y0120333D01*
X0054173Y0119744D02*
X0165453Y0119744D01*
X0166010Y0119155D02*
X0131513Y0119155D01*
X0132102Y0118566D02*
X0166599Y0118566D01*
X0162282Y0123867D02*
X0126214Y0123867D01*
X0126606Y0124456D02*
X0161693Y0124456D01*
X0161122Y0125045D02*
X0126606Y0125045D01*
X0126606Y0125634D02*
X0161122Y0125634D01*
X0161122Y0126223D02*
X0126530Y0126223D01*
X0125941Y0126812D02*
X0159533Y0126812D01*
X0158944Y0127402D02*
X0125352Y0127402D01*
X0126001Y0119155D02*
X0129149Y0119155D01*
X0128560Y0118566D02*
X0126590Y0118566D01*
X0127098Y0117977D02*
X0128051Y0117977D01*
X0123637Y0119155D02*
X0120489Y0119155D01*
X0121078Y0118566D02*
X0123048Y0118566D01*
X0122539Y0117977D02*
X0121587Y0117977D01*
X0118125Y0119155D02*
X0114977Y0119155D01*
X0115566Y0118566D02*
X0117536Y0118566D01*
X0117028Y0117977D02*
X0116075Y0117977D01*
X0112613Y0119155D02*
X0054173Y0119155D01*
X0054173Y0118566D02*
X0112024Y0118566D01*
X0111516Y0117977D02*
X0054173Y0117977D01*
X0054173Y0117387D02*
X0111516Y0117387D01*
X0111516Y0116798D02*
X0054173Y0116798D01*
X0054173Y0116209D02*
X0111516Y0116209D01*
X0112064Y0115620D02*
X0054173Y0115620D01*
X0054173Y0107962D02*
X0194728Y0107962D01*
X0194139Y0107373D02*
X0054173Y0107373D01*
X0054173Y0106784D02*
X0193550Y0106784D01*
X0193406Y0106195D02*
X0054173Y0106195D01*
X0054173Y0090291D02*
X0204805Y0090291D01*
X0205394Y0089702D02*
X0054173Y0089702D01*
X0054173Y0089112D02*
X0205983Y0089112D01*
X0195855Y0083222D02*
X0194154Y0083222D01*
X0193924Y0082633D02*
X0196023Y0082633D01*
X0196294Y0082044D02*
X0193680Y0082044D01*
X0193345Y0081455D02*
X0196692Y0081455D01*
X0197284Y0080866D02*
X0192756Y0080866D01*
X0191992Y0080277D02*
X0198256Y0080277D01*
X0187725Y0080277D02*
X0181992Y0080277D01*
X0182291Y0080401D02*
X0183500Y0081609D01*
X0184154Y0083188D01*
X0184154Y0084896D01*
X0183500Y0086475D01*
X0182291Y0087683D01*
X0180713Y0088337D01*
X0179004Y0088337D01*
X0177425Y0087683D01*
X0176217Y0086475D01*
X0175563Y0084896D01*
X0175563Y0083188D01*
X0176217Y0081609D01*
X0177425Y0080401D01*
X0179004Y0079747D01*
X0180713Y0079747D01*
X0182291Y0080401D01*
X0182756Y0080866D02*
X0186960Y0080866D01*
X0186371Y0081455D02*
X0183345Y0081455D01*
X0183680Y0082044D02*
X0186037Y0082044D01*
X0185793Y0082633D02*
X0183924Y0082633D01*
X0184154Y0083222D02*
X0185563Y0083222D01*
X0185563Y0083811D02*
X0184154Y0083811D01*
X0184154Y0084400D02*
X0185563Y0084400D01*
X0185601Y0084989D02*
X0184115Y0084989D01*
X0183871Y0085578D02*
X0185845Y0085578D01*
X0186089Y0086167D02*
X0183627Y0086167D01*
X0183218Y0086756D02*
X0186498Y0086756D01*
X0187087Y0087345D02*
X0182629Y0087345D01*
X0181685Y0087934D02*
X0188031Y0087934D01*
X0178031Y0087934D02*
X0171685Y0087934D01*
X0172291Y0087683D02*
X0170713Y0088337D01*
X0169004Y0088337D01*
X0167425Y0087683D01*
X0166217Y0086475D01*
X0165563Y0084896D01*
X0165563Y0083188D01*
X0166217Y0081609D01*
X0167425Y0080401D01*
X0169004Y0079747D01*
X0170713Y0079747D01*
X0172291Y0080401D01*
X0173500Y0081609D01*
X0174154Y0083188D01*
X0174154Y0084896D01*
X0173500Y0086475D01*
X0172291Y0087683D01*
X0172629Y0087345D02*
X0177087Y0087345D01*
X0176498Y0086756D02*
X0173218Y0086756D01*
X0173627Y0086167D02*
X0176089Y0086167D01*
X0175845Y0085578D02*
X0173871Y0085578D01*
X0174115Y0084989D02*
X0175601Y0084989D01*
X0175563Y0084400D02*
X0174154Y0084400D01*
X0174154Y0083811D02*
X0175563Y0083811D01*
X0175563Y0083222D02*
X0174154Y0083222D01*
X0173924Y0082633D02*
X0175793Y0082633D01*
X0176037Y0082044D02*
X0173680Y0082044D01*
X0173345Y0081455D02*
X0176371Y0081455D01*
X0176960Y0080866D02*
X0172756Y0080866D01*
X0171992Y0080277D02*
X0177725Y0080277D01*
X0167725Y0080277D02*
X0161992Y0080277D01*
X0162756Y0080866D02*
X0166960Y0080866D01*
X0166371Y0081455D02*
X0163345Y0081455D01*
X0163680Y0082044D02*
X0166037Y0082044D01*
X0165793Y0082633D02*
X0163924Y0082633D01*
X0164154Y0083222D02*
X0165563Y0083222D01*
X0165563Y0083811D02*
X0164154Y0083811D01*
X0164154Y0084400D02*
X0165563Y0084400D01*
X0165601Y0084989D02*
X0164115Y0084989D01*
X0163871Y0085578D02*
X0165845Y0085578D01*
X0166089Y0086167D02*
X0163627Y0086167D01*
X0163218Y0086756D02*
X0166498Y0086756D01*
X0167087Y0087345D02*
X0162629Y0087345D01*
X0161685Y0087934D02*
X0168031Y0087934D01*
X0157725Y0080277D02*
X0151887Y0080277D01*
X0151298Y0080866D02*
X0156960Y0080866D01*
X0148734Y0080866D02*
X0146967Y0080866D01*
X0147556Y0080277D02*
X0148145Y0080277D01*
X0148385Y0077331D02*
X0147316Y0077331D01*
X0146727Y0076742D02*
X0148974Y0076742D01*
X0106890Y0124456D02*
X0054173Y0124456D01*
X0054173Y0125045D02*
X0106301Y0125045D01*
X0106299Y0125634D02*
X0054173Y0125634D01*
X0054173Y0126223D02*
X0106299Y0126223D01*
X0106299Y0126812D02*
X0054173Y0126812D01*
X0054173Y0127402D02*
X0106766Y0127402D01*
X0107355Y0127991D02*
X0054173Y0127991D01*
X0054173Y0128580D02*
X0158760Y0128580D01*
X0158760Y0129169D02*
X0054173Y0129169D01*
X0054173Y0129758D02*
X0159043Y0129758D01*
X0159632Y0130347D02*
X0054173Y0130347D01*
X0109803Y0127991D02*
X0158760Y0127991D01*
X0059540Y0072619D02*
X0419232Y0072619D01*
X0420580Y0073208D02*
X0058191Y0073208D01*
X0057381Y0073797D02*
X0421391Y0073797D01*
X0422202Y0074386D02*
X0056570Y0074386D01*
X0056123Y0074975D02*
X0422648Y0074975D01*
X0423076Y0075564D02*
X0055695Y0075564D01*
X0216432Y0198500D02*
X0216432Y0198500D01*
X0216561Y0198678D02*
X0262919Y0198678D01*
X0263049Y0198500D02*
X0263049Y0198500D01*
X0263049Y0198500D01*
X0262491Y0199267D02*
X0216989Y0199267D01*
X0217417Y0199856D02*
X0262063Y0199856D01*
X0262028Y0200445D02*
X0217453Y0200445D01*
X0217453Y0201034D02*
X0262028Y0201034D01*
X0262028Y0201623D02*
X0217453Y0201623D01*
X0217453Y0202212D02*
X0262028Y0202212D01*
X0262028Y0202802D02*
X0217453Y0202802D01*
X0217453Y0203391D02*
X0262028Y0203391D01*
X0262028Y0203980D02*
X0217453Y0203980D01*
X0217043Y0204569D02*
X0262437Y0204569D01*
X0262865Y0205158D02*
X0216615Y0205158D01*
X0263049Y0205410D02*
X0263049Y0205410D01*
D17*
X0241354Y0151365D02*
X0235843Y0151365D01*
X0231906Y0147428D01*
X0231906Y0145066D01*
X0235055Y0145066D02*
X0241354Y0145066D01*
X0256512Y0120459D02*
X0259465Y0117507D01*
X0259465Y0115538D01*
X0187417Y0135617D02*
X0187417Y0136010D01*
D18*
X0187417Y0127349D01*
X0192142Y0122625D01*
X0200803Y0122625D01*
X0205528Y0131680D02*
X0220488Y0116719D01*
X0228756Y0116719D01*
X0236630Y0116719D01*
X0238205Y0117507D01*
X0253559Y0117507D01*
X0256512Y0120459D01*
X0265370Y0129318D01*
X0264976Y0129711D01*
X0269701Y0129711D01*
X0265370Y0129318D02*
X0263399Y0131261D01*
X0274819Y0142681D01*
X0274819Y0158058D01*
X0270488Y0162388D01*
X0259858Y0162388D01*
X0257102Y0165144D01*
X0257102Y0169081D01*
X0205528Y0142310D02*
X0195291Y0152546D01*
X0195291Y0155302D01*
X0195291Y0176168D01*
X0167732Y0155696D02*
X0164583Y0155696D01*
X0167732Y0155696D02*
X0187417Y0136010D01*
X0187417Y0135617D02*
X0201984Y0135617D01*
X0205528Y0131680D02*
X0205528Y0142310D01*
X0250409Y0137979D02*
X0256315Y0137979D01*
X0257304Y0137269D01*
X0263399Y0131261D01*
X0271669Y0134829D02*
X0277181Y0129318D01*
X0277181Y0122231D01*
X0265370Y0110420D01*
X0247654Y0110420D01*
X0247654Y0106877D01*
X0246472Y0105696D01*
X0244504Y0105696D01*
X0247654Y0110420D02*
X0224031Y0110420D01*
X0234661Y0089554D02*
X0234661Y0086404D01*
X0234661Y0084042D01*
D19*
X0213858Y0084042D01*
X0210668Y0082435D01*
X0209858Y0084042D01*
X0211466Y0084852D01*
X0209858Y0088042D01*
X0208251Y0084852D01*
X0209858Y0084042D01*
X0210668Y0085649D01*
X0213858Y0084042D01*
X0209858Y0084042D01*
X0209858Y0088042D01*
X0209858Y0088766D01*
X0205528Y0093097D01*
X0099228Y0093097D01*
X0094504Y0097822D01*
X0094504Y0102546D01*
X0234661Y0084042D02*
X0238992Y0079711D01*
X0317339Y0079711D01*
X0326000Y0087979D01*
X0326000Y0125381D01*
X0332594Y0133845D01*
X0332594Y0141325D01*
X0332594Y0145656D01*
M02*
